  0
SECTION
  2
HEADER
  9
$ACADVER
  1
AC1014
  9
$HANDSEED
  5
FFFF
  9
$MEASUREMENT
 70
     1
  0
ENDSEC
  0
SECTION
  2
TABLES
  0
TABLE
  2
VPORT
  5
8
330
0
100
AcDbSymbolTable
 70
     4
  0
VPORT
  5
2E
330
8
100
AcDbSymbolTableRecord
100
AcDbViewportTableRecord
  2
*ACTIVE
 70
     0
 10
0.0
 20
0.0
 11
1.0
 21
1.0
 12
210.0
 22
148.5
 13
0.0
 23
0.0
 14
10.0
 24
10.0
 15
10.0
 25
10.0
 16
0.0
 26
0.0
 36
1.0
 17
0.0
 27
0.0
 37
0.0
 40
341.0
 41
1.24
 42
50.0
 43
0.0
 44
0.0
 50
0.0
 51
0.0
 71
     0
 72
   100
 73
     1
 74
     3
 75
     0
 76
     0
 77
     0
 78
     0
  0
ENDTAB
  0
TABLE
  2
LTYPE
  5
5
330
0
100
AcDbSymbolTable
 70
     1
  0
LTYPE
  5
14
330
5
100
AcDbSymbolTableRecord
100
AcDbLinetypeTableRecord
  2
BYBLOCK
 70
     0
  3

 72
    65
 73
     0
 40
0.0
  0
LTYPE
  5
15
330
5
100
AcDbSymbolTableRecord
100
AcDbLinetypeTableRecord
  2
BYLAYER
 70
     0
  3

 72
    65
 73
     0
 40
0.0
  0
LTYPE
  5
16
330
5
100
AcDbSymbolTableRecord
100
AcDbLinetypeTableRecord
  2
CONTINUOUS
 70
     0
  3
Solid line
 72
    65
 73
     0
 40
0.0
  0
ENDTAB
  0
TABLE
  2
LAYER
  5
2
100
AcDbSymbolTable
 70
3
  0
LAYER
  5
50
100
AcDbSymbolTableRecord
100
AcDbLayerTableRecord
  2
0
 70
0
  6
CONTINUOUS
  0
LAYER
  5
51
100
AcDbSymbolTableRecord
100
AcDbLayerTableRecord
  2
Layer_1
 70
0
  6
CONTINUOUS
  0
LAYER
  5
52
100
AcDbSymbolTableRecord
100
AcDbLayerTableRecord
  2
text
 70
0
  6
CONTINUOUS
  0
ENDTAB
  0
TABLE
  2
STYLE
  5
3
330
0
100
AcDbSymbolTable
 70
     1
  0
STYLE
  5
11
330
3
100
AcDbSymbolTableRecord
100
AcDbTextStyleTableRecord
  2
STANDARD
 70
     0
 40
0.0
 41
1.0
 50
0.0
 71
     0
 42
2.5
  3
txt
  4

  0
ENDTAB
  0
TABLE
  2
VIEW
  5
6
330
0
100
AcDbSymbolTable
 70
     0
  0
ENDTAB
  0
TABLE
  2
UCS
  5
7
330
0
100
AcDbSymbolTable
 70
     0
  0
ENDTAB
  0
TABLE
  2
APPID
  5
9
330
0
100
AcDbSymbolTable
 70
     2
  0
APPID
  5
12
330
9
100
AcDbSymbolTableRecord
100
AcDbRegAppTableRecord
  2
ACAD
 70
     0
  0
ENDTAB
  0
TABLE
  2
DIMSTYLE
  5
A
330
0
100
AcDbSymbolTable
 70
     1
  0
DIMSTYLE
105
27
330
A
100
AcDbSymbolTableRecord
100
AcDbDimStyleTableRecord
  2
ISO-25
 70
     0
  3

  4

  5

  6

  7

 40
1.0
 41
2.5
 42
0.625
 43
3.75
 44
1.25
 45
0.0
 46
0.0
 47
0.0
 48
0.0
140
2.5
141
2.5
142
0.0
143
0.03937007874016
144
1.0
145
0.0
146
1.0
147
0.625
 71
     0
 72
     0
 73
     0
 74
     0
 75
     0
 76
     0
 77
     1
 78
     8
170
     0
171
     3
172
     1
173
     0
174
     0
175
     0
176
     0
177
     0
178
     0
270
     2
271
     2
272
     2
273
     2
274
     3
340
11
275
     0
280
     0
281
     0
282
     0
283
     0
284
     8
285
     0
286
     0
287
     3
288
     0
  0
ENDTAB
  0
TABLE
  2
BLOCK_RECORD
  5
1
330
0
100
AcDbSymbolTable
 70
     1
  0
BLOCK_RECORD
  5
1F
330
1
100
AcDbSymbolTableRecord
100
AcDbBlockTableRecord
  2
*MODEL_SPACE
  0
BLOCK_RECORD
  5
1B
330
1
100
AcDbSymbolTableRecord
100
AcDbBlockTableRecord
  2
*PAPER_SPACE
  0
ENDTAB
  0
ENDSEC
  0
SECTION
  2
BLOCKS
  0
BLOCK
  5
20
330
1F
100
AcDbEntity
  8
0
100
AcDbBlockBegin
  2
*MODEL_SPACE
 70
     0
 10
0.0
 20
0.0
 30
0.0
  3
*MODEL_SPACE
  1

  0
ENDBLK
  5
21
330
1F
100
AcDbEntity
  8
0
100
AcDbBlockEnd
  0
BLOCK
  5
1C
330
1B
100
AcDbEntity
 67
     1
  8
0
100
AcDbBlockBegin
  2
*PAPER_SPACE
  1

  0
ENDBLK
  5
1D
330
1B
100
AcDbEntity
 67
     1
  8
0
100
AcDbBlockEnd
  0
ENDSEC
  0
SECTION
  2
ENTITIES
  0
SPLINE
  5
100
100
AcDbEntity
  8
Layer_1
 62
1
100
AcDbSpline
 70
0
 71
3
 72
10
 73
6
 74
4
 40
0.000000
 40
0.000000
 40
0.000000
 40
0.000000
 40
22.977907
 40
45.638917
 40
68.388081
 40
68.388081
 40
68.388081
 40
68.388081
 10
463.198718
 20
453.584013
 30
0.0
 10
458.359041
 20
447.605134
 30
0.0
 10
448.746434
 20
435.729833
 30
0.0
 10
428.978062
 20
423.296891
 30
0.0
 10
414.196792
 20
419.756742
 30
0.0
 10
406.791809
 20
417.983231
 30
0.0
 11
463.198718
 21
453.584013
 31
0.0
 11
447.772253
 21
436.554380
 31
0.0
 11
428.591417
 21
424.487198
 31
0.0
 11
406.791809
 21
417.983231
 31
0.0
  0
LWPOLYLINE
  5
101
100
AcDbEntity
  8
Layer_1
 62
1
100
AcDbPolyline
 90
6
 70
1
 10
406.791809
 20
417.983231
 30
0.0
 10
406.791809
 20
416.994353
 30
0.0
 10
406.791809
 20
378.894356
 30
0.0
 10
381.391809
 20
378.894356
 30
0.0
 10
381.391809
 20
416.994353
 30
0.0
 10
381.391809
 20
417.982131
 30
0.0
  0
LWPOLYLINE
  5
102
100
AcDbEntity
  8
Layer_1
 62
1
100
AcDbPolyline
 90
15
 70
1
 10
324.981514
 20
453.581247
 30
0.0
 10
314.194980
 20
447.353618
 30
0.0
 10
256.467283
 20
414.024390
 30
0.0
 10
181.695903
 20
370.855425
 30
0.0
 10
179.790903
 20
369.755746
 30
0.0
 10
179.790903
 20
352.394674
 30
0.0
 10
256.467283
 20
352.394674
 30
0.0
 10
531.716629
 20
352.394674
 30
0.0
 10
608.392738
 20
352.394674
 30
0.0
 10
608.392738
 20
369.755746
 30
0.0
 10
606.487738
 20
370.855425
 30
0.0
 10
560.140640
 20
397.614156
 30
0.0
 10
491.956880
 20
436.980315
 30
0.0
 10
463.198718
 20
453.584013
 30
0.0
 10
463.198718
 20
453.584013
 30
0.0
  0
SPLINE
  5
103
100
AcDbEntity
  8
Layer_1
 62
1
100
AcDbSpline
 70
0
 71
3
 72
10
 73
6
 74
4
 40
0.000000
 40
0.000000
 40
0.000000
 40
0.000000
 40
22.749660
 40
45.411292
 40
68.390219
 40
68.390219
 40
68.390219
 40
68.390219
 10
381.391809
 20
417.982131
 30
0.0
 10
373.986538
 20
419.755190
 30
0.0
 10
359.204650
 20
423.294449
 30
0.0
 10
339.435153
 20
435.727035
 30
0.0
 10
329.821671
 20
447.602324
 30
0.0
 10
324.981514
 20
453.581247
 30
0.0
 11
381.391809
 21
417.982131
 31
0.0
 11
359.591324
 21
424.484888
 31
0.0
 11
340.409421
 21
436.551544
 31
0.0
 11
324.981514
 21
453.581247
 31
0.0
  0
SPLINE
  5
104
100
AcDbEntity
  8
Layer_1
 62
1
100
AcDbSpline
 70
0
 71
3
 72
13
 73
9
 74
7
 40
0.000000
 40
0.000000
 40
0.000000
 40
0.000000
 40
3.716130
 40
10.617514
 40
14.333643
 40
44.995702
 40
75.178534
 40
105.840593
 40
105.840593
 40
105.840593
 40
105.840593
 10
348.079427
 20
693.359584
 30
0.0
 10
348.075303
 20
692.118687
 30
0.0
 10
348.063519
 20
688.573267
 30
0.0
 10
348.183965
 20
683.859253
 30
0.0
 10
347.322572
 20
669.642637
 30
0.0
 10
377.246175
 20
663.989471
 30
0.0
 10
389.536614
 20
634.551074
 30
0.0
 10
392.370860
 20
614.542611
 30
0.0
 10
393.799145
 20
604.459584
 30
0.0
 11
348.079427
 21
693.359584
 31
0.0
 11
348.079427
 21
689.643454
 31
0.0
 11
348.079427
 21
682.742070
 31
0.0
 11
348.079427
 21
679.025940
 31
0.0
 11
372.381849
 21
660.329574
 31
0.0
 11
388.158706
 21
634.598384
 31
0.0
 11
393.799145
 21
604.459584
 31
0.0
  0
LWPOLYLINE
  5
105
100
AcDbEntity
  8
Layer_1
 62
1
100
AcDbPolyline
 90
7
 70
1
 10
392.528862
 20
515.559713
 30
0.0
 10
392.528862
 20
553.659600
 30
0.0
 10
417.928862
 20
553.659600
 30
0.0
 10
417.928862
 20
655.259584
 30
0.0
 10
392.528862
 20
655.259584
 30
0.0
 10
392.528862
 20
693.359725
 30
0.0
 10
348.079427
 20
693.359584
 30
0.0
  0
SPLINE
  5
106
100
AcDbEntity
  8
Layer_1
 62
1
100
AcDbSpline
 70
0
 71
3
 72
10
 73
6
 74
4
 40
0.000000
 40
0.000000
 40
0.000000
 40
0.000000
 40
30.691729
 40
60.902903
 40
91.594632
 40
91.594632
 40
91.594632
 40
91.594632
 10
393.799145
 20
604.459584
 30
0.0
 10
392.673572
 20
594.209485
 30
0.0
 10
390.440051
 20
573.869779
 30
0.0
 10
373.800364
 20
546.699128
 30
0.0
 10
356.697867
 20
535.465391
 30
0.0
 10
348.079145
 20
529.804203
 30
0.0
 11
393.799145
 21
604.459584
 31
0.0
 11
388.179826
 21
574.286657
 31
0.0
 11
372.401776
 21
548.522959
 31
0.0
 11
348.079145
 21
529.804203
 31
0.0
  0
SPLINE
  5
107
100
AcDbEntity
  8
Layer_1
 62
1
100
AcDbSpline
 70
0
 71
3
 72
13
 73
9
 74
7
 40
0.000000
 40
0.000000
 40
0.000000
 40
0.000000
 40
3.716174
 40
10.617641
 40
14.333815
 40
44.995910
 40
75.178778
 40
105.840873
 40
105.840873
 40
105.840873
 40
105.840873
 10
459.465482
 20
636.615984
 30
0.0
 10
458.841444
 20
635.543391
 30
0.0
 10
457.058476
 20
632.478841
 30
0.0
 10
454.805713
 20
628.336136
 30
0.0
 10
446.951239
 20
616.454906
 30
0.0
 10
470.039680
 20
596.597350
 30
0.0
 10
465.964486
 20
564.957703
 30
0.0
 10
458.414925
 20
546.212657
 30
0.0
 10
454.610414
 20
536.766314
 30
0.0
 11
459.465482
 21
636.615984
 31
0.0
 11
457.607363
 21
633.397701
 31
0.0
 11
454.156569
 21
627.420891
 31
0.0
 11
452.298449
 21
624.202608
 31
0.0
 11
463.997035
 21
595.859934
 31
0.0
 11
464.794843
 21
565.687613
 31
0.0
 11
454.610414
 21
536.766314
 31
0.0
  0
LWPOLYLINE
  5
108
100
AcDbEntity
  8
Layer_1
 62
1
100
AcDbPolyline
 90
4
 70
1
 10
348.079145
 20
529.804203
 30
0.0
 10
348.079145
 20
515.559572
 30
0.0
 10
392.528580
 20
515.559713
 30
0.0
 10
392.528862
 20
515.559713
 30
0.0
  0
LWPOLYLINE
  5
109
100
AcDbEntity
  8
Layer_1
 62
1
100
AcDbPolyline
 90
6
 70
1
 10
377.687925
 20
494.972759
 30
0.0
 10
370.565482
 20
482.636657
 30
0.0
 10
431.056429
 20
447.712266
 30
0.0
 10
519.956429
 20
601.691604
 30
0.0
 10
459.465482
 20
636.615984
 30
0.0
 10
459.465482
 20
636.615984
 30
0.0
  0
SPLINE
  5
10a
100
AcDbEntity
  8
Layer_1
 62
1
100
AcDbSpline
 70
0
 71
3
 72
10
 73
6
 74
4
 40
0.000000
 40
0.000000
 40
0.000000
 40
0.000000
 40
30.691787
 40
60.903017
 40
91.594804
 40
91.594804
 40
91.594804
 40
91.594804
 10
454.610414
 20
536.766314
 30
0.0
 10
448.510588
 20
528.452232
 30
0.0
 10
436.406446
 20
511.954244
 30
0.0
 10
408.410677
 20
496.743573
 30
0.0
 10
387.982572
 20
495.566127
 30
0.0
 10
377.687925
 20
494.972759
 30
0.0
 11
454.610414
 21
536.766314
 31
0.0
 11
434.657464
 21
513.445388
 31
0.0
 11
408.111379
 21
499.022359
 31
0.0
 11
377.687925
 21
494.972759
 31
0.0
  0
SPLINE
  5
10b
100
AcDbEntity
  8
Layer_1
 62
1
100
AcDbSpline
 70
0
 71
3
 72
10
 73
6
 74
4
 40
0.000000
 40
0.000000
 40
0.000000
 40
0.000000
 40
12.501505
 40
24.968633
 40
37.470138
 40
37.470138
 40
37.470138
 40
37.470138
 10
268.772172
 20
508.580019
 30
0.0
 10
264.937877
 20
506.935186
 30
0.0
 10
257.279831
 20
503.650042
 30
0.0
 10
245.018156
 20
500.827989
 30
0.0
 10
236.694496
 20
500.434907
 30
0.0
 10
232.526936
 20
500.238095
 30
0.0
 11
268.772172
 21
508.580019
 31
0.0
 11
257.140771
 21
503.997646
 31
0.0
 11
244.991271
 21
501.201411
 31
0.0
 11
232.526936
 21
500.238095
 31
0.0
  0
LWPOLYLINE
  5
10c
100
AcDbEntity
  8
Layer_1
 62
1
100
AcDbPolyline
 90
8
 70
1
 10
99.641491
 20
476.105826
 30
0.0
 10
139.646767
 20
476.105826
 30
0.0
 10
139.646767
 20
446.433263
 30
0.0
 10
289.079460
 20
446.433263
 30
0.0
 10
304.652482
 20
446.433263
 30
0.0
 10
300.534296
 20
453.565583
 30
0.0
 10
289.079460
 20
473.406088
 30
0.0
 10
268.772172
 20
508.580019
 30
0.0
  0
LWPOLYLINE
  5
10d
100
AcDbEntity
  8
Layer_1
 62
1
100
AcDbPolyline
 90
4
 70
1
 10
149.011183
 20
577.708095
 30
0.0
 10
99.641491
 20
577.708095
 30
0.0
 10
99.641491
 20
476.105826
 30
0.0
 10
99.641491
 20
476.105826
 30
0.0
  0
SPLINE
  5
10e
100
AcDbEntity
  8
Layer_1
 62
1
100
AcDbSpline
 70
0
 71
3
 72
10
 73
6
 74
4
 40
0.000000
 40
0.000000
 40
0.000000
 40
0.000000
 40
41.699585
 40
82.263719
 40
123.963304
 40
123.963304
 40
123.963304
 40
123.963304
 10
232.526936
 20
500.238095
 30
0.0
 10
218.564122
 20
502.333286
 30
0.0
 10
191.018691
 20
506.466618
 30
0.0
 10
158.335421
 20
536.783927
 30
0.0
 10
152.147731
 20
563.941756
 30
0.0
 10
149.011183
 20
577.708095
 30
0.0
 11
232.526936
 21
500.238095
 31
0.0
 11
192.143282
 21
510.631162
 31
0.0
 11
162.403886
 21
538.217705
 31
0.0
 11
149.011183
 21
577.708095
 31
0.0
  0
SPLINE
  5
10f
100
AcDbEntity
  8
Layer_1
 62
1
100
AcDbSpline
 70
0
 71
3
 72
10
 73
6
 74
4
 40
0.000000
 40
0.000000
 40
0.000000
 40
0.000000
 40
12.501526
 40
24.968676
 40
37.470202
 40
37.470202
 40
37.470202
 40
37.470202
 10
521.141480
 20
509.272903
 30
0.0
 10
524.975769
 20
507.628037
 30
0.0
 10
532.633802
 20
504.342829
 30
0.0
 10
544.895478
 20
501.520680
 30
0.0
 10
553.219150
 20
501.127538
 30
0.0
 10
557.386716
 20
500.930696
 30
0.0
 11
521.141480
 21
509.272903
 31
0.0
 11
532.772866
 21
504.690433
 31
0.0
 11
544.922366
 21
501.894103
 31
0.0
 11
557.386716
 21
500.930696
 31
0.0
  0
LWPOLYLINE
  5
110
100
AcDbEntity
  8
Layer_1
 62
1
100
AcDbPolyline
 90
8
 70
1
 10
690.271896
 20
476.798427
 30
0.0
 10
650.266896
 20
476.798427
 30
0.0
 10
650.266896
 20
447.126147
 30
0.0
 10
500.834180
 20
447.126147
 30
0.0
 10
485.261158
 20
447.126147
 30
0.0
 10
489.379345
 20
454.258185
 30
0.0
 10
500.834180
 20
474.098689
 30
0.0
 10
521.141480
 20
509.272903
 30
0.0
  0
LWPOLYLINE
  5
111
100
AcDbEntity
  8
Layer_1
 62
1
100
AcDbPolyline
 90
4
 70
1
 10
640.902198
 20
578.400696
 30
0.0
 10
690.271896
 20
578.400696
 30
0.0
 10
690.271896
 20
476.798427
 30
0.0
 10
690.271896
 20
476.798427
 30
0.0
  0
LWPOLYLINE
  5
112
100
AcDbEntity
  8
Layer_1
 62
1
100
AcDbPolyline
 90
7
 70
1
 10
512.524671
 20
441.294702
 30
0.0
 10
512.524671
 20
428.690065
 30
0.0
 10
644.671558
 20
352.394702
 30
0.0
 10
698.750698
 20
352.394702
 30
0.0
 10
698.750698
 20
441.294702
 30
0.0
 10
512.524671
 20
441.294702
 30
0.0
 10
512.524671
 20
441.294702
 30
0.0
  0
LWPOLYLINE
  5
113
100
AcDbEntity
  8
Layer_1
 62
1
100
AcDbPolyline
 90
7
 70
1
 10
275.658676
 20
441.294646
 30
0.0
 10
275.658676
 20
428.690009
 30
0.0
 10
143.512083
 20
352.394646
 30
0.0
 10
89.432948
 20
352.394646
 30
0.0
 10
89.432948
 20
441.294646
 30
0.0
 10
275.658676
 20
441.294646
 30
0.0
 10
275.658676
 20
441.294646
 30
0.0
  0
LWPOLYLINE
  5
114
100
AcDbEntity
  8
Layer_1
 62
1
100
AcDbPolyline
 90
5
 70
1
 10
706.738800
 20
798.835906
 30
0.0
 10
706.738800
 20
582.931461
 30
0.0
 10
528.938750
 20
582.931461
 30
0.0
 10
528.938750
 20
798.835906
 30
0.0
 10
706.738800
 20
798.835906
 30
0.0
  0
LWPOLYLINE
  5
115
100
AcDbEntity
  8
Layer_1
 62
1
100
AcDbPolyline
 90
18
 70
1
 10
135.339492
 20
340.215261
 30
0.0
 10
135.339492
 20
306.653424
 30
0.0
 10
84.539497
 20
306.653424
 30
0.0
 10
84.539497
 20
269.095290
 30
0.0
 10
694.139469
 20
269.095290
 30
0.0
 10
694.139469
 20
306.653452
 30
0.0
 10
643.339469
 20
306.653452
 30
0.0
 10
643.339469
 20
340.215318
 30
0.0
 10
507.872802
 20
340.215318
 30
0.0
 10
507.872802
 20
306.653452
 30
0.0
 10
457.072802
 20
306.653452
 30
0.0
 10
457.072802
 20
340.215318
 30
0.0
 10
321.606136
 20
340.215318
 30
0.0
 10
321.606136
 20
306.653452
 30
0.0
 10
270.806147
 20
306.653452
 30
0.0
 10
270.806147
 20
340.215318
 30
0.0
 10
135.339492
 20
340.215318
 30
0.0
 10
135.339492
 20
340.215261
 30
0.0
  0
LWPOLYLINE
  5
116
100
AcDbEntity
  8
Layer_1
 62
1
100
AcDbPolyline
 90
14
 70
1
 10
139.486465
 20
264.397955
 30
0.0
 10
139.486465
 20
230.836088
 30
0.0
 10
88.686471
 20
230.836088
 30
0.0
 10
88.686471
 20
193.277955
 30
0.0
 10
545.886442
 20
193.277955
 30
0.0
 10
545.886442
 20
230.836088
 30
0.0
 10
495.086442
 20
230.836088
 30
0.0
 10
495.086442
 20
264.397955
 30
0.0
 10
342.686442
 20
264.397955
 30
0.0
 10
342.686442
 20
230.836088
 30
0.0
 10
291.886442
 20
230.836088
 30
0.0
 10
291.886442
 20
264.397955
 30
0.0
 10
139.486465
 20
264.397955
 30
0.0
 10
139.486465
 20
264.397955
 30
0.0
  0
SPLINE
  5
117
100
AcDbEntity
  8
Layer_1
 62
1
100
AcDbSpline
 70
0
 71
3
 72
10
 73
6
 74
4
 40
0.000000
 40
0.000000
 40
0.000000
 40
0.000000
 40
41.699495
 40
82.263547
 40
123.963042
 40
123.963042
 40
123.963042
 40
123.963042
 10
557.386716
 20
500.930696
 30
0.0
 10
571.349493
 20
503.025923
 30
0.0
 10
598.894852
 20
507.159327
 30
0.0
 10
631.577994
 20
537.476615
 30
0.0
 10
637.765661
 20
564.634388
 30
0.0
 10
640.902198
 20
578.400696
 30
0.0
 11
557.386716
 21
500.930696
 31
0.0
 11
597.770255
 21
511.323849
 31
0.0
 11
627.509545
 21
538.910384
 31
0.0
 11
640.902198
 21
578.400696
 31
0.0
  0
SPLINE
  5
118
100
AcDbEntity
  8
Layer_1
 62
1
100
AcDbSpline
 70
0
 71
3
 72
10
 73
6
 74
4
 40
0.000000
 40
0.000000
 40
0.000000
 40
0.000000
 40
30.662062
 40
60.844898
 40
91.506960
 40
91.506960
 40
91.506960
 40
91.506960
 10
386.344527
 20
455.861292
 30
0.0
 10
377.733703
 20
461.516037
 30
0.0
 10
360.646636
 20
472.737149
 30
0.0
 10
344.009835
 20
499.870865
 30
0.0
 10
341.759060
 20
520.188719
 30
0.0
 10
340.624809
 20
530.427660
 30
0.0
 11
386.344527
 21
455.861292
 31
0.0
 11
362.042102
 21
474.557661
 31
0.0
 11
346.265245
 21
500.288855
 31
0.0
 11
340.624809
 21
530.427660
 31
0.0
  0
LWPOLYLINE
  5
119
100
AcDbEntity
  8
Layer_1
 62
1
100
AcDbPolyline
 90
8
 70
1
 10
341.895091
 20
619.327530
 30
0.0
 10
341.895091
 20
581.227643
 30
0.0
 10
316.495091
 20
581.227643
 30
0.0
 10
316.495091
 20
479.627660
 30
0.0
 10
341.895091
 20
479.627660
 30
0.0
 10
341.895091
 20
441.527507
 30
0.0
 10
386.344527
 20
441.527649
 30
0.0
 10
386.344527
 20
455.861292
 30
0.0
  0
SPLINE
  5
11a
100
AcDbEntity
  8
Layer_1
 62
1
100
AcDbSpline
 70
0
 71
3
 72
10
 73
6
 74
4
 40
0.000000
 40
0.000000
 40
0.000000
 40
0.000000
 40
30.691729
 40
60.902903
 40
91.594632
 40
91.594632
 40
91.594632
 40
91.594632
 10
340.624809
 20
530.427660
 30
0.0
 10
341.750381
 20
540.677758
 30
0.0
 10
343.983903
 20
561.017464
 30
0.0
 10
360.623590
 20
588.188115
 30
0.0
 10
377.726087
 20
599.421852
 30
0.0
 10
386.344809
 20
605.083041
 30
0.0
 11
340.624809
 21
530.427660
 31
0.0
 11
346.244128
 21
560.600586
 31
0.0
 11
362.022178
 21
586.364285
 31
0.0
 11
386.344809
 21
605.083041
 31
0.0
  0
LWPOLYLINE
  5
11b
100
AcDbEntity
  8
Layer_1
 62
1
100
AcDbPolyline
 90
4
 70
1
 10
386.344809
 20
605.083041
 30
0.0
 10
386.344809
 20
619.327671
 30
0.0
 10
341.895374
 20
619.327530
 30
0.0
 10
341.895091
 20
619.327530
 30
0.0
  0
ENDSEC
  0
SECTION
  2
OBJECTS
  0
DICTIONARY
  5
C
330
0
100
AcDbDictionary
  3
ACAD_GROUP
350
D
  3
ACAD_MLINESTYLE
350
17
  0
DICTIONARY
  5
D
330
C
100
AcDbDictionary
  0
DICTIONARY
  5
1A
330
C
100
AcDbDictionary
  0
DICTIONARY
  5
17
330
C
100
AcDbDictionary
  3
STANDARD
350
18
  0
DICTIONARY
  5
19
330
C
100
AcDbDictionary
  0
ENDSEC
  0
EOF
