G75*
G70*
%OFA0B0*%
%FSLAX24Y24*%
%IPPOS*%
%LPD*%
%AMOC8*
5,1,8,0,0,1.08239X$1,22.5*
%
%ADD10C,0.0600*%
%ADD11C,0.0740*%
%ADD12C,0.0660*%
%ADD13OC8,0.0480*%
%ADD14C,0.0740*%
%ADD15R,0.0800X0.0800*%
%ADD16C,0.0800*%
%ADD17C,0.0300*%
%ADD18C,0.0400*%
D10*
X002700Y004200D02*
X003300Y004200D01*
X003400Y005200D02*
X002800Y005200D01*
X002700Y006200D02*
X003300Y006200D01*
X003400Y007200D02*
X002800Y007200D01*
X002700Y008200D02*
X003300Y008200D01*
X003400Y009200D02*
X002800Y009200D01*
X005000Y009200D02*
X005600Y009200D01*
X005500Y008200D02*
X004900Y008200D01*
X005000Y007200D02*
X005600Y007200D01*
X005500Y006200D02*
X004900Y006200D01*
X005000Y005200D02*
X005600Y005200D01*
X005500Y004200D02*
X004900Y004200D01*
X007200Y004200D02*
X007800Y004200D01*
X007900Y005200D02*
X007300Y005200D01*
X007200Y006200D02*
X007800Y006200D01*
X007900Y007200D02*
X007300Y007200D01*
X007200Y008200D02*
X007800Y008200D01*
X007900Y009200D02*
X007300Y009200D01*
X009600Y008200D02*
X010200Y008200D01*
X010300Y007200D02*
X009700Y007200D01*
X009600Y006200D02*
X010200Y006200D01*
X010300Y005200D02*
X009700Y005200D01*
X009600Y004200D02*
X010200Y004200D01*
X011900Y004200D02*
X012500Y004200D01*
X012600Y005200D02*
X012000Y005200D01*
X011900Y006200D02*
X012500Y006200D01*
X012600Y007200D02*
X012000Y007200D01*
X011900Y008200D02*
X012500Y008200D01*
X012600Y009200D02*
X012000Y009200D01*
X010300Y009200D02*
X009700Y009200D01*
X009700Y012200D02*
X009700Y012800D01*
X010700Y012800D02*
X010700Y012200D01*
X008700Y012200D02*
X008700Y012800D01*
X014200Y008200D02*
X014800Y008200D01*
X014900Y007200D02*
X014300Y007200D01*
X014200Y006200D02*
X014800Y006200D01*
X014900Y005200D02*
X014300Y005200D01*
X014200Y004200D02*
X014800Y004200D01*
X016800Y008500D02*
X016800Y009100D01*
X017800Y009100D02*
X017800Y008500D01*
X018800Y008500D02*
X018800Y009100D01*
X014900Y009200D02*
X014300Y009200D01*
X006300Y017900D02*
X006300Y018500D01*
X005300Y018600D02*
X005300Y018000D01*
X004300Y017900D02*
X004300Y018500D01*
X003300Y018600D02*
X003300Y018000D01*
D11*
X009000Y017400D03*
X009000Y016300D03*
X009000Y015200D03*
X012000Y015200D03*
X012000Y016300D03*
X012000Y017400D03*
X013900Y017500D03*
X015400Y018600D03*
X016700Y017500D03*
X018900Y017100D03*
X016700Y014500D03*
X018000Y013900D03*
X019200Y013900D03*
X019200Y010900D03*
X018000Y010900D03*
X013900Y014500D03*
X015400Y015600D03*
X018900Y020100D03*
X011800Y021900D03*
X008800Y021900D03*
D12*
X007600Y018400D03*
X007600Y014400D03*
X018100Y007000D03*
X022100Y007000D03*
D13*
X021500Y012100D03*
X021500Y013100D03*
X021600Y019300D03*
X021600Y020300D03*
X016900Y020400D03*
X016900Y019400D03*
D14*
X002300Y001770D02*
X002300Y001030D01*
X003300Y001030D02*
X003300Y001770D01*
X004300Y001770D02*
X004300Y001030D01*
X005300Y001030D02*
X005300Y001770D01*
X006300Y001770D02*
X006300Y001030D01*
X007300Y001030D02*
X007300Y001770D01*
X008300Y001770D02*
X008300Y001030D01*
X009300Y001030D02*
X009300Y001770D01*
X010800Y001770D02*
X010800Y001030D01*
X011800Y001030D02*
X011800Y001770D01*
X012800Y001770D02*
X012800Y001030D01*
X013800Y001030D02*
X013800Y001770D01*
X014800Y001770D02*
X014800Y001030D01*
X015800Y001030D02*
X015800Y001770D01*
X016800Y001770D02*
X016800Y001030D01*
X017800Y001030D02*
X017800Y001770D01*
X014300Y020030D02*
X014300Y020770D01*
X013300Y020770D02*
X013300Y020030D01*
X012300Y020030D02*
X012300Y020770D01*
X011300Y020770D02*
X011300Y020030D01*
X010300Y020030D02*
X010300Y020770D01*
X009300Y020770D02*
X009300Y020030D01*
X007300Y020030D02*
X007300Y020770D01*
X006300Y020770D02*
X006300Y020030D01*
X005300Y020030D02*
X005300Y020770D01*
X004300Y020770D02*
X004300Y020030D01*
X003300Y020030D02*
X003300Y020770D01*
X002300Y020770D02*
X002300Y020030D01*
D15*
X021400Y008630D03*
X021700Y005070D03*
X021900Y016030D03*
D16*
X021900Y017548D03*
X021400Y010148D03*
X021700Y003552D03*
D17*
X021002Y004198D02*
X020895Y004090D01*
X020750Y003741D01*
X020750Y003363D01*
X020895Y003014D01*
X021162Y002747D01*
X021234Y002717D01*
X021191Y002720D01*
X021191Y002720D01*
X020768Y002613D01*
X020768Y002613D01*
X020403Y002375D01*
X020135Y002031D01*
X019993Y001618D01*
X019993Y001182D01*
X020135Y000769D01*
X020305Y000550D01*
X018597Y000550D01*
X018720Y000847D01*
X018720Y001953D01*
X018580Y002291D01*
X018321Y002550D01*
X017983Y002690D01*
X017617Y002690D01*
X017279Y002550D01*
X017062Y002333D01*
X017038Y002345D01*
X016945Y002375D01*
X016849Y002390D01*
X016800Y002390D01*
X016800Y001400D01*
X016800Y001400D01*
X016800Y002390D01*
X016751Y002390D01*
X016655Y002375D01*
X016562Y002345D01*
X016538Y002333D01*
X016500Y002371D01*
X016500Y005067D01*
X016661Y005000D01*
X019339Y005000D01*
X019597Y005107D01*
X020697Y006207D01*
X020893Y006403D01*
X021000Y006661D01*
X021000Y007680D01*
X021535Y007680D01*
X021354Y007498D01*
X021220Y007175D01*
X021220Y006825D01*
X021354Y006502D01*
X021602Y006254D01*
X021925Y006120D01*
X022275Y006120D01*
X022598Y006254D01*
X022846Y006502D01*
X022980Y006825D01*
X022980Y007175D01*
X022846Y007498D01*
X022598Y007746D01*
X022275Y007880D01*
X022228Y007880D01*
X022266Y007918D01*
X022350Y008121D01*
X022350Y009139D01*
X022266Y009342D01*
X022112Y009496D01*
X022098Y009502D01*
X022205Y009610D01*
X022350Y009959D01*
X022350Y010337D01*
X022205Y010686D01*
X021938Y010953D01*
X021589Y011098D01*
X021211Y011098D01*
X020862Y010953D01*
X020595Y010686D01*
X020450Y010337D01*
X020450Y009959D01*
X020595Y009610D01*
X020702Y009502D01*
X020688Y009496D01*
X020534Y009342D01*
X020450Y009139D01*
X020450Y008750D01*
X020449Y008750D01*
X020151Y008750D01*
X019875Y008636D01*
X019664Y008425D01*
X019550Y008149D01*
X019550Y007851D01*
X019600Y007730D01*
X019600Y007090D01*
X018910Y006400D01*
X018745Y006400D01*
X018846Y006502D01*
X018980Y006825D01*
X018980Y007175D01*
X018846Y007498D01*
X018598Y007746D01*
X018351Y007849D01*
X018521Y008019D01*
X018523Y008024D01*
X018589Y007990D01*
X018671Y007964D01*
X018757Y007950D01*
X018800Y007950D01*
X018843Y007950D01*
X018929Y007964D01*
X019011Y007990D01*
X019088Y008030D01*
X019158Y008080D01*
X019220Y008142D01*
X019270Y008212D01*
X019310Y008289D01*
X019336Y008371D01*
X019350Y008457D01*
X019350Y008800D01*
X019350Y009143D01*
X019336Y009229D01*
X019310Y009311D01*
X019270Y009388D01*
X019220Y009458D01*
X019158Y009520D01*
X019088Y009570D01*
X019011Y009610D01*
X018929Y009636D01*
X018843Y009650D01*
X018800Y009650D01*
X018800Y008800D01*
X018800Y008800D01*
X019350Y008800D01*
X018800Y008800D01*
X018800Y008800D01*
X018800Y009650D01*
X018757Y009650D01*
X018671Y009636D01*
X018589Y009610D01*
X018523Y009576D01*
X018521Y009581D01*
X018281Y009821D01*
X017969Y009950D01*
X017631Y009950D01*
X017319Y009821D01*
X017300Y009802D01*
X017281Y009821D01*
X016969Y009950D01*
X016631Y009950D01*
X016500Y009896D01*
X016500Y010500D01*
X015900Y011400D01*
X015481Y011400D01*
X015239Y011500D01*
X011202Y011500D01*
X011421Y011719D01*
X011550Y012031D01*
X011550Y012300D01*
X012639Y012300D01*
X012897Y012407D01*
X013904Y013414D01*
X014025Y013464D01*
X014181Y013621D01*
X014421Y013720D01*
X014680Y013979D01*
X014820Y014317D01*
X014820Y014683D01*
X014681Y015017D01*
X014879Y014820D01*
X015217Y014680D01*
X015583Y014680D01*
X015921Y014820D01*
X016180Y015079D01*
X016320Y015417D01*
X016320Y015783D01*
X016180Y016121D01*
X015921Y016380D01*
X015583Y016520D01*
X015217Y016520D01*
X014879Y016380D01*
X014620Y016121D01*
X014480Y015783D01*
X014480Y015417D01*
X014619Y015083D01*
X014421Y015280D01*
X014083Y015420D01*
X013717Y015420D01*
X013379Y015280D01*
X013120Y015021D01*
X012980Y014683D01*
X012980Y014541D01*
X012964Y014525D01*
X012914Y014404D01*
X012210Y013700D01*
X010970Y013700D01*
X010849Y013750D01*
X010551Y013750D01*
X010275Y013636D01*
X010166Y013527D01*
X009869Y013650D01*
X009531Y013650D01*
X009219Y013521D01*
X008979Y013281D01*
X008977Y013276D01*
X008911Y013310D01*
X008829Y013336D01*
X008743Y013350D01*
X008700Y013350D01*
X008700Y012500D01*
X008700Y012500D01*
X008700Y011650D01*
X008743Y011650D01*
X008829Y011664D01*
X008911Y011690D01*
X008977Y011724D01*
X008979Y011719D01*
X009219Y011479D01*
X009410Y011400D01*
X000550Y011400D01*
X000550Y017329D01*
X000768Y017187D01*
X001191Y017080D01*
X001625Y017116D01*
X001625Y017116D01*
X002025Y017291D01*
X002346Y017586D01*
X002346Y017586D01*
X002553Y017970D01*
X002625Y018400D01*
X002553Y018830D01*
X002553Y018830D01*
X002402Y019110D01*
X002483Y019110D01*
X002800Y019241D01*
X003105Y019115D01*
X003089Y019110D01*
X003012Y019070D01*
X002942Y019020D01*
X002880Y018958D01*
X002830Y018888D01*
X002790Y018811D01*
X002764Y018729D01*
X002750Y018643D01*
X002750Y018300D01*
X003300Y018300D01*
X003300Y017450D01*
X003343Y017450D01*
X003429Y017464D01*
X003511Y017490D01*
X003543Y017507D01*
X003579Y017419D01*
X003819Y017179D01*
X004131Y017050D01*
X004469Y017050D01*
X004781Y017179D01*
X004863Y017261D01*
X005131Y017150D01*
X005469Y017150D01*
X005737Y017261D01*
X005819Y017179D01*
X006131Y017050D01*
X006469Y017050D01*
X006781Y017179D01*
X007021Y017419D01*
X007116Y017648D01*
X007425Y017520D01*
X007775Y017520D01*
X008098Y017654D01*
X008117Y017673D01*
X008080Y017583D01*
X008080Y017217D01*
X008220Y016879D01*
X008249Y016850D01*
X008220Y016821D01*
X008080Y016483D01*
X008080Y016117D01*
X008220Y015779D01*
X008249Y015750D01*
X008220Y015721D01*
X008080Y015383D01*
X008080Y015154D01*
X007775Y015280D01*
X007425Y015280D01*
X007102Y015146D01*
X006854Y014898D01*
X006720Y014575D01*
X006720Y014225D01*
X006854Y013902D01*
X007102Y013654D01*
X007425Y013520D01*
X007775Y013520D01*
X008098Y013654D01*
X008346Y013902D01*
X008480Y014225D01*
X008480Y014420D01*
X008817Y014280D01*
X009183Y014280D01*
X009521Y014420D01*
X009780Y014679D01*
X009920Y015017D01*
X009920Y015383D01*
X009780Y015721D01*
X009751Y015750D01*
X009780Y015779D01*
X009920Y016117D01*
X009920Y016483D01*
X009780Y016821D01*
X009751Y016850D01*
X009780Y016879D01*
X009920Y017217D01*
X009920Y017583D01*
X009780Y017921D01*
X009521Y018180D01*
X009183Y018320D01*
X008817Y018320D01*
X008479Y018180D01*
X008449Y018150D01*
X008480Y018225D01*
X008480Y018575D01*
X008346Y018898D01*
X008098Y019146D01*
X007829Y019258D01*
X008080Y019509D01*
X008220Y019847D01*
X008220Y020953D01*
X008080Y021291D01*
X007821Y021550D01*
X007483Y021690D01*
X007117Y021690D01*
X006800Y021559D01*
X006483Y021690D01*
X006117Y021690D01*
X005800Y021559D01*
X005483Y021690D01*
X005117Y021690D01*
X004800Y021559D01*
X004483Y021690D01*
X004117Y021690D01*
X003800Y021559D01*
X003483Y021690D01*
X003117Y021690D01*
X002800Y021559D01*
X002483Y021690D01*
X002117Y021690D01*
X001779Y021550D01*
X001520Y021291D01*
X001380Y020953D01*
X001380Y019847D01*
X001441Y019700D01*
X001191Y019720D01*
X001191Y019720D01*
X000768Y019613D01*
X000768Y019613D01*
X000550Y019471D01*
X000550Y023220D01*
X024342Y023220D01*
X024342Y000550D01*
X022306Y000550D01*
X022346Y000586D01*
X022346Y000586D01*
X022553Y000970D01*
X022625Y001400D01*
X022553Y001830D01*
X022553Y001830D01*
X022346Y002214D01*
X022346Y002214D01*
X022346Y002214D01*
X022025Y002509D01*
X021813Y002602D01*
X021889Y002602D01*
X022238Y002747D01*
X022505Y003014D01*
X022650Y003363D01*
X022650Y003741D01*
X022505Y004090D01*
X022398Y004198D01*
X022412Y004204D01*
X022566Y004358D01*
X022650Y004561D01*
X022650Y005579D01*
X022566Y005782D01*
X022412Y005936D01*
X022209Y006020D01*
X021191Y006020D01*
X020988Y005936D01*
X020834Y005782D01*
X020750Y005579D01*
X020750Y004561D01*
X020834Y004358D01*
X020988Y004204D01*
X021002Y004198D01*
X020983Y004179D02*
X016500Y004179D01*
X016500Y003881D02*
X020808Y003881D01*
X020750Y003582D02*
X016500Y003582D01*
X016500Y003284D02*
X020783Y003284D01*
X020924Y002985D02*
X016500Y002985D01*
X016500Y002687D02*
X017609Y002687D01*
X017991Y002687D02*
X021056Y002687D01*
X020423Y002388D02*
X018483Y002388D01*
X018663Y002090D02*
X020181Y002090D01*
X020052Y001791D02*
X018720Y001791D01*
X018720Y001493D02*
X019993Y001493D01*
X019993Y001194D02*
X018720Y001194D01*
X018720Y000896D02*
X020091Y000896D01*
X020269Y000597D02*
X018616Y000597D01*
X016800Y001493D02*
X016800Y001493D01*
X016800Y001791D02*
X016800Y001791D01*
X016800Y002090D02*
X016800Y002090D01*
X016800Y002388D02*
X016800Y002388D01*
X016861Y002388D02*
X017117Y002388D01*
X016739Y002388D02*
X016500Y002388D01*
X015320Y004020D02*
X015336Y004071D01*
X015350Y004157D01*
X015350Y004200D01*
X015350Y004243D01*
X015349Y004251D01*
X015400Y004200D01*
X015400Y004100D01*
X015320Y004020D01*
X015350Y004179D02*
X015400Y004179D01*
X015350Y004200D02*
X014500Y004200D01*
X015350Y004200D01*
X014500Y004200D02*
X014500Y004200D01*
X014500Y004200D01*
X013650Y004200D01*
X013650Y004243D01*
X013664Y004329D01*
X013690Y004411D01*
X013730Y004488D01*
X013780Y004558D01*
X013822Y004600D01*
X012878Y004600D01*
X012920Y004558D01*
X012970Y004488D01*
X013010Y004411D01*
X013036Y004329D01*
X013050Y004243D01*
X013050Y004200D01*
X012200Y004200D01*
X012200Y004200D01*
X012200Y004200D01*
X011350Y004200D01*
X011350Y004243D01*
X011364Y004329D01*
X011390Y004411D01*
X011430Y004488D01*
X011480Y004558D01*
X011522Y004600D01*
X010578Y004600D01*
X010620Y004558D01*
X010670Y004488D01*
X010710Y004411D01*
X010736Y004329D01*
X010750Y004243D01*
X010750Y004200D01*
X009900Y004200D01*
X009900Y004200D01*
X009900Y004200D01*
X009050Y004200D01*
X009050Y004243D01*
X009064Y004329D01*
X009090Y004411D01*
X009130Y004488D01*
X009180Y004558D01*
X009222Y004600D01*
X008178Y004600D01*
X008220Y004558D01*
X008270Y004488D01*
X008310Y004411D01*
X008336Y004329D01*
X008350Y004243D01*
X008350Y004200D01*
X007500Y004200D01*
X007500Y004200D01*
X008350Y004200D01*
X008350Y004157D01*
X008336Y004071D01*
X008310Y003989D01*
X008270Y003912D01*
X008220Y003842D01*
X008158Y003780D01*
X008088Y003730D01*
X008030Y003700D01*
X009370Y003700D01*
X009312Y003730D01*
X009242Y003780D01*
X009180Y003842D01*
X009130Y003912D01*
X009090Y003989D01*
X009064Y004071D01*
X009050Y004157D01*
X009050Y004200D01*
X009900Y004200D01*
X010750Y004200D01*
X010750Y004157D01*
X010736Y004071D01*
X010710Y003989D01*
X010670Y003912D01*
X010620Y003842D01*
X010558Y003780D01*
X010488Y003730D01*
X010430Y003700D01*
X011670Y003700D01*
X011612Y003730D01*
X011542Y003780D01*
X011480Y003842D01*
X011430Y003912D01*
X011390Y003989D01*
X011364Y004071D01*
X011350Y004157D01*
X011350Y004200D01*
X012200Y004200D01*
X013050Y004200D01*
X013050Y004157D01*
X013036Y004071D01*
X013010Y003989D01*
X012970Y003912D01*
X012920Y003842D01*
X012858Y003780D01*
X012788Y003730D01*
X012730Y003700D01*
X013970Y003700D01*
X013912Y003730D01*
X013842Y003780D01*
X013780Y003842D01*
X013730Y003912D01*
X013690Y003989D01*
X013664Y004071D01*
X013650Y004157D01*
X013650Y004200D01*
X014500Y004200D01*
X013752Y003881D02*
X012948Y003881D01*
X013050Y004179D02*
X013650Y004179D01*
X013724Y004478D02*
X012976Y004478D01*
X012878Y005800D02*
X012920Y005842D01*
X012970Y005912D01*
X013010Y005989D01*
X013036Y006071D01*
X013050Y006157D01*
X013050Y006200D01*
X012200Y006200D01*
X012200Y006200D01*
X012200Y006200D01*
X011350Y006200D01*
X011350Y006243D01*
X011364Y006329D01*
X011390Y006411D01*
X011430Y006488D01*
X011480Y006558D01*
X011542Y006620D01*
X011612Y006670D01*
X011670Y006700D01*
X010478Y006700D01*
X010452Y006689D01*
X010488Y006670D01*
X010558Y006620D01*
X010620Y006558D01*
X010670Y006488D01*
X010710Y006411D01*
X010736Y006329D01*
X010750Y006243D01*
X010750Y006200D01*
X009900Y006200D01*
X009900Y006200D01*
X009900Y006200D01*
X009050Y006200D01*
X009050Y006243D01*
X009064Y006329D01*
X009090Y006411D01*
X009130Y006488D01*
X009180Y006558D01*
X009242Y006620D01*
X009312Y006670D01*
X009370Y006700D01*
X008078Y006700D01*
X008052Y006689D01*
X008088Y006670D01*
X008158Y006620D01*
X008220Y006558D01*
X008270Y006488D01*
X008310Y006411D01*
X008336Y006329D01*
X008350Y006243D01*
X008350Y006200D01*
X007500Y006200D01*
X007500Y006200D01*
X007500Y006200D01*
X006650Y006200D01*
X006650Y006243D01*
X006664Y006329D01*
X006690Y006411D01*
X006730Y006488D01*
X006780Y006558D01*
X006842Y006620D01*
X006912Y006670D01*
X006970Y006700D01*
X005778Y006700D01*
X005752Y006689D01*
X005788Y006670D01*
X005858Y006620D01*
X005920Y006558D01*
X005970Y006488D01*
X006010Y006411D01*
X006036Y006329D01*
X006050Y006243D01*
X006050Y006200D01*
X005200Y006200D01*
X005200Y006200D01*
X005200Y006200D01*
X004350Y006200D01*
X004350Y006243D01*
X004364Y006329D01*
X004390Y006411D01*
X004430Y006488D01*
X004480Y006558D01*
X004542Y006620D01*
X004612Y006670D01*
X004670Y006700D01*
X003578Y006700D01*
X003552Y006689D01*
X003588Y006670D01*
X003658Y006620D01*
X003720Y006558D01*
X003770Y006488D01*
X003810Y006411D01*
X003836Y006329D01*
X003850Y006243D01*
X003850Y006200D01*
X003000Y006200D01*
X003000Y006200D01*
X003000Y006200D01*
X002150Y006200D01*
X002150Y006243D01*
X002164Y006329D01*
X002190Y006411D01*
X002230Y006488D01*
X002280Y006558D01*
X002322Y006600D01*
X002300Y006600D01*
X002000Y006300D01*
X002000Y006100D01*
X002300Y005800D01*
X002322Y005800D01*
X002280Y005842D01*
X002230Y005912D01*
X002190Y005989D01*
X002164Y006071D01*
X002150Y006157D01*
X002150Y006200D01*
X003000Y006200D01*
X003850Y006200D01*
X003850Y006157D01*
X003836Y006071D01*
X003810Y005989D01*
X003770Y005912D01*
X003720Y005842D01*
X003678Y005800D01*
X004522Y005800D01*
X004480Y005842D01*
X004430Y005912D01*
X004390Y005989D01*
X004364Y006071D01*
X004350Y006157D01*
X004350Y006200D01*
X005200Y006200D01*
X006050Y006200D01*
X006050Y006157D01*
X006036Y006071D01*
X006010Y005989D01*
X005970Y005912D01*
X005920Y005842D01*
X005878Y005800D01*
X006822Y005800D01*
X006780Y005842D01*
X006730Y005912D01*
X006690Y005989D01*
X006664Y006071D01*
X006650Y006157D01*
X006650Y006200D01*
X007500Y006200D01*
X008350Y006200D01*
X008350Y006157D01*
X008336Y006071D01*
X008310Y005989D01*
X008270Y005912D01*
X008220Y005842D01*
X008178Y005800D01*
X009222Y005800D01*
X009180Y005842D01*
X009130Y005912D01*
X009090Y005989D01*
X009064Y006071D01*
X009050Y006157D01*
X009050Y006200D01*
X009900Y006200D01*
X010750Y006200D01*
X010750Y006157D01*
X010736Y006071D01*
X010710Y005989D01*
X010670Y005912D01*
X010620Y005842D01*
X010578Y005800D01*
X011522Y005800D01*
X011480Y005842D01*
X011430Y005912D01*
X011390Y005989D01*
X011364Y006071D01*
X011350Y006157D01*
X011350Y006200D01*
X012200Y006200D01*
X013050Y006200D01*
X013050Y006243D01*
X013036Y006329D01*
X013010Y006411D01*
X012970Y006488D01*
X012920Y006558D01*
X012858Y006620D01*
X012788Y006670D01*
X012752Y006689D01*
X012778Y006700D01*
X013970Y006700D01*
X013912Y006670D01*
X013842Y006620D01*
X013780Y006558D01*
X013730Y006488D01*
X013690Y006411D01*
X013664Y006329D01*
X013650Y006243D01*
X013650Y006200D01*
X014500Y006200D01*
X015350Y006200D01*
X015350Y006243D01*
X015336Y006329D01*
X015310Y006411D01*
X015270Y006488D01*
X015220Y006558D01*
X015158Y006620D01*
X015088Y006670D01*
X015052Y006689D01*
X015078Y006700D01*
X015100Y006700D01*
X015500Y006300D01*
X015500Y006200D01*
X015320Y006020D01*
X015336Y006071D01*
X015350Y006157D01*
X015350Y006200D01*
X014500Y006200D01*
X014500Y006200D01*
X014500Y006200D01*
X013650Y006200D01*
X013650Y006157D01*
X013664Y006071D01*
X013690Y005989D01*
X013730Y005912D01*
X013780Y005842D01*
X013822Y005800D01*
X012878Y005800D01*
X013000Y005970D02*
X013700Y005970D01*
X013654Y006269D02*
X013046Y006269D01*
X012911Y006567D02*
X013789Y006567D01*
X015211Y006567D02*
X015233Y006567D01*
X015346Y006269D02*
X015500Y006269D01*
X015700Y006800D02*
X016800Y005700D01*
X019200Y005700D01*
X020300Y006800D01*
X020300Y008000D01*
X019587Y007761D02*
X018562Y007761D01*
X018800Y007950D02*
X018800Y008800D01*
X018800Y007950D01*
X018800Y008060D02*
X018800Y008060D01*
X019129Y008060D02*
X019550Y008060D01*
X019636Y008358D02*
X019332Y008358D01*
X019350Y008657D02*
X019925Y008657D01*
X020450Y008955D02*
X019350Y008955D01*
X019328Y009254D02*
X020497Y009254D01*
X020652Y009552D02*
X019114Y009552D01*
X018800Y009552D02*
X018800Y009552D01*
X018800Y009254D02*
X018800Y009254D01*
X018800Y008955D02*
X018800Y008955D01*
X018800Y008800D02*
X018800Y008800D01*
X018800Y008657D02*
X018800Y008657D01*
X018800Y008358D02*
X018800Y008358D01*
X018861Y007463D02*
X019600Y007463D01*
X019600Y007164D02*
X018980Y007164D01*
X018980Y006866D02*
X019376Y006866D01*
X019077Y006567D02*
X018873Y006567D01*
X019863Y005373D02*
X020750Y005373D01*
X020750Y005075D02*
X019519Y005075D01*
X020161Y005672D02*
X020788Y005672D01*
X021070Y005970D02*
X020460Y005970D01*
X020758Y006269D02*
X021587Y006269D01*
X021327Y006567D02*
X020961Y006567D01*
X021000Y006866D02*
X021220Y006866D01*
X021220Y007164D02*
X021000Y007164D01*
X021000Y007463D02*
X021339Y007463D01*
X022325Y008060D02*
X024342Y008060D01*
X024342Y007761D02*
X022562Y007761D01*
X022861Y007463D02*
X024342Y007463D01*
X024342Y007164D02*
X022980Y007164D01*
X022980Y006866D02*
X024342Y006866D01*
X024342Y006567D02*
X022873Y006567D01*
X022613Y006269D02*
X024342Y006269D01*
X024342Y005970D02*
X022330Y005970D01*
X022612Y005672D02*
X024342Y005672D01*
X024342Y005373D02*
X022650Y005373D01*
X022650Y005075D02*
X024342Y005075D01*
X024342Y004776D02*
X022650Y004776D01*
X022616Y004478D02*
X024342Y004478D01*
X024342Y004179D02*
X022417Y004179D01*
X022592Y003881D02*
X024342Y003881D01*
X024342Y003582D02*
X022650Y003582D01*
X022617Y003284D02*
X024342Y003284D01*
X024342Y002985D02*
X022476Y002985D01*
X022093Y002687D02*
X024342Y002687D01*
X024342Y002388D02*
X022156Y002388D01*
X022025Y002509D02*
X022025Y002509D01*
X022413Y002090D02*
X024342Y002090D01*
X024342Y001791D02*
X022560Y001791D01*
X022610Y001493D02*
X024342Y001493D01*
X024342Y001194D02*
X022591Y001194D01*
X022553Y000970D02*
X022553Y000970D01*
X022513Y000896D02*
X024342Y000896D01*
X024342Y000597D02*
X022351Y000597D01*
X020403Y002375D02*
X020403Y002375D01*
X020784Y004478D02*
X016500Y004478D01*
X016500Y004776D02*
X020750Y004776D01*
X022350Y008358D02*
X024342Y008358D01*
X024342Y008657D02*
X022350Y008657D01*
X022350Y008955D02*
X024342Y008955D01*
X024342Y009254D02*
X022303Y009254D01*
X022148Y009552D02*
X024342Y009552D01*
X024342Y009851D02*
X022305Y009851D01*
X022350Y010149D02*
X024342Y010149D01*
X024342Y010448D02*
X022304Y010448D01*
X022145Y010746D02*
X024342Y010746D01*
X024342Y011045D02*
X021718Y011045D01*
X021827Y011310D02*
X022290Y011773D01*
X022290Y012427D01*
X021905Y012812D01*
X021990Y012897D01*
X021990Y013100D01*
X021990Y013303D01*
X021703Y013590D01*
X021500Y013590D01*
X021500Y013100D01*
X021990Y013100D01*
X021500Y013100D01*
X021500Y013100D01*
X021500Y013100D01*
X021500Y013100D01*
X021010Y013100D01*
X021010Y013303D01*
X021297Y013590D01*
X021500Y013590D01*
X021500Y013100D01*
X021010Y013100D01*
X021010Y012897D01*
X021095Y012812D01*
X020710Y012427D01*
X020710Y011773D01*
X021173Y011310D01*
X021827Y011310D01*
X021860Y011343D02*
X024342Y011343D01*
X024342Y011642D02*
X022159Y011642D01*
X022290Y011940D02*
X024342Y011940D01*
X024342Y012239D02*
X022290Y012239D01*
X022180Y012537D02*
X024342Y012537D01*
X024342Y012836D02*
X021928Y012836D01*
X021990Y013134D02*
X024342Y013134D01*
X024342Y013433D02*
X021860Y013433D01*
X021500Y013433D02*
X021500Y013433D01*
X021140Y013433D02*
X020002Y013433D01*
X019980Y013379D02*
X020120Y013717D01*
X020120Y014083D01*
X019980Y014421D01*
X019721Y014680D01*
X019383Y014820D01*
X019017Y014820D01*
X018679Y014680D01*
X018600Y014601D01*
X018521Y014680D01*
X018183Y014820D01*
X017817Y014820D01*
X017479Y014680D01*
X017320Y014521D01*
X017320Y014549D01*
X017305Y014645D01*
X017275Y014738D01*
X017230Y014825D01*
X017173Y014904D01*
X017104Y014973D01*
X017025Y015030D01*
X016938Y015075D01*
X016845Y015105D01*
X016749Y015120D01*
X016700Y015120D01*
X016700Y014500D01*
X016700Y014500D01*
X016700Y014500D01*
X016080Y014500D01*
X016080Y014549D01*
X016095Y014645D01*
X016125Y014738D01*
X016170Y014825D01*
X016227Y014904D01*
X016296Y014973D01*
X016375Y015030D01*
X016462Y015075D01*
X016555Y015105D01*
X016651Y015120D01*
X016700Y015120D01*
X016700Y014500D01*
X016700Y013880D01*
X016749Y013880D01*
X016845Y013895D01*
X016938Y013925D01*
X017025Y013970D01*
X017080Y014010D01*
X017080Y013717D01*
X017220Y013379D01*
X017479Y013120D01*
X017817Y012980D01*
X018183Y012980D01*
X018521Y013120D01*
X018600Y013199D01*
X018679Y013120D01*
X019017Y012980D01*
X019383Y012980D01*
X019721Y013120D01*
X019980Y013379D01*
X019735Y013134D02*
X021010Y013134D01*
X021072Y012836D02*
X013325Y012836D01*
X013624Y013134D02*
X017465Y013134D01*
X017198Y013433D02*
X013948Y013433D01*
X014432Y013731D02*
X017080Y013731D01*
X016700Y013880D02*
X016700Y014500D01*
X016700Y014500D01*
X016080Y014500D01*
X016080Y014451D01*
X016095Y014355D01*
X016125Y014262D01*
X016170Y014175D01*
X016227Y014096D01*
X016296Y014027D01*
X016375Y013970D01*
X016462Y013925D01*
X016555Y013895D01*
X016651Y013880D01*
X016700Y013880D01*
X016700Y014030D02*
X016700Y014030D01*
X016700Y014328D02*
X016700Y014328D01*
X016700Y014627D02*
X016700Y014627D01*
X016700Y014925D02*
X016700Y014925D01*
X016248Y014925D02*
X016026Y014925D01*
X016092Y014627D02*
X014820Y014627D01*
X014820Y014328D02*
X016104Y014328D01*
X016294Y014030D02*
X014701Y014030D01*
X014720Y014925D02*
X014774Y014925D01*
X014560Y015224D02*
X014478Y015224D01*
X014480Y015522D02*
X012862Y015522D01*
X012920Y015383D02*
X012780Y015721D01*
X012751Y015750D01*
X012780Y015779D01*
X012920Y016117D01*
X012920Y016483D01*
X012780Y016821D01*
X012751Y016850D01*
X012780Y016879D01*
X012920Y017217D01*
X012920Y017583D01*
X012780Y017921D01*
X012521Y018180D01*
X012183Y018320D01*
X011817Y018320D01*
X011479Y018180D01*
X011220Y017921D01*
X011080Y017583D01*
X011080Y017217D01*
X011220Y016879D01*
X011249Y016850D01*
X011220Y016821D01*
X011080Y016483D01*
X011080Y016117D01*
X011220Y015779D01*
X011249Y015750D01*
X011220Y015721D01*
X011080Y015383D01*
X011080Y015017D01*
X011220Y014679D01*
X011479Y014420D01*
X011817Y014280D01*
X012183Y014280D01*
X012521Y014420D01*
X012780Y014679D01*
X012920Y015017D01*
X012920Y015383D01*
X012920Y015224D02*
X013322Y015224D01*
X013080Y014925D02*
X012882Y014925D01*
X012980Y014627D02*
X012728Y014627D01*
X012838Y014328D02*
X012299Y014328D01*
X012540Y014030D02*
X008399Y014030D01*
X008480Y014328D02*
X008701Y014328D01*
X009299Y014328D02*
X011701Y014328D01*
X011272Y014627D02*
X009728Y014627D01*
X009882Y014925D02*
X011118Y014925D01*
X011080Y015224D02*
X009920Y015224D01*
X009862Y015522D02*
X011138Y015522D01*
X011203Y015821D02*
X009797Y015821D01*
X009920Y016119D02*
X011080Y016119D01*
X011080Y016418D02*
X009920Y016418D01*
X009823Y016716D02*
X011177Y016716D01*
X011164Y017015D02*
X009836Y017015D01*
X009920Y017313D02*
X011080Y017313D01*
X011092Y017612D02*
X009908Y017612D01*
X009785Y017910D02*
X011215Y017910D01*
X011548Y018209D02*
X009452Y018209D01*
X008548Y018209D02*
X008473Y018209D01*
X008480Y018507D02*
X014787Y018507D01*
X014780Y018551D02*
X014795Y018455D01*
X014825Y018362D01*
X014870Y018275D01*
X014927Y018196D01*
X014996Y018127D01*
X015075Y018070D01*
X015162Y018025D01*
X015255Y017995D01*
X015351Y017980D01*
X015400Y017980D01*
X015449Y017980D01*
X015545Y017995D01*
X015638Y018025D01*
X015725Y018070D01*
X015804Y018127D01*
X015873Y018196D01*
X015930Y018275D01*
X015975Y018362D01*
X016005Y018455D01*
X016020Y018551D01*
X016020Y018600D01*
X016020Y018649D01*
X016005Y018745D01*
X015975Y018838D01*
X015930Y018925D01*
X015873Y019004D01*
X015804Y019073D01*
X015725Y019130D01*
X015638Y019175D01*
X015545Y019205D01*
X015449Y019220D01*
X015400Y019220D01*
X015400Y018600D01*
X015400Y018600D01*
X016020Y018600D01*
X015400Y018600D01*
X015400Y018600D01*
X015400Y018600D01*
X014780Y018600D01*
X014780Y018649D01*
X014795Y018745D01*
X014825Y018838D01*
X014870Y018925D01*
X014927Y019004D01*
X014996Y019073D01*
X015075Y019130D01*
X015162Y019175D01*
X015255Y019205D01*
X015351Y019220D01*
X015400Y019220D01*
X015400Y018600D01*
X015400Y017980D01*
X015400Y018600D01*
X015400Y018600D01*
X014780Y018600D01*
X014780Y018551D01*
X014815Y018806D02*
X008385Y018806D01*
X008140Y019104D02*
X015039Y019104D01*
X014821Y019250D02*
X015080Y019509D01*
X015220Y019847D01*
X015220Y020953D01*
X015080Y021291D01*
X014821Y021550D01*
X014483Y021690D01*
X014117Y021690D01*
X013800Y021559D01*
X013483Y021690D01*
X013117Y021690D01*
X012800Y021559D01*
X012676Y021610D01*
X012720Y021717D01*
X012720Y022083D01*
X012580Y022421D01*
X012321Y022680D01*
X011983Y022820D01*
X011617Y022820D01*
X011279Y022680D01*
X011020Y022421D01*
X010880Y022083D01*
X010880Y021717D01*
X011020Y021379D01*
X011057Y021342D01*
X010975Y021300D01*
X010896Y021243D01*
X010827Y021174D01*
X010800Y021137D01*
X010773Y021174D01*
X010704Y021243D01*
X010625Y021300D01*
X010538Y021345D01*
X010445Y021375D01*
X010349Y021390D01*
X010300Y021390D01*
X010300Y020400D01*
X010300Y020400D01*
X010680Y020400D01*
X011300Y020400D01*
X011300Y019410D01*
X011349Y019410D01*
X011445Y019425D01*
X011538Y019455D01*
X011562Y019467D01*
X011779Y019250D01*
X012117Y019110D01*
X012483Y019110D01*
X012800Y019241D01*
X013117Y019110D01*
X013483Y019110D01*
X013800Y019241D01*
X014117Y019110D01*
X014483Y019110D01*
X014821Y019250D01*
X014974Y019403D02*
X016110Y019403D01*
X016110Y019701D02*
X015160Y019701D01*
X015220Y020000D02*
X016382Y020000D01*
X016495Y020112D02*
X016410Y020197D01*
X016410Y020400D01*
X016900Y020400D01*
X017390Y020400D01*
X017390Y020603D01*
X017103Y020890D01*
X016900Y020890D01*
X016900Y020400D01*
X016900Y020400D01*
X016900Y020400D01*
X017390Y020400D01*
X017390Y020197D01*
X017305Y020112D01*
X017690Y019727D01*
X017690Y019073D01*
X017227Y018610D01*
X016573Y018610D01*
X016110Y019073D01*
X016110Y019727D01*
X016495Y020112D01*
X016410Y020298D02*
X015220Y020298D01*
X015220Y020597D02*
X016410Y020597D01*
X016410Y020603D02*
X016410Y020400D01*
X016900Y020400D01*
X016900Y020400D01*
X016900Y020890D01*
X016697Y020890D01*
X016410Y020603D01*
X016900Y020597D02*
X016900Y020597D01*
X017390Y020597D02*
X018110Y020597D01*
X018120Y020621D02*
X017980Y020283D01*
X017980Y019917D01*
X018120Y019579D01*
X018379Y019320D01*
X018717Y019180D01*
X019083Y019180D01*
X019421Y019320D01*
X019680Y019579D01*
X019820Y019917D01*
X019820Y020283D01*
X019680Y020621D01*
X019421Y020880D01*
X019083Y021020D01*
X018717Y021020D01*
X018379Y020880D01*
X018120Y020621D01*
X017986Y020298D02*
X017390Y020298D01*
X017418Y020000D02*
X017980Y020000D01*
X018069Y019701D02*
X017690Y019701D01*
X017690Y019403D02*
X018296Y019403D01*
X017690Y019104D02*
X020810Y019104D01*
X020810Y018973D02*
X021273Y018510D01*
X021927Y018510D01*
X022390Y018973D01*
X022390Y019627D01*
X022005Y020012D01*
X022090Y020097D01*
X022090Y020300D01*
X022090Y020503D01*
X021803Y020790D01*
X021600Y020790D01*
X021600Y020300D01*
X022090Y020300D01*
X021600Y020300D01*
X021600Y020300D01*
X021600Y020300D01*
X021600Y020300D01*
X021110Y020300D01*
X021110Y020503D01*
X021397Y020790D01*
X021600Y020790D01*
X021600Y020300D01*
X021110Y020300D01*
X021110Y020097D01*
X021195Y020012D01*
X020810Y019627D01*
X020810Y018973D01*
X020977Y018806D02*
X017423Y018806D01*
X017221Y018280D02*
X016883Y018420D01*
X016517Y018420D01*
X016179Y018280D01*
X015920Y018021D01*
X015780Y017683D01*
X015780Y017317D01*
X015920Y016979D01*
X016179Y016720D01*
X016517Y016580D01*
X016883Y016580D01*
X017221Y016720D01*
X017480Y016979D01*
X017620Y017317D01*
X017620Y017683D01*
X017480Y018021D01*
X017221Y018280D01*
X017293Y018209D02*
X021217Y018209D01*
X021095Y018086D02*
X020950Y017737D01*
X020950Y017359D01*
X021095Y017010D01*
X021202Y016902D01*
X021188Y016896D01*
X021034Y016742D01*
X020950Y016539D01*
X020950Y015521D01*
X021034Y015318D01*
X021188Y015164D01*
X021391Y015080D01*
X022409Y015080D01*
X022612Y015164D01*
X022766Y015318D01*
X022850Y015521D01*
X022850Y016539D01*
X022766Y016742D01*
X022612Y016896D01*
X022598Y016902D01*
X022705Y017010D01*
X022850Y017359D01*
X022850Y017737D01*
X022705Y018086D01*
X022438Y018353D01*
X022089Y018498D01*
X021711Y018498D01*
X021362Y018353D01*
X021095Y018086D01*
X021022Y017910D02*
X019349Y017910D01*
X019421Y017880D02*
X019083Y018020D01*
X018717Y018020D01*
X018379Y017880D01*
X018120Y017621D01*
X017980Y017283D01*
X017980Y016917D01*
X018120Y016579D01*
X018379Y016320D01*
X018717Y016180D01*
X019083Y016180D01*
X019421Y016320D01*
X019680Y016579D01*
X019820Y016917D01*
X019820Y017283D01*
X019680Y017621D01*
X019421Y017880D01*
X019684Y017612D02*
X020950Y017612D01*
X020969Y017313D02*
X019808Y017313D01*
X019820Y017015D02*
X021093Y017015D01*
X021023Y016716D02*
X019737Y016716D01*
X019519Y016418D02*
X020950Y016418D01*
X020950Y016119D02*
X016181Y016119D01*
X016304Y015821D02*
X020950Y015821D01*
X020950Y015522D02*
X016320Y015522D01*
X016240Y015224D02*
X021129Y015224D01*
X020019Y014328D02*
X024342Y014328D01*
X024342Y014030D02*
X020120Y014030D01*
X020120Y013731D02*
X024342Y013731D01*
X024342Y014627D02*
X019775Y014627D01*
X018625Y014627D02*
X018575Y014627D01*
X017425Y014627D02*
X017308Y014627D01*
X017152Y014925D02*
X024342Y014925D01*
X024342Y015224D02*
X022671Y015224D01*
X022850Y015522D02*
X024342Y015522D01*
X024342Y015821D02*
X022850Y015821D01*
X022850Y016119D02*
X024342Y016119D01*
X024342Y016418D02*
X022850Y016418D01*
X022777Y016716D02*
X024342Y016716D01*
X024342Y017015D02*
X022707Y017015D01*
X022831Y017313D02*
X024342Y017313D01*
X024342Y017612D02*
X022850Y017612D01*
X022778Y017910D02*
X024342Y017910D01*
X024342Y018209D02*
X022583Y018209D01*
X022223Y018806D02*
X024342Y018806D01*
X024342Y019104D02*
X022390Y019104D01*
X022390Y019403D02*
X024342Y019403D01*
X024342Y019701D02*
X022316Y019701D01*
X022018Y020000D02*
X024342Y020000D01*
X024342Y020298D02*
X022090Y020298D01*
X021996Y020597D02*
X024342Y020597D01*
X024342Y020895D02*
X019385Y020895D01*
X019690Y020597D02*
X021204Y020597D01*
X021110Y020298D02*
X019814Y020298D01*
X019820Y020000D02*
X021182Y020000D01*
X020884Y019701D02*
X019731Y019701D01*
X019504Y019403D02*
X020810Y019403D01*
X021600Y020597D02*
X021600Y020597D01*
X024342Y021194D02*
X015120Y021194D01*
X015220Y020895D02*
X018415Y020895D01*
X016377Y018806D02*
X015985Y018806D01*
X016013Y018507D02*
X024342Y018507D01*
X024342Y021492D02*
X014879Y021492D01*
X012720Y021791D02*
X024342Y021791D01*
X024342Y022089D02*
X012718Y022089D01*
X012594Y022388D02*
X024342Y022388D01*
X024342Y022686D02*
X012306Y022686D01*
X011294Y022686D02*
X009306Y022686D01*
X009321Y022680D02*
X008983Y022820D01*
X008617Y022820D01*
X008279Y022680D01*
X008020Y022421D01*
X007880Y022083D01*
X007880Y021717D01*
X008020Y021379D01*
X008279Y021120D01*
X008424Y021060D01*
X008380Y020953D01*
X008380Y019847D01*
X008520Y019509D01*
X008779Y019250D01*
X009117Y019110D01*
X009483Y019110D01*
X009821Y019250D01*
X010038Y019467D01*
X010062Y019455D01*
X010155Y019425D01*
X010251Y019410D01*
X010300Y019410D01*
X010349Y019410D01*
X010445Y019425D01*
X010538Y019455D01*
X010625Y019500D01*
X010704Y019557D01*
X010773Y019626D01*
X010800Y019663D01*
X010827Y019626D01*
X010896Y019557D01*
X010975Y019500D01*
X011062Y019455D01*
X011155Y019425D01*
X011251Y019410D01*
X011300Y019410D01*
X011300Y020400D01*
X011300Y020400D01*
X011300Y020400D01*
X010300Y020400D01*
X010300Y020400D01*
X010300Y021390D01*
X010251Y021390D01*
X010155Y021375D01*
X010062Y021345D01*
X010038Y021333D01*
X009821Y021550D01*
X009676Y021610D01*
X009720Y021717D01*
X009720Y022083D01*
X009580Y022421D01*
X009321Y022680D01*
X009594Y022388D02*
X011006Y022388D01*
X010882Y022089D02*
X009718Y022089D01*
X009720Y021791D02*
X010880Y021791D01*
X010973Y021492D02*
X009879Y021492D01*
X010300Y021194D02*
X010300Y021194D01*
X010300Y020895D02*
X010300Y020895D01*
X010300Y020597D02*
X010300Y020597D01*
X010300Y020400D02*
X010300Y019410D01*
X010300Y020400D01*
X010300Y020400D01*
X010300Y020298D02*
X010300Y020298D01*
X010300Y020000D02*
X010300Y020000D01*
X010300Y019701D02*
X010300Y019701D01*
X009974Y019403D02*
X011626Y019403D01*
X011300Y019701D02*
X011300Y019701D01*
X011300Y020000D02*
X011300Y020000D01*
X011300Y020298D02*
X011300Y020298D01*
X010847Y021194D02*
X010753Y021194D01*
X008440Y019701D02*
X008160Y019701D01*
X007974Y019403D02*
X008626Y019403D01*
X008380Y020000D02*
X008220Y020000D01*
X008220Y020298D02*
X008380Y020298D01*
X008380Y020597D02*
X008220Y020597D01*
X008220Y020895D02*
X008380Y020895D01*
X008205Y021194D02*
X008120Y021194D01*
X007973Y021492D02*
X007879Y021492D01*
X007880Y021791D02*
X000550Y021791D01*
X000550Y022089D02*
X007882Y022089D01*
X008006Y022388D02*
X000550Y022388D01*
X000550Y022686D02*
X008294Y022686D01*
X003078Y019104D02*
X002405Y019104D01*
X002557Y018806D02*
X002788Y018806D01*
X002750Y018507D02*
X002607Y018507D01*
X002750Y018300D02*
X002750Y017957D01*
X002764Y017871D01*
X002790Y017789D01*
X002830Y017712D01*
X002880Y017642D01*
X002942Y017580D01*
X003012Y017530D01*
X003089Y017490D01*
X003171Y017464D01*
X003257Y017450D01*
X003300Y017450D01*
X003300Y018300D01*
X003300Y018300D01*
X003300Y018300D01*
X002750Y018300D01*
X002750Y018209D02*
X002593Y018209D01*
X002553Y017970D02*
X002553Y017970D01*
X002521Y017910D02*
X002757Y017910D01*
X002911Y017612D02*
X002359Y017612D01*
X002049Y017313D02*
X003685Y017313D01*
X003300Y017612D02*
X003300Y017612D01*
X003300Y017910D02*
X003300Y017910D01*
X003300Y018209D02*
X003300Y018209D01*
X002025Y017291D02*
X002025Y017291D01*
X001191Y017080D02*
X001191Y017080D01*
X000768Y017187D02*
X000768Y017187D01*
X000574Y017313D02*
X000550Y017313D01*
X000550Y017015D02*
X008164Y017015D01*
X008177Y016716D02*
X000550Y016716D01*
X000550Y016418D02*
X008080Y016418D01*
X008080Y016119D02*
X000550Y016119D01*
X000550Y015821D02*
X008203Y015821D01*
X008138Y015522D02*
X000550Y015522D01*
X000550Y015224D02*
X007289Y015224D01*
X006881Y014925D02*
X000550Y014925D01*
X000550Y014627D02*
X006741Y014627D01*
X006720Y014328D02*
X000550Y014328D01*
X000550Y014030D02*
X006801Y014030D01*
X007024Y013731D02*
X000550Y013731D01*
X000550Y013433D02*
X009130Y013433D01*
X008700Y013350D02*
X008657Y013350D01*
X008571Y013336D01*
X008489Y013310D01*
X008412Y013270D01*
X008342Y013220D01*
X008280Y013158D01*
X008230Y013088D01*
X008190Y013011D01*
X008164Y012929D01*
X008150Y012843D01*
X008150Y012500D01*
X008700Y012500D01*
X008700Y012500D01*
X008700Y012500D01*
X008700Y013350D01*
X008700Y013134D02*
X008700Y013134D01*
X008700Y012836D02*
X008700Y012836D01*
X008700Y012537D02*
X008700Y012537D01*
X008700Y012500D02*
X008150Y012500D01*
X008150Y012157D01*
X008164Y012071D01*
X008190Y011989D01*
X008230Y011912D01*
X008280Y011842D01*
X008342Y011780D01*
X008412Y011730D01*
X008489Y011690D01*
X008571Y011664D01*
X008657Y011650D01*
X008700Y011650D01*
X008700Y012500D01*
X008700Y012239D02*
X008700Y012239D01*
X008700Y011940D02*
X008700Y011940D01*
X008215Y011940D02*
X000550Y011940D01*
X000550Y012239D02*
X008150Y012239D01*
X008150Y012537D02*
X000550Y012537D01*
X000550Y012836D02*
X008150Y012836D01*
X008263Y013134D02*
X000550Y013134D01*
X000550Y011642D02*
X009056Y011642D01*
X010100Y010800D02*
X015100Y010800D01*
X015700Y010200D01*
X015700Y006800D01*
X014048Y008711D02*
X014022Y008700D01*
X012830Y008700D01*
X012888Y008730D01*
X012958Y008780D01*
X013020Y008842D01*
X013070Y008912D01*
X013110Y008989D01*
X013136Y009071D01*
X013150Y009157D01*
X013150Y009200D01*
X013150Y009243D01*
X013136Y009329D01*
X013110Y009411D01*
X013070Y009488D01*
X013020Y009558D01*
X012958Y009620D01*
X012888Y009670D01*
X012811Y009710D01*
X012729Y009736D01*
X012643Y009750D01*
X012300Y009750D01*
X012300Y009200D01*
X012300Y009200D01*
X013150Y009200D01*
X012300Y009200D01*
X012300Y009200D01*
X012300Y009200D01*
X011450Y009200D01*
X011450Y009243D01*
X011464Y009329D01*
X011490Y009411D01*
X011530Y009488D01*
X011580Y009558D01*
X011642Y009620D01*
X011712Y009670D01*
X011789Y009710D01*
X011871Y009736D01*
X011957Y009750D01*
X012300Y009750D01*
X012300Y009200D01*
X011450Y009200D01*
X011450Y009157D01*
X011464Y009071D01*
X011490Y008989D01*
X011530Y008912D01*
X011580Y008842D01*
X011642Y008780D01*
X011712Y008730D01*
X011748Y008711D01*
X011722Y008700D01*
X010530Y008700D01*
X010588Y008730D01*
X010658Y008780D01*
X010720Y008842D01*
X010770Y008912D01*
X010810Y008989D01*
X010836Y009071D01*
X010850Y009157D01*
X010850Y009200D01*
X010850Y009243D01*
X010836Y009329D01*
X010810Y009411D01*
X010770Y009488D01*
X010720Y009558D01*
X010658Y009620D01*
X010588Y009670D01*
X010511Y009710D01*
X010429Y009736D01*
X010343Y009750D01*
X010000Y009750D01*
X010000Y009200D01*
X010000Y009200D01*
X010850Y009200D01*
X010000Y009200D01*
X010000Y009200D01*
X010000Y009200D01*
X009150Y009200D01*
X009150Y009243D01*
X009164Y009329D01*
X009190Y009411D01*
X009230Y009488D01*
X009280Y009558D01*
X009342Y009620D01*
X009412Y009670D01*
X009489Y009710D01*
X009571Y009736D01*
X009657Y009750D01*
X010000Y009750D01*
X010000Y009200D01*
X009150Y009200D01*
X009150Y009157D01*
X009164Y009071D01*
X009190Y008989D01*
X009230Y008912D01*
X009280Y008842D01*
X009342Y008780D01*
X009412Y008730D01*
X009448Y008711D01*
X009422Y008700D01*
X008130Y008700D01*
X008188Y008730D01*
X008258Y008780D01*
X008320Y008842D01*
X008370Y008912D01*
X008410Y008989D01*
X008436Y009071D01*
X008450Y009157D01*
X008450Y009200D01*
X008450Y009243D01*
X008436Y009329D01*
X008410Y009411D01*
X008370Y009488D01*
X008320Y009558D01*
X008258Y009620D01*
X008188Y009670D01*
X008111Y009710D01*
X008029Y009736D01*
X007943Y009750D01*
X007600Y009750D01*
X007600Y009200D01*
X007600Y009200D01*
X008450Y009200D01*
X007600Y009200D01*
X007600Y009200D01*
X007600Y009200D01*
X006750Y009200D01*
X006750Y009243D01*
X006764Y009329D01*
X006790Y009411D01*
X006830Y009488D01*
X006880Y009558D01*
X006942Y009620D01*
X007012Y009670D01*
X007089Y009710D01*
X007171Y009736D01*
X007257Y009750D01*
X007600Y009750D01*
X007600Y009200D01*
X006750Y009200D01*
X006750Y009157D01*
X006764Y009071D01*
X006790Y008989D01*
X006830Y008912D01*
X006880Y008842D01*
X006942Y008780D01*
X007012Y008730D01*
X007048Y008711D01*
X007022Y008700D01*
X005830Y008700D01*
X005888Y008730D01*
X005958Y008780D01*
X006020Y008842D01*
X006070Y008912D01*
X006110Y008989D01*
X006136Y009071D01*
X006150Y009157D01*
X006150Y009200D01*
X006150Y009243D01*
X006136Y009329D01*
X006110Y009411D01*
X006070Y009488D01*
X006020Y009558D01*
X005958Y009620D01*
X005888Y009670D01*
X005811Y009710D01*
X005729Y009736D01*
X005643Y009750D01*
X005300Y009750D01*
X005300Y009200D01*
X005300Y009200D01*
X006150Y009200D01*
X005300Y009200D01*
X005300Y009200D01*
X005300Y009200D01*
X004450Y009200D01*
X004450Y009243D01*
X004464Y009329D01*
X004490Y009411D01*
X004530Y009488D01*
X004580Y009558D01*
X004642Y009620D01*
X004712Y009670D01*
X004789Y009710D01*
X004871Y009736D01*
X004957Y009750D01*
X005300Y009750D01*
X005300Y009200D01*
X004450Y009200D01*
X004450Y009157D01*
X004464Y009071D01*
X004490Y008989D01*
X004530Y008912D01*
X004580Y008842D01*
X004642Y008780D01*
X004712Y008730D01*
X004748Y008711D01*
X004722Y008700D01*
X003630Y008700D01*
X003688Y008730D01*
X003758Y008780D01*
X003820Y008842D01*
X003870Y008912D01*
X003910Y008989D01*
X003936Y009071D01*
X003950Y009157D01*
X003950Y009200D01*
X003950Y009243D01*
X003936Y009329D01*
X003910Y009411D01*
X003870Y009488D01*
X003820Y009558D01*
X003758Y009620D01*
X003688Y009670D01*
X003611Y009710D01*
X003529Y009736D01*
X003443Y009750D01*
X003100Y009750D01*
X003100Y009200D01*
X003100Y009200D01*
X003950Y009200D01*
X003100Y009200D01*
X003100Y009200D01*
X003100Y009750D01*
X002757Y009750D01*
X002671Y009736D01*
X002620Y009720D01*
X003000Y010100D01*
X014700Y010100D01*
X015080Y009720D01*
X015029Y009736D01*
X014943Y009750D01*
X014600Y009750D01*
X014600Y009200D01*
X014600Y009200D01*
X014600Y009750D01*
X014257Y009750D01*
X014171Y009736D01*
X014089Y009710D01*
X014012Y009670D01*
X013942Y009620D01*
X013880Y009558D01*
X013830Y009488D01*
X013790Y009411D01*
X013764Y009329D01*
X013750Y009243D01*
X013750Y009200D01*
X014600Y009200D01*
X014600Y009200D01*
X013750Y009200D01*
X013750Y009157D01*
X013764Y009071D01*
X013790Y008989D01*
X013830Y008912D01*
X013880Y008842D01*
X013942Y008780D01*
X014012Y008730D01*
X014048Y008711D01*
X013808Y008955D02*
X013092Y008955D01*
X013148Y009254D02*
X013752Y009254D01*
X013876Y009552D02*
X013024Y009552D01*
X012300Y009552D02*
X012300Y009552D01*
X012300Y009254D02*
X012300Y009254D01*
X011576Y009552D02*
X010724Y009552D01*
X010848Y009254D02*
X011452Y009254D01*
X011508Y008955D02*
X010792Y008955D01*
X010000Y009254D02*
X010000Y009254D01*
X010000Y009552D02*
X010000Y009552D01*
X009276Y009552D02*
X008324Y009552D01*
X008448Y009254D02*
X009152Y009254D01*
X009208Y008955D02*
X008392Y008955D01*
X007600Y009254D02*
X007600Y009254D01*
X007600Y009552D02*
X007600Y009552D01*
X006876Y009552D02*
X006024Y009552D01*
X006148Y009254D02*
X006752Y009254D01*
X006808Y008955D02*
X006092Y008955D01*
X005300Y009254D02*
X005300Y009254D01*
X005300Y009552D02*
X005300Y009552D01*
X004576Y009552D02*
X003824Y009552D01*
X003948Y009254D02*
X004452Y009254D01*
X004508Y008955D02*
X003892Y008955D01*
X003100Y009254D02*
X003100Y009254D01*
X003100Y009552D02*
X003100Y009552D01*
X002751Y009851D02*
X014949Y009851D01*
X014600Y009552D02*
X014600Y009552D01*
X014600Y009254D02*
X014600Y009254D01*
X016336Y010746D02*
X017080Y010746D01*
X017080Y010717D02*
X017220Y010379D01*
X017479Y010120D01*
X017817Y009980D01*
X018183Y009980D01*
X018521Y010120D01*
X018600Y010199D01*
X018679Y010120D01*
X019017Y009980D01*
X019383Y009980D01*
X019721Y010120D01*
X019980Y010379D01*
X020120Y010717D01*
X020120Y011083D01*
X019980Y011421D01*
X019721Y011680D01*
X019383Y011820D01*
X019017Y011820D01*
X018679Y011680D01*
X018600Y011601D01*
X018521Y011680D01*
X018183Y011820D01*
X017817Y011820D01*
X017479Y011680D01*
X017220Y011421D01*
X017080Y011083D01*
X017080Y010717D01*
X017192Y010448D02*
X016500Y010448D01*
X016500Y010149D02*
X017450Y010149D01*
X017391Y009851D02*
X017209Y009851D01*
X018209Y009851D02*
X020495Y009851D01*
X020450Y010149D02*
X019750Y010149D01*
X020008Y010448D02*
X020496Y010448D01*
X020655Y010746D02*
X020120Y010746D01*
X020120Y011045D02*
X021082Y011045D01*
X021140Y011343D02*
X020012Y011343D01*
X019760Y011642D02*
X020841Y011642D01*
X020710Y011940D02*
X011512Y011940D01*
X011550Y012239D02*
X020710Y012239D01*
X020820Y012537D02*
X013027Y012537D01*
X012500Y013000D02*
X013600Y014100D01*
X012241Y013731D02*
X010895Y013731D01*
X010505Y013731D02*
X008176Y013731D01*
X008080Y015224D02*
X007911Y015224D01*
X008080Y017313D02*
X006915Y017313D01*
X007101Y017612D02*
X007204Y017612D01*
X007996Y017612D02*
X008092Y017612D01*
X012452Y018209D02*
X013307Y018209D01*
X013379Y018280D02*
X013120Y018021D01*
X012980Y017683D01*
X012980Y017317D01*
X013120Y016979D01*
X013379Y016720D01*
X013717Y016580D01*
X014083Y016580D01*
X014421Y016720D01*
X014680Y016979D01*
X014820Y017317D01*
X014820Y017683D01*
X014680Y018021D01*
X014421Y018280D01*
X014083Y018420D01*
X013717Y018420D01*
X013379Y018280D01*
X013074Y017910D02*
X012785Y017910D01*
X012908Y017612D02*
X012980Y017612D01*
X012982Y017313D02*
X012920Y017313D01*
X012836Y017015D02*
X013105Y017015D01*
X012823Y016716D02*
X013389Y016716D01*
X012920Y016418D02*
X014970Y016418D01*
X014619Y016119D02*
X012920Y016119D01*
X012797Y015821D02*
X014496Y015821D01*
X014411Y016716D02*
X016189Y016716D01*
X015905Y017015D02*
X014695Y017015D01*
X014818Y017313D02*
X015782Y017313D01*
X015780Y017612D02*
X014820Y017612D01*
X014726Y017910D02*
X015874Y017910D01*
X015882Y018209D02*
X016107Y018209D01*
X015400Y018209D02*
X015400Y018209D01*
X014918Y018209D02*
X014493Y018209D01*
X015400Y018507D02*
X015400Y018507D01*
X015400Y018806D02*
X015400Y018806D01*
X015400Y019104D02*
X015400Y019104D01*
X015761Y019104D02*
X016110Y019104D01*
X017526Y017910D02*
X018451Y017910D01*
X018116Y017612D02*
X017620Y017612D01*
X017618Y017313D02*
X017992Y017313D01*
X017980Y017015D02*
X017495Y017015D01*
X017211Y016716D02*
X018063Y016716D01*
X018281Y016418D02*
X015830Y016418D01*
X018535Y013134D02*
X018665Y013134D01*
X018640Y011642D02*
X018560Y011642D01*
X017440Y011642D02*
X011344Y011642D01*
X010700Y013000D02*
X012500Y013000D01*
X015938Y011343D02*
X017188Y011343D01*
X017080Y011045D02*
X016137Y011045D01*
X018550Y010149D02*
X018650Y010149D01*
X021500Y013134D02*
X021500Y013134D01*
X011489Y006567D02*
X010611Y006567D01*
X010746Y006269D02*
X011354Y006269D01*
X011400Y005970D02*
X010700Y005970D01*
X009100Y005970D02*
X008300Y005970D01*
X008346Y006269D02*
X009054Y006269D01*
X009189Y006567D02*
X008211Y006567D01*
X006789Y006567D02*
X005911Y006567D01*
X006046Y006269D02*
X006654Y006269D01*
X006700Y005970D02*
X006000Y005970D01*
X005878Y004600D02*
X006822Y004600D01*
X006780Y004558D01*
X006730Y004488D01*
X006690Y004411D01*
X006664Y004329D01*
X006650Y004243D01*
X006650Y004200D01*
X007500Y004200D01*
X007500Y004200D01*
X006650Y004200D01*
X006650Y004157D01*
X006664Y004071D01*
X006690Y003989D01*
X006730Y003912D01*
X006780Y003842D01*
X006842Y003780D01*
X006912Y003730D01*
X006970Y003700D01*
X005730Y003700D01*
X005788Y003730D01*
X005858Y003780D01*
X005920Y003842D01*
X005970Y003912D01*
X006010Y003989D01*
X006036Y004071D01*
X006050Y004157D01*
X006050Y004200D01*
X006050Y004243D01*
X006036Y004329D01*
X006010Y004411D01*
X005970Y004488D01*
X005920Y004558D01*
X005878Y004600D01*
X005976Y004478D02*
X006724Y004478D01*
X006650Y004179D02*
X006050Y004179D01*
X006050Y004200D02*
X005200Y004200D01*
X006050Y004200D01*
X005948Y003881D02*
X006752Y003881D01*
X008248Y003881D02*
X009152Y003881D01*
X009050Y004179D02*
X008350Y004179D01*
X008276Y004478D02*
X009124Y004478D01*
X010676Y004478D02*
X011424Y004478D01*
X011350Y004179D02*
X010750Y004179D01*
X010648Y003881D02*
X011452Y003881D01*
X005200Y004200D02*
X005200Y004200D01*
X005200Y004200D01*
X004350Y004200D01*
X004350Y004243D01*
X004364Y004329D01*
X004390Y004411D01*
X004430Y004488D01*
X004480Y004558D01*
X004522Y004600D01*
X003678Y004600D01*
X003720Y004558D01*
X003770Y004488D01*
X003810Y004411D01*
X003836Y004329D01*
X003850Y004243D01*
X003850Y004200D01*
X003000Y004200D01*
X003000Y004200D01*
X003850Y004200D01*
X003850Y004157D01*
X003836Y004071D01*
X003810Y003989D01*
X003770Y003912D01*
X003720Y003842D01*
X003658Y003780D01*
X003588Y003730D01*
X003530Y003700D01*
X004670Y003700D01*
X004612Y003730D01*
X004542Y003780D01*
X004480Y003842D01*
X004430Y003912D01*
X004390Y003989D01*
X004364Y004071D01*
X004350Y004157D01*
X004350Y004200D01*
X005200Y004200D01*
X004452Y003881D02*
X003748Y003881D01*
X003850Y004179D02*
X004350Y004179D01*
X004424Y004478D02*
X003776Y004478D01*
X003800Y005970D02*
X004400Y005970D01*
X004354Y006269D02*
X003846Y006269D01*
X003711Y006567D02*
X004489Y006567D01*
X002289Y006567D02*
X002267Y006567D01*
X002154Y006269D02*
X002000Y006269D01*
X002130Y005970D02*
X002200Y005970D01*
X001425Y019701D02*
X001440Y019701D01*
X001114Y019701D02*
X000550Y019701D01*
X000550Y020000D02*
X001380Y020000D01*
X001380Y020298D02*
X000550Y020298D01*
X000550Y020597D02*
X001380Y020597D01*
X001380Y020895D02*
X000550Y020895D01*
X000550Y021194D02*
X001480Y021194D01*
X001721Y021492D02*
X000550Y021492D01*
X000550Y022985D02*
X024342Y022985D01*
D18*
X013600Y014100D03*
X010700Y013000D03*
X010100Y010800D03*
X010400Y006200D03*
X012700Y006200D03*
X012700Y004200D03*
X010400Y004200D03*
X008000Y004200D03*
X005700Y004200D03*
X003500Y004200D03*
X003500Y006200D03*
X005700Y006200D03*
X008000Y006200D03*
X015000Y006200D03*
X015000Y004200D03*
X016800Y002000D03*
X020300Y008000D03*
X011300Y019800D03*
X010300Y019800D03*
X003300Y017800D03*
M02*
