G75*
G70*
%OFA0B0*%
%FSLAX24Y24*%
%IPPOS*%
%LPD*%
%AMOC8*
5,1,8,0,0,1.08239X$1,22.5*
%
%ADD10C,0.0600*%
%ADD11OC8,0.0600*%
%ADD12C,0.0120*%
%ADD13C,0.0660*%
%ADD14OC8,0.0480*%
%ADD15C,0.0740*%
%ADD16R,0.0800X0.0800*%
%ADD17C,0.0800*%
%ADD18C,0.0400*%
%ADD19C,0.0100*%
D10*
X001900Y004700D02*
X002500Y004700D01*
X002600Y005700D02*
X002000Y005700D01*
X001900Y006700D02*
X002500Y006700D01*
X002600Y007700D02*
X002000Y007700D01*
X001900Y008700D02*
X002500Y008700D01*
X002600Y009700D02*
X002000Y009700D01*
X004500Y009700D02*
X005100Y009700D01*
X005000Y008700D02*
X004400Y008700D01*
X004500Y007700D02*
X005100Y007700D01*
X005000Y006700D02*
X004400Y006700D01*
X004500Y005700D02*
X005100Y005700D01*
X005000Y004700D02*
X004400Y004700D01*
X006800Y004700D02*
X007400Y004700D01*
X007500Y005700D02*
X006900Y005700D01*
X006800Y006700D02*
X007400Y006700D01*
X007500Y007700D02*
X006900Y007700D01*
X006800Y008700D02*
X007400Y008700D01*
X007500Y009700D02*
X006900Y009700D01*
X009400Y009700D02*
X010000Y009700D01*
X009900Y008700D02*
X009300Y008700D01*
X009400Y007700D02*
X010000Y007700D01*
X009900Y006700D02*
X009300Y006700D01*
X009400Y005700D02*
X010000Y005700D01*
X009900Y004700D02*
X009300Y004700D01*
X011800Y004700D02*
X012400Y004700D01*
X012500Y005700D02*
X011900Y005700D01*
X011800Y006700D02*
X012400Y006700D01*
X012500Y007700D02*
X011900Y007700D01*
X011800Y008700D02*
X012400Y008700D01*
X012500Y009700D02*
X011900Y009700D01*
X014300Y009700D02*
X014900Y009700D01*
X014800Y008700D02*
X014200Y008700D01*
X014300Y007700D02*
X014900Y007700D01*
X014800Y006700D02*
X014200Y006700D01*
X014300Y005700D02*
X014900Y005700D01*
X014800Y004700D02*
X014200Y004700D01*
X019500Y012500D02*
X019500Y013100D01*
X020500Y013100D02*
X020500Y012500D01*
X021500Y012500D02*
X021500Y013100D01*
X005900Y017900D02*
X005900Y018500D01*
X004900Y018600D02*
X004900Y018000D01*
X003900Y017900D02*
X003900Y018500D01*
X002900Y018600D02*
X002900Y018000D01*
D11*
X016600Y013900D03*
X016600Y008900D03*
D12*
X016093Y007647D02*
X016033Y007707D01*
X016231Y007707D01*
X016371Y007567D01*
X016371Y007369D01*
X016231Y007229D01*
X016033Y007229D01*
X015893Y007369D01*
X015893Y007567D01*
X016033Y007707D01*
X016070Y007617D01*
X016194Y007617D01*
X016281Y007530D01*
X016281Y007406D01*
X016194Y007319D01*
X016070Y007319D01*
X015983Y007406D01*
X015983Y007530D01*
X016070Y007617D01*
X016107Y007527D01*
X016157Y007527D01*
X016191Y007493D01*
X016191Y007443D01*
X016157Y007409D01*
X016107Y007409D01*
X016073Y007443D01*
X016073Y007493D01*
X016107Y007527D01*
X019629Y004111D02*
X019569Y004171D01*
X019767Y004171D01*
X019907Y004031D01*
X019907Y003833D01*
X019767Y003693D01*
X019569Y003693D01*
X019429Y003833D01*
X019429Y004031D01*
X019569Y004171D01*
X019606Y004081D01*
X019730Y004081D01*
X019817Y003994D01*
X019817Y003870D01*
X019730Y003783D01*
X019606Y003783D01*
X019519Y003870D01*
X019519Y003994D01*
X019606Y004081D01*
X019643Y003991D01*
X019693Y003991D01*
X019727Y003957D01*
X019727Y003907D01*
X019693Y003873D01*
X019643Y003873D01*
X019609Y003907D01*
X019609Y003957D01*
X019643Y003991D01*
D13*
X019400Y006200D03*
X019400Y010200D03*
D14*
X011900Y012400D03*
X011900Y014300D03*
X011900Y016000D03*
X011900Y017800D03*
X013400Y018400D03*
X017400Y018400D03*
X017400Y019900D03*
X017400Y020900D03*
X020700Y020900D03*
X020700Y019900D03*
X007900Y017800D03*
X007900Y016000D03*
X007900Y014300D03*
X007900Y012400D03*
D15*
X002100Y001970D02*
X002100Y001230D01*
X003100Y001230D02*
X003100Y001970D01*
X004100Y001970D02*
X004100Y001230D01*
X005100Y001230D02*
X005100Y001970D01*
X006100Y001970D02*
X006100Y001230D01*
X007100Y001230D02*
X007100Y001970D01*
X008100Y001970D02*
X008100Y001230D01*
X009100Y001230D02*
X009100Y001970D01*
X010600Y001970D02*
X010600Y001230D01*
X011600Y001230D02*
X011600Y001970D01*
X012600Y001970D02*
X012600Y001230D01*
X013600Y001230D02*
X013600Y001970D01*
X014600Y001970D02*
X014600Y001230D01*
X015600Y001230D02*
X015600Y001970D01*
X016600Y001970D02*
X016600Y001230D01*
X017600Y001230D02*
X017600Y001970D01*
X014100Y020230D02*
X014100Y020970D01*
X013100Y020970D02*
X013100Y020230D01*
X012100Y020230D02*
X012100Y020970D01*
X011100Y020970D02*
X011100Y020230D01*
X010100Y020230D02*
X010100Y020970D01*
X009100Y020970D02*
X009100Y020230D01*
X007100Y020230D02*
X007100Y020970D01*
X006100Y020970D02*
X006100Y020230D01*
X005100Y020230D02*
X005100Y020970D01*
X004100Y020970D02*
X004100Y020230D01*
X003100Y020230D02*
X003100Y020970D01*
X002100Y020970D02*
X002100Y020230D01*
D16*
X021400Y016330D03*
X022000Y007830D03*
X022000Y003930D03*
D17*
X022000Y005448D03*
X022000Y009348D03*
X021400Y017848D03*
D18*
X012100Y021200D03*
X011100Y021200D03*
X010100Y021200D03*
X007100Y021200D03*
X006100Y021200D03*
X005100Y021200D03*
X004100Y021200D03*
X003000Y004000D03*
X005600Y004000D03*
X008000Y004000D03*
X009700Y004000D03*
X012300Y004000D03*
X014000Y004000D03*
X014600Y001000D03*
X012600Y001000D03*
X011600Y001000D03*
X010600Y001000D03*
X009100Y001000D03*
X008100Y001000D03*
X007200Y001000D03*
X006100Y001000D03*
X005100Y001000D03*
X016600Y001000D03*
D19*
X014400Y003500D02*
X002300Y003500D01*
X001700Y004100D01*
X001700Y004297D01*
X001727Y004283D01*
X001795Y004261D01*
X001865Y004250D01*
X002150Y004250D01*
X002150Y004650D01*
X002250Y004650D01*
X002250Y004750D01*
X002948Y004750D01*
X002940Y004800D01*
X003960Y004800D01*
X003952Y004750D01*
X004650Y004750D01*
X004650Y004650D01*
X004750Y004650D01*
X004750Y004750D01*
X005448Y004750D01*
X005440Y004800D01*
X006360Y004800D01*
X006352Y004750D01*
X007050Y004750D01*
X007050Y004650D01*
X007150Y004650D01*
X007150Y004750D01*
X007848Y004750D01*
X007840Y004800D01*
X008860Y004800D01*
X008852Y004750D01*
X009550Y004750D01*
X009550Y004650D01*
X009650Y004650D01*
X009650Y004750D01*
X010348Y004750D01*
X010340Y004800D01*
X011360Y004800D01*
X011352Y004750D01*
X012050Y004750D01*
X012050Y004650D01*
X012150Y004650D01*
X012150Y004750D01*
X012848Y004750D01*
X012840Y004800D01*
X013760Y004800D01*
X013752Y004750D01*
X014450Y004750D01*
X014450Y004650D01*
X014550Y004650D01*
X014550Y004250D01*
X014835Y004250D01*
X014905Y004261D01*
X014941Y004273D01*
X014400Y003500D01*
X014432Y003546D02*
X002254Y003546D01*
X002155Y003645D02*
X014501Y003645D01*
X014570Y003743D02*
X002057Y003743D01*
X001958Y003842D02*
X014639Y003842D01*
X014708Y003940D02*
X001860Y003940D01*
X001761Y004039D02*
X014777Y004039D01*
X014846Y004137D02*
X001700Y004137D01*
X001700Y004236D02*
X014915Y004236D01*
X014550Y004334D02*
X014450Y004334D01*
X014450Y004250D02*
X014450Y004650D01*
X013752Y004650D01*
X013761Y004595D01*
X013783Y004527D01*
X013815Y004464D01*
X013857Y004407D01*
X013907Y004357D01*
X013964Y004315D01*
X014027Y004283D01*
X014095Y004261D01*
X014165Y004250D01*
X014450Y004250D01*
X014450Y004433D02*
X014550Y004433D01*
X014550Y004531D02*
X014450Y004531D01*
X014450Y004630D02*
X014550Y004630D01*
X014450Y004728D02*
X012150Y004728D01*
X012100Y004700D02*
X012200Y004700D01*
X012150Y004650D02*
X012848Y004650D01*
X012839Y004595D01*
X012817Y004527D01*
X012785Y004464D01*
X012743Y004407D01*
X012693Y004357D01*
X012636Y004315D01*
X012573Y004283D01*
X012505Y004261D01*
X012435Y004250D01*
X012150Y004250D01*
X012150Y004650D01*
X012150Y004630D02*
X012050Y004630D01*
X012050Y004650D02*
X012050Y004250D01*
X011765Y004250D01*
X011695Y004261D01*
X011627Y004283D01*
X011564Y004315D01*
X011507Y004357D01*
X011457Y004407D01*
X011415Y004464D01*
X011383Y004527D01*
X011361Y004595D01*
X011352Y004650D01*
X012050Y004650D01*
X012050Y004728D02*
X009650Y004728D01*
X009650Y004650D02*
X010348Y004650D01*
X010339Y004595D01*
X010317Y004527D01*
X010285Y004464D01*
X010243Y004407D01*
X010193Y004357D01*
X010136Y004315D01*
X010073Y004283D01*
X010005Y004261D01*
X009935Y004250D01*
X009650Y004250D01*
X009650Y004650D01*
X009650Y004630D02*
X009550Y004630D01*
X009550Y004650D02*
X009550Y004250D01*
X009265Y004250D01*
X009195Y004261D01*
X009127Y004283D01*
X009064Y004315D01*
X009007Y004357D01*
X008957Y004407D01*
X008915Y004464D01*
X008883Y004527D01*
X008861Y004595D01*
X008852Y004650D01*
X009550Y004650D01*
X009550Y004728D02*
X007150Y004728D01*
X007150Y004650D02*
X007848Y004650D01*
X007839Y004595D01*
X007817Y004527D01*
X007785Y004464D01*
X007743Y004407D01*
X007693Y004357D01*
X007636Y004315D01*
X007573Y004283D01*
X007505Y004261D01*
X007435Y004250D01*
X007150Y004250D01*
X007150Y004650D01*
X007150Y004630D02*
X007050Y004630D01*
X007050Y004650D02*
X007050Y004250D01*
X006765Y004250D01*
X006695Y004261D01*
X006627Y004283D01*
X006564Y004315D01*
X006507Y004357D01*
X006457Y004407D01*
X006415Y004464D01*
X006383Y004527D01*
X006361Y004595D01*
X006352Y004650D01*
X007050Y004650D01*
X007050Y004728D02*
X004750Y004728D01*
X004750Y004650D02*
X005448Y004650D01*
X005439Y004595D01*
X005417Y004527D01*
X005385Y004464D01*
X005343Y004407D01*
X005293Y004357D01*
X005236Y004315D01*
X005173Y004283D01*
X005105Y004261D01*
X005035Y004250D01*
X004750Y004250D01*
X004750Y004650D01*
X004750Y004630D02*
X004650Y004630D01*
X004650Y004650D02*
X004650Y004250D01*
X004365Y004250D01*
X004295Y004261D01*
X004227Y004283D01*
X004164Y004315D01*
X004107Y004357D01*
X004057Y004407D01*
X004015Y004464D01*
X003983Y004527D01*
X003961Y004595D01*
X003952Y004650D01*
X004650Y004650D01*
X004650Y004728D02*
X002250Y004728D01*
X002200Y004700D02*
X003100Y004700D01*
X005600Y004000D01*
X005262Y004334D02*
X006538Y004334D01*
X006438Y004433D02*
X005362Y004433D01*
X005418Y004531D02*
X006382Y004531D01*
X006356Y004630D02*
X005444Y004630D01*
X004750Y004531D02*
X004650Y004531D01*
X004650Y004433D02*
X004750Y004433D01*
X004750Y004334D02*
X004650Y004334D01*
X004138Y004334D02*
X002762Y004334D01*
X002736Y004315D02*
X002793Y004357D01*
X002843Y004407D01*
X002885Y004464D01*
X002917Y004527D01*
X002939Y004595D01*
X002948Y004650D01*
X002250Y004650D01*
X002250Y004250D01*
X002535Y004250D01*
X002605Y004261D01*
X002673Y004283D01*
X002736Y004315D01*
X002862Y004433D02*
X004038Y004433D01*
X003982Y004531D02*
X002918Y004531D01*
X002944Y004630D02*
X003956Y004630D01*
X002250Y004630D02*
X002150Y004630D01*
X002150Y004531D02*
X002250Y004531D01*
X002250Y004433D02*
X002150Y004433D01*
X002150Y004334D02*
X002250Y004334D01*
X007050Y004334D02*
X007150Y004334D01*
X007150Y004433D02*
X007050Y004433D01*
X007050Y004531D02*
X007150Y004531D01*
X007662Y004334D02*
X009038Y004334D01*
X008938Y004433D02*
X007762Y004433D01*
X007818Y004531D02*
X008882Y004531D01*
X008856Y004630D02*
X007844Y004630D01*
X009550Y004531D02*
X009650Y004531D01*
X009650Y004433D02*
X009550Y004433D01*
X009550Y004334D02*
X009650Y004334D01*
X010162Y004334D02*
X011538Y004334D01*
X011438Y004433D02*
X010262Y004433D01*
X010318Y004531D02*
X011382Y004531D01*
X011356Y004630D02*
X010344Y004630D01*
X012050Y004531D02*
X012150Y004531D01*
X012150Y004433D02*
X012050Y004433D01*
X012050Y004334D02*
X012150Y004334D01*
X012662Y004334D02*
X013938Y004334D01*
X013838Y004433D02*
X012762Y004433D01*
X012818Y004531D02*
X013782Y004531D01*
X013756Y004630D02*
X012844Y004630D01*
M02*
