G75*
G70*
%OFA0B0*%
%FSLAX24Y24*%
%IPPOS*%
%LPD*%
%AMOC8*
5,1,8,0,0,1.08239X$1,22.5*
%
%ADD10C,0.0000*%
D10*
X000000Y000000D02*
X000000Y023770D01*
X024892Y023770D01*
X024892Y000000D01*
X000000Y000000D01*
X020650Y001400D02*
X020652Y001450D01*
X020658Y001500D01*
X020668Y001550D01*
X020681Y001598D01*
X020698Y001646D01*
X020719Y001692D01*
X020743Y001736D01*
X020771Y001778D01*
X020802Y001818D01*
X020836Y001855D01*
X020873Y001890D01*
X020912Y001921D01*
X020953Y001950D01*
X020997Y001975D01*
X021043Y001997D01*
X021090Y002015D01*
X021138Y002029D01*
X021187Y002040D01*
X021237Y002047D01*
X021287Y002050D01*
X021338Y002049D01*
X021388Y002044D01*
X021438Y002035D01*
X021486Y002023D01*
X021534Y002006D01*
X021580Y001986D01*
X021625Y001963D01*
X021668Y001936D01*
X021708Y001906D01*
X021746Y001873D01*
X021781Y001837D01*
X021814Y001798D01*
X021843Y001757D01*
X021869Y001714D01*
X021892Y001669D01*
X021911Y001622D01*
X021926Y001574D01*
X021938Y001525D01*
X021946Y001475D01*
X021950Y001425D01*
X021950Y001375D01*
X021946Y001325D01*
X021938Y001275D01*
X021926Y001226D01*
X021911Y001178D01*
X021892Y001131D01*
X021869Y001086D01*
X021843Y001043D01*
X021814Y001002D01*
X021781Y000963D01*
X021746Y000927D01*
X021708Y000894D01*
X021668Y000864D01*
X021625Y000837D01*
X021580Y000814D01*
X021534Y000794D01*
X021486Y000777D01*
X021438Y000765D01*
X021388Y000756D01*
X021338Y000751D01*
X021287Y000750D01*
X021237Y000753D01*
X021187Y000760D01*
X021138Y000771D01*
X021090Y000785D01*
X021043Y000803D01*
X020997Y000825D01*
X020953Y000850D01*
X020912Y000879D01*
X020873Y000910D01*
X020836Y000945D01*
X020802Y000982D01*
X020771Y001022D01*
X020743Y001064D01*
X020719Y001108D01*
X020698Y001154D01*
X020681Y001202D01*
X020668Y001250D01*
X020658Y001300D01*
X020652Y001350D01*
X020650Y001400D01*
X000650Y018400D02*
X000652Y018450D01*
X000658Y018500D01*
X000668Y018550D01*
X000681Y018598D01*
X000698Y018646D01*
X000719Y018692D01*
X000743Y018736D01*
X000771Y018778D01*
X000802Y018818D01*
X000836Y018855D01*
X000873Y018890D01*
X000912Y018921D01*
X000953Y018950D01*
X000997Y018975D01*
X001043Y018997D01*
X001090Y019015D01*
X001138Y019029D01*
X001187Y019040D01*
X001237Y019047D01*
X001287Y019050D01*
X001338Y019049D01*
X001388Y019044D01*
X001438Y019035D01*
X001486Y019023D01*
X001534Y019006D01*
X001580Y018986D01*
X001625Y018963D01*
X001668Y018936D01*
X001708Y018906D01*
X001746Y018873D01*
X001781Y018837D01*
X001814Y018798D01*
X001843Y018757D01*
X001869Y018714D01*
X001892Y018669D01*
X001911Y018622D01*
X001926Y018574D01*
X001938Y018525D01*
X001946Y018475D01*
X001950Y018425D01*
X001950Y018375D01*
X001946Y018325D01*
X001938Y018275D01*
X001926Y018226D01*
X001911Y018178D01*
X001892Y018131D01*
X001869Y018086D01*
X001843Y018043D01*
X001814Y018002D01*
X001781Y017963D01*
X001746Y017927D01*
X001708Y017894D01*
X001668Y017864D01*
X001625Y017837D01*
X001580Y017814D01*
X001534Y017794D01*
X001486Y017777D01*
X001438Y017765D01*
X001388Y017756D01*
X001338Y017751D01*
X001287Y017750D01*
X001237Y017753D01*
X001187Y017760D01*
X001138Y017771D01*
X001090Y017785D01*
X001043Y017803D01*
X000997Y017825D01*
X000953Y017850D01*
X000912Y017879D01*
X000873Y017910D01*
X000836Y017945D01*
X000802Y017982D01*
X000771Y018022D01*
X000743Y018064D01*
X000719Y018108D01*
X000698Y018154D01*
X000681Y018202D01*
X000668Y018250D01*
X000658Y018300D01*
X000652Y018350D01*
X000650Y018400D01*
M02*
