%
M48
M72
T01C0.0140
T02C0.0320
T03C0.0400
T04C0.0440
T05C0.0472
T06C0.1300
%
T01
X5100Y1000
X6100Y1000
X7200Y1000
X8100Y1000
X9100Y1000
X10600Y1000
X11600Y1000
X12600Y1000
X14600Y1000
X16600Y1000
X14000Y4000
X12300Y4000
X9700Y4000
X8000Y4000
X5600Y4000
X3000Y4000
X4100Y21200
X5100Y21200
X6100Y21200
X7100Y21200
X10100Y21200
X11100Y21200
X12100Y21200
T02
X13400Y18400
X11900Y17800
X11900Y16000
X11900Y14300
X11900Y12400
X7900Y12400
X7900Y14300
X7900Y16000
X7900Y17800
X17400Y18400
X17400Y19900
X17400Y20900
X20700Y20900
X20700Y19900
T03
X2100Y1600
X3100Y1600
X4100Y1600
X5100Y1600
X6100Y1600
X7100Y1600
X8100Y1600
X9100Y1600
X10600Y1600
X11600Y1600
X12600Y1600
X13600Y1600
X14600Y1600
X15600Y1600
X16600Y1600
X17600Y1600
X19668Y3932
X16132Y7468
X14600Y7700
X14500Y8700
X14600Y9700
X16600Y8900
X14500Y6700
X14600Y5700
X14500Y4700
X12100Y4700
X12200Y5700
X12100Y6700
X12200Y7700
X12100Y8700
X12200Y9700
X9700Y9700
X9600Y8700
X9700Y7700
X9600Y6700
X9700Y5700
X9600Y4700
X7100Y4700
X7200Y5700
X7100Y6700
X7200Y7700
X7100Y8700
X7200Y9700
X4800Y9700
X4700Y8700
X4800Y7700
X4700Y6700
X4800Y5700
X4700Y4700
X2200Y4700
X2300Y5700
X2200Y6700
X2300Y7700
X2200Y8700
X2300Y9700
X3900Y18200
X2900Y18300
X4900Y18300
X5900Y18200
X6100Y20600
X5100Y20600
X4100Y20600
X3100Y20600
X2100Y20600
X7100Y20600
X9100Y20600
X10100Y20600
X11100Y20600
X12100Y20600
X13100Y20600
X14100Y20600
X16600Y13900
X19500Y12800
X20500Y12800
X21500Y12800
T04
X19400Y10200
X19400Y6200
T05
X22000Y5448
X22000Y3930
X22000Y7830
X22000Y9348
X21400Y16330
X21400Y17848
T06
X1100Y18600
X21100Y1600
M30
