G75*
G70*
%OFA0B0*%
%FSLAX24Y24*%
%IPPOS*%
%LPD*%
%AMOC8*
5,1,8,0,0,1.08239X$1,22.5*
%
%ADD10C,0.0600*%
%ADD11C,0.0740*%
%ADD12C,0.0660*%
%ADD13OC8,0.0480*%
%ADD14C,0.0740*%
%ADD15R,0.0800X0.0800*%
%ADD16C,0.0800*%
%ADD17C,0.0300*%
%ADD18C,0.0400*%
D10*
X002700Y004200D02*
X003300Y004200D01*
X003400Y005200D02*
X002800Y005200D01*
X002700Y006200D02*
X003300Y006200D01*
X003400Y007200D02*
X002800Y007200D01*
X002700Y008200D02*
X003300Y008200D01*
X003400Y009200D02*
X002800Y009200D01*
X005000Y009200D02*
X005600Y009200D01*
X005500Y008200D02*
X004900Y008200D01*
X005000Y007200D02*
X005600Y007200D01*
X005500Y006200D02*
X004900Y006200D01*
X005000Y005200D02*
X005600Y005200D01*
X005500Y004200D02*
X004900Y004200D01*
X007200Y004200D02*
X007800Y004200D01*
X007900Y005200D02*
X007300Y005200D01*
X007200Y006200D02*
X007800Y006200D01*
X007900Y007200D02*
X007300Y007200D01*
X007200Y008200D02*
X007800Y008200D01*
X007900Y009200D02*
X007300Y009200D01*
X009600Y008200D02*
X010200Y008200D01*
X010300Y007200D02*
X009700Y007200D01*
X009600Y006200D02*
X010200Y006200D01*
X010300Y005200D02*
X009700Y005200D01*
X009600Y004200D02*
X010200Y004200D01*
X011900Y004200D02*
X012500Y004200D01*
X012600Y005200D02*
X012000Y005200D01*
X011900Y006200D02*
X012500Y006200D01*
X012600Y007200D02*
X012000Y007200D01*
X011900Y008200D02*
X012500Y008200D01*
X012600Y009200D02*
X012000Y009200D01*
X010300Y009200D02*
X009700Y009200D01*
X009700Y012200D02*
X009700Y012800D01*
X010700Y012800D02*
X010700Y012200D01*
X008700Y012200D02*
X008700Y012800D01*
X014200Y008200D02*
X014800Y008200D01*
X014900Y007200D02*
X014300Y007200D01*
X014200Y006200D02*
X014800Y006200D01*
X014900Y005200D02*
X014300Y005200D01*
X014200Y004200D02*
X014800Y004200D01*
X016800Y008500D02*
X016800Y009100D01*
X017800Y009100D02*
X017800Y008500D01*
X018800Y008500D02*
X018800Y009100D01*
X014900Y009200D02*
X014300Y009200D01*
X006300Y017900D02*
X006300Y018500D01*
X005300Y018600D02*
X005300Y018000D01*
X004300Y017900D02*
X004300Y018500D01*
X003300Y018600D02*
X003300Y018000D01*
D11*
X009000Y017400D03*
X009000Y016300D03*
X009000Y015200D03*
X012000Y015200D03*
X012000Y016300D03*
X012000Y017400D03*
X013900Y017500D03*
X015400Y018600D03*
X016700Y017500D03*
X018900Y017100D03*
X016700Y014500D03*
X018000Y013900D03*
X019200Y013900D03*
X019200Y010900D03*
X018000Y010900D03*
X013900Y014500D03*
X015400Y015600D03*
X018900Y020100D03*
X011800Y021900D03*
X008800Y021900D03*
D12*
X007600Y018400D03*
X007600Y014400D03*
X018100Y007000D03*
X022100Y007000D03*
D13*
X021500Y012100D03*
X021500Y013100D03*
X021600Y019300D03*
X021600Y020300D03*
X016900Y020400D03*
X016900Y019400D03*
D14*
X014300Y020030D02*
X014300Y020770D01*
X013300Y020770D02*
X013300Y020030D01*
X012300Y020030D02*
X012300Y020770D01*
X011300Y020770D02*
X011300Y020030D01*
X010300Y020030D02*
X010300Y020770D01*
X009300Y020770D02*
X009300Y020030D01*
X007300Y020030D02*
X007300Y020770D01*
X006300Y020770D02*
X006300Y020030D01*
X005300Y020030D02*
X005300Y020770D01*
X004300Y020770D02*
X004300Y020030D01*
X003300Y020030D02*
X003300Y020770D01*
X002300Y020770D02*
X002300Y020030D01*
X002300Y001770D02*
X002300Y001030D01*
X003300Y001030D02*
X003300Y001770D01*
X004300Y001770D02*
X004300Y001030D01*
X005300Y001030D02*
X005300Y001770D01*
X006300Y001770D02*
X006300Y001030D01*
X007300Y001030D02*
X007300Y001770D01*
X008300Y001770D02*
X008300Y001030D01*
X009300Y001030D02*
X009300Y001770D01*
X010800Y001770D02*
X010800Y001030D01*
X011800Y001030D02*
X011800Y001770D01*
X012800Y001770D02*
X012800Y001030D01*
X013800Y001030D02*
X013800Y001770D01*
X014800Y001770D02*
X014800Y001030D01*
X015800Y001030D02*
X015800Y001770D01*
X016800Y001770D02*
X016800Y001030D01*
X017800Y001030D02*
X017800Y001770D01*
D15*
X021700Y005070D03*
X021400Y008630D03*
X021900Y016030D03*
D16*
X021900Y017548D03*
X021400Y010148D03*
X021700Y003552D03*
D17*
X000650Y000650D02*
X000650Y017152D01*
X000860Y017045D01*
X001300Y016975D01*
X001740Y017045D01*
X001740Y017045D01*
X002138Y017247D01*
X002453Y017562D01*
X002453Y017562D01*
X002655Y017960D01*
X002725Y018400D01*
X002655Y018840D01*
X002655Y018840D01*
X002553Y019042D01*
X002694Y019080D01*
X002800Y019141D01*
X002906Y019080D01*
X002992Y019056D01*
X002942Y019020D01*
X002880Y018958D01*
X002830Y018888D01*
X002790Y018811D01*
X002764Y018729D01*
X002750Y018643D01*
X002750Y018300D01*
X003300Y018300D01*
X003300Y017450D01*
X003343Y017450D01*
X003429Y017464D01*
X003450Y017470D01*
X003495Y017362D01*
X003500Y017356D01*
X003500Y017041D01*
X003622Y016747D01*
X004622Y015747D01*
X004847Y015522D01*
X005141Y015400D01*
X007669Y015400D01*
X007689Y015380D01*
X007405Y015380D01*
X007045Y015231D01*
X006769Y014955D01*
X006620Y014595D01*
X006620Y014205D01*
X006769Y013845D01*
X007045Y013569D01*
X007405Y013420D01*
X007449Y013420D01*
X007647Y013222D01*
X007941Y013100D01*
X008238Y013100D01*
X008230Y013088D01*
X008190Y013011D01*
X008164Y012929D01*
X008150Y012843D01*
X008150Y012500D01*
X008700Y012500D01*
X008700Y012500D01*
X008700Y011650D01*
X008743Y011650D01*
X008829Y011664D01*
X008886Y011682D01*
X008895Y011662D01*
X008900Y011656D01*
X008900Y011041D01*
X009022Y010747D01*
X009329Y010439D01*
X009379Y010319D01*
X009548Y010150D01*
X009511Y010150D01*
X009162Y010005D01*
X008895Y009738D01*
X008800Y009510D01*
X008705Y009738D01*
X008438Y010005D01*
X008089Y010150D01*
X007111Y010150D01*
X006762Y010005D01*
X006495Y009738D01*
X006450Y009630D01*
X006405Y009738D01*
X006138Y010005D01*
X005789Y010150D01*
X004811Y010150D01*
X004462Y010005D01*
X004200Y009744D01*
X003938Y010005D01*
X003589Y010150D01*
X002611Y010150D01*
X002262Y010005D01*
X001995Y009738D01*
X001850Y009389D01*
X001850Y009011D01*
X001943Y008787D01*
X001895Y008738D01*
X001750Y008389D01*
X001750Y008011D01*
X001895Y007662D01*
X002162Y007395D01*
X002270Y007350D01*
X002264Y007329D01*
X002250Y007243D01*
X002250Y007200D01*
X003100Y007200D01*
X005300Y007200D01*
X007600Y007200D01*
X010000Y007200D01*
X012300Y007200D01*
X014600Y007200D01*
X014600Y007200D01*
X013750Y007200D01*
X013750Y007243D01*
X013764Y007329D01*
X013770Y007350D01*
X013662Y007395D01*
X013395Y007662D01*
X013350Y007770D01*
X013305Y007662D01*
X013091Y007448D01*
X013110Y007411D01*
X013136Y007329D01*
X013150Y007243D01*
X013150Y007200D01*
X012300Y007200D01*
X012300Y007200D01*
X012300Y007200D01*
X011450Y007200D01*
X011450Y007243D01*
X011464Y007329D01*
X011470Y007350D01*
X011362Y007395D01*
X011095Y007662D01*
X011050Y007770D01*
X011005Y007662D01*
X010791Y007448D01*
X010810Y007411D01*
X010836Y007329D01*
X010850Y007243D01*
X010850Y007200D01*
X010000Y007200D01*
X010000Y007200D01*
X010850Y007200D01*
X010850Y007157D01*
X010836Y007071D01*
X010810Y006989D01*
X010793Y006957D01*
X010881Y006921D01*
X011086Y006716D01*
X011095Y006738D01*
X011362Y007005D01*
X011470Y007050D01*
X011464Y007071D01*
X011450Y007157D01*
X011450Y007200D01*
X012300Y007200D01*
X013150Y007200D01*
X013150Y007157D01*
X013136Y007071D01*
X013110Y006989D01*
X013093Y006957D01*
X013181Y006921D01*
X013386Y006716D01*
X013395Y006738D01*
X013662Y007005D01*
X013770Y007050D01*
X013764Y007071D01*
X013750Y007157D01*
X013750Y007200D01*
X014600Y007200D01*
X013750Y007164D02*
X013150Y007164D01*
X013106Y007463D02*
X013594Y007463D01*
X013354Y007761D02*
X013346Y007761D01*
X013237Y006866D02*
X013522Y006866D01*
X014000Y005200D02*
X013600Y004900D01*
X013600Y003200D01*
X012900Y002400D01*
X012900Y001500D01*
X012800Y001400D01*
X013800Y001400D02*
X013800Y002400D01*
X014400Y003000D01*
X015100Y003000D01*
X015700Y003600D01*
X015700Y013500D01*
X014900Y014500D01*
X013900Y015800D01*
X013900Y017500D01*
X016700Y017500D01*
X018900Y017100D01*
X020400Y017300D02*
X020400Y020900D01*
X019900Y021400D01*
X018100Y023100D01*
X010000Y023100D01*
X008800Y021900D01*
X008400Y021500D01*
X007300Y020400D01*
X007300Y020300D01*
X006300Y020400D02*
X006300Y018200D01*
X006300Y018000D01*
X006800Y017500D01*
X008900Y017500D01*
X009000Y017400D01*
X008600Y016700D02*
X009000Y016300D01*
X008600Y016700D02*
X006000Y016700D01*
X005300Y017400D01*
X005300Y018300D01*
X005300Y020400D01*
X004300Y020400D02*
X004300Y018200D01*
X004300Y017200D01*
X005300Y016200D01*
X008000Y016200D01*
X009000Y015200D01*
X009737Y014494D02*
X009816Y014574D01*
X009950Y014806D01*
X010020Y015066D01*
X010020Y015334D01*
X009950Y015594D01*
X009860Y015750D01*
X009950Y015906D01*
X010020Y016166D01*
X010020Y016434D01*
X009950Y016694D01*
X009860Y016850D01*
X009950Y017006D01*
X010020Y017266D01*
X010020Y017534D01*
X009950Y017794D01*
X009816Y018026D01*
X009626Y018216D01*
X009394Y018350D01*
X009134Y018420D01*
X008866Y018420D01*
X008606Y018350D01*
X008580Y018335D01*
X008580Y018549D01*
X009068Y019036D01*
X009166Y019010D01*
X009434Y019010D01*
X009694Y019080D01*
X009926Y019214D01*
X010116Y019404D01*
X010133Y019432D01*
X010155Y019425D01*
X010251Y019410D01*
X010300Y019410D01*
X010349Y019410D01*
X010445Y019425D01*
X010538Y019455D01*
X010625Y019500D01*
X010704Y019557D01*
X010773Y019626D01*
X010800Y019663D01*
X010827Y019626D01*
X010896Y019557D01*
X010975Y019500D01*
X011062Y019455D01*
X011155Y019425D01*
X011251Y019410D01*
X011300Y019410D01*
X011349Y019410D01*
X011445Y019425D01*
X011467Y019432D01*
X011484Y019404D01*
X011500Y019388D01*
X011500Y018289D01*
X011374Y018216D01*
X011184Y018026D01*
X011050Y017794D01*
X010980Y017534D01*
X010980Y017266D01*
X011050Y017006D01*
X011140Y016850D01*
X011050Y016694D01*
X010980Y016434D01*
X010980Y016166D01*
X011050Y015906D01*
X011140Y015750D01*
X011050Y015594D01*
X010980Y015334D01*
X010980Y015066D01*
X011050Y014806D01*
X011184Y014574D01*
X011200Y014558D01*
X011200Y013702D01*
X011181Y013721D01*
X010869Y013850D01*
X010531Y013850D01*
X010402Y013796D01*
X010378Y013853D01*
X009878Y014353D01*
X009737Y014494D01*
X009847Y014627D02*
X011153Y014627D01*
X011200Y014328D02*
X009903Y014328D01*
X010202Y014030D02*
X011200Y014030D01*
X011200Y013731D02*
X011156Y013731D01*
X010700Y013000D02*
X010700Y012500D01*
X009700Y012500D02*
X009700Y013400D01*
X009200Y013900D01*
X008100Y013900D01*
X007600Y014400D01*
X006883Y013731D02*
X000650Y013731D01*
X000650Y013433D02*
X007375Y013433D01*
X007859Y013134D02*
X000650Y013134D01*
X000650Y012836D02*
X008150Y012836D01*
X008150Y012537D02*
X000650Y012537D01*
X000650Y012239D02*
X008150Y012239D01*
X008150Y012157D02*
X008164Y012071D01*
X008190Y011989D01*
X008230Y011912D01*
X008280Y011842D01*
X008342Y011780D01*
X008412Y011730D01*
X008489Y011690D01*
X008571Y011664D01*
X008657Y011650D01*
X008700Y011650D01*
X008700Y012500D01*
X008700Y012500D01*
X008150Y012500D01*
X008150Y012157D01*
X008215Y011940D02*
X000650Y011940D01*
X000650Y011642D02*
X008900Y011642D01*
X008900Y011343D02*
X000650Y011343D01*
X000650Y011045D02*
X008900Y011045D01*
X009023Y010746D02*
X000650Y010746D01*
X000650Y010448D02*
X009321Y010448D01*
X009509Y010149D02*
X008091Y010149D01*
X008593Y009851D02*
X009007Y009851D01*
X008818Y009552D02*
X008782Y009552D01*
X010100Y010800D02*
X009700Y011200D01*
X009700Y012500D01*
X008700Y012239D02*
X008700Y012239D01*
X008700Y011940D02*
X008700Y011940D01*
X007109Y010149D02*
X005791Y010149D01*
X006293Y009851D02*
X006607Y009851D01*
X004809Y010149D02*
X003591Y010149D01*
X004093Y009851D02*
X004307Y009851D01*
X002609Y010149D02*
X000650Y010149D01*
X000650Y009851D02*
X002107Y009851D01*
X001918Y009552D02*
X000650Y009552D01*
X000650Y009254D02*
X001850Y009254D01*
X001873Y008955D02*
X000650Y008955D01*
X000650Y008657D02*
X001861Y008657D01*
X001750Y008358D02*
X000650Y008358D01*
X000650Y008060D02*
X001750Y008060D01*
X001854Y007761D02*
X000650Y007761D01*
X000650Y007463D02*
X002094Y007463D01*
X002250Y007200D02*
X002250Y007157D01*
X002264Y007071D01*
X002270Y007050D01*
X002162Y007005D01*
X002156Y007000D01*
X001841Y007000D01*
X001547Y006878D01*
X001322Y006653D01*
X000922Y006253D01*
X000800Y005959D01*
X000800Y003441D01*
X000922Y003147D01*
X001147Y002922D01*
X001578Y002491D01*
X001484Y002396D01*
X001350Y002164D01*
X001280Y001904D01*
X001280Y000896D01*
X001346Y000650D01*
X000650Y000650D01*
X000650Y000896D02*
X001280Y000896D01*
X001280Y001194D02*
X000650Y001194D01*
X000650Y001493D02*
X001280Y001493D01*
X001280Y001791D02*
X000650Y001791D01*
X000650Y002090D02*
X001330Y002090D01*
X001479Y002388D02*
X000650Y002388D01*
X000650Y002687D02*
X001382Y002687D01*
X001084Y002985D02*
X000650Y002985D01*
X000650Y003284D02*
X000865Y003284D01*
X000800Y003582D02*
X000650Y003582D01*
X000650Y003881D02*
X000800Y003881D01*
X000800Y004179D02*
X000650Y004179D01*
X000650Y004478D02*
X000800Y004478D01*
X000800Y004776D02*
X000650Y004776D01*
X000650Y005075D02*
X000800Y005075D01*
X000800Y005373D02*
X000650Y005373D01*
X000650Y005672D02*
X000800Y005672D01*
X000805Y005970D02*
X000650Y005970D01*
X000650Y006269D02*
X000937Y006269D01*
X000650Y006567D02*
X001236Y006567D01*
X001534Y006866D02*
X000650Y006866D01*
X000650Y007164D02*
X002250Y007164D01*
X002250Y007200D02*
X003100Y007200D01*
X003950Y007200D01*
X003950Y007243D01*
X003936Y007329D01*
X003910Y007411D01*
X003891Y007448D01*
X004100Y007656D01*
X004362Y007395D01*
X004470Y007350D01*
X004464Y007329D01*
X004450Y007243D01*
X004450Y007200D01*
X005300Y007200D01*
X006150Y007200D01*
X006150Y007243D01*
X006136Y007329D01*
X006110Y007411D01*
X006091Y007448D01*
X006305Y007662D01*
X006350Y007770D01*
X006395Y007662D01*
X006662Y007395D01*
X006770Y007350D01*
X006764Y007329D01*
X006750Y007243D01*
X006750Y007200D01*
X007600Y007200D01*
X008450Y007200D01*
X008450Y007243D01*
X008436Y007329D01*
X008410Y007411D01*
X008391Y007448D01*
X008605Y007662D01*
X008700Y007890D01*
X008795Y007662D01*
X009062Y007395D01*
X009170Y007350D01*
X009164Y007329D01*
X009150Y007243D01*
X009150Y007200D01*
X010000Y007200D01*
X010000Y007200D01*
X009150Y007200D01*
X009150Y007157D01*
X009164Y007071D01*
X009170Y007050D01*
X009062Y007005D01*
X008795Y006738D01*
X008746Y006620D01*
X008721Y006681D01*
X008481Y006921D01*
X008393Y006957D01*
X008410Y006989D01*
X008436Y007071D01*
X008450Y007157D01*
X008450Y007200D01*
X007600Y007200D01*
X007600Y007200D01*
X007600Y007200D01*
X006750Y007200D01*
X006750Y007157D01*
X006764Y007071D01*
X006770Y007050D01*
X006662Y007005D01*
X006395Y006738D01*
X006386Y006716D01*
X006181Y006921D01*
X006093Y006957D01*
X006110Y006989D01*
X006136Y007071D01*
X006150Y007157D01*
X006150Y007200D01*
X005300Y007200D01*
X005300Y007200D01*
X005300Y007200D01*
X004450Y007200D01*
X004450Y007157D01*
X004464Y007071D01*
X004470Y007050D01*
X004362Y007005D01*
X004129Y006773D01*
X003981Y006921D01*
X003893Y006957D01*
X003910Y006989D01*
X003936Y007071D01*
X003950Y007157D01*
X003950Y007200D01*
X003100Y007200D01*
X003100Y007200D01*
X003100Y007200D01*
X003906Y007463D02*
X004294Y007463D01*
X004450Y007164D02*
X003950Y007164D01*
X004037Y006866D02*
X004222Y006866D01*
X003000Y006200D02*
X002000Y006200D01*
X001600Y005800D01*
X001600Y003600D01*
X002800Y002400D01*
X004700Y002400D01*
X005300Y001800D01*
X005300Y001400D01*
X006300Y001400D02*
X006300Y001700D01*
X005100Y002900D01*
X003400Y002900D01*
X003100Y003200D01*
X003100Y004100D01*
X003000Y004200D01*
X003100Y005200D02*
X003900Y005200D01*
X004200Y004900D01*
X004200Y003800D01*
X004500Y003500D01*
X004600Y003400D01*
X005700Y003400D01*
X007300Y001800D01*
X007300Y001400D01*
X008300Y001400D02*
X008300Y001900D01*
X008200Y002000D01*
X006300Y003900D01*
X006300Y004700D01*
X005800Y005200D01*
X005300Y005200D01*
X006237Y006866D02*
X006522Y006866D01*
X006750Y007164D02*
X006150Y007164D01*
X006106Y007463D02*
X006594Y007463D01*
X006354Y007761D02*
X006346Y007761D01*
X008406Y007463D02*
X008994Y007463D01*
X009150Y007164D02*
X008450Y007164D01*
X008537Y006866D02*
X008922Y006866D01*
X008754Y007761D02*
X008646Y007761D01*
X010806Y007463D02*
X011294Y007463D01*
X011450Y007164D02*
X010850Y007164D01*
X010937Y006866D02*
X011222Y006866D01*
X011054Y007761D02*
X011046Y007761D01*
X012300Y009200D02*
X012000Y009500D01*
X012000Y015200D01*
X012000Y016300D01*
X012000Y017400D01*
X012300Y017700D01*
X012300Y018900D01*
X012300Y020400D01*
X012300Y021400D01*
X011800Y021900D01*
X010700Y022600D02*
X017700Y022600D01*
X019900Y020400D01*
X019900Y015200D01*
X020600Y014500D01*
X022400Y014500D01*
X023200Y013700D01*
X023200Y010430D01*
X021400Y008630D01*
X022100Y007930D01*
X022100Y007000D01*
X021700Y006600D01*
X021700Y005070D01*
X020650Y005581D02*
X019080Y007151D01*
X019080Y007195D01*
X018931Y007555D01*
X018655Y007831D01*
X018600Y007854D01*
X018600Y007956D01*
X018605Y007962D01*
X018614Y007982D01*
X018671Y007964D01*
X018757Y007950D01*
X018800Y007950D01*
X018843Y007950D01*
X018929Y007964D01*
X019011Y007990D01*
X019088Y008030D01*
X019158Y008080D01*
X019220Y008142D01*
X019270Y008212D01*
X019310Y008289D01*
X019336Y008371D01*
X019350Y008457D01*
X019350Y008800D01*
X019350Y009143D01*
X019336Y009229D01*
X019310Y009311D01*
X019270Y009388D01*
X019220Y009458D01*
X019158Y009520D01*
X019088Y009570D01*
X019011Y009610D01*
X018929Y009636D01*
X018843Y009650D01*
X018800Y009650D01*
X018800Y008800D01*
X018800Y008800D01*
X019350Y008800D01*
X018800Y008800D01*
X018800Y008800D01*
X018800Y009650D01*
X018757Y009650D01*
X018671Y009636D01*
X018614Y009618D01*
X018605Y009638D01*
X018338Y009905D01*
X018295Y009923D01*
X018394Y009950D01*
X018600Y010069D01*
X018806Y009950D01*
X019066Y009880D01*
X019334Y009880D01*
X019594Y009950D01*
X019826Y010084D01*
X019842Y010100D01*
X020221Y010100D01*
X019622Y009501D01*
X019500Y009207D01*
X019500Y008290D01*
X019450Y008169D01*
X019450Y007831D01*
X019579Y007519D01*
X019819Y007279D01*
X020131Y007150D01*
X020469Y007150D01*
X020781Y007279D01*
X021021Y007519D01*
X021046Y007580D01*
X021294Y007580D01*
X021269Y007555D01*
X021120Y007195D01*
X021120Y007151D01*
X021022Y007053D01*
X020900Y006759D01*
X020900Y005989D01*
X020749Y005838D01*
X020650Y005599D01*
X020650Y005581D01*
X020680Y005672D02*
X020560Y005672D01*
X020261Y005970D02*
X020881Y005970D01*
X020900Y006269D02*
X019963Y006269D01*
X019664Y006567D02*
X020900Y006567D01*
X020944Y006866D02*
X019366Y006866D01*
X019080Y007164D02*
X020097Y007164D01*
X019635Y007463D02*
X018969Y007463D01*
X018725Y007761D02*
X019479Y007761D01*
X019450Y008060D02*
X019129Y008060D01*
X018800Y008060D02*
X018800Y008060D01*
X018800Y007950D02*
X018800Y008800D01*
X018800Y007950D01*
X018800Y008358D02*
X018800Y008358D01*
X018800Y008657D02*
X018800Y008657D01*
X018800Y008800D02*
X018800Y008800D01*
X018800Y008955D02*
X018800Y008955D01*
X018800Y009254D02*
X018800Y009254D01*
X018800Y009552D02*
X018800Y009552D01*
X019114Y009552D02*
X019673Y009552D01*
X019519Y009254D02*
X019328Y009254D01*
X019350Y008955D02*
X019500Y008955D01*
X019500Y008657D02*
X019350Y008657D01*
X019332Y008358D02*
X019500Y008358D01*
X020300Y008000D02*
X020300Y009048D01*
X021400Y010148D01*
X022310Y010672D02*
X022240Y010793D01*
X022045Y010988D01*
X021805Y011126D01*
X021689Y011158D01*
X021741Y011210D01*
X021869Y011210D01*
X022390Y011731D01*
X022390Y012469D01*
X021976Y012883D01*
X021990Y012897D01*
X021990Y013100D01*
X021990Y013303D01*
X021703Y013590D01*
X021500Y013590D01*
X021500Y013100D01*
X021990Y013100D01*
X021500Y013100D01*
X021500Y013100D01*
X021500Y013100D01*
X021500Y013100D01*
X021010Y013100D01*
X021010Y013303D01*
X021297Y013590D01*
X021500Y013590D01*
X021500Y013100D01*
X021010Y013100D01*
X021010Y012897D01*
X021024Y012883D01*
X020610Y012469D01*
X020610Y012341D01*
X019969Y011700D01*
X019842Y011700D01*
X019826Y011716D01*
X019594Y011850D01*
X019334Y011920D01*
X019066Y011920D01*
X018806Y011850D01*
X018600Y011731D01*
X018394Y011850D01*
X018134Y011920D01*
X017866Y011920D01*
X017606Y011850D01*
X017374Y011716D01*
X017358Y011700D01*
X017341Y011700D01*
X017047Y011578D01*
X017000Y011531D01*
X017000Y011681D01*
X018136Y012881D01*
X018394Y012950D01*
X018600Y013069D01*
X018806Y012950D01*
X019066Y012880D01*
X019334Y012880D01*
X019594Y012950D01*
X019826Y013084D01*
X020016Y013274D01*
X020150Y013506D01*
X020220Y013766D01*
X020220Y013791D01*
X020441Y013700D01*
X022069Y013700D01*
X022400Y013369D01*
X022400Y010761D01*
X022310Y010672D01*
X022267Y010746D02*
X022385Y010746D01*
X022400Y011045D02*
X021947Y011045D01*
X022002Y011343D02*
X022400Y011343D01*
X022400Y011642D02*
X022300Y011642D01*
X022390Y011940D02*
X022400Y011940D01*
X022390Y012239D02*
X022400Y012239D01*
X022400Y012537D02*
X022322Y012537D01*
X022400Y012836D02*
X022023Y012836D01*
X021990Y013134D02*
X022400Y013134D01*
X022336Y013433D02*
X021860Y013433D01*
X021500Y013433D02*
X021500Y013433D01*
X021140Y013433D02*
X020108Y013433D01*
X020211Y013731D02*
X020366Y013731D01*
X019877Y013134D02*
X021010Y013134D01*
X020977Y012836D02*
X018094Y012836D01*
X017811Y012537D02*
X020678Y012537D01*
X020507Y012239D02*
X017528Y012239D01*
X017245Y011940D02*
X020209Y011940D01*
X020300Y010900D02*
X019200Y010900D01*
X020300Y010900D02*
X021500Y012100D01*
X021500Y013134D02*
X021500Y013134D01*
X023405Y014627D02*
X024242Y014627D01*
X024242Y014925D02*
X023106Y014925D01*
X022853Y015178D02*
X023653Y014378D01*
X023878Y014153D01*
X024000Y013859D01*
X024000Y010271D01*
X023878Y009977D01*
X022531Y008630D01*
X022778Y008383D01*
X022900Y008089D01*
X022900Y007586D01*
X022931Y007555D01*
X023080Y007195D01*
X023080Y006805D01*
X022931Y006445D01*
X022655Y006169D01*
X022500Y006105D01*
X022500Y005989D01*
X022651Y005838D01*
X022750Y005599D01*
X022750Y004541D01*
X022651Y004302D01*
X022542Y004193D01*
X022678Y003957D01*
X022750Y003690D01*
X022750Y003414D01*
X022678Y003147D01*
X022540Y002907D01*
X022345Y002712D01*
X022105Y002574D01*
X022100Y002572D01*
X022138Y002553D01*
X022138Y002553D01*
X022453Y002238D01*
X022453Y002238D01*
X022655Y001840D01*
X022655Y001840D01*
X022725Y001400D01*
X022655Y000960D01*
X022655Y000960D01*
X022497Y000650D01*
X024242Y000650D01*
X024242Y023120D01*
X019244Y023120D01*
X020342Y022083D01*
X020353Y022078D01*
X020458Y021974D01*
X020565Y021872D01*
X020570Y021862D01*
X021078Y021353D01*
X021200Y021059D01*
X021200Y020593D01*
X021397Y020790D01*
X021600Y020790D01*
X021600Y020300D01*
X021600Y020300D01*
X022090Y020300D01*
X022090Y020503D01*
X021803Y020790D01*
X021600Y020790D01*
X021600Y020300D01*
X021600Y020300D01*
X022090Y020300D01*
X022090Y020097D01*
X022076Y020083D01*
X022490Y019669D01*
X022490Y019541D01*
X022578Y019453D01*
X022700Y019159D01*
X022700Y018233D01*
X022740Y018193D01*
X022878Y017953D01*
X022950Y017686D01*
X022950Y017410D01*
X022878Y017143D01*
X022742Y016907D01*
X022851Y016798D01*
X022950Y016559D01*
X022950Y015501D01*
X022851Y015262D01*
X022793Y015203D01*
X022853Y015178D01*
X022813Y015224D02*
X024242Y015224D01*
X024242Y015522D02*
X022950Y015522D01*
X022950Y015821D02*
X024242Y015821D01*
X024242Y016119D02*
X022950Y016119D01*
X022950Y016418D02*
X024242Y016418D01*
X024242Y016716D02*
X022885Y016716D01*
X022804Y017015D02*
X024242Y017015D01*
X024242Y017313D02*
X022924Y017313D01*
X022950Y017612D02*
X024242Y017612D01*
X024242Y017910D02*
X022890Y017910D01*
X022724Y018209D02*
X024242Y018209D01*
X024242Y018507D02*
X022700Y018507D01*
X022700Y018806D02*
X024242Y018806D01*
X024242Y019104D02*
X022700Y019104D01*
X022599Y019403D02*
X024242Y019403D01*
X024242Y019701D02*
X022458Y019701D01*
X022159Y020000D02*
X024242Y020000D01*
X024242Y020298D02*
X022090Y020298D01*
X021996Y020597D02*
X024242Y020597D01*
X024242Y020895D02*
X021200Y020895D01*
X021200Y020597D02*
X021204Y020597D01*
X021600Y020597D02*
X021600Y020597D01*
X021144Y021194D02*
X024242Y021194D01*
X024242Y021492D02*
X020939Y021492D01*
X020641Y021791D02*
X024242Y021791D01*
X024242Y022089D02*
X020336Y022089D01*
X020020Y022388D02*
X024242Y022388D01*
X024242Y022686D02*
X019703Y022686D01*
X019387Y022985D02*
X024242Y022985D01*
X021600Y019300D02*
X021900Y019000D01*
X021900Y017548D01*
X020400Y017300D02*
X021670Y016030D01*
X021900Y016030D01*
X023703Y014328D02*
X024242Y014328D01*
X024242Y014030D02*
X023929Y014030D01*
X024000Y013731D02*
X024242Y013731D01*
X024242Y013433D02*
X024000Y013433D01*
X024000Y013134D02*
X024242Y013134D01*
X024242Y012836D02*
X024000Y012836D01*
X024000Y012537D02*
X024242Y012537D01*
X024242Y012239D02*
X024000Y012239D01*
X024000Y011940D02*
X024242Y011940D01*
X024242Y011642D02*
X024000Y011642D01*
X024000Y011343D02*
X024242Y011343D01*
X024242Y011045D02*
X024000Y011045D01*
X024000Y010746D02*
X024242Y010746D01*
X024242Y010448D02*
X024000Y010448D01*
X023950Y010149D02*
X024242Y010149D01*
X024242Y009851D02*
X023752Y009851D01*
X023453Y009552D02*
X024242Y009552D01*
X024242Y009254D02*
X023155Y009254D01*
X022856Y008955D02*
X024242Y008955D01*
X024242Y008657D02*
X022558Y008657D01*
X022789Y008358D02*
X024242Y008358D01*
X024242Y008060D02*
X022900Y008060D01*
X022900Y007761D02*
X024242Y007761D01*
X024242Y007463D02*
X022969Y007463D01*
X023080Y007164D02*
X024242Y007164D01*
X024242Y006866D02*
X023080Y006866D01*
X022981Y006567D02*
X024242Y006567D01*
X024242Y006269D02*
X022754Y006269D01*
X022519Y005970D02*
X024242Y005970D01*
X024242Y005672D02*
X022720Y005672D01*
X022750Y005373D02*
X024242Y005373D01*
X024242Y005075D02*
X022750Y005075D01*
X022750Y004776D02*
X024242Y004776D01*
X024242Y004478D02*
X022724Y004478D01*
X022550Y004179D02*
X024242Y004179D01*
X024242Y003881D02*
X022699Y003881D01*
X022750Y003582D02*
X024242Y003582D01*
X024242Y003284D02*
X022715Y003284D01*
X022585Y002985D02*
X024242Y002985D01*
X024242Y002687D02*
X022301Y002687D01*
X022302Y002388D02*
X024242Y002388D01*
X024242Y002090D02*
X022528Y002090D01*
X022663Y001791D02*
X024242Y001791D01*
X024242Y001493D02*
X022710Y001493D01*
X022692Y001194D02*
X024242Y001194D01*
X024242Y000896D02*
X022623Y000896D01*
X020991Y002776D02*
X020860Y002755D01*
X020860Y002755D01*
X020462Y002553D01*
X020147Y002238D01*
X020147Y002238D01*
X019945Y001840D01*
X019875Y001400D01*
X019945Y000960D01*
X020103Y000650D01*
X018754Y000650D01*
X018820Y000896D01*
X018820Y001904D01*
X018750Y002164D01*
X018616Y002396D01*
X018426Y002586D01*
X018194Y002720D01*
X017934Y002790D01*
X017666Y002790D01*
X017406Y002720D01*
X017174Y002586D01*
X016984Y002396D01*
X016967Y002368D01*
X016945Y002375D01*
X016849Y002390D01*
X016800Y002390D01*
X016800Y001979D01*
X016800Y002390D01*
X016751Y002390D01*
X016655Y002375D01*
X016633Y002368D01*
X016616Y002396D01*
X016513Y002499D01*
X016639Y002616D01*
X016653Y002622D01*
X016755Y002724D01*
X016861Y002822D01*
X016867Y002836D01*
X016878Y002847D01*
X016933Y002980D01*
X016994Y003111D01*
X016994Y003127D01*
X017000Y003141D01*
X017000Y003285D01*
X017005Y003429D01*
X017000Y003444D01*
X017000Y007555D01*
X017000Y007555D01*
X017000Y007141D01*
X017120Y006851D01*
X017120Y006805D01*
X017269Y006445D01*
X017545Y006169D01*
X017905Y006020D01*
X017949Y006020D01*
X020685Y003284D01*
X020722Y003147D01*
X020860Y002907D01*
X020991Y002776D01*
X020815Y002985D02*
X016936Y002985D01*
X017000Y003284D02*
X020685Y003284D01*
X020387Y003582D02*
X017000Y003582D01*
X017000Y003881D02*
X020088Y003881D01*
X019790Y004179D02*
X017000Y004179D01*
X017000Y004478D02*
X019491Y004478D01*
X019193Y004776D02*
X017000Y004776D01*
X017000Y005075D02*
X018894Y005075D01*
X018596Y005373D02*
X017000Y005373D01*
X017000Y005672D02*
X018297Y005672D01*
X017999Y005970D02*
X017000Y005970D01*
X017000Y006269D02*
X017446Y006269D01*
X017219Y006567D02*
X017000Y006567D01*
X017000Y006866D02*
X017114Y006866D01*
X017000Y007164D02*
X017000Y007164D01*
X017000Y007463D02*
X017000Y007463D01*
X017800Y007300D02*
X018100Y007000D01*
X021548Y003552D01*
X021700Y003552D01*
X020725Y002687D02*
X018253Y002687D01*
X018621Y002388D02*
X020298Y002388D01*
X020462Y002553D02*
X020462Y002553D01*
X020462Y002553D01*
X020072Y002090D02*
X018770Y002090D01*
X018820Y001791D02*
X019937Y001791D01*
X019890Y001493D02*
X018820Y001493D01*
X018820Y001194D02*
X019908Y001194D01*
X019977Y000896D02*
X018820Y000896D01*
X016800Y001979D02*
X016800Y001979D01*
X016800Y001979D01*
X016800Y002090D02*
X016800Y002090D01*
X016800Y002388D02*
X016800Y002388D01*
X016861Y002388D02*
X016979Y002388D01*
X016739Y002388D02*
X016621Y002388D01*
X016718Y002687D02*
X017347Y002687D01*
X016200Y003300D02*
X016200Y012000D01*
X018000Y013900D01*
X019200Y013900D01*
X019200Y014700D01*
X018300Y015600D01*
X015400Y015600D01*
X016700Y014500D02*
X016700Y014500D01*
X016700Y013880D01*
X016749Y013880D01*
X016845Y013895D01*
X016915Y013918D01*
X016503Y013483D01*
X016513Y013570D01*
X016500Y013614D01*
X016500Y013659D01*
X016456Y013765D01*
X016424Y013875D01*
X016396Y013911D01*
X016378Y013953D01*
X016326Y014005D01*
X016375Y013970D01*
X016462Y013925D01*
X016555Y013895D01*
X016651Y013880D01*
X016700Y013880D01*
X016700Y014500D01*
X016700Y014328D02*
X016700Y014328D01*
X016700Y014030D02*
X016700Y014030D01*
X016738Y013731D02*
X016470Y013731D01*
X017000Y011642D02*
X017200Y011642D01*
X017500Y010900D02*
X016800Y010200D01*
X016800Y008800D01*
X017800Y008800D02*
X017800Y007300D01*
X020503Y007164D02*
X021120Y007164D01*
X021231Y007463D02*
X020965Y007463D01*
X019971Y009851D02*
X018393Y009851D01*
X018000Y010900D02*
X017500Y010900D01*
X013900Y014400D02*
X013600Y014100D01*
X013900Y014400D02*
X013900Y014500D01*
X011018Y014925D02*
X009982Y014925D01*
X010020Y015224D02*
X010980Y015224D01*
X011030Y015522D02*
X009970Y015522D01*
X009901Y015821D02*
X011099Y015821D01*
X010993Y016119D02*
X010007Y016119D01*
X010020Y016418D02*
X010980Y016418D01*
X011062Y016716D02*
X009938Y016716D01*
X009953Y017015D02*
X011047Y017015D01*
X010980Y017313D02*
X010020Y017313D01*
X009999Y017612D02*
X011001Y017612D01*
X011117Y017910D02*
X009883Y017910D01*
X009634Y018209D02*
X011366Y018209D01*
X011500Y018507D02*
X008580Y018507D01*
X008837Y018806D02*
X011500Y018806D01*
X011500Y019104D02*
X009736Y019104D01*
X010115Y019403D02*
X011485Y019403D01*
X011300Y019410D02*
X011300Y019821D01*
X011300Y019821D01*
X011300Y019410D01*
X011300Y019701D02*
X011300Y019701D01*
X011280Y020400D02*
X010320Y020400D01*
X010680Y020400D01*
X011280Y020400D01*
X011280Y020400D01*
X010320Y020400D02*
X010320Y020400D01*
X010300Y019821D02*
X010300Y019410D01*
X010300Y019821D01*
X010300Y019821D01*
X010300Y019701D02*
X010300Y019701D01*
X009300Y020400D02*
X009300Y021200D01*
X010700Y022600D01*
X013000Y021800D02*
X013020Y021751D01*
X013166Y021790D01*
X013434Y021790D01*
X013694Y021720D01*
X013800Y021659D01*
X013906Y021720D01*
X014166Y021790D01*
X014434Y021790D01*
X014694Y021720D01*
X014926Y021586D01*
X015116Y021396D01*
X015250Y021164D01*
X015320Y020904D01*
X015320Y019896D01*
X015250Y019636D01*
X015116Y019404D01*
X014926Y019214D01*
X014694Y019080D01*
X014434Y019010D01*
X014166Y019010D01*
X013906Y019080D01*
X013800Y019141D01*
X013694Y019080D01*
X013434Y019010D01*
X013166Y019010D01*
X013100Y019028D01*
X013100Y018142D01*
X013274Y018316D01*
X013506Y018450D01*
X013766Y018520D01*
X014034Y018520D01*
X014294Y018450D01*
X014526Y018316D01*
X014542Y018300D01*
X014857Y018300D01*
X014825Y018362D01*
X014795Y018455D01*
X014780Y018551D01*
X014780Y018600D01*
X015400Y018600D01*
X015400Y018600D01*
X015400Y019220D01*
X015449Y019220D01*
X015545Y019205D01*
X015638Y019175D01*
X015725Y019130D01*
X015804Y019073D01*
X015873Y019004D01*
X015930Y018925D01*
X015975Y018838D01*
X016005Y018745D01*
X016020Y018649D01*
X016020Y018600D01*
X015400Y018600D01*
X015400Y018600D01*
X015400Y018600D01*
X015400Y019220D01*
X015351Y019220D01*
X015255Y019205D01*
X015162Y019175D01*
X015075Y019130D01*
X014996Y019073D01*
X014927Y019004D01*
X014870Y018925D01*
X014825Y018838D01*
X014795Y018745D01*
X014780Y018649D01*
X014780Y018600D01*
X015400Y018600D01*
X016020Y018600D01*
X016020Y018551D01*
X016005Y018455D01*
X015975Y018362D01*
X015943Y018300D01*
X016058Y018300D01*
X016074Y018316D01*
X016306Y018450D01*
X016531Y018511D01*
X016010Y019031D01*
X016010Y019769D01*
X016424Y020183D01*
X016410Y020197D01*
X016410Y020400D01*
X016900Y020400D01*
X017390Y020400D01*
X017390Y020603D01*
X017103Y020890D01*
X016900Y020890D01*
X016900Y020400D01*
X016900Y020400D01*
X016900Y020400D01*
X017390Y020400D01*
X017390Y020358D01*
X018015Y020608D01*
X018084Y020726D01*
X018263Y020906D01*
X017369Y021800D01*
X013000Y021800D01*
X013004Y021791D02*
X017378Y021791D01*
X017677Y021492D02*
X015020Y021492D01*
X015233Y021194D02*
X017975Y021194D01*
X018253Y020895D02*
X015320Y020895D01*
X015320Y020597D02*
X016410Y020597D01*
X016410Y020603D02*
X016410Y020400D01*
X016900Y020400D01*
X016900Y020400D01*
X016900Y020890D01*
X016697Y020890D01*
X016410Y020603D01*
X016410Y020298D02*
X015320Y020298D01*
X015320Y020000D02*
X016241Y020000D01*
X016010Y019701D02*
X015268Y019701D01*
X015115Y019403D02*
X016010Y019403D01*
X016010Y019104D02*
X015761Y019104D01*
X015400Y019104D02*
X015400Y019104D01*
X015400Y018806D02*
X015400Y018806D01*
X015039Y019104D02*
X014736Y019104D01*
X014815Y018806D02*
X013100Y018806D01*
X013100Y018507D02*
X013717Y018507D01*
X014083Y018507D02*
X014787Y018507D01*
X013864Y019104D02*
X013736Y019104D01*
X013166Y018209D02*
X013100Y018209D01*
X016013Y018507D02*
X016517Y018507D01*
X016236Y018806D02*
X015985Y018806D01*
X016900Y019400D02*
X017000Y019500D01*
X017400Y019500D01*
X018900Y020100D01*
X017987Y020597D02*
X017390Y020597D01*
X016900Y020597D02*
X016900Y020597D01*
X009300Y020400D02*
X007600Y018700D01*
X007600Y018400D01*
X004548Y015821D02*
X000650Y015821D01*
X000650Y016119D02*
X004250Y016119D01*
X003951Y016418D02*
X000650Y016418D01*
X000650Y016716D02*
X003653Y016716D01*
X003511Y017015D02*
X001549Y017015D01*
X001300Y016975D02*
X001300Y016975D01*
X001051Y017015D02*
X000650Y017015D01*
X000860Y017045D02*
X000860Y017045D01*
X002138Y017247D02*
X002138Y017247D01*
X002203Y017313D02*
X003500Y017313D01*
X003300Y017450D02*
X003300Y018300D01*
X003300Y018300D01*
X003300Y018300D01*
X002750Y018300D01*
X002750Y017957D01*
X002764Y017871D01*
X002790Y017789D01*
X002830Y017712D01*
X002880Y017642D01*
X002942Y017580D01*
X003012Y017530D01*
X003089Y017490D01*
X003171Y017464D01*
X003257Y017450D01*
X003300Y017450D01*
X003300Y017612D02*
X003300Y017612D01*
X003300Y017910D02*
X003300Y017910D01*
X003300Y018209D02*
X003300Y018209D01*
X002750Y018209D02*
X002695Y018209D01*
X002655Y017960D02*
X002655Y017960D01*
X002630Y017910D02*
X002757Y017910D01*
X002911Y017612D02*
X002478Y017612D01*
X002708Y018507D02*
X002750Y018507D01*
X002788Y018806D02*
X002661Y018806D01*
X002736Y019104D02*
X002864Y019104D01*
X004847Y015522D02*
X000650Y015522D01*
X000650Y015224D02*
X007038Y015224D01*
X006757Y014925D02*
X000650Y014925D01*
X000650Y014627D02*
X006633Y014627D01*
X006620Y014328D02*
X000650Y014328D01*
X000650Y014030D02*
X006693Y014030D01*
X007600Y005200D02*
X008100Y005200D01*
X008800Y004500D01*
X008800Y002700D01*
X009300Y002200D01*
X009300Y001400D01*
X010800Y001400D02*
X010800Y002400D01*
X011100Y002700D01*
X011100Y004700D01*
X010600Y005200D01*
X010000Y005200D01*
X012300Y005200D02*
X012600Y005200D01*
X013200Y004700D01*
X013200Y003700D01*
X012700Y003300D01*
X012300Y003300D01*
X011800Y002800D01*
X011800Y001400D01*
X014800Y001400D02*
X014800Y002000D01*
X016200Y003300D01*
X014600Y005200D02*
X014000Y005200D01*
D18*
X015000Y004200D03*
X015000Y006200D03*
X012700Y006200D03*
X010400Y006200D03*
X010400Y004200D03*
X012700Y004200D03*
X016800Y002000D03*
X020300Y008000D03*
X013600Y014100D03*
X010700Y013000D03*
X010100Y010800D03*
X008000Y006200D03*
X005700Y006200D03*
X003500Y006200D03*
X003500Y004200D03*
X005700Y004200D03*
X008000Y004200D03*
X003300Y017800D03*
X010300Y019800D03*
X011300Y019800D03*
M02*
