  0
SECTION
  2
HEADER
  9
$ACADVER
  1
AC1014
  9
$HANDSEED
  5
FFFF
  9
$MEASUREMENT
 70
     1
  0
ENDSEC
  0
SECTION
  2
TABLES
  0
TABLE
  2
VPORT
  5
8
330
0
100
AcDbSymbolTable
 70
     4
  0
VPORT
  5
2E
330
8
100
AcDbSymbolTableRecord
100
AcDbViewportTableRecord
  2
*ACTIVE
 70
     0
 10
0.0
 20
0.0
 11
1.0
 21
1.0
 12
210.0
 22
148.5
 13
0.0
 23
0.0
 14
10.0
 24
10.0
 15
10.0
 25
10.0
 16
0.0
 26
0.0
 36
1.0
 17
0.0
 27
0.0
 37
0.0
 40
341.0
 41
1.24
 42
50.0
 43
0.0
 44
0.0
 50
0.0
 51
0.0
 71
     0
 72
   100
 73
     1
 74
     3
 75
     0
 76
     0
 77
     0
 78
     0
  0
ENDTAB
  0
TABLE
  2
LTYPE
  5
5
330
0
100
AcDbSymbolTable
 70
     1
  0
LTYPE
  5
14
330
5
100
AcDbSymbolTableRecord
100
AcDbLinetypeTableRecord
  2
BYBLOCK
 70
     0
  3

 72
    65
 73
     0
 40
0.0
  0
LTYPE
  5
15
330
5
100
AcDbSymbolTableRecord
100
AcDbLinetypeTableRecord
  2
BYLAYER
 70
     0
  3

 72
    65
 73
     0
 40
0.0
  0
LTYPE
  5
16
330
5
100
AcDbSymbolTableRecord
100
AcDbLinetypeTableRecord
  2
CONTINUOUS
 70
     0
  3
Solid line
 72
    65
 73
     0
 40
0.0
  0
ENDTAB
  0
TABLE
  2
LAYER
  5
2
100
AcDbSymbolTable
 70
2
  0
LAYER
  5
50
100
AcDbSymbolTableRecord
100
AcDbLayerTableRecord
  2
0
 70
0
  6
CONTINUOUS
  0
LAYER
  5
51
100
AcDbSymbolTableRecord
100
AcDbLayerTableRecord
  2
Layer_1
 70
0
  6
CONTINUOUS
  0
ENDTAB
  0
TABLE
  2
STYLE
  5
3
330
0
100
AcDbSymbolTable
 70
     1
  0
STYLE
  5
11
330
3
100
AcDbSymbolTableRecord
100
AcDbTextStyleTableRecord
  2
STANDARD
 70
     0
 40
0.0
 41
1.0
 50
0.0
 71
     0
 42
2.5
  3
txt
  4

  0
ENDTAB
  0
TABLE
  2
VIEW
  5
6
330
0
100
AcDbSymbolTable
 70
     0
  0
ENDTAB
  0
TABLE
  2
UCS
  5
7
330
0
100
AcDbSymbolTable
 70
     0
  0
ENDTAB
  0
TABLE
  2
APPID
  5
9
330
0
100
AcDbSymbolTable
 70
     2
  0
APPID
  5
12
330
9
100
AcDbSymbolTableRecord
100
AcDbRegAppTableRecord
  2
ACAD
 70
     0
  0
ENDTAB
  0
TABLE
  2
DIMSTYLE
  5
A
330
0
100
AcDbSymbolTable
 70
     1
  0
DIMSTYLE
105
27
330
A
100
AcDbSymbolTableRecord
100
AcDbDimStyleTableRecord
  2
ISO-25
 70
     0
  3

  4

  5

  6

  7

 40
1.0
 41
2.5
 42
0.625
 43
3.75
 44
1.25
 45
0.0
 46
0.0
 47
0.0
 48
0.0
140
2.5
141
2.5
142
0.0
143
0.03937007874016
144
1.0
145
0.0
146
1.0
147
0.625
 71
     0
 72
     0
 73
     0
 74
     0
 75
     0
 76
     0
 77
     1
 78
     8
170
     0
171
     3
172
     1
173
     0
174
     0
175
     0
176
     0
177
     0
178
     0
270
     2
271
     2
272
     2
273
     2
274
     3
340
11
275
     0
280
     0
281
     0
282
     0
283
     0
284
     8
285
     0
286
     0
287
     3
288
     0
  0
ENDTAB
  0
TABLE
  2
BLOCK_RECORD
  5
1
330
0
100
AcDbSymbolTable
 70
     1
  0
BLOCK_RECORD
  5
1F
330
1
100
AcDbSymbolTableRecord
100
AcDbBlockTableRecord
  2
*MODEL_SPACE
  0
BLOCK_RECORD
  5
1B
330
1
100
AcDbSymbolTableRecord
100
AcDbBlockTableRecord
  2
*PAPER_SPACE
  0
ENDTAB
  0
ENDSEC
  0
SECTION
  2
BLOCKS
  0
BLOCK
  5
20
330
1F
100
AcDbEntity
  8
0
100
AcDbBlockBegin
  2
*MODEL_SPACE
 70
     0
 10
0.0
 20
0.0
 30
0.0
  3
*MODEL_SPACE
  1

  0
ENDBLK
  5
21
330
1F
100
AcDbEntity
  8
0
100
AcDbBlockEnd
  0
BLOCK
  5
1C
330
1B
100
AcDbEntity
 67
     1
  8
0
100
AcDbBlockBegin
  2
*PAPER_SPACE
  1

  0
ENDBLK
  5
1D
330
1B
100
AcDbEntity
 67
     1
  8
0
100
AcDbBlockEnd
  0
ENDSEC
  0
SECTION
  2
ENTITIES
  0
SPLINE
  5
100
100
AcDbEntity
  8
Layer_1
 62
7
100
AcDbSpline
 70
8
 71
3
 72
8
 73
4
 74
0
 40
0
 40
0
 40
0
 40
0
 40
1
 40
1
 40
1
 40
1
 10
227.857188
 20
303.368744
 30
0.0
 10
224.827844
 20
320.938734
 30
0.0
 10
215.632704
 20
336.852761
 30
0.0
 10
201.923610
 20
348.251982
 30
0.0
  0
LINE
  5
101
100
AcDbEntity
  8
Layer_1
 62
7
100
AcDbLine
 10
201.923610
 20
348.251982
 30
0.0
 11
189.776481
 21
327.212654
 31
0.0
  0
LINE
  5
102
100
AcDbEntity
  8
Layer_1
 62
7
100
AcDbLine
 10
189.776481
 20
327.212654
 30
0.0
 11
167.779686
 21
339.912654
 31
0.0
  0
LINE
  5
103
100
AcDbEntity
  8
Layer_1
 62
7
100
AcDbLine
 10
167.779686
 20
339.912654
 30
0.0
 11
179.890437
 21
360.889159
 31
0.0
  0
SPLINE
  5
104
100
AcDbEntity
  8
Layer_1
 62
7
100
AcDbSpline
 70
8
 71
3
 72
8
 73
4
 74
0
 40
0
 40
0
 40
0
 40
0
 40
1
 40
1
 40
1
 40
1
 10
179.890437
 20
360.889159
 30
0.0
 10
171.609812
 20
363.972523
 30
0.0
 10
162.849082
 20
365.566944
 30
0.0
 10
154.013083
 20
365.598743
 30
0.0
  0
SPLINE
  5
105
100
AcDbEntity
  8
Layer_1
 62
7
100
AcDbSpline
 70
8
 71
3
 72
8
 73
4
 74
0
 40
0
 40
0
 40
0
 40
0
 40
1
 40
1
 40
1
 40
1
 10
154.013083
 20
365.598743
 30
0.0
 10
145.172615
 20
365.579976
 30
0.0
 10
136.405219
 20
363.996910
 30
0.0
 10
128.116437
 20
360.922772
 30
0.0
  0
LINE
  5
106
100
AcDbEntity
  8
Layer_1
 62
7
100
AcDbLine
 10
128.116437
 20
360.922772
 30
0.0
 11
140.246481
 21
339.912654
 31
0.0
  0
LINE
  5
107
100
AcDbEntity
  8
Layer_1
 62
7
100
AcDbLine
 10
140.246481
 20
339.912654
 30
0.0
 11
118.249686
 21
327.212654
 31
0.0
  0
SPLINE
  5
108
100
AcDbEntity
  8
Layer_1
 62
7
100
AcDbSpline
 70
8
 71
3
 72
8
 73
4
 74
0
 40
0
 40
0
 40
0
 40
0
 40
1
 40
1
 40
1
 40
1
 10
118.249686
 20
327.212654
 30
0.0
 10
118.249686
 20
327.212654
 30
0.0
 10
106.125690
 20
348.212302
 30
0.0
 10
106.125690
 20
348.212302
 30
0.0
  0
SPLINE
  5
109
100
AcDbEntity
  8
Layer_1
 62
7
100
AcDbSpline
 70
8
 71
3
 72
8
 73
4
 74
0
 40
0
 40
0
 40
0
 40
0
 40
1
 40
1
 40
1
 40
1
 10
106.125690
 20
348.212302
 30
0.0
 10
92.444793
 20
336.814373
 30
0.0
 10
83.270195
 20
320.916816
 30
0.0
 10
80.246141
 20
303.368744
 30
0.0
  0
LINE
  5
10a
100
AcDbEntity
  8
Layer_1
 62
7
100
AcDbLine
 10
80.246141
 20
303.368744
 30
0.0
 11
104.483072
 21
303.368744
 31
0.0
  0
LINE
  5
10b
100
AcDbEntity
  8
Layer_1
 62
7
100
AcDbLine
 10
104.483072
 20
303.368744
 30
0.0
 11
104.483072
 21
277.968744
 31
0.0
  0
SPLINE
  5
10c
100
AcDbEntity
  8
Layer_1
 62
7
100
AcDbSpline
 70
8
 71
3
 72
8
 73
4
 74
0
 40
0
 40
0
 40
0
 40
0
 40
1
 40
1
 40
1
 40
1
 10
104.483072
 20
277.968744
 30
0.0
 10
104.483072
 20
277.968744
 30
0.0
 10
80.168981
 20
277.968744
 30
0.0
 10
80.168981
 20
277.968744
 30
0.0
  0
SPLINE
  5
10d
100
AcDbEntity
  8
Layer_1
 62
7
100
AcDbSpline
 70
8
 71
3
 72
8
 73
4
 74
0
 40
0
 40
0
 40
0
 40
0
 40
1
 40
1
 40
1
 40
1
 10
80.168981
 20
277.968744
 30
0.0
 10
80.963345
 20
273.449402
 30
0.0
 10
82.171165
 20
269.012582
 30
0.0
 10
83.777221
 20
264.714204
 30
0.0
  0
SPLINE
  5
10e
100
AcDbEntity
  8
Layer_1
 62
7
100
AcDbSpline
 70
8
 71
3
 72
8
 73
4
 74
0
 40
0
 40
0
 40
0
 40
0
 40
1
 40
1
 40
1
 40
1
 10
83.777221
 20
264.714204
 30
0.0
 10
89.739580
 20
267.482918
 30
0.0
 10
96.829321
 20
265.244015
 30
0.0
 10
100.120199
 20
259.553178
 30
0.0
  0
SPLINE
  5
10f
100
AcDbEntity
  8
Layer_1
 62
7
100
AcDbSpline
 70
8
 71
3
 72
8
 73
4
 74
0
 40
0
 40
0
 40
0
 40
0
 40
1
 40
1
 40
1
 40
1
 10
100.120199
 20
259.553178
 30
0.0
 10
101.184175
 20
257.710572
 30
0.0
 10
101.768151
 20
255.630176
 30
0.0
 10
101.818499
 20
253.503039
 30
0.0
  0
SPLINE
  5
110
100
AcDbEntity
  8
Layer_1
 62
7
100
AcDbSpline
 70
8
 71
3
 72
8
 73
4
 74
0
 40
0
 40
0
 40
0
 40
0
 40
1
 40
1
 40
1
 40
1
 10
101.818499
 20
253.503039
 30
0.0
 10
101.915963
 20
249.267875
 30
0.0
 10
99.895302
 20
245.262955
 30
0.0
 10
96.430905
 20
242.824908
 30
0.0
  0
SPLINE
  5
111
100
AcDbEntity
  8
Layer_1
 62
7
100
AcDbSpline
 70
8
 71
3
 72
8
 73
4
 74
0
 40
0
 40
0
 40
0
 40
0
 40
1
 40
1
 40
1
 40
1
 10
96.430905
 20
242.824908
 30
0.0
 10
99.349997
 20
239.289172
 30
0.0
 10
102.587458
 20
236.028830
 30
0.0
 10
106.102548
 20
233.084911
 30
0.0
  0
LINE
  5
112
100
AcDbEntity
  8
Layer_1
 62
7
100
AcDbLine
 10
106.102548
 20
233.084911
 30
0.0
 11
118.249686
 21
254.124267
 31
0.0
  0
LINE
  5
113
100
AcDbEntity
  8
Layer_1
 62
7
100
AcDbLine
 10
118.249686
 20
254.124267
 30
0.0
 11
140.246481
 21
241.424267
 31
0.0
  0
LINE
  5
114
100
AcDbEntity
  8
Layer_1
 62
7
100
AcDbLine
 10
140.246481
 20
241.424267
 30
0.0
 11
128.135730
 21
220.447762
 31
0.0
  0
SPLINE
  5
115
100
AcDbEntity
  8
Layer_1
 62
7
100
AcDbSpline
 70
8
 71
3
 72
8
 73
4
 74
0
 40
0
 40
0
 40
0
 40
0
 40
1
 40
1
 40
1
 40
1
 10
128.135730
 20
220.447762
 30
0.0
 10
136.416390
 20
217.364590
 30
0.0
 10
145.177118
 20
215.770361
 30
0.0
 10
154.013083
 20
215.738743
 30
0.0
  0
SPLINE
  5
116
100
AcDbEntity
  8
Layer_1
 62
7
100
AcDbSpline
 70
8
 71
3
 72
8
 73
4
 74
0
 40
0
 40
0
 40
0
 40
0
 40
1
 40
1
 40
1
 40
1
 10
154.013083
 20
215.738743
 30
0.0
 10
162.853703
 20
215.757264
 30
0.0
 10
171.621290
 20
217.340139
 30
0.0
 10
179.910280
 20
220.414149
 30
0.0
  0
LINE
  5
117
100
AcDbEntity
  8
Layer_1
 62
7
100
AcDbLine
 10
179.910280
 20
220.414149
 30
0.0
 11
167.779686
 21
241.424267
 31
0.0
  0
LINE
  5
118
100
AcDbEntity
  8
Layer_1
 62
7
100
AcDbLine
 10
167.779686
 20
241.424267
 30
0.0
 11
189.776481
 21
254.124267
 31
0.0
  0
LINE
  5
119
100
AcDbEntity
  8
Layer_1
 62
7
100
AcDbLine
 10
189.776481
 20
254.124267
 30
0.0
 11
201.900460
 21
233.124619
 31
0.0
  0
SPLINE
  5
11a
100
AcDbEntity
  8
Layer_1
 62
7
100
AcDbSpline
 70
8
 71
3
 72
8
 73
4
 74
0
 40
0
 40
0
 40
0
 40
0
 40
1
 40
1
 40
1
 40
1
 10
201.900460
 20
233.124619
 30
0.0
 10
215.581477
 20
244.522689
 30
0.0
 10
224.756090
 20
260.420466
 30
0.0
 10
227.780020
 20
277.968744
 30
0.0
  0
LINE
  5
11b
100
AcDbEntity
  8
Layer_1
 62
7
100
AcDbLine
 10
227.780020
 20
277.968744
 30
0.0
 11
203.543081
 21
277.968744
 31
0.0
  0
LINE
  5
11c
100
AcDbEntity
  8
Layer_1
 62
7
100
AcDbLine
 10
203.543081
 20
277.968744
 30
0.0
 11
203.543081
 21
303.368744
 31
0.0
  0
LINE
  5
11d
100
AcDbEntity
  8
Layer_1
 62
7
100
AcDbLine
 10
203.543081
 20
303.368744
 30
0.0
 11
227.857188
 21
303.368744
 31
0.0
  0
LINE
  5
11e
100
AcDbEntity
  8
Layer_1
 62
7
100
AcDbLine
 10
227.857188
 20
303.368744
 30
0.0
 11
227.857188
 21
303.368744
 31
0.0
  0
SPLINE
  5
11f
100
AcDbEntity
  8
Layer_1
 62
7
100
AcDbSpline
 70
8
 71
3
 72
8
 73
4
 74
0
 40
0
 40
0
 40
0
 40
0
 40
1
 40
1
 40
1
 40
1
 10
227.857188
 20
146.170965
 30
0.0
 10
224.827971
 20
163.741159
 30
0.0
 10
215.632819
 20
179.655406
 30
0.0
 10
201.923610
 20
191.054769
 30
0.0
  0
LINE
  5
120
100
AcDbEntity
  8
Layer_1
 62
7
100
AcDbLine
 10
201.923610
 20
191.054769
 30
0.0
 11
189.776481
 21
170.015441
 31
0.0
  0
LINE
  5
121
100
AcDbEntity
  8
Layer_1
 62
7
100
AcDbLine
 10
189.776481
 20
170.015441
 30
0.0
 11
167.779683
 21
182.715441
 31
0.0
  0
SPLINE
  5
122
100
AcDbEntity
  8
Layer_1
 62
7
100
AcDbSpline
 70
8
 71
3
 72
8
 73
4
 74
0
 40
0
 40
0
 40
0
 40
0
 40
1
 40
1
 40
1
 40
1
 10
167.779683
 20
182.715441
 30
0.0
 10
167.779683
 20
182.715441
 30
0.0
 10
179.890434
 20
203.691946
 30
0.0
 10
179.890434
 20
203.691946
 30
0.0
  0
SPLINE
  5
123
100
AcDbEntity
  8
Layer_1
 62
7
100
AcDbSpline
 70
8
 71
3
 72
8
 73
4
 74
0
 40
0
 40
0
 40
0
 40
0
 40
1
 40
1
 40
1
 40
1
 10
179.890434
 20
203.691946
 30
0.0
 10
171.609775
 20
206.775117
 30
0.0
 10
162.849047
 20
208.369346
 30
0.0
 10
154.013083
 20
208.400965
 30
0.0
  0
SPLINE
  5
124
100
AcDbEntity
  8
Layer_1
 62
7
100
AcDbSpline
 70
8
 71
3
 72
8
 73
4
 74
0
 40
0
 40
0
 40
0
 40
0
 40
1
 40
1
 40
1
 40
1
 10
154.013083
 20
208.400965
 30
0.0
 10
145.172683
 20
208.382560
 30
0.0
 10
136.405289
 20
206.799877
 30
0.0
 10
128.116437
 20
203.726123
 30
0.0
  0
LINE
  5
125
100
AcDbEntity
  8
Layer_1
 62
7
100
AcDbLine
 10
128.116437
 20
203.726123
 30
0.0
 11
140.246481
 21
182.715441
 31
0.0
  0
LINE
  5
126
100
AcDbEntity
  8
Layer_1
 62
7
100
AcDbLine
 10
140.246481
 20
182.715441
 30
0.0
 11
118.249683
 21
170.015441
 31
0.0
  0
SPLINE
  5
127
100
AcDbEntity
  8
Layer_1
 62
7
100
AcDbSpline
 70
8
 71
3
 72
8
 73
4
 74
0
 40
0
 40
0
 40
0
 40
0
 40
1
 40
1
 40
1
 40
1
 10
118.249683
 20
170.015441
 30
0.0
 10
118.249683
 20
170.015441
 30
0.0
 10
106.125718
 20
191.015088
 30
0.0
 10
106.125718
 20
191.015088
 30
0.0
  0
SPLINE
  5
128
100
AcDbEntity
  8
Layer_1
 62
7
100
AcDbSpline
 70
8
 71
3
 72
8
 73
4
 74
0
 40
0
 40
0
 40
0
 40
0
 40
1
 40
1
 40
1
 40
1
 10
106.125718
 20
191.015088
 30
0.0
 10
92.444695
 20
179.617022
 30
0.0
 10
83.270076
 20
163.719245
 30
0.0
 10
80.246141
 20
146.170965
 30
0.0
  0
LINE
  5
129
100
AcDbEntity
  8
Layer_1
 62
7
100
AcDbLine
 10
80.246141
 20
146.170965
 30
0.0
 11
104.483072
 21
146.170965
 31
0.0
  0
LINE
  5
12a
100
AcDbEntity
  8
Layer_1
 62
7
100
AcDbLine
 10
104.483072
 20
146.170965
 30
0.0
 11
104.483072
 21
120.770965
 31
0.0
  0
SPLINE
  5
12b
100
AcDbEntity
  8
Layer_1
 62
7
100
AcDbSpline
 70
8
 71
3
 72
8
 73
4
 74
0
 40
0
 40
0
 40
0
 40
0
 40
1
 40
1
 40
1
 40
1
 10
104.483072
 20
120.770965
 30
0.0
 10
104.483072
 20
120.770965
 30
0.0
 10
80.168981
 20
120.770965
 30
0.0
 10
80.168981
 20
120.770965
 30
0.0
  0
SPLINE
  5
12c
100
AcDbEntity
  8
Layer_1
 62
7
100
AcDbSpline
 70
8
 71
3
 72
8
 73
4
 74
0
 40
0
 40
0
 40
0
 40
0
 40
1
 40
1
 40
1
 40
1
 10
80.168981
 20
120.770965
 30
0.0
 10
81.332659
 20
114.164162
 30
0.0
 10
83.378312
 20
107.743554
 30
0.0
 10
86.251093
 20
101.681285
 30
0.0
  0
LINE
  5
12d
100
AcDbEntity
  8
Layer_1
 62
7
100
AcDbLine
 10
86.251093
 20
101.681285
 30
0.0
 11
108.956181
 21
114.790281
 31
0.0
  0
SPLINE
  5
12e
100
AcDbEntity
  8
Layer_1
 62
7
100
AcDbSpline
 70
8
 71
3
 72
8
 73
4
 74
0
 40
0
 40
0
 40
0
 40
0
 40
1
 40
1
 40
1
 40
1
 10
108.956181
 20
114.790281
 30
0.0
 10
109.509965
 20
117.438776
 30
0.0
 10
111.164026
 20
119.726759
 30
0.0
 10
113.505375
 20
121.082962
 30
0.0
  0
SPLINE
  5
12f
100
AcDbEntity
  8
Layer_1
 62
7
100
AcDbSpline
 70
8
 71
3
 72
8
 73
4
 74
0
 40
0
 40
0
 40
0
 40
0
 40
1
 40
1
 40
1
 40
1
 10
113.505375
 20
121.082962
 30
0.0
 10
115.693126
 20
122.346065
 30
0.0
 10
118.293040
 20
122.688350
 30
0.0
 10
120.733160
 20
122.034517
 30
0.0
  0
SPLINE
  5
130
100
AcDbEntity
  8
Layer_1
 62
7
100
AcDbSpline
 70
8
 71
3
 72
8
 73
4
 74
0
 40
0
 40
0
 40
0
 40
0
 40
1
 40
1
 40
1
 40
1
 10
120.733160
 20
122.034517
 30
0.0
 10
123.173281
 20
121.380683
 30
0.0
 10
125.253723
 20
119.784290
 30
0.0
 10
126.516810
 20
117.596529
 30
0.0
  0
SPLINE
  5
131
100
AcDbEntity
  8
Layer_1
 62
7
100
AcDbSpline
 70
8
 71
3
 72
8
 73
4
 74
0
 40
0
 40
0
 40
0
 40
0
 40
1
 40
1
 40
1
 40
1
 10
126.516810
 20
117.596529
 30
0.0
 10
127.314650
 20
116.214529
 30
0.0
 10
127.752488
 20
114.654227
 30
0.0
 10
127.790118
 20
113.058904
 30
0.0
  0
SPLINE
  5
132
100
AcDbEntity
  8
Layer_1
 62
7
100
AcDbSpline
 70
8
 71
3
 72
8
 73
4
 74
0
 40
0
 40
0
 40
0
 40
0
 40
1
 40
1
 40
1
 40
1
 10
127.790118
 20
113.058904
 30
0.0
 10
127.872404
 20
109.576442
 30
0.0
 10
126.047097
 20
106.326823
 30
0.0
 10
123.030375
 20
104.585069
 30
0.0
  0
SPLINE
  5
133
100
AcDbEntity
  8
Layer_1
 62
7
100
AcDbSpline
 70
8
 71
3
 72
8
 73
4
 74
0
 40
0
 40
0
 40
0
 40
0
 40
1
 40
1
 40
1
 40
1
 10
123.030375
 20
104.585069
 30
0.0
 10
120.685540
 20
103.236250
 30
0.0
 10
117.877789
 20
102.948070
 30
0.0
 10
115.307849
 20
103.792448
 30
0.0
  0
SPLINE
  5
134
100
AcDbEntity
  8
Layer_1
 62
7
100
AcDbSpline
 70
8
 71
3
 72
8
 73
4
 74
0
 40
0
 40
0
 40
0
 40
0
 40
1
 40
1
 40
1
 40
1
 10
115.307849
 20
103.792448
 30
0.0
 10
115.307849
 20
103.792448
 30
0.0
 10
92.606597
 20
90.685625
 30
0.0
 10
92.606597
 20
90.685625
 30
0.0
  0
SPLINE
  5
135
100
AcDbEntity
  8
Layer_1
 62
7
100
AcDbSpline
 70
8
 71
3
 72
8
 73
4
 74
0
 40
0
 40
0
 40
0
 40
0
 40
1
 40
1
 40
1
 40
1
 10
92.606597
 20
90.685625
 30
0.0
 10
96.422750
 20
85.171089
 30
0.0
 10
100.961939
 20
80.193816
 30
0.0
 10
106.102548
 20
75.887161
 30
0.0
  0
LINE
  5
136
100
AcDbEntity
  8
Layer_1
 62
7
100
AcDbLine
 10
106.102548
 20
75.887161
 30
0.0
 11
118.249683
 21
96.927054
 31
0.0
  0
LINE
  5
137
100
AcDbEntity
  8
Layer_1
 62
7
100
AcDbLine
 10
118.249683
 20
96.927054
 30
0.0
 11
140.246481
 21
84.227054
 31
0.0
  0
LINE
  5
138
100
AcDbEntity
  8
Layer_1
 62
7
100
AcDbLine
 10
140.246481
 20
84.227054
 30
0.0
 11
128.135730
 21
63.251113
 31
0.0
  0
SPLINE
  5
139
100
AcDbEntity
  8
Layer_1
 62
7
100
AcDbSpline
 70
8
 71
3
 72
8
 73
4
 74
0
 40
0
 40
0
 40
0
 40
0
 40
1
 40
1
 40
1
 40
1
 10
128.135730
 20
63.251113
 30
0.0
 10
136.416320
 20
60.167556
 30
0.0
 10
145.177051
 20
58.572945
 30
0.0
 10
154.013083
 20
58.540965
 30
0.0
  0
SPLINE
  5
13a
100
AcDbEntity
  8
Layer_1
 62
7
100
AcDbSpline
 70
8
 71
3
 72
8
 73
4
 74
0
 40
0
 40
0
 40
0
 40
0
 40
1
 40
1
 40
1
 40
1
 10
154.013083
 20
58.540965
 30
0.0
 10
162.853736
 20
58.559667
 30
0.0
 10
171.621325
 20
60.142733
 30
0.0
 10
179.910280
 20
63.216936
 30
0.0
  0
LINE
  5
13b
100
AcDbEntity
  8
Layer_1
 62
7
100
AcDbLine
 10
179.910280
 20
63.216936
 30
0.0
 11
167.779683
 21
84.227054
 31
0.0
  0
LINE
  5
13c
100
AcDbEntity
  8
Layer_1
 62
7
100
AcDbLine
 10
167.779683
 20
84.227054
 30
0.0
 11
189.776481
 21
96.927054
 31
0.0
  0
LINE
  5
13d
100
AcDbEntity
  8
Layer_1
 62
7
100
AcDbLine
 10
189.776481
 20
96.927054
 30
0.0
 11
201.900457
 21
75.927406
 31
0.0
  0
SPLINE
  5
13e
100
AcDbEntity
  8
Layer_1
 62
7
100
AcDbSpline
 70
8
 71
3
 72
8
 73
4
 74
0
 40
0
 40
0
 40
0
 40
0
 40
1
 40
1
 40
1
 40
1
 10
201.900457
 20
75.927406
 30
0.0
 10
215.581359
 20
87.325334
 30
0.0
 10
224.755961
 20
103.222891
 30
0.0
 10
227.780017
 20
120.770965
 30
0.0
  0
LINE
  5
13f
100
AcDbEntity
  8
Layer_1
 62
7
100
AcDbLine
 10
227.780017
 20
120.770965
 30
0.0
 11
203.543081
 21
120.770965
 31
0.0
  0
LINE
  5
140
100
AcDbEntity
  8
Layer_1
 62
7
100
AcDbLine
 10
203.543081
 20
120.770965
 30
0.0
 11
203.543081
 21
146.170965
 31
0.0
  0
LINE
  5
141
100
AcDbEntity
  8
Layer_1
 62
7
100
AcDbLine
 10
203.543081
 20
146.170965
 30
0.0
 11
227.857188
 21
146.170965
 31
0.0
  0
LINE
  5
142
100
AcDbEntity
  8
Layer_1
 62
7
100
AcDbLine
 10
227.857188
 20
146.170965
 30
0.0
 11
227.857188
 21
146.170965
 31
0.0
  0
ENDSEC
  0
SECTION
  2
OBJECTS
  0
DICTIONARY
  5
C
330
0
100
AcDbDictionary
  3
ACAD_GROUP
350
D
  3
ACAD_MLINESTYLE
350
17
  0
DICTIONARY
  5
D
330
C
100
AcDbDictionary
  0
DICTIONARY
  5
1A
330
C
100
AcDbDictionary
  0
DICTIONARY
  5
17
330
C
100
AcDbDictionary
  3
STANDARD
350
18
  0
DICTIONARY
  5
19
330
C
100
AcDbDictionary
  0
ENDSEC
  0
EOF
