%
M48
M72
T01C0.0140
T02C0.0320
T03C0.0354
T04C0.0400
T05C0.0440
T06C0.0472
T07C0.1300
%
T01
X3500Y4200
X5700Y4200
X8000Y4200
X8000Y6200
X5700Y6200
X3500Y6200
X10100Y10800
X10700Y13000
X13600Y14100
X11300Y19800
X10300Y19800
X3300Y17800
X10400Y6200
X12700Y6200
X12700Y4200
X10400Y4200
X15000Y4200
X15000Y6200
X16800Y2000
X20300Y8000
T02
X21500Y12100
X21500Y13100
X21600Y19300
X21600Y20300
X16900Y20400
X16900Y19400
T03
X15400Y18600
X16700Y17500
X18900Y17100
X16700Y14500
X18000Y13900
X19200Y13900
X19200Y10900
X18000Y10900
X13900Y14500
X15400Y15600
X13900Y17500
X12000Y17400
X12000Y16300
X12000Y15200
X9000Y15200
X9000Y16300
X9000Y17400
X8800Y21900
X11800Y21900
X18900Y20100
T04
X2300Y1400
X3300Y1400
X4300Y1400
X5300Y1400
X6300Y1400
X7300Y1400
X8300Y1400
X9300Y1400
X10800Y1400
X11800Y1400
X12800Y1400
X13800Y1400
X14800Y1400
X15800Y1400
X16800Y1400
X17800Y1400
X14500Y4200
X14600Y5200
X14500Y6200
X14600Y7200
X14500Y8200
X14600Y9200
X12300Y9200
X12200Y8200
X12300Y7200
X12200Y6200
X12300Y5200
X12200Y4200
X10000Y5200
X9900Y4200
X7500Y4200
X7600Y5200
X7500Y6200
X7600Y7200
X7500Y8200
X7600Y9200
X9900Y8200
X10000Y7200
X9900Y6200
X10000Y9200
X9700Y12500
X10700Y12500
X8700Y12500
X5300Y9200
X5200Y8200
X5300Y7200
X5200Y6200
X5300Y5200
X5200Y4200
X3000Y4200
X3100Y5200
X3000Y6200
X3100Y7200
X3000Y8200
X3100Y9200
X4300Y18200
X3300Y18300
X5300Y18300
X6300Y18200
X6300Y20400
X7300Y20400
X9300Y20400
X10300Y20400
X11300Y20400
X12300Y20400
X13300Y20400
X14300Y20400
X5300Y20400
X4300Y20400
X3300Y20400
X2300Y20400
X16800Y8800
X17800Y8800
X18800Y8800
T05
X18100Y7000
X22100Y7000
X7600Y14400
X7600Y18400
T06
X21400Y10148
X21400Y8630
X21700Y5070
X21700Y3552
X21900Y16030
X21900Y17548
T07
X21300Y1400
X1300Y18400
M30
