G75*
G70*
%OFA0B0*%
%FSLAX24Y24*%
%IPPOS*%
%LPD*%
%AMOC8*
5,1,8,0,0,1.08239X$1,22.5*
%
%ADD10C,0.0600*%
%ADD11OC8,0.0600*%
%ADD12C,0.0120*%
%ADD13C,0.0660*%
%ADD14OC8,0.0480*%
%ADD15C,0.0740*%
%ADD16R,0.0800X0.0800*%
%ADD17C,0.0800*%
%ADD18C,0.0100*%
%ADD19C,0.0400*%
D10*
X001900Y004700D02*
X002500Y004700D01*
X002600Y005700D02*
X002000Y005700D01*
X001900Y006700D02*
X002500Y006700D01*
X002600Y007700D02*
X002000Y007700D01*
X001900Y008700D02*
X002500Y008700D01*
X002600Y009700D02*
X002000Y009700D01*
X004500Y009700D02*
X005100Y009700D01*
X005000Y008700D02*
X004400Y008700D01*
X004500Y007700D02*
X005100Y007700D01*
X005000Y006700D02*
X004400Y006700D01*
X004500Y005700D02*
X005100Y005700D01*
X005000Y004700D02*
X004400Y004700D01*
X006800Y004700D02*
X007400Y004700D01*
X007500Y005700D02*
X006900Y005700D01*
X006800Y006700D02*
X007400Y006700D01*
X007500Y007700D02*
X006900Y007700D01*
X006800Y008700D02*
X007400Y008700D01*
X007500Y009700D02*
X006900Y009700D01*
X009400Y009700D02*
X010000Y009700D01*
X009900Y008700D02*
X009300Y008700D01*
X009400Y007700D02*
X010000Y007700D01*
X009900Y006700D02*
X009300Y006700D01*
X009400Y005700D02*
X010000Y005700D01*
X009900Y004700D02*
X009300Y004700D01*
X011800Y004700D02*
X012400Y004700D01*
X012500Y005700D02*
X011900Y005700D01*
X011800Y006700D02*
X012400Y006700D01*
X012500Y007700D02*
X011900Y007700D01*
X011800Y008700D02*
X012400Y008700D01*
X012500Y009700D02*
X011900Y009700D01*
X014300Y009700D02*
X014900Y009700D01*
X014800Y008700D02*
X014200Y008700D01*
X014300Y007700D02*
X014900Y007700D01*
X014800Y006700D02*
X014200Y006700D01*
X014300Y005700D02*
X014900Y005700D01*
X014800Y004700D02*
X014200Y004700D01*
X019500Y012500D02*
X019500Y013100D01*
X020500Y013100D02*
X020500Y012500D01*
X021500Y012500D02*
X021500Y013100D01*
X005900Y017900D02*
X005900Y018500D01*
X004900Y018600D02*
X004900Y018000D01*
X003900Y017900D02*
X003900Y018500D01*
X002900Y018600D02*
X002900Y018000D01*
D11*
X016600Y013900D03*
X016600Y008900D03*
D12*
X016093Y007647D02*
X016033Y007707D01*
X016231Y007707D01*
X016371Y007567D01*
X016371Y007369D01*
X016231Y007229D01*
X016033Y007229D01*
X015893Y007369D01*
X015893Y007567D01*
X016033Y007707D01*
X016070Y007617D01*
X016194Y007617D01*
X016281Y007530D01*
X016281Y007406D01*
X016194Y007319D01*
X016070Y007319D01*
X015983Y007406D01*
X015983Y007530D01*
X016070Y007617D01*
X016107Y007527D01*
X016157Y007527D01*
X016191Y007493D01*
X016191Y007443D01*
X016157Y007409D01*
X016107Y007409D01*
X016073Y007443D01*
X016073Y007493D01*
X016107Y007527D01*
X019629Y004111D02*
X019569Y004171D01*
X019767Y004171D01*
X019907Y004031D01*
X019907Y003833D01*
X019767Y003693D01*
X019569Y003693D01*
X019429Y003833D01*
X019429Y004031D01*
X019569Y004171D01*
X019606Y004081D01*
X019730Y004081D01*
X019817Y003994D01*
X019817Y003870D01*
X019730Y003783D01*
X019606Y003783D01*
X019519Y003870D01*
X019519Y003994D01*
X019606Y004081D01*
X019643Y003991D01*
X019693Y003991D01*
X019727Y003957D01*
X019727Y003907D01*
X019693Y003873D01*
X019643Y003873D01*
X019609Y003907D01*
X019609Y003957D01*
X019643Y003991D01*
D13*
X019400Y006200D03*
X019400Y010200D03*
D14*
X011900Y012400D03*
X011900Y014300D03*
X011900Y016000D03*
X011900Y017800D03*
X013400Y018400D03*
X017400Y018400D03*
X017400Y019900D03*
X017400Y020900D03*
X020700Y020900D03*
X020700Y019900D03*
X007900Y017800D03*
X007900Y016000D03*
X007900Y014300D03*
X007900Y012400D03*
D15*
X007100Y020230D02*
X007100Y020970D01*
X006100Y020970D02*
X006100Y020230D01*
X005100Y020230D02*
X005100Y020970D01*
X004100Y020970D02*
X004100Y020230D01*
X003100Y020230D02*
X003100Y020970D01*
X002100Y020970D02*
X002100Y020230D01*
X009100Y020230D02*
X009100Y020970D01*
X010100Y020970D02*
X010100Y020230D01*
X011100Y020230D02*
X011100Y020970D01*
X012100Y020970D02*
X012100Y020230D01*
X013100Y020230D02*
X013100Y020970D01*
X014100Y020970D02*
X014100Y020230D01*
X013600Y001970D02*
X013600Y001230D01*
X012600Y001230D02*
X012600Y001970D01*
X011600Y001970D02*
X011600Y001230D01*
X010600Y001230D02*
X010600Y001970D01*
X009100Y001970D02*
X009100Y001230D01*
X008100Y001230D02*
X008100Y001970D01*
X007100Y001970D02*
X007100Y001230D01*
X006100Y001230D02*
X006100Y001970D01*
X005100Y001970D02*
X005100Y001230D01*
X004100Y001230D02*
X004100Y001970D01*
X003100Y001970D02*
X003100Y001230D01*
X002100Y001230D02*
X002100Y001970D01*
X014600Y001970D02*
X014600Y001230D01*
X015600Y001230D02*
X015600Y001970D01*
X016600Y001970D02*
X016600Y001230D01*
X017600Y001230D02*
X017600Y001970D01*
D16*
X022000Y003930D03*
X022000Y007830D03*
X021400Y016330D03*
D17*
X021400Y017848D03*
X022000Y009348D03*
X022000Y005448D03*
D18*
X000200Y003400D02*
X000200Y000200D01*
X023800Y000200D01*
X023800Y022300D01*
X000200Y022300D01*
X000200Y005100D01*
X001020Y005100D01*
X001020Y005375D01*
X001125Y005480D01*
X001525Y005880D01*
X001609Y005880D01*
X001635Y005944D01*
X001756Y006065D01*
X001914Y006130D01*
X002686Y006130D01*
X002844Y006065D01*
X002965Y005944D01*
X003030Y005786D01*
X003030Y005614D01*
X002965Y005456D01*
X002844Y005335D01*
X002686Y005270D01*
X001914Y005270D01*
X001756Y005335D01*
X001635Y005456D01*
X001628Y005474D01*
X001380Y005225D01*
X001380Y005100D01*
X001742Y005100D01*
X001814Y005130D01*
X002586Y005130D01*
X002658Y005100D01*
X003420Y005100D01*
X003420Y005675D01*
X004119Y006373D01*
X004035Y006456D01*
X004009Y006520D01*
X002891Y006520D01*
X002865Y006456D01*
X002744Y006335D01*
X002586Y006270D01*
X001814Y006270D01*
X001656Y006335D01*
X001535Y006456D01*
X001470Y006614D01*
X001470Y006786D01*
X001535Y006944D01*
X001656Y007065D01*
X001814Y007130D01*
X002586Y007130D01*
X002744Y007065D01*
X002865Y006944D01*
X002891Y006880D01*
X004009Y006880D01*
X004035Y006944D01*
X004156Y007065D01*
X004314Y007130D01*
X005086Y007130D01*
X005244Y007065D01*
X005365Y006944D01*
X005391Y006880D01*
X006409Y006880D01*
X006435Y006944D01*
X006556Y007065D01*
X006714Y007130D01*
X007486Y007130D01*
X007644Y007065D01*
X007765Y006944D01*
X007791Y006880D01*
X008909Y006880D01*
X008935Y006944D01*
X009056Y007065D01*
X009214Y007130D01*
X009986Y007130D01*
X010144Y007065D01*
X010265Y006944D01*
X010291Y006880D01*
X011409Y006880D01*
X011435Y006944D01*
X011556Y007065D01*
X011714Y007130D01*
X012486Y007130D01*
X012644Y007065D01*
X012765Y006944D01*
X012791Y006880D01*
X013809Y006880D01*
X013835Y006944D01*
X013956Y007065D01*
X014114Y007130D01*
X014886Y007130D01*
X015044Y007065D01*
X015165Y006944D01*
X015230Y006786D01*
X015230Y006614D01*
X015165Y006456D01*
X015044Y006335D01*
X014886Y006270D01*
X014114Y006270D01*
X013956Y006335D01*
X013835Y006456D01*
X013809Y006520D01*
X012791Y006520D01*
X012765Y006456D01*
X012644Y006335D01*
X012486Y006270D01*
X011714Y006270D01*
X011556Y006335D01*
X011435Y006456D01*
X011409Y006520D01*
X010291Y006520D01*
X010265Y006456D01*
X010144Y006335D01*
X009986Y006270D01*
X009214Y006270D01*
X009056Y006335D01*
X008935Y006456D01*
X008909Y006520D01*
X007791Y006520D01*
X007765Y006456D01*
X007644Y006335D01*
X007486Y006270D01*
X006714Y006270D01*
X006556Y006335D01*
X006435Y006456D01*
X006409Y006520D01*
X005391Y006520D01*
X005365Y006456D01*
X005244Y006335D01*
X005086Y006270D01*
X004525Y006270D01*
X004363Y006109D01*
X004414Y006130D01*
X005186Y006130D01*
X005344Y006065D01*
X005465Y005944D01*
X005530Y005786D01*
X005530Y005614D01*
X005465Y005456D01*
X005381Y005373D01*
X005655Y005100D01*
X006642Y005100D01*
X006714Y005130D01*
X007486Y005130D01*
X007537Y005109D01*
X007375Y005270D01*
X006814Y005270D01*
X006656Y005335D01*
X006535Y005456D01*
X006470Y005614D01*
X006470Y005786D01*
X006535Y005944D01*
X006656Y006065D01*
X006814Y006130D01*
X007586Y006130D01*
X007744Y006065D01*
X007865Y005944D01*
X007930Y005786D01*
X007930Y005614D01*
X007865Y005456D01*
X007781Y005373D01*
X008055Y005100D01*
X009142Y005100D01*
X009214Y005130D01*
X009986Y005130D01*
X010037Y005109D01*
X009875Y005270D01*
X009314Y005270D01*
X009156Y005335D01*
X009035Y005456D01*
X008970Y005614D01*
X008970Y005786D01*
X009035Y005944D01*
X009156Y006065D01*
X009314Y006130D01*
X010086Y006130D01*
X010244Y006065D01*
X010365Y005944D01*
X010430Y005786D01*
X010430Y005614D01*
X010365Y005456D01*
X010281Y005373D01*
X010555Y005100D01*
X010920Y005100D01*
X010920Y005375D01*
X011025Y005480D01*
X011025Y005480D01*
X011420Y005875D01*
X011420Y005875D01*
X011525Y005980D01*
X011572Y005980D01*
X011656Y006065D01*
X011814Y006130D01*
X012586Y006130D01*
X012744Y006065D01*
X012865Y005944D01*
X012930Y005786D01*
X012930Y005614D01*
X012865Y005456D01*
X012744Y005335D01*
X012586Y005270D01*
X011814Y005270D01*
X011656Y005335D01*
X011535Y005456D01*
X011528Y005474D01*
X011280Y005225D01*
X011280Y005100D01*
X011642Y005100D01*
X011714Y005130D01*
X012486Y005130D01*
X012558Y005100D01*
X013020Y005100D01*
X013020Y005175D01*
X013125Y005280D01*
X013725Y005880D01*
X013909Y005880D01*
X013935Y005944D01*
X014056Y006065D01*
X014214Y006130D01*
X014986Y006130D01*
X015144Y006065D01*
X015265Y005944D01*
X015330Y005786D01*
X015330Y005614D01*
X015265Y005456D01*
X015144Y005335D01*
X014986Y005270D01*
X014214Y005270D01*
X014056Y005335D01*
X013935Y005456D01*
X013909Y005520D01*
X013875Y005520D01*
X013455Y005100D01*
X014042Y005100D01*
X014114Y005130D01*
X014886Y005130D01*
X014958Y005100D01*
X015100Y005100D01*
X015600Y004600D01*
X015600Y004000D01*
X015000Y003400D01*
X013380Y003400D01*
X013380Y003325D01*
X012780Y002725D01*
X012780Y002437D01*
X012883Y002394D01*
X013024Y002253D01*
X013100Y002069D01*
X013100Y001131D01*
X013176Y000947D01*
X013317Y000806D01*
X013501Y000730D01*
X013699Y000730D01*
X013883Y000806D01*
X014024Y000947D01*
X014100Y001131D01*
X014100Y002069D01*
X014024Y002253D01*
X013883Y002394D01*
X013699Y002470D01*
X013501Y002470D01*
X013317Y002394D01*
X013176Y002253D01*
X013100Y002069D01*
X013100Y001131D01*
X013024Y000947D01*
X012883Y000806D01*
X012865Y000799D01*
X012787Y000720D01*
X012666Y000670D01*
X012534Y000670D01*
X012413Y000720D01*
X012335Y000799D01*
X012317Y000806D01*
X012176Y000947D01*
X012100Y001131D01*
X012100Y002069D01*
X012176Y002253D01*
X012317Y002394D01*
X012420Y002437D01*
X012420Y002875D01*
X012525Y002980D01*
X012945Y003400D01*
X011780Y003400D01*
X011780Y002437D01*
X011883Y002394D01*
X012024Y002253D01*
X012100Y002069D01*
X012100Y001131D01*
X012024Y000947D01*
X011883Y000806D01*
X011865Y000799D01*
X011787Y000720D01*
X011666Y000670D01*
X011534Y000670D01*
X011413Y000720D01*
X011335Y000799D01*
X011317Y000806D01*
X011176Y000947D01*
X011100Y001131D01*
X011100Y002069D01*
X011176Y002253D01*
X011317Y002394D01*
X011420Y002437D01*
X011420Y003400D01*
X010780Y003400D01*
X010780Y002437D01*
X010883Y002394D01*
X011024Y002253D01*
X011100Y002069D01*
X011100Y001131D01*
X011024Y000947D01*
X010883Y000806D01*
X010865Y000799D01*
X010787Y000720D01*
X010666Y000670D01*
X010534Y000670D01*
X010413Y000720D01*
X010335Y000799D01*
X010317Y000806D01*
X010176Y000947D01*
X010100Y001131D01*
X010100Y002069D01*
X010176Y002253D01*
X010317Y002394D01*
X010420Y002437D01*
X010420Y003400D01*
X009280Y003400D01*
X009280Y002437D01*
X009383Y002394D01*
X009524Y002253D01*
X009600Y002069D01*
X009600Y001131D01*
X009524Y000947D01*
X009383Y000806D01*
X009365Y000799D01*
X009287Y000720D01*
X009166Y000670D01*
X009034Y000670D01*
X008913Y000720D01*
X008835Y000799D01*
X008817Y000806D01*
X008676Y000947D01*
X008600Y001131D01*
X008600Y002069D01*
X008676Y002253D01*
X008817Y002394D01*
X008920Y002437D01*
X008920Y003400D01*
X007355Y003400D01*
X008280Y002475D01*
X008280Y002437D01*
X008383Y002394D01*
X008524Y002253D01*
X008600Y002069D01*
X008600Y001131D01*
X008524Y000947D01*
X008383Y000806D01*
X008365Y000799D01*
X008287Y000720D01*
X008166Y000670D01*
X008034Y000670D01*
X007913Y000720D01*
X007835Y000799D01*
X007817Y000806D01*
X007676Y000947D01*
X007600Y001131D01*
X007600Y002069D01*
X007676Y002253D01*
X007817Y002394D01*
X007841Y002404D01*
X006845Y003400D01*
X005755Y003400D01*
X006280Y002875D01*
X006280Y002437D01*
X006383Y002394D01*
X006524Y002253D01*
X006600Y002069D01*
X006600Y001131D01*
X006546Y001001D01*
X006622Y001077D01*
X006600Y001131D01*
X006600Y002069D01*
X006676Y002253D01*
X006817Y002394D01*
X007001Y002470D01*
X007199Y002470D01*
X007383Y002394D01*
X007524Y002253D01*
X007600Y002069D01*
X007600Y001131D01*
X007530Y000962D01*
X007530Y000934D01*
X007480Y000813D01*
X007387Y000720D01*
X007266Y000670D01*
X007134Y000670D01*
X007013Y000720D01*
X007003Y000730D01*
X007001Y000730D01*
X006848Y000793D01*
X006580Y000525D01*
X006475Y000420D01*
X001625Y000420D01*
X001525Y000520D01*
X001525Y000520D01*
X001020Y001025D01*
X001020Y003400D01*
X000200Y003400D01*
X000200Y003400D01*
X000200Y003349D02*
X001020Y003349D01*
X001020Y003251D02*
X000200Y003251D01*
X000200Y003152D02*
X001020Y003152D01*
X001020Y003054D02*
X000200Y003054D01*
X000200Y002955D02*
X001020Y002955D01*
X001020Y002857D02*
X000200Y002857D01*
X000200Y002758D02*
X001020Y002758D01*
X001020Y002660D02*
X000200Y002660D01*
X000200Y002561D02*
X001020Y002561D01*
X001020Y002463D02*
X000200Y002463D01*
X000200Y002364D02*
X001020Y002364D01*
X001020Y002266D02*
X000200Y002266D01*
X000200Y002167D02*
X001020Y002167D01*
X001020Y002069D02*
X000200Y002069D01*
X000200Y001970D02*
X001020Y001970D01*
X001020Y001872D02*
X000200Y001872D01*
X000200Y001773D02*
X001020Y001773D01*
X001020Y001675D02*
X000200Y001675D01*
X000200Y001576D02*
X001020Y001576D01*
X001020Y001478D02*
X000200Y001478D01*
X000200Y001379D02*
X001020Y001379D01*
X001020Y001281D02*
X000200Y001281D01*
X000200Y001182D02*
X001020Y001182D01*
X001020Y001084D02*
X000200Y001084D01*
X000200Y000985D02*
X001060Y000985D01*
X001159Y000887D02*
X000200Y000887D01*
X000200Y000788D02*
X001257Y000788D01*
X001356Y000690D02*
X000200Y000690D01*
X000200Y000591D02*
X001454Y000591D01*
X001553Y000493D02*
X000200Y000493D01*
X000200Y000394D02*
X023800Y000394D01*
X023800Y000296D02*
X000200Y000296D01*
X001200Y001100D02*
X001600Y000700D01*
X001400Y000900D01*
X001200Y001100D02*
X001200Y005300D01*
X001600Y005700D01*
X002300Y005700D01*
X001859Y006107D02*
X000200Y006107D01*
X000200Y006009D02*
X001700Y006009D01*
X001622Y005910D02*
X000200Y005910D01*
X000200Y005812D02*
X001457Y005812D01*
X001358Y005713D02*
X000200Y005713D01*
X000200Y005615D02*
X001260Y005615D01*
X001161Y005516D02*
X000200Y005516D01*
X000200Y005418D02*
X001063Y005418D01*
X001020Y005319D02*
X000200Y005319D01*
X000200Y005221D02*
X001020Y005221D01*
X001020Y005122D02*
X000200Y005122D01*
X001380Y005122D02*
X001795Y005122D01*
X001796Y005319D02*
X001474Y005319D01*
X001380Y005221D02*
X003420Y005221D01*
X003420Y005319D02*
X002804Y005319D01*
X002926Y005418D02*
X003420Y005418D01*
X003420Y005516D02*
X002989Y005516D01*
X003030Y005615D02*
X003420Y005615D01*
X003458Y005713D02*
X003030Y005713D01*
X003019Y005812D02*
X003557Y005812D01*
X003655Y005910D02*
X002978Y005910D01*
X002900Y006009D02*
X003754Y006009D01*
X003852Y006107D02*
X002741Y006107D01*
X002668Y006304D02*
X004049Y006304D01*
X004089Y006403D02*
X002811Y006403D01*
X002883Y006501D02*
X004017Y006501D01*
X003951Y006206D02*
X000200Y006206D01*
X000200Y006304D02*
X001732Y006304D01*
X001589Y006403D02*
X000200Y006403D01*
X000200Y006501D02*
X001517Y006501D01*
X001476Y006600D02*
X000200Y006600D01*
X000200Y006698D02*
X001470Y006698D01*
X001475Y006797D02*
X000200Y006797D01*
X000200Y006895D02*
X001515Y006895D01*
X001585Y006994D02*
X000200Y006994D01*
X000200Y007092D02*
X001723Y007092D01*
X001827Y007283D02*
X001895Y007261D01*
X001965Y007250D01*
X002250Y007250D01*
X002250Y007650D01*
X002350Y007650D01*
X002350Y007750D01*
X002250Y007750D01*
X002250Y008150D01*
X001965Y008150D01*
X001895Y008139D01*
X001827Y008117D01*
X001764Y008085D01*
X001707Y008043D01*
X001657Y007993D01*
X001615Y007936D01*
X001583Y007873D01*
X001561Y007805D01*
X001552Y007750D01*
X002250Y007750D01*
X002250Y007650D01*
X001552Y007650D01*
X001561Y007595D01*
X001583Y007527D01*
X001615Y007464D01*
X001657Y007407D01*
X001707Y007357D01*
X001764Y007315D01*
X001827Y007283D01*
X001815Y007289D02*
X000200Y007289D01*
X000200Y007191D02*
X015801Y007191D01*
X015703Y007289D02*
X015085Y007289D01*
X015073Y007283D02*
X015136Y007315D01*
X015193Y007357D01*
X015243Y007407D01*
X015285Y007464D01*
X015317Y007527D01*
X015339Y007595D01*
X015348Y007650D01*
X014650Y007650D01*
X014650Y007750D01*
X014550Y007750D01*
X014550Y008150D01*
X014265Y008150D01*
X014195Y008139D01*
X014127Y008117D01*
X014064Y008085D01*
X014007Y008043D01*
X013957Y007993D01*
X013915Y007936D01*
X013883Y007873D01*
X013861Y007805D01*
X013852Y007750D01*
X014550Y007750D01*
X014550Y007650D01*
X014650Y007650D01*
X014650Y007250D01*
X014935Y007250D01*
X015005Y007261D01*
X015073Y007283D01*
X015224Y007388D02*
X015702Y007388D01*
X015702Y007486D02*
X015296Y007486D01*
X015336Y007585D02*
X015702Y007585D01*
X015702Y007646D02*
X015702Y007290D01*
X015952Y007040D01*
X015952Y003507D01*
X015570Y003125D01*
X014852Y002407D01*
X014699Y002470D01*
X014501Y002470D01*
X014317Y002394D01*
X014176Y002253D01*
X014100Y002069D01*
X014100Y001131D01*
X014176Y000947D01*
X014317Y000806D01*
X014335Y000799D01*
X014413Y000720D01*
X014534Y000670D01*
X014666Y000670D01*
X014787Y000720D01*
X014865Y000799D01*
X014883Y000806D01*
X015024Y000947D01*
X015100Y001131D01*
X015176Y000947D01*
X015317Y000806D01*
X015501Y000730D01*
X015699Y000730D01*
X015883Y000806D01*
X016024Y000947D01*
X016092Y001112D01*
X016093Y001108D01*
X016118Y001030D01*
X016155Y000957D01*
X016203Y000891D01*
X016261Y000833D01*
X016327Y000785D01*
X016400Y000748D01*
X016478Y000723D01*
X016550Y000711D01*
X016550Y001550D01*
X016650Y001550D01*
X016650Y000711D01*
X016722Y000723D01*
X016800Y000748D01*
X016873Y000785D01*
X016939Y000833D01*
X016997Y000891D01*
X017045Y000957D01*
X017082Y001030D01*
X017107Y001108D01*
X017108Y001112D01*
X017176Y000947D01*
X017317Y000806D01*
X017501Y000730D01*
X017699Y000730D01*
X017883Y000806D01*
X018024Y000947D01*
X018100Y001131D01*
X018100Y002069D01*
X018024Y002253D01*
X017883Y002394D01*
X017699Y002470D01*
X017501Y002470D01*
X017317Y002394D01*
X017176Y002253D01*
X017108Y002088D01*
X017107Y002092D01*
X017082Y002170D01*
X017045Y002243D01*
X016997Y002309D01*
X016939Y002367D01*
X016873Y002415D01*
X016800Y002452D01*
X016722Y002477D01*
X016650Y002489D01*
X016650Y001650D01*
X016550Y001650D01*
X016550Y002489D01*
X016478Y002477D01*
X016400Y002452D01*
X016327Y002415D01*
X016261Y002367D01*
X016203Y002309D01*
X016155Y002243D01*
X016118Y002170D01*
X016093Y002092D01*
X016092Y002088D01*
X016024Y002253D01*
X015883Y002394D01*
X015699Y002470D01*
X015501Y002470D01*
X015371Y002416D01*
X015825Y002870D01*
X016312Y003358D01*
X016312Y007040D01*
X016562Y007290D01*
X016562Y007643D01*
X016780Y007861D01*
X016780Y008472D01*
X017030Y008722D01*
X017030Y009078D01*
X016778Y009330D01*
X016422Y009330D01*
X016170Y009078D01*
X016170Y008722D01*
X016420Y008472D01*
X016420Y008010D01*
X016308Y007898D01*
X015954Y007898D01*
X015702Y007646D01*
X015739Y007683D02*
X014650Y007683D01*
X014650Y007750D02*
X015348Y007750D01*
X015339Y007805D01*
X015317Y007873D01*
X015285Y007936D01*
X015243Y007993D01*
X015193Y008043D01*
X015136Y008085D01*
X015073Y008117D01*
X015005Y008139D01*
X014935Y008150D01*
X014650Y008150D01*
X014650Y007750D01*
X014650Y007782D02*
X014550Y007782D01*
X014550Y007880D02*
X014650Y007880D01*
X014650Y007979D02*
X014550Y007979D01*
X014550Y008077D02*
X014650Y008077D01*
X014886Y008270D02*
X014114Y008270D01*
X013956Y008335D01*
X013835Y008456D01*
X013770Y008614D01*
X013770Y008786D01*
X013835Y008944D01*
X013956Y009065D01*
X014114Y009130D01*
X014886Y009130D01*
X015044Y009065D01*
X015165Y008944D01*
X015230Y008786D01*
X015230Y008614D01*
X015165Y008456D01*
X015044Y008335D01*
X014886Y008270D01*
X014895Y008274D02*
X016420Y008274D01*
X016420Y008176D02*
X000200Y008176D01*
X000200Y008274D02*
X001805Y008274D01*
X001814Y008270D02*
X002586Y008270D01*
X002744Y008335D01*
X002865Y008456D01*
X002930Y008614D01*
X002930Y008786D01*
X002865Y008944D01*
X002744Y009065D01*
X002586Y009130D01*
X001814Y009130D01*
X001656Y009065D01*
X001535Y008944D01*
X001470Y008786D01*
X001470Y008614D01*
X001535Y008456D01*
X001656Y008335D01*
X001814Y008270D01*
X001753Y008077D02*
X000200Y008077D01*
X000200Y007979D02*
X001646Y007979D01*
X001587Y007880D02*
X000200Y007880D01*
X000200Y007782D02*
X001557Y007782D01*
X001564Y007585D02*
X000200Y007585D01*
X000200Y007683D02*
X002250Y007683D01*
X002250Y007585D02*
X002350Y007585D01*
X002350Y007650D02*
X002350Y007250D01*
X002635Y007250D01*
X002705Y007261D01*
X002773Y007283D01*
X002836Y007315D01*
X002893Y007357D01*
X002943Y007407D01*
X002985Y007464D01*
X003017Y007527D01*
X003039Y007595D01*
X003048Y007650D01*
X002350Y007650D01*
X002350Y007683D02*
X004750Y007683D01*
X004750Y007650D02*
X004750Y007750D01*
X004750Y008150D01*
X004465Y008150D01*
X004395Y008139D01*
X004327Y008117D01*
X004264Y008085D01*
X004207Y008043D01*
X004157Y007993D01*
X004115Y007936D01*
X004083Y007873D01*
X004061Y007805D01*
X004052Y007750D01*
X004750Y007750D01*
X004850Y007750D01*
X004850Y008150D01*
X005135Y008150D01*
X005205Y008139D01*
X005273Y008117D01*
X005336Y008085D01*
X005393Y008043D01*
X005443Y007993D01*
X005485Y007936D01*
X005517Y007873D01*
X005539Y007805D01*
X005548Y007750D01*
X004850Y007750D01*
X004850Y007650D01*
X005548Y007650D01*
X005539Y007595D01*
X005517Y007527D01*
X005485Y007464D01*
X005443Y007407D01*
X005393Y007357D01*
X005336Y007315D01*
X005273Y007283D01*
X005205Y007261D01*
X005135Y007250D01*
X004850Y007250D01*
X004850Y007650D01*
X004750Y007650D01*
X004750Y007250D01*
X004465Y007250D01*
X004395Y007261D01*
X004327Y007283D01*
X004264Y007315D01*
X004207Y007357D01*
X004157Y007407D01*
X004115Y007464D01*
X004083Y007527D01*
X004061Y007595D01*
X004052Y007650D01*
X004750Y007650D01*
X004750Y007585D02*
X004850Y007585D01*
X004850Y007683D02*
X007150Y007683D01*
X007150Y007650D02*
X007150Y007750D01*
X007150Y008150D01*
X006865Y008150D01*
X006795Y008139D01*
X006727Y008117D01*
X006664Y008085D01*
X006607Y008043D01*
X006557Y007993D01*
X006515Y007936D01*
X006483Y007873D01*
X006461Y007805D01*
X006452Y007750D01*
X007150Y007750D01*
X007250Y007750D01*
X007250Y008150D01*
X007535Y008150D01*
X007605Y008139D01*
X007673Y008117D01*
X007736Y008085D01*
X007793Y008043D01*
X007843Y007993D01*
X007885Y007936D01*
X007917Y007873D01*
X007939Y007805D01*
X007948Y007750D01*
X007250Y007750D01*
X007250Y007650D01*
X007948Y007650D01*
X007939Y007595D01*
X007917Y007527D01*
X007885Y007464D01*
X007843Y007407D01*
X007793Y007357D01*
X007736Y007315D01*
X007673Y007283D01*
X007605Y007261D01*
X007535Y007250D01*
X007250Y007250D01*
X007250Y007650D01*
X007150Y007650D01*
X007150Y007250D01*
X006865Y007250D01*
X006795Y007261D01*
X006727Y007283D01*
X006664Y007315D01*
X006607Y007357D01*
X006557Y007407D01*
X006515Y007464D01*
X006483Y007527D01*
X006461Y007595D01*
X006452Y007650D01*
X007150Y007650D01*
X007150Y007585D02*
X007250Y007585D01*
X007250Y007683D02*
X009650Y007683D01*
X009650Y007650D02*
X009650Y007750D01*
X009650Y008150D01*
X009365Y008150D01*
X009295Y008139D01*
X009227Y008117D01*
X009164Y008085D01*
X009107Y008043D01*
X009057Y007993D01*
X009015Y007936D01*
X008983Y007873D01*
X008961Y007805D01*
X008952Y007750D01*
X009650Y007750D01*
X009750Y007750D01*
X009750Y008150D01*
X010035Y008150D01*
X010105Y008139D01*
X010173Y008117D01*
X010236Y008085D01*
X010293Y008043D01*
X010343Y007993D01*
X010385Y007936D01*
X010417Y007873D01*
X010439Y007805D01*
X010448Y007750D01*
X009750Y007750D01*
X009750Y007650D01*
X010448Y007650D01*
X010439Y007595D01*
X010417Y007527D01*
X010385Y007464D01*
X010343Y007407D01*
X010293Y007357D01*
X010236Y007315D01*
X010173Y007283D01*
X010105Y007261D01*
X010035Y007250D01*
X009750Y007250D01*
X009750Y007650D01*
X009650Y007650D01*
X009650Y007250D01*
X009365Y007250D01*
X009295Y007261D01*
X009227Y007283D01*
X009164Y007315D01*
X009107Y007357D01*
X009057Y007407D01*
X009015Y007464D01*
X008983Y007527D01*
X008961Y007595D01*
X008952Y007650D01*
X009650Y007650D01*
X009650Y007585D02*
X009750Y007585D01*
X009750Y007683D02*
X012150Y007683D01*
X012150Y007650D02*
X012150Y007750D01*
X012150Y008150D01*
X011865Y008150D01*
X011795Y008139D01*
X011727Y008117D01*
X011664Y008085D01*
X011607Y008043D01*
X011557Y007993D01*
X011515Y007936D01*
X011483Y007873D01*
X011461Y007805D01*
X011452Y007750D01*
X012150Y007750D01*
X012250Y007750D01*
X012250Y008150D01*
X012535Y008150D01*
X012605Y008139D01*
X012673Y008117D01*
X012736Y008085D01*
X012793Y008043D01*
X012843Y007993D01*
X012885Y007936D01*
X012917Y007873D01*
X012939Y007805D01*
X012948Y007750D01*
X012250Y007750D01*
X012250Y007650D01*
X012948Y007650D01*
X012939Y007595D01*
X012917Y007527D01*
X012885Y007464D01*
X012843Y007407D01*
X012793Y007357D01*
X012736Y007315D01*
X012673Y007283D01*
X012605Y007261D01*
X012535Y007250D01*
X012250Y007250D01*
X012250Y007650D01*
X012150Y007650D01*
X012150Y007250D01*
X011865Y007250D01*
X011795Y007261D01*
X011727Y007283D01*
X011664Y007315D01*
X011607Y007357D01*
X011557Y007407D01*
X011515Y007464D01*
X011483Y007527D01*
X011461Y007595D01*
X011452Y007650D01*
X012150Y007650D01*
X012150Y007585D02*
X012250Y007585D01*
X012250Y007683D02*
X014550Y007683D01*
X014550Y007650D02*
X013852Y007650D01*
X013861Y007595D01*
X013883Y007527D01*
X013915Y007464D01*
X013957Y007407D01*
X014007Y007357D01*
X014064Y007315D01*
X014127Y007283D01*
X014195Y007261D01*
X014265Y007250D01*
X014550Y007250D01*
X014550Y007650D01*
X014550Y007585D02*
X014650Y007585D01*
X014650Y007486D02*
X014550Y007486D01*
X014550Y007388D02*
X014650Y007388D01*
X014650Y007289D02*
X014550Y007289D01*
X014115Y007289D02*
X012685Y007289D01*
X012824Y007388D02*
X013976Y007388D01*
X013904Y007486D02*
X012896Y007486D01*
X012936Y007585D02*
X013864Y007585D01*
X013857Y007782D02*
X012943Y007782D01*
X012913Y007880D02*
X013887Y007880D01*
X013946Y007979D02*
X012854Y007979D01*
X012747Y008077D02*
X014053Y008077D01*
X014105Y008274D02*
X012495Y008274D01*
X012486Y008270D02*
X012644Y008335D01*
X012765Y008456D01*
X012830Y008614D01*
X012830Y008786D01*
X012765Y008944D01*
X012644Y009065D01*
X012486Y009130D01*
X011714Y009130D01*
X011556Y009065D01*
X011435Y008944D01*
X011370Y008786D01*
X011370Y008614D01*
X011435Y008456D01*
X011556Y008335D01*
X011714Y008270D01*
X012486Y008270D01*
X012681Y008373D02*
X013919Y008373D01*
X013829Y008471D02*
X012771Y008471D01*
X012811Y008570D02*
X013789Y008570D01*
X013770Y008668D02*
X012830Y008668D01*
X012830Y008767D02*
X013770Y008767D01*
X013803Y008865D02*
X012797Y008865D01*
X012745Y008964D02*
X013855Y008964D01*
X013954Y009062D02*
X012646Y009062D01*
X012586Y009270D02*
X012744Y009335D01*
X012865Y009456D01*
X012891Y009520D01*
X013909Y009520D01*
X013935Y009456D01*
X014056Y009335D01*
X014214Y009270D01*
X014986Y009270D01*
X015144Y009335D01*
X015265Y009456D01*
X015330Y009614D01*
X015330Y009786D01*
X015265Y009944D01*
X015144Y010065D01*
X014986Y010130D01*
X014214Y010130D01*
X014056Y010065D01*
X013935Y009944D01*
X013909Y009880D01*
X012891Y009880D01*
X012865Y009944D01*
X012744Y010065D01*
X012586Y010130D01*
X012080Y010130D01*
X012080Y012057D01*
X012270Y012247D01*
X012270Y012553D01*
X012080Y012743D01*
X012080Y013957D01*
X012270Y014147D01*
X012270Y014453D01*
X012080Y014643D01*
X012080Y015657D01*
X012270Y015847D01*
X012270Y016153D01*
X012080Y016343D01*
X012080Y017457D01*
X012270Y017647D01*
X012270Y017915D01*
X012575Y018220D01*
X013057Y018220D01*
X013247Y018030D01*
X013553Y018030D01*
X013770Y018247D01*
X013770Y018553D01*
X013553Y018770D01*
X013247Y018770D01*
X013057Y018580D01*
X012675Y018580D01*
X012280Y018975D01*
X012280Y019763D01*
X012383Y019806D01*
X012524Y019947D01*
X012600Y020131D01*
X012600Y021069D01*
X012524Y021253D01*
X012383Y021394D01*
X012365Y021401D01*
X012287Y021480D01*
X012166Y021530D01*
X012034Y021530D01*
X011913Y021480D01*
X011835Y021401D01*
X011817Y021394D01*
X011676Y021253D01*
X011608Y021088D01*
X011607Y021092D01*
X011582Y021170D01*
X011545Y021243D01*
X011497Y021309D01*
X011439Y021367D01*
X011373Y021415D01*
X011300Y021452D01*
X011222Y021477D01*
X011150Y021489D01*
X011150Y020650D01*
X011050Y020650D01*
X011050Y021489D01*
X010978Y021477D01*
X010900Y021452D01*
X010827Y021415D01*
X010761Y021367D01*
X010703Y021309D01*
X010655Y021243D01*
X010618Y021170D01*
X010600Y021114D01*
X010582Y021170D01*
X010545Y021243D01*
X010497Y021309D01*
X010439Y021367D01*
X010373Y021415D01*
X010300Y021452D01*
X010222Y021477D01*
X010150Y021489D01*
X010150Y020650D01*
X010050Y020650D01*
X010050Y021489D01*
X009978Y021477D01*
X009900Y021452D01*
X009827Y021415D01*
X009761Y021367D01*
X009703Y021309D01*
X009655Y021243D01*
X009618Y021170D01*
X009593Y021092D01*
X009592Y021088D01*
X009524Y021253D01*
X009383Y021394D01*
X009199Y021470D01*
X009001Y021470D01*
X008817Y021394D01*
X008676Y021253D01*
X008600Y021069D01*
X008600Y020131D01*
X008676Y019947D01*
X008817Y019806D01*
X009001Y019730D01*
X009199Y019730D01*
X009383Y019806D01*
X009524Y019947D01*
X009592Y020112D01*
X009593Y020108D01*
X009618Y020030D01*
X009655Y019957D01*
X009703Y019891D01*
X009761Y019833D01*
X009827Y019785D01*
X009900Y019748D01*
X009978Y019723D01*
X010050Y019711D01*
X010050Y020550D01*
X010150Y020550D01*
X010150Y020650D01*
X010580Y020650D01*
X011050Y020650D01*
X011050Y020550D01*
X010150Y020550D01*
X010150Y019711D01*
X010222Y019723D01*
X010300Y019748D01*
X010373Y019785D01*
X010439Y019833D01*
X010497Y019891D01*
X010545Y019957D01*
X010582Y020030D01*
X010600Y020086D01*
X010618Y020030D01*
X010655Y019957D01*
X010703Y019891D01*
X010761Y019833D01*
X010827Y019785D01*
X010900Y019748D01*
X010978Y019723D01*
X011050Y019711D01*
X011050Y020550D01*
X011150Y020550D01*
X011150Y019711D01*
X011222Y019723D01*
X011300Y019748D01*
X011373Y019785D01*
X011439Y019833D01*
X011497Y019891D01*
X011545Y019957D01*
X011582Y020030D01*
X011607Y020108D01*
X011608Y020112D01*
X011676Y019947D01*
X011817Y019806D01*
X011920Y019763D01*
X011920Y018825D01*
X012295Y018450D01*
X012015Y018170D01*
X011747Y018170D01*
X011530Y017953D01*
X011530Y017647D01*
X011720Y017457D01*
X011720Y016343D01*
X011530Y016153D01*
X011530Y015847D01*
X011720Y015657D01*
X011720Y014643D01*
X011530Y014453D01*
X011530Y014147D01*
X011720Y013957D01*
X011720Y012743D01*
X011530Y012553D01*
X011530Y012247D01*
X011720Y012057D01*
X011720Y010091D01*
X011656Y010065D01*
X011535Y009944D01*
X011509Y009880D01*
X010391Y009880D01*
X010365Y009944D01*
X010244Y010065D01*
X010086Y010130D01*
X009314Y010130D01*
X009156Y010065D01*
X009035Y009944D01*
X009009Y009880D01*
X007891Y009880D01*
X007865Y009944D01*
X007744Y010065D01*
X007586Y010130D01*
X006814Y010130D01*
X006656Y010065D01*
X006535Y009944D01*
X006509Y009880D01*
X005491Y009880D01*
X005465Y009944D01*
X005344Y010065D01*
X005186Y010130D01*
X004414Y010130D01*
X004256Y010065D01*
X004135Y009944D01*
X004109Y009880D01*
X002991Y009880D01*
X002965Y009944D01*
X002844Y010065D01*
X002686Y010130D01*
X001914Y010130D01*
X001756Y010065D01*
X001635Y009944D01*
X001570Y009786D01*
X001570Y009614D01*
X001635Y009456D01*
X001756Y009335D01*
X001914Y009270D01*
X002686Y009270D01*
X002844Y009335D01*
X002965Y009456D01*
X002991Y009520D01*
X004109Y009520D01*
X004135Y009456D01*
X004256Y009335D01*
X004414Y009270D01*
X005186Y009270D01*
X005344Y009335D01*
X005465Y009456D01*
X005491Y009520D01*
X006509Y009520D01*
X006535Y009456D01*
X006656Y009335D01*
X006814Y009270D01*
X007586Y009270D01*
X007744Y009335D01*
X007865Y009456D01*
X007891Y009520D01*
X009009Y009520D01*
X009035Y009456D01*
X009156Y009335D01*
X009314Y009270D01*
X010086Y009270D01*
X010244Y009335D01*
X010365Y009456D01*
X010391Y009520D01*
X011509Y009520D01*
X011535Y009456D01*
X011656Y009335D01*
X011814Y009270D01*
X012586Y009270D01*
X012766Y009358D02*
X014034Y009358D01*
X013936Y009456D02*
X012864Y009456D01*
X012860Y009949D02*
X013940Y009949D01*
X014039Y010047D02*
X012761Y010047D01*
X012200Y009700D02*
X011900Y010000D01*
X011900Y012400D01*
X011900Y014300D01*
X011900Y016000D01*
X011900Y017800D01*
X012500Y018400D01*
X012600Y018400D01*
X012100Y018900D01*
X012100Y020600D01*
X012100Y021200D01*
X012403Y021375D02*
X012797Y021375D01*
X012817Y021394D02*
X012676Y021253D01*
X012600Y021069D01*
X012600Y020131D01*
X012676Y019947D01*
X012817Y019806D01*
X013001Y019730D01*
X013199Y019730D01*
X013383Y019806D01*
X013524Y019947D01*
X013600Y020131D01*
X013600Y021069D01*
X013524Y021253D01*
X013383Y021394D01*
X013199Y021470D01*
X013001Y021470D01*
X012817Y021394D01*
X012699Y021276D02*
X012501Y021276D01*
X012555Y021178D02*
X012645Y021178D01*
X012604Y021079D02*
X012596Y021079D01*
X012600Y020981D02*
X012600Y020981D01*
X012600Y020882D02*
X012600Y020882D01*
X012600Y020784D02*
X012600Y020784D01*
X012600Y020685D02*
X012600Y020685D01*
X012600Y020587D02*
X012600Y020587D01*
X012600Y020488D02*
X012600Y020488D01*
X012600Y020390D02*
X012600Y020390D01*
X012600Y020291D02*
X012600Y020291D01*
X012600Y020193D02*
X012600Y020193D01*
X012585Y020094D02*
X012615Y020094D01*
X012656Y019996D02*
X012544Y019996D01*
X012474Y019897D02*
X012726Y019897D01*
X012835Y019799D02*
X012365Y019799D01*
X012280Y019700D02*
X015220Y019700D01*
X015220Y019602D02*
X012280Y019602D01*
X012280Y019503D02*
X015220Y019503D01*
X015220Y019405D02*
X012280Y019405D01*
X012280Y019306D02*
X015220Y019306D01*
X015220Y019208D02*
X012280Y019208D01*
X012280Y019109D02*
X015220Y019109D01*
X015220Y019011D02*
X012280Y019011D01*
X012343Y018912D02*
X015220Y018912D01*
X015220Y018814D02*
X012441Y018814D01*
X012540Y018715D02*
X013192Y018715D01*
X013093Y018617D02*
X012638Y018617D01*
X012600Y018400D02*
X013400Y018400D01*
X013647Y018124D02*
X015220Y018124D01*
X015220Y018026D02*
X012380Y018026D01*
X012479Y018124D02*
X013153Y018124D01*
X013746Y018223D02*
X015220Y018223D01*
X015220Y018321D02*
X013770Y018321D01*
X013770Y018420D02*
X015220Y018420D01*
X015220Y018518D02*
X013770Y018518D01*
X013707Y018617D02*
X015220Y018617D01*
X015220Y018715D02*
X013608Y018715D01*
X014001Y019730D02*
X014199Y019730D01*
X014383Y019806D01*
X014524Y019947D01*
X014600Y020131D01*
X014600Y021069D01*
X014524Y021253D01*
X014383Y021394D01*
X014199Y021470D01*
X014001Y021470D01*
X013817Y021394D01*
X013676Y021253D01*
X013600Y021069D01*
X013600Y020131D01*
X013676Y019947D01*
X013817Y019806D01*
X014001Y019730D01*
X013835Y019799D02*
X013365Y019799D01*
X013474Y019897D02*
X013726Y019897D01*
X013656Y019996D02*
X013544Y019996D01*
X013585Y020094D02*
X013615Y020094D01*
X013600Y020193D02*
X013600Y020193D01*
X013600Y020291D02*
X013600Y020291D01*
X013600Y020390D02*
X013600Y020390D01*
X013600Y020488D02*
X013600Y020488D01*
X013600Y020587D02*
X013600Y020587D01*
X013600Y020685D02*
X013600Y020685D01*
X013600Y020784D02*
X013600Y020784D01*
X013600Y020882D02*
X013600Y020882D01*
X013600Y020981D02*
X013600Y020981D01*
X013596Y021079D02*
X013604Y021079D01*
X013645Y021178D02*
X013555Y021178D01*
X013501Y021276D02*
X013699Y021276D01*
X013797Y021375D02*
X013403Y021375D01*
X014325Y021620D02*
X015220Y020725D01*
X015220Y017625D01*
X015325Y017520D01*
X016695Y016150D01*
X020870Y016150D01*
X020870Y015876D01*
X020946Y015800D01*
X021854Y015800D01*
X021930Y015876D01*
X021930Y016784D01*
X021854Y016860D01*
X020946Y016860D01*
X020870Y016784D01*
X020870Y016510D01*
X016845Y016510D01*
X015580Y017775D01*
X015580Y020875D01*
X014580Y021875D01*
X014475Y021980D01*
X008225Y021980D01*
X007511Y021266D01*
X007383Y021394D01*
X007365Y021401D01*
X007287Y021480D01*
X007166Y021530D01*
X007034Y021530D01*
X006913Y021480D01*
X006835Y021401D01*
X006817Y021394D01*
X006676Y021253D01*
X006600Y021069D01*
X006524Y021253D01*
X006383Y021394D01*
X006365Y021401D01*
X006287Y021480D01*
X006166Y021530D01*
X006034Y021530D01*
X005913Y021480D01*
X005835Y021401D01*
X005817Y021394D01*
X005676Y021253D01*
X005600Y021069D01*
X005600Y020131D01*
X005676Y019947D01*
X005817Y019806D01*
X005920Y019763D01*
X005920Y018930D01*
X005814Y018930D01*
X005656Y018865D01*
X005535Y018744D01*
X005470Y018586D01*
X005470Y017814D01*
X005535Y017656D01*
X005656Y017535D01*
X005720Y017509D01*
X005720Y017025D01*
X005825Y016920D01*
X006925Y015820D01*
X007557Y015820D01*
X007747Y015630D01*
X008053Y015630D01*
X008270Y015847D01*
X008270Y016153D01*
X008053Y016370D01*
X007747Y016370D01*
X007557Y016180D01*
X007075Y016180D01*
X006080Y017175D01*
X006080Y017509D01*
X006144Y017535D01*
X006265Y017656D01*
X006330Y017814D01*
X006330Y018586D01*
X006280Y018706D01*
X006280Y019763D01*
X006383Y019806D01*
X006524Y019947D01*
X006600Y020131D01*
X006600Y021069D01*
X006600Y020131D01*
X006676Y019947D01*
X006817Y019806D01*
X007001Y019730D01*
X007199Y019730D01*
X007383Y019806D01*
X007511Y019934D01*
X007720Y019725D01*
X007720Y018143D01*
X007530Y017953D01*
X007530Y017647D01*
X007747Y017430D01*
X008053Y017430D01*
X008270Y017647D01*
X008270Y017953D01*
X008080Y018143D01*
X008080Y019875D01*
X007600Y020355D01*
X007600Y020845D01*
X008375Y021620D01*
X014325Y021620D01*
X014374Y021572D02*
X008326Y021572D01*
X008228Y021473D02*
X009965Y021473D01*
X010050Y021473D02*
X010150Y021473D01*
X010235Y021473D02*
X010965Y021473D01*
X011050Y021473D02*
X011150Y021473D01*
X011235Y021473D02*
X011906Y021473D01*
X011797Y021375D02*
X011428Y021375D01*
X011520Y021276D02*
X011699Y021276D01*
X011645Y021178D02*
X011578Y021178D01*
X011150Y021178D02*
X011050Y021178D01*
X011050Y021276D02*
X011150Y021276D01*
X011150Y021375D02*
X011050Y021375D01*
X010772Y021375D02*
X010428Y021375D01*
X010520Y021276D02*
X010680Y021276D01*
X010622Y021178D02*
X010578Y021178D01*
X010150Y021178D02*
X010050Y021178D01*
X010050Y021276D02*
X010150Y021276D01*
X010150Y021375D02*
X010050Y021375D01*
X009772Y021375D02*
X009403Y021375D01*
X009501Y021276D02*
X009680Y021276D01*
X009622Y021178D02*
X009555Y021178D01*
X010050Y021079D02*
X010150Y021079D01*
X010150Y020981D02*
X010050Y020981D01*
X010050Y020882D02*
X010150Y020882D01*
X010150Y020784D02*
X010050Y020784D01*
X010050Y020685D02*
X010150Y020685D01*
X010150Y020587D02*
X011050Y020587D01*
X011050Y020685D02*
X011150Y020685D01*
X011150Y020784D02*
X011050Y020784D01*
X011050Y020882D02*
X011150Y020882D01*
X011150Y020981D02*
X011050Y020981D01*
X011050Y021079D02*
X011150Y021079D01*
X011150Y020488D02*
X011050Y020488D01*
X011050Y020390D02*
X011150Y020390D01*
X011150Y020291D02*
X011050Y020291D01*
X011050Y020193D02*
X011150Y020193D01*
X011150Y020094D02*
X011050Y020094D01*
X011050Y019996D02*
X011150Y019996D01*
X011150Y019897D02*
X011050Y019897D01*
X011050Y019799D02*
X011150Y019799D01*
X011391Y019799D02*
X011835Y019799D01*
X011920Y019700D02*
X008080Y019700D01*
X008080Y019602D02*
X011920Y019602D01*
X011920Y019503D02*
X008080Y019503D01*
X008080Y019405D02*
X011920Y019405D01*
X011920Y019306D02*
X008080Y019306D01*
X008080Y019208D02*
X011920Y019208D01*
X011920Y019109D02*
X008080Y019109D01*
X008080Y019011D02*
X011920Y019011D01*
X011920Y018912D02*
X008080Y018912D01*
X008080Y018814D02*
X011932Y018814D01*
X012030Y018715D02*
X008080Y018715D01*
X008080Y018617D02*
X012129Y018617D01*
X012227Y018518D02*
X008080Y018518D01*
X008080Y018420D02*
X012265Y018420D01*
X012166Y018321D02*
X008080Y018321D01*
X008080Y018223D02*
X012068Y018223D01*
X012282Y017927D02*
X015220Y017927D01*
X015220Y017829D02*
X012270Y017829D01*
X012270Y017730D02*
X015220Y017730D01*
X015220Y017632D02*
X012255Y017632D01*
X012156Y017533D02*
X015312Y017533D01*
X015411Y017435D02*
X012080Y017435D01*
X012080Y017336D02*
X015509Y017336D01*
X015608Y017238D02*
X012080Y017238D01*
X012080Y017139D02*
X015706Y017139D01*
X015805Y017041D02*
X012080Y017041D01*
X012080Y016942D02*
X015903Y016942D01*
X016002Y016844D02*
X012080Y016844D01*
X012080Y016745D02*
X016100Y016745D01*
X016199Y016647D02*
X012080Y016647D01*
X012080Y016548D02*
X016297Y016548D01*
X016396Y016450D02*
X012080Y016450D01*
X012080Y016351D02*
X016494Y016351D01*
X016593Y016253D02*
X012171Y016253D01*
X012269Y016154D02*
X016691Y016154D01*
X016770Y016330D02*
X015400Y017700D01*
X015400Y020800D01*
X014400Y021800D01*
X008300Y021800D01*
X007100Y020600D01*
X007100Y021200D01*
X007403Y021375D02*
X007620Y021375D01*
X007718Y021473D02*
X007294Y021473D01*
X007501Y021276D02*
X007521Y021276D01*
X007834Y021079D02*
X008604Y021079D01*
X008600Y020981D02*
X007735Y020981D01*
X007637Y020882D02*
X008600Y020882D01*
X008600Y020784D02*
X007600Y020784D01*
X007600Y020685D02*
X008600Y020685D01*
X008600Y020587D02*
X007600Y020587D01*
X007600Y020488D02*
X008600Y020488D01*
X008600Y020390D02*
X007600Y020390D01*
X007664Y020291D02*
X008600Y020291D01*
X008600Y020193D02*
X007762Y020193D01*
X007861Y020094D02*
X008615Y020094D01*
X008656Y019996D02*
X007959Y019996D01*
X008058Y019897D02*
X008726Y019897D01*
X008835Y019799D02*
X008080Y019799D01*
X007900Y019800D02*
X007100Y020600D01*
X006600Y020587D02*
X006600Y020587D01*
X006600Y020685D02*
X006600Y020685D01*
X006600Y020784D02*
X006600Y020784D01*
X006600Y020882D02*
X006600Y020882D01*
X006600Y020981D02*
X006600Y020981D01*
X006596Y021079D02*
X006604Y021079D01*
X006645Y021178D02*
X006555Y021178D01*
X006501Y021276D02*
X006699Y021276D01*
X006797Y021375D02*
X006403Y021375D01*
X006294Y021473D02*
X006906Y021473D01*
X006100Y021200D02*
X006100Y020600D01*
X006100Y018400D01*
X005900Y018200D01*
X005900Y017100D01*
X007000Y016000D01*
X007900Y016000D01*
X007629Y016253D02*
X007002Y016253D01*
X006904Y016351D02*
X007728Y016351D01*
X008072Y016351D02*
X011720Y016351D01*
X011720Y016450D02*
X006805Y016450D01*
X006707Y016548D02*
X011720Y016548D01*
X011720Y016647D02*
X006608Y016647D01*
X006510Y016745D02*
X011720Y016745D01*
X011720Y016844D02*
X006411Y016844D01*
X006313Y016942D02*
X011720Y016942D01*
X011720Y017041D02*
X006214Y017041D01*
X006116Y017139D02*
X011720Y017139D01*
X011720Y017238D02*
X006080Y017238D01*
X006080Y017336D02*
X011720Y017336D01*
X011720Y017435D02*
X008058Y017435D01*
X008156Y017533D02*
X011644Y017533D01*
X011545Y017632D02*
X008255Y017632D01*
X008270Y017730D02*
X011530Y017730D01*
X011530Y017829D02*
X008270Y017829D01*
X008270Y017927D02*
X011530Y017927D01*
X011602Y018026D02*
X008198Y018026D01*
X008099Y018124D02*
X011701Y018124D01*
X010809Y019799D02*
X010391Y019799D01*
X010501Y019897D02*
X010699Y019897D01*
X010636Y019996D02*
X010564Y019996D01*
X010150Y019996D02*
X010050Y019996D01*
X010050Y020094D02*
X010150Y020094D01*
X010150Y020193D02*
X010050Y020193D01*
X010050Y020291D02*
X010150Y020291D01*
X010150Y020390D02*
X010050Y020390D01*
X010050Y020488D02*
X010150Y020488D01*
X010150Y019897D02*
X010050Y019897D01*
X010050Y019799D02*
X010150Y019799D01*
X009809Y019799D02*
X009365Y019799D01*
X009474Y019897D02*
X009699Y019897D01*
X009636Y019996D02*
X009544Y019996D01*
X009585Y020094D02*
X009597Y020094D01*
X008645Y021178D02*
X007932Y021178D01*
X008031Y021276D02*
X008699Y021276D01*
X008797Y021375D02*
X008129Y021375D01*
X007915Y021670D02*
X000200Y021670D01*
X000200Y021572D02*
X007817Y021572D01*
X008014Y021769D02*
X000200Y021769D01*
X000200Y021867D02*
X008112Y021867D01*
X008211Y021966D02*
X000200Y021966D01*
X000200Y022064D02*
X023800Y022064D01*
X023800Y021966D02*
X014489Y021966D01*
X014588Y021867D02*
X023800Y021867D01*
X023800Y021769D02*
X014686Y021769D01*
X014785Y021670D02*
X023800Y021670D01*
X023800Y021572D02*
X014883Y021572D01*
X014982Y021473D02*
X023800Y021473D01*
X023800Y021375D02*
X015080Y021375D01*
X015179Y021276D02*
X017225Y021276D01*
X017238Y021290D02*
X017010Y021062D01*
X017010Y020930D01*
X017370Y020930D01*
X017370Y021290D01*
X017238Y021290D01*
X017370Y021276D02*
X017430Y021276D01*
X017430Y021290D02*
X017430Y020930D01*
X017370Y020930D01*
X017370Y020870D01*
X017010Y020870D01*
X017010Y020738D01*
X017238Y020510D01*
X017370Y020510D01*
X017370Y020870D01*
X017430Y020870D01*
X017430Y020930D01*
X017790Y020930D01*
X017790Y021062D01*
X017562Y021290D01*
X017430Y021290D01*
X017430Y021178D02*
X017370Y021178D01*
X017370Y021079D02*
X017430Y021079D01*
X017430Y020981D02*
X017370Y020981D01*
X017370Y020882D02*
X015573Y020882D01*
X015580Y020784D02*
X017010Y020784D01*
X017063Y020685D02*
X015580Y020685D01*
X015580Y020587D02*
X017162Y020587D01*
X017370Y020587D02*
X017430Y020587D01*
X017430Y020510D02*
X017562Y020510D01*
X017790Y020738D01*
X017790Y020870D01*
X017430Y020870D01*
X017430Y020510D01*
X017430Y020685D02*
X017370Y020685D01*
X017370Y020784D02*
X017430Y020784D01*
X017430Y020882D02*
X020670Y020882D01*
X020670Y020870D02*
X020310Y020870D01*
X020310Y020738D01*
X020538Y020510D01*
X020670Y020510D01*
X020670Y020870D01*
X020670Y020930D01*
X020670Y021290D01*
X020538Y021290D01*
X020310Y021062D01*
X020310Y020930D01*
X020670Y020930D01*
X020730Y020930D01*
X020730Y021290D01*
X020862Y021290D01*
X021090Y021062D01*
X021090Y020930D01*
X020730Y020930D01*
X020730Y020870D01*
X021090Y020870D01*
X021090Y020738D01*
X020862Y020510D01*
X020730Y020510D01*
X020730Y020870D01*
X020670Y020870D01*
X020730Y020882D02*
X023800Y020882D01*
X023800Y020784D02*
X021090Y020784D01*
X021037Y020685D02*
X023800Y020685D01*
X023800Y020587D02*
X020938Y020587D01*
X020730Y020587D02*
X020670Y020587D01*
X020670Y020685D02*
X020730Y020685D01*
X020730Y020784D02*
X020670Y020784D01*
X020670Y020981D02*
X020730Y020981D01*
X020730Y021079D02*
X020670Y021079D01*
X020670Y021178D02*
X020730Y021178D01*
X020730Y021276D02*
X020670Y021276D01*
X020525Y021276D02*
X017575Y021276D01*
X017674Y021178D02*
X020426Y021178D01*
X020328Y021079D02*
X017772Y021079D01*
X017790Y020981D02*
X020310Y020981D01*
X020310Y020784D02*
X017790Y020784D01*
X017737Y020685D02*
X020363Y020685D01*
X020462Y020587D02*
X017638Y020587D01*
X017553Y020270D02*
X017247Y020270D01*
X017030Y020053D01*
X017030Y019747D01*
X017220Y019557D01*
X017220Y018743D01*
X017030Y018553D01*
X017030Y018247D01*
X017247Y018030D01*
X017553Y018030D01*
X017770Y018247D01*
X017770Y018553D01*
X017580Y018743D01*
X017580Y019557D01*
X017770Y019747D01*
X017770Y020053D01*
X017553Y020270D01*
X017631Y020193D02*
X020469Y020193D01*
X020547Y020270D02*
X020330Y020053D01*
X020330Y019747D01*
X020520Y019557D01*
X020520Y018473D01*
X020920Y018074D01*
X020870Y017953D01*
X020870Y017743D01*
X020951Y017548D01*
X021100Y017399D01*
X021295Y017318D01*
X021505Y017318D01*
X021700Y017399D01*
X021849Y017548D01*
X021930Y017743D01*
X021930Y017953D01*
X021849Y018148D01*
X021700Y018297D01*
X021505Y018378D01*
X021295Y018378D01*
X021174Y018328D01*
X020880Y018623D01*
X020880Y019557D01*
X021070Y019747D01*
X021070Y020053D01*
X020853Y020270D01*
X020547Y020270D01*
X020371Y020094D02*
X017729Y020094D01*
X017770Y019996D02*
X020330Y019996D01*
X020330Y019897D02*
X017770Y019897D01*
X017770Y019799D02*
X020330Y019799D01*
X020377Y019700D02*
X017723Y019700D01*
X017625Y019602D02*
X020475Y019602D01*
X020520Y019503D02*
X017580Y019503D01*
X017580Y019405D02*
X020520Y019405D01*
X020520Y019306D02*
X017580Y019306D01*
X017580Y019208D02*
X020520Y019208D01*
X020520Y019109D02*
X017580Y019109D01*
X017580Y019011D02*
X020520Y019011D01*
X020520Y018912D02*
X017580Y018912D01*
X017580Y018814D02*
X020520Y018814D01*
X020520Y018715D02*
X017608Y018715D01*
X017707Y018617D02*
X020520Y018617D01*
X020520Y018518D02*
X017770Y018518D01*
X017770Y018420D02*
X020574Y018420D01*
X020672Y018321D02*
X017770Y018321D01*
X017746Y018223D02*
X020771Y018223D01*
X020869Y018124D02*
X017647Y018124D01*
X017400Y018400D02*
X017400Y019900D01*
X017169Y020193D02*
X015580Y020193D01*
X015580Y020291D02*
X023800Y020291D01*
X023800Y020193D02*
X020931Y020193D01*
X021029Y020094D02*
X023800Y020094D01*
X023800Y019996D02*
X021070Y019996D01*
X021070Y019897D02*
X023800Y019897D01*
X023800Y019799D02*
X021070Y019799D01*
X021023Y019700D02*
X023800Y019700D01*
X023800Y019602D02*
X020925Y019602D01*
X020880Y019503D02*
X023800Y019503D01*
X023800Y019405D02*
X020880Y019405D01*
X020880Y019306D02*
X023800Y019306D01*
X023800Y019208D02*
X020880Y019208D01*
X020880Y019109D02*
X023800Y019109D01*
X023800Y019011D02*
X020880Y019011D01*
X020880Y018912D02*
X023800Y018912D01*
X023800Y018814D02*
X020880Y018814D01*
X020880Y018715D02*
X023800Y018715D01*
X023800Y018617D02*
X020886Y018617D01*
X020984Y018518D02*
X023800Y018518D01*
X023800Y018420D02*
X021083Y018420D01*
X020900Y018026D02*
X015580Y018026D01*
X015580Y018124D02*
X017153Y018124D01*
X017054Y018223D02*
X015580Y018223D01*
X015580Y018321D02*
X017030Y018321D01*
X017030Y018420D02*
X015580Y018420D01*
X015580Y018518D02*
X017030Y018518D01*
X017093Y018617D02*
X015580Y018617D01*
X015580Y018715D02*
X017192Y018715D01*
X017220Y018814D02*
X015580Y018814D01*
X015580Y018912D02*
X017220Y018912D01*
X017220Y019011D02*
X015580Y019011D01*
X015580Y019109D02*
X017220Y019109D01*
X017220Y019208D02*
X015580Y019208D01*
X015580Y019306D02*
X017220Y019306D01*
X017220Y019405D02*
X015580Y019405D01*
X015580Y019503D02*
X017220Y019503D01*
X017175Y019602D02*
X015580Y019602D01*
X015580Y019700D02*
X017077Y019700D01*
X017030Y019799D02*
X015580Y019799D01*
X015580Y019897D02*
X017030Y019897D01*
X017030Y019996D02*
X015580Y019996D01*
X015580Y020094D02*
X017071Y020094D01*
X017010Y020981D02*
X015474Y020981D01*
X015376Y021079D02*
X017028Y021079D01*
X017126Y021178D02*
X015277Y021178D01*
X015063Y020882D02*
X014600Y020882D01*
X014600Y020784D02*
X015162Y020784D01*
X015220Y020685D02*
X014600Y020685D01*
X014600Y020587D02*
X015220Y020587D01*
X015220Y020488D02*
X014600Y020488D01*
X014600Y020390D02*
X015220Y020390D01*
X015220Y020291D02*
X014600Y020291D01*
X014600Y020193D02*
X015220Y020193D01*
X015220Y020094D02*
X014585Y020094D01*
X014544Y019996D02*
X015220Y019996D01*
X015220Y019897D02*
X014474Y019897D01*
X014365Y019799D02*
X015220Y019799D01*
X015580Y020390D02*
X023800Y020390D01*
X023800Y020488D02*
X015580Y020488D01*
X014965Y020981D02*
X014600Y020981D01*
X014596Y021079D02*
X014866Y021079D01*
X014768Y021178D02*
X014555Y021178D01*
X014501Y021276D02*
X014669Y021276D01*
X014571Y021375D02*
X014403Y021375D01*
X014472Y021473D02*
X012294Y021473D01*
X011615Y020094D02*
X011603Y020094D01*
X011564Y019996D02*
X011656Y019996D01*
X011726Y019897D02*
X011501Y019897D01*
X007900Y019800D02*
X007900Y017800D01*
X007530Y017829D02*
X006330Y017829D01*
X006330Y017927D02*
X007530Y017927D01*
X007602Y018026D02*
X006330Y018026D01*
X006330Y018124D02*
X007701Y018124D01*
X007720Y018223D02*
X006330Y018223D01*
X006330Y018321D02*
X007720Y018321D01*
X007720Y018420D02*
X006330Y018420D01*
X006330Y018518D02*
X007720Y018518D01*
X007720Y018617D02*
X006317Y018617D01*
X006280Y018715D02*
X007720Y018715D01*
X007720Y018814D02*
X006280Y018814D01*
X006280Y018912D02*
X007720Y018912D01*
X007720Y019011D02*
X006280Y019011D01*
X006280Y019109D02*
X007720Y019109D01*
X007720Y019208D02*
X006280Y019208D01*
X006280Y019306D02*
X007720Y019306D01*
X007720Y019405D02*
X006280Y019405D01*
X006280Y019503D02*
X007720Y019503D01*
X007720Y019602D02*
X006280Y019602D01*
X006280Y019700D02*
X007720Y019700D01*
X007647Y019799D02*
X007365Y019799D01*
X007474Y019897D02*
X007548Y019897D01*
X006835Y019799D02*
X006365Y019799D01*
X006474Y019897D02*
X006726Y019897D01*
X006656Y019996D02*
X006544Y019996D01*
X006585Y020094D02*
X006615Y020094D01*
X006600Y020193D02*
X006600Y020193D01*
X006600Y020291D02*
X006600Y020291D01*
X006600Y020390D02*
X006600Y020390D01*
X006600Y020488D02*
X006600Y020488D01*
X005600Y020488D02*
X005600Y020488D01*
X005600Y020390D02*
X005600Y020390D01*
X005600Y020291D02*
X005600Y020291D01*
X005600Y020193D02*
X005600Y020193D01*
X005600Y020131D02*
X005524Y019947D01*
X005383Y019806D01*
X005280Y019763D01*
X005280Y018806D01*
X005330Y018686D01*
X005330Y017914D01*
X005265Y017756D01*
X005144Y017635D01*
X005080Y017609D01*
X005080Y016675D01*
X007275Y014480D01*
X007557Y014480D01*
X007747Y014670D01*
X008053Y014670D01*
X008270Y014453D01*
X008270Y014147D01*
X008053Y013930D01*
X007747Y013930D01*
X007557Y014120D01*
X007125Y014120D01*
X004825Y016420D01*
X004720Y016525D01*
X004720Y017609D01*
X004656Y017635D01*
X004535Y017756D01*
X004470Y017914D01*
X004470Y018686D01*
X004535Y018844D01*
X004656Y018965D01*
X004814Y019030D01*
X004920Y019030D01*
X004920Y019763D01*
X004817Y019806D01*
X004676Y019947D01*
X004600Y020131D01*
X004600Y021069D01*
X004676Y021253D01*
X004817Y021394D01*
X004835Y021401D01*
X004913Y021480D01*
X005034Y021530D01*
X005166Y021530D01*
X005287Y021480D01*
X005365Y021401D01*
X005383Y021394D01*
X005524Y021253D01*
X005600Y021069D01*
X005600Y020131D01*
X005585Y020094D02*
X005615Y020094D01*
X005656Y019996D02*
X005544Y019996D01*
X005474Y019897D02*
X005726Y019897D01*
X005835Y019799D02*
X005365Y019799D01*
X005280Y019700D02*
X005920Y019700D01*
X005920Y019602D02*
X005280Y019602D01*
X005280Y019503D02*
X005920Y019503D01*
X005920Y019405D02*
X005280Y019405D01*
X005280Y019306D02*
X005920Y019306D01*
X005920Y019208D02*
X005280Y019208D01*
X005280Y019109D02*
X005920Y019109D01*
X005920Y019011D02*
X005280Y019011D01*
X005280Y018912D02*
X005771Y018912D01*
X005605Y018814D02*
X005280Y018814D01*
X005318Y018715D02*
X005524Y018715D01*
X005483Y018617D02*
X005330Y018617D01*
X005330Y018518D02*
X005470Y018518D01*
X005470Y018420D02*
X005330Y018420D01*
X005330Y018321D02*
X005470Y018321D01*
X005470Y018223D02*
X005330Y018223D01*
X005330Y018124D02*
X005470Y018124D01*
X005470Y018026D02*
X005330Y018026D01*
X005330Y017927D02*
X005470Y017927D01*
X005470Y017829D02*
X005294Y017829D01*
X005238Y017730D02*
X005505Y017730D01*
X005560Y017632D02*
X005134Y017632D01*
X005080Y017533D02*
X005662Y017533D01*
X005720Y017435D02*
X005080Y017435D01*
X005080Y017336D02*
X005720Y017336D01*
X005720Y017238D02*
X005080Y017238D01*
X005080Y017139D02*
X005720Y017139D01*
X005720Y017041D02*
X005080Y017041D01*
X005080Y016942D02*
X005803Y016942D01*
X005902Y016844D02*
X005080Y016844D01*
X005080Y016745D02*
X006000Y016745D01*
X006099Y016647D02*
X005108Y016647D01*
X005207Y016548D02*
X006197Y016548D01*
X006296Y016450D02*
X005305Y016450D01*
X005404Y016351D02*
X006394Y016351D01*
X006493Y016253D02*
X005502Y016253D01*
X005601Y016154D02*
X006591Y016154D01*
X006690Y016056D02*
X005699Y016056D01*
X005798Y015957D02*
X006788Y015957D01*
X006887Y015859D02*
X005896Y015859D01*
X005995Y015760D02*
X007617Y015760D01*
X007715Y015662D02*
X006093Y015662D01*
X006192Y015563D02*
X011720Y015563D01*
X011720Y015465D02*
X006290Y015465D01*
X006389Y015366D02*
X011720Y015366D01*
X011720Y015268D02*
X006487Y015268D01*
X006586Y015169D02*
X011720Y015169D01*
X011720Y015071D02*
X006684Y015071D01*
X006783Y014972D02*
X011720Y014972D01*
X011720Y014874D02*
X006881Y014874D01*
X006980Y014775D02*
X011720Y014775D01*
X011720Y014677D02*
X007078Y014677D01*
X007177Y014578D02*
X007655Y014578D01*
X007900Y014300D02*
X007200Y014300D01*
X004900Y016600D01*
X004900Y018300D01*
X005100Y018500D01*
X005100Y020600D01*
X005100Y021200D01*
X005403Y021375D02*
X005797Y021375D01*
X005699Y021276D02*
X005501Y021276D01*
X005555Y021178D02*
X005645Y021178D01*
X005604Y021079D02*
X005596Y021079D01*
X005600Y020981D02*
X005600Y020981D01*
X005600Y020882D02*
X005600Y020882D01*
X005600Y020784D02*
X005600Y020784D01*
X005600Y020685D02*
X005600Y020685D01*
X005600Y020587D02*
X005600Y020587D01*
X004726Y019897D02*
X004474Y019897D01*
X004524Y019947D02*
X004600Y020131D01*
X004600Y021069D01*
X004524Y021253D01*
X004383Y021394D01*
X004365Y021401D01*
X004287Y021480D01*
X004166Y021530D01*
X004034Y021530D01*
X003913Y021480D01*
X003835Y021401D01*
X003817Y021394D01*
X003676Y021253D01*
X003600Y021069D01*
X003524Y021253D01*
X003383Y021394D01*
X003199Y021470D01*
X003001Y021470D01*
X002817Y021394D01*
X002676Y021253D01*
X002600Y021069D01*
X002600Y020131D01*
X002676Y019947D01*
X002817Y019806D01*
X003001Y019730D01*
X003199Y019730D01*
X003383Y019806D01*
X003524Y019947D01*
X003600Y020131D01*
X003600Y021069D01*
X003600Y020131D01*
X003676Y019947D01*
X003817Y019806D01*
X003920Y019763D01*
X003920Y018930D01*
X003814Y018930D01*
X003656Y018865D01*
X003535Y018744D01*
X003470Y018586D01*
X003470Y017814D01*
X003535Y017656D01*
X003656Y017535D01*
X003720Y017509D01*
X003720Y016325D01*
X007530Y012515D01*
X007530Y012247D01*
X007747Y012030D01*
X008053Y012030D01*
X008270Y012247D01*
X008270Y012553D01*
X008053Y012770D01*
X007785Y012770D01*
X004080Y016475D01*
X004080Y017509D01*
X004144Y017535D01*
X004265Y017656D01*
X004330Y017814D01*
X004330Y018586D01*
X004280Y018706D01*
X004280Y019763D01*
X004383Y019806D01*
X004524Y019947D01*
X004544Y019996D02*
X004656Y019996D01*
X004615Y020094D02*
X004585Y020094D01*
X004600Y020193D02*
X004600Y020193D01*
X004600Y020291D02*
X004600Y020291D01*
X004600Y020390D02*
X004600Y020390D01*
X004600Y020488D02*
X004600Y020488D01*
X004600Y020587D02*
X004600Y020587D01*
X004600Y020685D02*
X004600Y020685D01*
X004600Y020784D02*
X004600Y020784D01*
X004600Y020882D02*
X004600Y020882D01*
X004600Y020981D02*
X004600Y020981D01*
X004596Y021079D02*
X004604Y021079D01*
X004645Y021178D02*
X004555Y021178D01*
X004501Y021276D02*
X004699Y021276D01*
X004797Y021375D02*
X004403Y021375D01*
X004294Y021473D02*
X004906Y021473D01*
X005294Y021473D02*
X005906Y021473D01*
X004100Y021200D02*
X004100Y020600D01*
X004100Y018400D01*
X003900Y018200D01*
X003900Y016400D01*
X007900Y012400D01*
X007530Y012411D02*
X000200Y012411D01*
X000200Y012313D02*
X007530Y012313D01*
X007563Y012214D02*
X000200Y012214D01*
X000200Y012116D02*
X007661Y012116D01*
X008139Y012116D02*
X011661Y012116D01*
X011720Y012017D02*
X000200Y012017D01*
X000200Y011919D02*
X011720Y011919D01*
X011720Y011820D02*
X000200Y011820D01*
X000200Y011722D02*
X011720Y011722D01*
X011720Y011623D02*
X000200Y011623D01*
X000200Y011525D02*
X011720Y011525D01*
X011720Y011426D02*
X000200Y011426D01*
X000200Y011328D02*
X011720Y011328D01*
X011720Y011229D02*
X000200Y011229D01*
X000200Y011131D02*
X011720Y011131D01*
X011720Y011032D02*
X000200Y011032D01*
X000200Y010934D02*
X011720Y010934D01*
X011720Y010835D02*
X000200Y010835D01*
X000200Y010737D02*
X011720Y010737D01*
X011720Y010638D02*
X000200Y010638D01*
X000200Y010540D02*
X011720Y010540D01*
X011720Y010441D02*
X000200Y010441D01*
X000200Y010343D02*
X011720Y010343D01*
X011720Y010244D02*
X000200Y010244D01*
X000200Y010146D02*
X011720Y010146D01*
X011639Y010047D02*
X010261Y010047D01*
X010360Y009949D02*
X011540Y009949D01*
X011536Y009456D02*
X010364Y009456D01*
X010266Y009358D02*
X011634Y009358D01*
X011554Y009062D02*
X010146Y009062D01*
X010144Y009065D02*
X009986Y009130D01*
X009214Y009130D01*
X009056Y009065D01*
X008935Y008944D01*
X008870Y008786D01*
X008870Y008614D01*
X008935Y008456D01*
X009056Y008335D01*
X009214Y008270D01*
X009986Y008270D01*
X010144Y008335D01*
X010265Y008456D01*
X010330Y008614D01*
X010330Y008786D01*
X010265Y008944D01*
X010144Y009065D01*
X010245Y008964D02*
X011455Y008964D01*
X011403Y008865D02*
X010297Y008865D01*
X010330Y008767D02*
X011370Y008767D01*
X011370Y008668D02*
X010330Y008668D01*
X010311Y008570D02*
X011389Y008570D01*
X011429Y008471D02*
X010271Y008471D01*
X010181Y008373D02*
X011519Y008373D01*
X011705Y008274D02*
X009995Y008274D01*
X009750Y008077D02*
X009650Y008077D01*
X009650Y007979D02*
X009750Y007979D01*
X009750Y007880D02*
X009650Y007880D01*
X009650Y007782D02*
X009750Y007782D01*
X009750Y007486D02*
X009650Y007486D01*
X009650Y007388D02*
X009750Y007388D01*
X009750Y007289D02*
X009650Y007289D01*
X009215Y007289D02*
X007685Y007289D01*
X007824Y007388D02*
X009076Y007388D01*
X009004Y007486D02*
X007896Y007486D01*
X007936Y007585D02*
X008964Y007585D01*
X008957Y007782D02*
X007943Y007782D01*
X007913Y007880D02*
X008987Y007880D01*
X009046Y007979D02*
X007854Y007979D01*
X007747Y008077D02*
X009153Y008077D01*
X009205Y008274D02*
X007495Y008274D01*
X007486Y008270D02*
X007644Y008335D01*
X007765Y008456D01*
X007830Y008614D01*
X007830Y008786D01*
X007765Y008944D01*
X007644Y009065D01*
X007486Y009130D01*
X006714Y009130D01*
X006556Y009065D01*
X006435Y008944D01*
X006370Y008786D01*
X006370Y008614D01*
X006435Y008456D01*
X006556Y008335D01*
X006714Y008270D01*
X007486Y008270D01*
X007681Y008373D02*
X009019Y008373D01*
X008929Y008471D02*
X007771Y008471D01*
X007811Y008570D02*
X008889Y008570D01*
X008870Y008668D02*
X007830Y008668D01*
X007830Y008767D02*
X008870Y008767D01*
X008903Y008865D02*
X007797Y008865D01*
X007745Y008964D02*
X008955Y008964D01*
X009054Y009062D02*
X007646Y009062D01*
X007766Y009358D02*
X009134Y009358D01*
X009036Y009456D02*
X007864Y009456D01*
X007860Y009949D02*
X009040Y009949D01*
X009139Y010047D02*
X007761Y010047D01*
X007200Y009700D02*
X009700Y009700D01*
X012200Y009700D01*
X014600Y009700D01*
X015161Y010047D02*
X018965Y010047D01*
X018940Y010108D02*
X019010Y009939D01*
X019139Y009810D01*
X019308Y009740D01*
X019491Y009740D01*
X019572Y009773D01*
X020177Y009168D01*
X021501Y009168D01*
X021551Y009048D01*
X021700Y008899D01*
X021895Y008818D01*
X022105Y008818D01*
X022300Y008899D01*
X022449Y009048D01*
X022530Y009243D01*
X022530Y009453D01*
X022449Y009648D01*
X022300Y009797D01*
X022105Y009878D01*
X021895Y009878D01*
X021700Y009797D01*
X021551Y009648D01*
X021501Y009528D01*
X020327Y009528D01*
X019827Y010028D01*
X019860Y010108D01*
X019860Y010291D01*
X019827Y010372D01*
X020680Y011225D01*
X020680Y012109D01*
X020744Y012135D01*
X020865Y012256D01*
X020930Y012414D01*
X020930Y013186D01*
X020865Y013344D01*
X020744Y013465D01*
X020586Y013530D01*
X020414Y013530D01*
X020256Y013465D01*
X020135Y013344D01*
X020070Y013186D01*
X020070Y012414D01*
X020135Y012256D01*
X020256Y012135D01*
X020320Y012109D01*
X020320Y011375D01*
X019572Y010627D01*
X019491Y010660D01*
X019308Y010660D01*
X019139Y010590D01*
X019010Y010461D01*
X018940Y010291D01*
X018940Y010108D01*
X018940Y010146D02*
X012080Y010146D01*
X012080Y010244D02*
X018940Y010244D01*
X018961Y010343D02*
X012080Y010343D01*
X012080Y010441D02*
X019002Y010441D01*
X019089Y010540D02*
X012080Y010540D01*
X012080Y010638D02*
X019255Y010638D01*
X019545Y010638D02*
X019583Y010638D01*
X019682Y010737D02*
X012080Y010737D01*
X012080Y010835D02*
X019780Y010835D01*
X019879Y010934D02*
X012080Y010934D01*
X012080Y011032D02*
X019977Y011032D01*
X020076Y011131D02*
X012080Y011131D01*
X012080Y011229D02*
X020174Y011229D01*
X020273Y011328D02*
X012080Y011328D01*
X012080Y011426D02*
X020320Y011426D01*
X020320Y011525D02*
X012080Y011525D01*
X012080Y011623D02*
X020320Y011623D01*
X020320Y011722D02*
X012080Y011722D01*
X012080Y011820D02*
X020320Y011820D01*
X020320Y011919D02*
X012080Y011919D01*
X012080Y012017D02*
X020320Y012017D01*
X020305Y012116D02*
X019695Y012116D01*
X019744Y012135D02*
X019865Y012256D01*
X019930Y012414D01*
X019930Y013186D01*
X019865Y013344D01*
X019744Y013465D01*
X019586Y013530D01*
X019414Y013530D01*
X019256Y013465D01*
X019135Y013344D01*
X019070Y013186D01*
X019070Y012980D01*
X017775Y012980D01*
X017030Y013725D01*
X017030Y014078D01*
X016778Y014330D01*
X016422Y014330D01*
X016170Y014078D01*
X016170Y013722D01*
X016422Y013470D01*
X016775Y013470D01*
X017625Y012620D01*
X019070Y012620D01*
X019070Y012414D01*
X019135Y012256D01*
X019256Y012135D01*
X019414Y012070D01*
X019586Y012070D01*
X019744Y012135D01*
X019822Y012214D02*
X020178Y012214D01*
X020112Y012313D02*
X019888Y012313D01*
X019929Y012411D02*
X020071Y012411D01*
X020070Y012510D02*
X019930Y012510D01*
X019930Y012608D02*
X020070Y012608D01*
X020070Y012707D02*
X019930Y012707D01*
X019930Y012805D02*
X020070Y012805D01*
X020070Y012904D02*
X019930Y012904D01*
X019930Y013002D02*
X020070Y013002D01*
X020070Y013101D02*
X019930Y013101D01*
X019924Y013199D02*
X020076Y013199D01*
X020116Y013298D02*
X019884Y013298D01*
X019812Y013396D02*
X020188Y013396D01*
X020329Y013495D02*
X019671Y013495D01*
X019329Y013495D02*
X017260Y013495D01*
X017162Y013593D02*
X023800Y013593D01*
X023800Y013495D02*
X021717Y013495D01*
X021736Y013485D02*
X021673Y013517D01*
X021605Y013539D01*
X021550Y013548D01*
X021550Y012850D01*
X021950Y012850D01*
X021950Y013135D01*
X021939Y013205D01*
X021917Y013273D01*
X021885Y013336D01*
X021843Y013393D01*
X021793Y013443D01*
X021736Y013485D01*
X021840Y013396D02*
X023800Y013396D01*
X023800Y013298D02*
X021904Y013298D01*
X021940Y013199D02*
X023800Y013199D01*
X023800Y013101D02*
X021950Y013101D01*
X021950Y013002D02*
X023800Y013002D01*
X023800Y012904D02*
X021950Y012904D01*
X021950Y012750D02*
X021550Y012750D01*
X021550Y012850D01*
X021450Y012850D01*
X021450Y013548D01*
X021395Y013539D01*
X021327Y013517D01*
X021264Y013485D01*
X021207Y013443D01*
X021157Y013393D01*
X021115Y013336D01*
X021083Y013273D01*
X021061Y013205D01*
X021050Y013135D01*
X021050Y012850D01*
X021450Y012850D01*
X021450Y012750D01*
X021550Y012750D01*
X021550Y012052D01*
X021605Y012061D01*
X021673Y012083D01*
X021736Y012115D01*
X021793Y012157D01*
X021843Y012207D01*
X021885Y012264D01*
X021917Y012327D01*
X021939Y012395D01*
X021950Y012465D01*
X021950Y012750D01*
X021950Y012707D02*
X023800Y012707D01*
X023800Y012805D02*
X021550Y012805D01*
X021550Y012707D02*
X021450Y012707D01*
X021450Y012750D02*
X021450Y012052D01*
X021395Y012061D01*
X021327Y012083D01*
X021264Y012115D01*
X021207Y012157D01*
X021157Y012207D01*
X021115Y012264D01*
X021083Y012327D01*
X021061Y012395D01*
X021050Y012465D01*
X021050Y012750D01*
X021450Y012750D01*
X021450Y012805D02*
X020930Y012805D01*
X020930Y012707D02*
X021050Y012707D01*
X021050Y012608D02*
X020930Y012608D01*
X020930Y012510D02*
X021050Y012510D01*
X021058Y012411D02*
X020929Y012411D01*
X020888Y012313D02*
X021090Y012313D01*
X021152Y012214D02*
X020822Y012214D01*
X020695Y012116D02*
X021264Y012116D01*
X021450Y012116D02*
X021550Y012116D01*
X021550Y012214D02*
X021450Y012214D01*
X021450Y012313D02*
X021550Y012313D01*
X021550Y012411D02*
X021450Y012411D01*
X021450Y012510D02*
X021550Y012510D01*
X021550Y012608D02*
X021450Y012608D01*
X021450Y012904D02*
X021550Y012904D01*
X021550Y013002D02*
X021450Y013002D01*
X021450Y013101D02*
X021550Y013101D01*
X021550Y013199D02*
X021450Y013199D01*
X021450Y013298D02*
X021550Y013298D01*
X021550Y013396D02*
X021450Y013396D01*
X021450Y013495D02*
X021550Y013495D01*
X021283Y013495D02*
X020671Y013495D01*
X020812Y013396D02*
X021160Y013396D01*
X021096Y013298D02*
X020884Y013298D01*
X020924Y013199D02*
X021060Y013199D01*
X021050Y013101D02*
X020930Y013101D01*
X020930Y013002D02*
X021050Y013002D01*
X021050Y012904D02*
X020930Y012904D01*
X020500Y012800D02*
X020500Y011300D01*
X019400Y010200D01*
X020252Y009348D01*
X022000Y009348D01*
X022488Y009555D02*
X023800Y009555D01*
X023800Y009653D02*
X022444Y009653D01*
X022346Y009752D02*
X023800Y009752D01*
X023800Y009850D02*
X022173Y009850D01*
X021827Y009850D02*
X020005Y009850D01*
X020103Y009752D02*
X021654Y009752D01*
X021556Y009653D02*
X020202Y009653D01*
X020300Y009555D02*
X021512Y009555D01*
X021504Y009161D02*
X016948Y009161D01*
X017030Y009062D02*
X021545Y009062D01*
X021635Y008964D02*
X017030Y008964D01*
X017030Y008865D02*
X021781Y008865D01*
X022219Y008865D02*
X023800Y008865D01*
X023800Y008767D02*
X017030Y008767D01*
X016976Y008668D02*
X023800Y008668D01*
X023800Y008570D02*
X016878Y008570D01*
X016780Y008471D02*
X023800Y008471D01*
X023800Y008373D02*
X016780Y008373D01*
X016780Y008274D02*
X021470Y008274D01*
X021470Y008284D02*
X021470Y008010D01*
X020955Y008010D01*
X019572Y006627D01*
X019491Y006660D01*
X019308Y006660D01*
X019139Y006590D01*
X019010Y006461D01*
X018940Y006291D01*
X018940Y006108D01*
X019010Y005939D01*
X019139Y005810D01*
X019308Y005740D01*
X019491Y005740D01*
X019572Y005773D01*
X021470Y003875D01*
X021470Y003476D01*
X021546Y003400D01*
X022454Y003400D01*
X022530Y003476D01*
X022530Y004384D01*
X022454Y004460D01*
X021546Y004460D01*
X021470Y004384D01*
X019827Y006028D01*
X019860Y006108D01*
X019860Y006291D01*
X019827Y006372D01*
X021105Y007650D01*
X021470Y007650D01*
X021470Y007376D01*
X021546Y007300D01*
X022454Y007300D01*
X022530Y007376D01*
X022530Y008284D01*
X022454Y008360D01*
X021546Y008360D01*
X021470Y008284D01*
X021470Y008176D02*
X016780Y008176D01*
X016780Y008077D02*
X021470Y008077D01*
X021470Y007585D02*
X021039Y007585D01*
X020941Y007486D02*
X021470Y007486D01*
X021470Y007388D02*
X020842Y007388D01*
X020744Y007289D02*
X023800Y007289D01*
X023800Y007191D02*
X020645Y007191D01*
X020547Y007092D02*
X023800Y007092D01*
X023800Y006994D02*
X020448Y006994D01*
X020350Y006895D02*
X023800Y006895D01*
X023800Y006797D02*
X020251Y006797D01*
X020153Y006698D02*
X023800Y006698D01*
X023800Y006600D02*
X020054Y006600D01*
X019956Y006501D02*
X023800Y006501D01*
X023800Y006403D02*
X019857Y006403D01*
X019855Y006304D02*
X023800Y006304D01*
X023800Y006206D02*
X019860Y006206D01*
X019859Y006107D02*
X023800Y006107D01*
X023800Y006009D02*
X019846Y006009D01*
X019945Y005910D02*
X021700Y005910D01*
X021712Y005918D02*
X021642Y005867D01*
X021580Y005806D01*
X021530Y005736D01*
X021490Y005659D01*
X021464Y005577D01*
X021451Y005498D01*
X021950Y005498D01*
X021950Y005997D01*
X021871Y005984D01*
X021789Y005958D01*
X021712Y005918D01*
X021586Y005812D02*
X020043Y005812D01*
X020142Y005713D02*
X021518Y005713D01*
X021476Y005615D02*
X020240Y005615D01*
X020339Y005516D02*
X021454Y005516D01*
X021451Y005398D02*
X021464Y005319D01*
X020536Y005319D01*
X020634Y005221D02*
X021499Y005221D01*
X021490Y005237D02*
X021530Y005160D01*
X021580Y005090D01*
X021642Y005028D01*
X021712Y004978D01*
X021789Y004938D01*
X021871Y004911D01*
X021950Y004899D01*
X021950Y005398D01*
X021451Y005398D01*
X021464Y005319D02*
X021490Y005237D01*
X021557Y005122D02*
X020733Y005122D01*
X020831Y005024D02*
X021648Y005024D01*
X021830Y004925D02*
X020930Y004925D01*
X021028Y004827D02*
X023800Y004827D01*
X023800Y004925D02*
X022170Y004925D01*
X022211Y004938D02*
X022288Y004978D01*
X022358Y005028D01*
X022420Y005090D01*
X022470Y005160D01*
X022510Y005237D01*
X022536Y005319D01*
X023800Y005319D01*
X023800Y005221D02*
X022501Y005221D01*
X022536Y005319D02*
X022549Y005398D01*
X022050Y005398D01*
X022050Y005498D01*
X021950Y005498D01*
X021950Y005398D01*
X022050Y005398D01*
X022050Y004899D01*
X022129Y004911D01*
X022211Y004938D01*
X022050Y004925D02*
X021950Y004925D01*
X021950Y005024D02*
X022050Y005024D01*
X022050Y005122D02*
X021950Y005122D01*
X021950Y005221D02*
X022050Y005221D01*
X022050Y005319D02*
X021950Y005319D01*
X021950Y005418D02*
X020437Y005418D01*
X020125Y005221D02*
X016312Y005221D01*
X016312Y005319D02*
X020026Y005319D01*
X019928Y005418D02*
X016312Y005418D01*
X016312Y005516D02*
X019829Y005516D01*
X019731Y005615D02*
X016312Y005615D01*
X016312Y005713D02*
X019632Y005713D01*
X019138Y005812D02*
X016312Y005812D01*
X016312Y005910D02*
X019039Y005910D01*
X018981Y006009D02*
X016312Y006009D01*
X016312Y006107D02*
X018941Y006107D01*
X018940Y006206D02*
X016312Y006206D01*
X016312Y006304D02*
X018945Y006304D01*
X018986Y006403D02*
X016312Y006403D01*
X016312Y006501D02*
X019050Y006501D01*
X019162Y006600D02*
X016312Y006600D01*
X016312Y006698D02*
X019643Y006698D01*
X019742Y006797D02*
X016312Y006797D01*
X016312Y006895D02*
X019840Y006895D01*
X019939Y006994D02*
X016312Y006994D01*
X016365Y007092D02*
X020037Y007092D01*
X020136Y007191D02*
X016463Y007191D01*
X016562Y007289D02*
X020234Y007289D01*
X020333Y007388D02*
X016562Y007388D01*
X016562Y007486D02*
X020431Y007486D01*
X020530Y007585D02*
X016562Y007585D01*
X016602Y007683D02*
X020628Y007683D01*
X020727Y007782D02*
X016701Y007782D01*
X016780Y007880D02*
X020825Y007880D01*
X020924Y007979D02*
X016780Y007979D01*
X016600Y007936D02*
X016132Y007468D01*
X016132Y003432D01*
X015750Y003050D01*
X015900Y003200D01*
X016008Y003054D02*
X023800Y003054D01*
X023800Y003152D02*
X016107Y003152D01*
X016205Y003251D02*
X023800Y003251D01*
X023800Y003349D02*
X016304Y003349D01*
X016312Y003448D02*
X021499Y003448D01*
X021470Y003546D02*
X019918Y003546D01*
X019951Y003579D02*
X019668Y003862D01*
X019738Y003932D01*
X020021Y003649D01*
X020118Y003746D01*
X020118Y004119D01*
X020021Y004215D01*
X019738Y003932D01*
X019668Y004003D01*
X019951Y004286D01*
X019854Y004382D01*
X019481Y004382D01*
X019385Y004286D01*
X019668Y004003D01*
X019597Y003932D01*
X019668Y003862D01*
X019385Y003579D01*
X019481Y003482D01*
X019854Y003482D01*
X019951Y003579D01*
X019885Y003645D02*
X021470Y003645D01*
X021470Y003743D02*
X020115Y003743D01*
X020118Y003842D02*
X021470Y003842D01*
X021405Y003940D02*
X020118Y003940D01*
X020118Y004039D02*
X021307Y004039D01*
X021208Y004137D02*
X020099Y004137D01*
X019943Y004137D02*
X019802Y004137D01*
X019845Y004039D02*
X019703Y004039D01*
X019632Y004039D02*
X019491Y004039D01*
X019534Y004137D02*
X019392Y004137D01*
X019435Y004236D02*
X016312Y004236D01*
X016312Y004334D02*
X019433Y004334D01*
X019314Y004215D02*
X019218Y004119D01*
X019218Y003746D01*
X019314Y003649D01*
X019597Y003932D01*
X019314Y004215D01*
X019236Y004137D02*
X016312Y004137D01*
X016312Y004039D02*
X019218Y004039D01*
X019218Y003940D02*
X016312Y003940D01*
X016312Y003842D02*
X019218Y003842D01*
X019221Y003743D02*
X016312Y003743D01*
X016312Y003645D02*
X019451Y003645D01*
X019418Y003546D02*
X016312Y003546D01*
X015952Y003546D02*
X015146Y003546D01*
X015048Y003448D02*
X015893Y003448D01*
X015794Y003349D02*
X013380Y003349D01*
X013305Y003251D02*
X015696Y003251D01*
X015597Y003152D02*
X013207Y003152D01*
X013108Y003054D02*
X015499Y003054D01*
X015400Y002955D02*
X013010Y002955D01*
X012911Y002857D02*
X015302Y002857D01*
X015203Y002758D02*
X012813Y002758D01*
X012780Y002660D02*
X015105Y002660D01*
X015006Y002561D02*
X012780Y002561D01*
X012780Y002463D02*
X013482Y002463D01*
X013287Y002364D02*
X012913Y002364D01*
X013012Y002266D02*
X013188Y002266D01*
X013140Y002167D02*
X013060Y002167D01*
X013100Y002069D02*
X013100Y002069D01*
X013100Y001970D02*
X013100Y001970D01*
X013100Y001872D02*
X013100Y001872D01*
X013100Y001773D02*
X013100Y001773D01*
X013100Y001675D02*
X013100Y001675D01*
X013100Y001576D02*
X013100Y001576D01*
X013100Y001478D02*
X013100Y001478D01*
X013100Y001379D02*
X013100Y001379D01*
X013100Y001281D02*
X013100Y001281D01*
X013100Y001182D02*
X013100Y001182D01*
X013081Y001084D02*
X013119Y001084D01*
X013160Y000985D02*
X013040Y000985D01*
X012964Y000887D02*
X013236Y000887D01*
X013361Y000788D02*
X012855Y000788D01*
X012713Y000690D02*
X014487Y000690D01*
X014345Y000788D02*
X013839Y000788D01*
X013964Y000887D02*
X014236Y000887D01*
X014160Y000985D02*
X014040Y000985D01*
X014081Y001084D02*
X014119Y001084D01*
X014100Y001182D02*
X014100Y001182D01*
X014100Y001281D02*
X014100Y001281D01*
X014100Y001379D02*
X014100Y001379D01*
X014100Y001478D02*
X014100Y001478D01*
X014100Y001576D02*
X014100Y001576D01*
X014100Y001675D02*
X014100Y001675D01*
X014100Y001773D02*
X014100Y001773D01*
X014100Y001872D02*
X014100Y001872D01*
X014100Y001970D02*
X014100Y001970D01*
X014100Y002069D02*
X014100Y002069D01*
X014060Y002167D02*
X014140Y002167D01*
X014188Y002266D02*
X014012Y002266D01*
X013913Y002364D02*
X014287Y002364D01*
X014482Y002463D02*
X013718Y002463D01*
X014600Y001900D02*
X015750Y003050D01*
X015910Y002955D02*
X023800Y002955D01*
X023800Y002857D02*
X015811Y002857D01*
X015713Y002758D02*
X023800Y002758D01*
X023800Y002660D02*
X015614Y002660D01*
X015516Y002561D02*
X023800Y002561D01*
X023800Y002463D02*
X017718Y002463D01*
X017913Y002364D02*
X020723Y002364D01*
X020619Y002321D02*
X020379Y002081D01*
X020250Y001769D01*
X020250Y001431D01*
X020379Y001119D01*
X020619Y000879D01*
X020931Y000750D01*
X021269Y000750D01*
X021581Y000879D01*
X021821Y001119D01*
X021950Y001431D01*
X021950Y001769D01*
X021821Y002081D01*
X021581Y002321D01*
X021269Y002450D01*
X020931Y002450D01*
X020619Y002321D01*
X020563Y002266D02*
X018012Y002266D01*
X018060Y002167D02*
X020465Y002167D01*
X020374Y002069D02*
X018100Y002069D01*
X018100Y001970D02*
X020333Y001970D01*
X020292Y001872D02*
X018100Y001872D01*
X018100Y001773D02*
X020252Y001773D01*
X020250Y001675D02*
X018100Y001675D01*
X018100Y001576D02*
X020250Y001576D01*
X020250Y001478D02*
X018100Y001478D01*
X018100Y001379D02*
X020272Y001379D01*
X020312Y001281D02*
X018100Y001281D01*
X018100Y001182D02*
X020353Y001182D01*
X020414Y001084D02*
X018081Y001084D01*
X018040Y000985D02*
X020513Y000985D01*
X020611Y000887D02*
X017964Y000887D01*
X017839Y000788D02*
X020839Y000788D01*
X021361Y000788D02*
X023800Y000788D01*
X023800Y000690D02*
X014713Y000690D01*
X014855Y000788D02*
X015361Y000788D01*
X015236Y000887D02*
X014964Y000887D01*
X015040Y000985D02*
X015160Y000985D01*
X015119Y001084D02*
X015081Y001084D01*
X015100Y001131D02*
X015100Y002069D01*
X015154Y002199D01*
X015078Y002123D01*
X015100Y002069D01*
X015100Y001131D01*
X015100Y001182D02*
X015100Y001182D01*
X015100Y001281D02*
X015100Y001281D01*
X015100Y001379D02*
X015100Y001379D01*
X015100Y001478D02*
X015100Y001478D01*
X015100Y001576D02*
X015100Y001576D01*
X015100Y001675D02*
X015100Y001675D01*
X015100Y001773D02*
X015100Y001773D01*
X015100Y001872D02*
X015100Y001872D01*
X015100Y001970D02*
X015100Y001970D01*
X015100Y002069D02*
X015100Y002069D01*
X015122Y002167D02*
X015140Y002167D01*
X014908Y002463D02*
X014718Y002463D01*
X015417Y002463D02*
X015482Y002463D01*
X015718Y002463D02*
X016433Y002463D01*
X016550Y002463D02*
X016650Y002463D01*
X016650Y002364D02*
X016550Y002364D01*
X016550Y002266D02*
X016650Y002266D01*
X016650Y002167D02*
X016550Y002167D01*
X016550Y002069D02*
X016650Y002069D01*
X016650Y001970D02*
X016550Y001970D01*
X016550Y001872D02*
X016650Y001872D01*
X016650Y001773D02*
X016550Y001773D01*
X016550Y001675D02*
X016650Y001675D01*
X016650Y001478D02*
X016550Y001478D01*
X016550Y001379D02*
X016650Y001379D01*
X016650Y001281D02*
X016550Y001281D01*
X016550Y001182D02*
X016650Y001182D01*
X016650Y001084D02*
X016550Y001084D01*
X016550Y000985D02*
X016650Y000985D01*
X016650Y000887D02*
X016550Y000887D01*
X016550Y000788D02*
X016650Y000788D01*
X016876Y000788D02*
X017361Y000788D01*
X017236Y000887D02*
X016992Y000887D01*
X017059Y000985D02*
X017160Y000985D01*
X017119Y001084D02*
X017099Y001084D01*
X016324Y000788D02*
X015839Y000788D01*
X015964Y000887D02*
X016208Y000887D01*
X016141Y000985D02*
X016040Y000985D01*
X016081Y001084D02*
X016101Y001084D01*
X016060Y002167D02*
X016117Y002167D01*
X016172Y002266D02*
X016012Y002266D01*
X015913Y002364D02*
X016259Y002364D01*
X016767Y002463D02*
X017482Y002463D01*
X017287Y002364D02*
X016941Y002364D01*
X017028Y002266D02*
X017188Y002266D01*
X017140Y002167D02*
X017083Y002167D01*
X015952Y003645D02*
X015245Y003645D01*
X015343Y003743D02*
X015952Y003743D01*
X015952Y003842D02*
X015442Y003842D01*
X015540Y003940D02*
X015952Y003940D01*
X015952Y004039D02*
X015600Y004039D01*
X015600Y004137D02*
X015952Y004137D01*
X015952Y004236D02*
X015600Y004236D01*
X015600Y004334D02*
X015952Y004334D01*
X015952Y004433D02*
X015600Y004433D01*
X015600Y004531D02*
X015952Y004531D01*
X015952Y004630D02*
X015570Y004630D01*
X015472Y004728D02*
X015952Y004728D01*
X015952Y004827D02*
X015373Y004827D01*
X015275Y004925D02*
X015952Y004925D01*
X015952Y005024D02*
X015176Y005024D01*
X014905Y005122D02*
X015952Y005122D01*
X015952Y005221D02*
X013575Y005221D01*
X013674Y005319D02*
X014096Y005319D01*
X013974Y005418D02*
X013772Y005418D01*
X013871Y005516D02*
X013911Y005516D01*
X013800Y005700D02*
X013200Y005100D01*
X013200Y003400D01*
X012600Y002800D01*
X012600Y001600D01*
X012600Y001000D01*
X012345Y000788D02*
X011855Y000788D01*
X011964Y000887D02*
X012236Y000887D01*
X012160Y000985D02*
X012040Y000985D01*
X012081Y001084D02*
X012119Y001084D01*
X012100Y001182D02*
X012100Y001182D01*
X012100Y001281D02*
X012100Y001281D01*
X012100Y001379D02*
X012100Y001379D01*
X012100Y001478D02*
X012100Y001478D01*
X012100Y001576D02*
X012100Y001576D01*
X012100Y001675D02*
X012100Y001675D01*
X012100Y001773D02*
X012100Y001773D01*
X012100Y001872D02*
X012100Y001872D01*
X012100Y001970D02*
X012100Y001970D01*
X012100Y002069D02*
X012100Y002069D01*
X012060Y002167D02*
X012140Y002167D01*
X012188Y002266D02*
X012012Y002266D01*
X011913Y002364D02*
X012287Y002364D01*
X012420Y002463D02*
X011780Y002463D01*
X011780Y002561D02*
X012420Y002561D01*
X012420Y002660D02*
X011780Y002660D01*
X011780Y002758D02*
X012420Y002758D01*
X012420Y002857D02*
X011780Y002857D01*
X011780Y002955D02*
X012500Y002955D01*
X012599Y003054D02*
X011780Y003054D01*
X011780Y003152D02*
X012697Y003152D01*
X012796Y003251D02*
X011780Y003251D01*
X011780Y003349D02*
X012894Y003349D01*
X013020Y003700D02*
X011655Y003700D01*
X011280Y004075D01*
X011280Y004800D01*
X011360Y004800D01*
X011352Y004750D01*
X012050Y004750D01*
X012050Y004650D01*
X012150Y004650D01*
X012150Y004750D01*
X012848Y004750D01*
X012840Y004800D01*
X013020Y004800D01*
X013020Y003700D01*
X013020Y003743D02*
X011612Y003743D01*
X011513Y003842D02*
X013020Y003842D01*
X013020Y003940D02*
X011415Y003940D01*
X011316Y004039D02*
X013020Y004039D01*
X013020Y004137D02*
X011280Y004137D01*
X011280Y004236D02*
X013020Y004236D01*
X013020Y004334D02*
X012662Y004334D01*
X012636Y004315D02*
X012693Y004357D01*
X012743Y004407D01*
X012785Y004464D01*
X012817Y004527D01*
X012839Y004595D01*
X012848Y004650D01*
X012150Y004650D01*
X012150Y004250D01*
X012435Y004250D01*
X012505Y004261D01*
X012573Y004283D01*
X012636Y004315D01*
X012762Y004433D02*
X013020Y004433D01*
X013020Y004531D02*
X012818Y004531D01*
X012844Y004630D02*
X013020Y004630D01*
X013020Y004728D02*
X012150Y004728D01*
X012150Y004630D02*
X012050Y004630D01*
X012050Y004650D02*
X012050Y004250D01*
X011765Y004250D01*
X011695Y004261D01*
X011627Y004283D01*
X011564Y004315D01*
X011507Y004357D01*
X011457Y004407D01*
X011415Y004464D01*
X011383Y004527D01*
X011361Y004595D01*
X011352Y004650D01*
X012050Y004650D01*
X012050Y004728D02*
X011280Y004728D01*
X011280Y004630D02*
X011356Y004630D01*
X011382Y004531D02*
X011280Y004531D01*
X011280Y004433D02*
X011438Y004433D01*
X011538Y004334D02*
X011280Y004334D01*
X011100Y004000D02*
X011100Y005300D01*
X011600Y005800D01*
X012100Y005800D01*
X012200Y005700D01*
X011759Y006107D02*
X010141Y006107D01*
X010300Y006009D02*
X011600Y006009D01*
X011455Y005910D02*
X010378Y005910D01*
X010419Y005812D02*
X011357Y005812D01*
X011258Y005713D02*
X010430Y005713D01*
X010430Y005615D02*
X011160Y005615D01*
X011061Y005516D02*
X010389Y005516D01*
X010326Y005418D02*
X010963Y005418D01*
X010920Y005319D02*
X010336Y005319D01*
X010434Y005221D02*
X010920Y005221D01*
X010920Y005122D02*
X010533Y005122D01*
X010600Y004800D02*
X009700Y005700D01*
X009925Y005221D02*
X007934Y005221D01*
X007836Y005319D02*
X009196Y005319D01*
X009074Y005418D02*
X007826Y005418D01*
X007889Y005516D02*
X009011Y005516D01*
X008970Y005615D02*
X007930Y005615D01*
X007930Y005713D02*
X008970Y005713D01*
X008981Y005812D02*
X007919Y005812D01*
X007878Y005910D02*
X009022Y005910D01*
X009100Y006009D02*
X007800Y006009D01*
X007641Y006107D02*
X009259Y006107D01*
X009132Y006304D02*
X007568Y006304D01*
X007711Y006403D02*
X008989Y006403D01*
X008917Y006501D02*
X007783Y006501D01*
X007785Y006895D02*
X008915Y006895D01*
X008985Y006994D02*
X007715Y006994D01*
X007577Y007092D02*
X009123Y007092D01*
X009600Y006700D02*
X012100Y006700D01*
X014500Y006700D01*
X014968Y006304D02*
X015952Y006304D01*
X015952Y006206D02*
X004460Y006206D01*
X004700Y006700D02*
X007100Y006700D01*
X009600Y006700D01*
X010068Y006304D02*
X011632Y006304D01*
X011489Y006403D02*
X010211Y006403D01*
X010283Y006501D02*
X011417Y006501D01*
X011415Y006895D02*
X010285Y006895D01*
X010215Y006994D02*
X011485Y006994D01*
X011623Y007092D02*
X010077Y007092D01*
X010185Y007289D02*
X011715Y007289D01*
X011576Y007388D02*
X010324Y007388D01*
X010396Y007486D02*
X011504Y007486D01*
X011464Y007585D02*
X010436Y007585D01*
X010443Y007782D02*
X011457Y007782D01*
X011487Y007880D02*
X010413Y007880D01*
X010354Y007979D02*
X011546Y007979D01*
X011653Y008077D02*
X010247Y008077D01*
X012150Y008077D02*
X012250Y008077D01*
X012250Y007979D02*
X012150Y007979D01*
X012150Y007880D02*
X012250Y007880D01*
X012250Y007782D02*
X012150Y007782D01*
X012150Y007486D02*
X012250Y007486D01*
X012250Y007388D02*
X012150Y007388D01*
X012150Y007289D02*
X012250Y007289D01*
X012577Y007092D02*
X014023Y007092D01*
X013885Y006994D02*
X012715Y006994D01*
X012785Y006895D02*
X013815Y006895D01*
X013817Y006501D02*
X012783Y006501D01*
X012711Y006403D02*
X013889Y006403D01*
X014032Y006304D02*
X012568Y006304D01*
X012641Y006107D02*
X014159Y006107D01*
X014000Y006009D02*
X012800Y006009D01*
X012878Y005910D02*
X013922Y005910D01*
X013800Y005700D02*
X014600Y005700D01*
X015041Y006107D02*
X015952Y006107D01*
X015952Y006009D02*
X015200Y006009D01*
X015278Y005910D02*
X015952Y005910D01*
X015952Y005812D02*
X015319Y005812D01*
X015330Y005713D02*
X015952Y005713D01*
X015952Y005615D02*
X015330Y005615D01*
X015289Y005516D02*
X015952Y005516D01*
X015952Y005418D02*
X015226Y005418D01*
X015104Y005319D02*
X015952Y005319D01*
X016312Y005122D02*
X020223Y005122D01*
X020322Y005024D02*
X016312Y005024D01*
X016312Y004925D02*
X020420Y004925D01*
X020519Y004827D02*
X016312Y004827D01*
X016312Y004728D02*
X020617Y004728D01*
X020716Y004630D02*
X016312Y004630D01*
X016312Y004531D02*
X020814Y004531D01*
X020913Y004433D02*
X016312Y004433D01*
X014926Y004268D02*
X014500Y003700D01*
X013380Y003700D01*
X013380Y004800D01*
X013760Y004800D01*
X013752Y004750D01*
X014450Y004750D01*
X014450Y004650D01*
X014550Y004650D01*
X014550Y004250D01*
X014835Y004250D01*
X014905Y004261D01*
X014926Y004268D01*
X014902Y004236D02*
X013380Y004236D01*
X013380Y004334D02*
X013938Y004334D01*
X013964Y004315D02*
X014027Y004283D01*
X014095Y004261D01*
X014165Y004250D01*
X014450Y004250D01*
X014450Y004650D01*
X013752Y004650D01*
X013761Y004595D01*
X013783Y004527D01*
X013815Y004464D01*
X013857Y004407D01*
X013907Y004357D01*
X013964Y004315D01*
X013838Y004433D02*
X013380Y004433D01*
X013380Y004531D02*
X013782Y004531D01*
X013756Y004630D02*
X013380Y004630D01*
X013380Y004728D02*
X014450Y004728D01*
X014450Y004630D02*
X014550Y004630D01*
X014550Y004531D02*
X014450Y004531D01*
X014450Y004433D02*
X014550Y004433D01*
X014550Y004334D02*
X014450Y004334D01*
X014754Y004039D02*
X013380Y004039D01*
X013380Y004137D02*
X014828Y004137D01*
X014680Y003940D02*
X013380Y003940D01*
X013380Y003842D02*
X014606Y003842D01*
X014532Y003743D02*
X013380Y003743D01*
X012150Y004334D02*
X012050Y004334D01*
X012050Y004433D02*
X012150Y004433D01*
X012150Y004531D02*
X012050Y004531D01*
X011695Y005122D02*
X011280Y005122D01*
X011280Y005221D02*
X013066Y005221D01*
X013020Y005122D02*
X012505Y005122D01*
X012704Y005319D02*
X013164Y005319D01*
X013263Y005418D02*
X012826Y005418D01*
X012889Y005516D02*
X013361Y005516D01*
X013460Y005615D02*
X012930Y005615D01*
X012930Y005713D02*
X013558Y005713D01*
X013657Y005812D02*
X012919Y005812D01*
X013477Y005122D02*
X014095Y005122D01*
X015111Y006403D02*
X015952Y006403D01*
X015952Y006501D02*
X015183Y006501D01*
X015224Y006600D02*
X015952Y006600D01*
X015952Y006698D02*
X015230Y006698D01*
X015225Y006797D02*
X015952Y006797D01*
X015952Y006895D02*
X015185Y006895D01*
X015115Y006994D02*
X015952Y006994D01*
X015900Y007092D02*
X014977Y007092D01*
X015343Y007782D02*
X015838Y007782D01*
X015936Y007880D02*
X015313Y007880D01*
X015254Y007979D02*
X016388Y007979D01*
X016420Y008077D02*
X015147Y008077D01*
X015081Y008373D02*
X016420Y008373D01*
X016420Y008471D02*
X015171Y008471D01*
X015211Y008570D02*
X016322Y008570D01*
X016224Y008668D02*
X015230Y008668D01*
X015230Y008767D02*
X016170Y008767D01*
X016170Y008865D02*
X015197Y008865D01*
X015145Y008964D02*
X016170Y008964D01*
X016170Y009062D02*
X015046Y009062D01*
X015166Y009358D02*
X019988Y009358D01*
X019889Y009456D02*
X015264Y009456D01*
X015305Y009555D02*
X019791Y009555D01*
X019692Y009653D02*
X015330Y009653D01*
X015330Y009752D02*
X019281Y009752D01*
X019099Y009850D02*
X015303Y009850D01*
X015260Y009949D02*
X019006Y009949D01*
X019519Y009752D02*
X019594Y009752D01*
X019906Y009949D02*
X023800Y009949D01*
X023800Y010047D02*
X019835Y010047D01*
X019860Y010146D02*
X023800Y010146D01*
X023800Y010244D02*
X019860Y010244D01*
X019839Y010343D02*
X023800Y010343D01*
X023800Y010441D02*
X019896Y010441D01*
X019994Y010540D02*
X023800Y010540D01*
X023800Y010638D02*
X020093Y010638D01*
X020191Y010737D02*
X023800Y010737D01*
X023800Y010835D02*
X020290Y010835D01*
X020388Y010934D02*
X023800Y010934D01*
X023800Y011032D02*
X020487Y011032D01*
X020585Y011131D02*
X023800Y011131D01*
X023800Y011229D02*
X020680Y011229D01*
X020680Y011328D02*
X023800Y011328D01*
X023800Y011426D02*
X020680Y011426D01*
X020680Y011525D02*
X023800Y011525D01*
X023800Y011623D02*
X020680Y011623D01*
X020680Y011722D02*
X023800Y011722D01*
X023800Y011820D02*
X020680Y011820D01*
X020680Y011919D02*
X023800Y011919D01*
X023800Y012017D02*
X020680Y012017D01*
X021736Y012116D02*
X023800Y012116D01*
X023800Y012214D02*
X021848Y012214D01*
X021910Y012313D02*
X023800Y012313D01*
X023800Y012411D02*
X021942Y012411D01*
X021950Y012510D02*
X023800Y012510D01*
X023800Y012608D02*
X021950Y012608D01*
X023800Y013692D02*
X017063Y013692D01*
X017030Y013790D02*
X023800Y013790D01*
X023800Y013889D02*
X017030Y013889D01*
X017030Y013987D02*
X023800Y013987D01*
X023800Y014086D02*
X017023Y014086D01*
X016924Y014184D02*
X023800Y014184D01*
X023800Y014283D02*
X016826Y014283D01*
X016600Y013900D02*
X017700Y012800D01*
X019500Y012800D01*
X019070Y012608D02*
X012215Y012608D01*
X012270Y012510D02*
X019070Y012510D01*
X019071Y012411D02*
X012270Y012411D01*
X012270Y012313D02*
X019112Y012313D01*
X019178Y012214D02*
X012237Y012214D01*
X012139Y012116D02*
X019305Y012116D01*
X019070Y013002D02*
X017753Y013002D01*
X017654Y013101D02*
X019070Y013101D01*
X019076Y013199D02*
X017556Y013199D01*
X017457Y013298D02*
X019116Y013298D01*
X019188Y013396D02*
X017359Y013396D01*
X017145Y013101D02*
X012080Y013101D01*
X012080Y013199D02*
X017046Y013199D01*
X016948Y013298D02*
X012080Y013298D01*
X012080Y013396D02*
X016849Y013396D01*
X017243Y013002D02*
X012080Y013002D01*
X012080Y012904D02*
X017342Y012904D01*
X017440Y012805D02*
X012080Y012805D01*
X012117Y012707D02*
X017539Y012707D01*
X016397Y013495D02*
X012080Y013495D01*
X012080Y013593D02*
X016299Y013593D01*
X016200Y013692D02*
X012080Y013692D01*
X012080Y013790D02*
X016170Y013790D01*
X016170Y013889D02*
X012080Y013889D01*
X012110Y013987D02*
X016170Y013987D01*
X016177Y014086D02*
X012209Y014086D01*
X012270Y014184D02*
X016276Y014184D01*
X016374Y014283D02*
X012270Y014283D01*
X012270Y014381D02*
X023800Y014381D01*
X023800Y014480D02*
X012244Y014480D01*
X012145Y014578D02*
X023800Y014578D01*
X023800Y014677D02*
X012080Y014677D01*
X012080Y014775D02*
X023800Y014775D01*
X023800Y014874D02*
X012080Y014874D01*
X012080Y014972D02*
X023800Y014972D01*
X023800Y015071D02*
X012080Y015071D01*
X012080Y015169D02*
X023800Y015169D01*
X023800Y015268D02*
X012080Y015268D01*
X012080Y015366D02*
X023800Y015366D01*
X023800Y015465D02*
X012080Y015465D01*
X012080Y015563D02*
X023800Y015563D01*
X023800Y015662D02*
X012085Y015662D01*
X012183Y015760D02*
X023800Y015760D01*
X023800Y015859D02*
X021912Y015859D01*
X021930Y015957D02*
X023800Y015957D01*
X023800Y016056D02*
X021930Y016056D01*
X021930Y016154D02*
X023800Y016154D01*
X023800Y016253D02*
X021930Y016253D01*
X021930Y016351D02*
X023800Y016351D01*
X023800Y016450D02*
X021930Y016450D01*
X021930Y016548D02*
X023800Y016548D01*
X023800Y016647D02*
X021930Y016647D01*
X021930Y016745D02*
X023800Y016745D01*
X023800Y016844D02*
X021870Y016844D01*
X021400Y016330D02*
X016770Y016330D01*
X016807Y016548D02*
X020870Y016548D01*
X020870Y016647D02*
X016708Y016647D01*
X016610Y016745D02*
X020870Y016745D01*
X020930Y016844D02*
X016511Y016844D01*
X016413Y016942D02*
X023800Y016942D01*
X023800Y017041D02*
X016314Y017041D01*
X016216Y017139D02*
X023800Y017139D01*
X023800Y017238D02*
X016117Y017238D01*
X016019Y017336D02*
X021251Y017336D01*
X021064Y017435D02*
X015920Y017435D01*
X015822Y017533D02*
X020965Y017533D01*
X020916Y017632D02*
X015723Y017632D01*
X015625Y017730D02*
X020875Y017730D01*
X020870Y017829D02*
X015580Y017829D01*
X015580Y017927D02*
X020870Y017927D01*
X021400Y017848D02*
X020700Y018548D01*
X020700Y019900D01*
X021090Y020981D02*
X023800Y020981D01*
X023800Y021079D02*
X021072Y021079D01*
X020974Y021178D02*
X023800Y021178D01*
X023800Y021276D02*
X020875Y021276D01*
X023800Y022163D02*
X000200Y022163D01*
X000200Y022261D02*
X023800Y022261D01*
X023800Y018321D02*
X021643Y018321D01*
X021775Y018223D02*
X023800Y018223D01*
X023800Y018124D02*
X021859Y018124D01*
X021900Y018026D02*
X023800Y018026D01*
X023800Y017927D02*
X021930Y017927D01*
X021930Y017829D02*
X023800Y017829D01*
X023800Y017730D02*
X021925Y017730D01*
X021884Y017632D02*
X023800Y017632D01*
X023800Y017533D02*
X021835Y017533D01*
X021736Y017435D02*
X023800Y017435D01*
X023800Y017336D02*
X021549Y017336D01*
X020870Y016056D02*
X012270Y016056D01*
X012270Y015957D02*
X020870Y015957D01*
X020888Y015859D02*
X012270Y015859D01*
X011715Y015662D02*
X008085Y015662D01*
X008183Y015760D02*
X011617Y015760D01*
X011530Y015859D02*
X008270Y015859D01*
X008270Y015957D02*
X011530Y015957D01*
X011530Y016056D02*
X008270Y016056D01*
X008269Y016154D02*
X011531Y016154D01*
X011629Y016253D02*
X008171Y016253D01*
X007742Y017435D02*
X006080Y017435D01*
X006138Y017533D02*
X007644Y017533D01*
X007545Y017632D02*
X006240Y017632D01*
X006295Y017730D02*
X007530Y017730D01*
X005288Y015957D02*
X004598Y015957D01*
X004696Y015859D02*
X005387Y015859D01*
X005485Y015760D02*
X004795Y015760D01*
X004893Y015662D02*
X005584Y015662D01*
X005682Y015563D02*
X004992Y015563D01*
X005090Y015465D02*
X005781Y015465D01*
X005879Y015366D02*
X005189Y015366D01*
X005287Y015268D02*
X005978Y015268D01*
X006076Y015169D02*
X005386Y015169D01*
X005484Y015071D02*
X006175Y015071D01*
X006273Y014972D02*
X005583Y014972D01*
X005681Y014874D02*
X006372Y014874D01*
X006470Y014775D02*
X005780Y014775D01*
X005878Y014677D02*
X006569Y014677D01*
X006667Y014578D02*
X005977Y014578D01*
X006075Y014480D02*
X006766Y014480D01*
X006864Y014381D02*
X006174Y014381D01*
X006272Y014283D02*
X006963Y014283D01*
X007061Y014184D02*
X006371Y014184D01*
X006469Y014086D02*
X007591Y014086D01*
X007690Y013987D02*
X006568Y013987D01*
X006666Y013889D02*
X011720Y013889D01*
X011720Y013790D02*
X006765Y013790D01*
X006863Y013692D02*
X011720Y013692D01*
X011720Y013593D02*
X006962Y013593D01*
X007060Y013495D02*
X011720Y013495D01*
X011720Y013396D02*
X007159Y013396D01*
X007257Y013298D02*
X011720Y013298D01*
X011720Y013199D02*
X007356Y013199D01*
X007454Y013101D02*
X011720Y013101D01*
X011720Y013002D02*
X007553Y013002D01*
X007651Y012904D02*
X011720Y012904D01*
X011720Y012805D02*
X007750Y012805D01*
X007530Y012510D02*
X000200Y012510D01*
X000200Y012608D02*
X007437Y012608D01*
X007339Y012707D02*
X000200Y012707D01*
X000200Y012805D02*
X007240Y012805D01*
X007142Y012904D02*
X000200Y012904D01*
X000200Y013002D02*
X007043Y013002D01*
X006945Y013101D02*
X000200Y013101D01*
X000200Y013199D02*
X006846Y013199D01*
X006748Y013298D02*
X000200Y013298D01*
X000200Y013396D02*
X006649Y013396D01*
X006551Y013495D02*
X000200Y013495D01*
X000200Y013593D02*
X006452Y013593D01*
X006354Y013692D02*
X000200Y013692D01*
X000200Y013790D02*
X006255Y013790D01*
X006157Y013889D02*
X000200Y013889D01*
X000200Y013987D02*
X006058Y013987D01*
X005960Y014086D02*
X000200Y014086D01*
X000200Y014184D02*
X005861Y014184D01*
X005763Y014283D02*
X000200Y014283D01*
X000200Y014381D02*
X005664Y014381D01*
X005566Y014480D02*
X000200Y014480D01*
X000200Y014578D02*
X005467Y014578D01*
X005369Y014677D02*
X000200Y014677D01*
X000200Y014775D02*
X005270Y014775D01*
X005172Y014874D02*
X000200Y014874D01*
X000200Y014972D02*
X005073Y014972D01*
X004975Y015071D02*
X000200Y015071D01*
X000200Y015169D02*
X004876Y015169D01*
X004778Y015268D02*
X000200Y015268D01*
X000200Y015366D02*
X004679Y015366D01*
X004581Y015465D02*
X000200Y015465D01*
X000200Y015563D02*
X004482Y015563D01*
X004384Y015662D02*
X000200Y015662D01*
X000200Y015760D02*
X004285Y015760D01*
X004187Y015859D02*
X000200Y015859D01*
X000200Y015957D02*
X004088Y015957D01*
X003990Y016056D02*
X000200Y016056D01*
X000200Y016154D02*
X003891Y016154D01*
X003793Y016253D02*
X000200Y016253D01*
X000200Y016351D02*
X003720Y016351D01*
X003720Y016450D02*
X000200Y016450D01*
X000200Y016548D02*
X003720Y016548D01*
X003720Y016647D02*
X000200Y016647D01*
X000200Y016745D02*
X003720Y016745D01*
X003720Y016844D02*
X000200Y016844D01*
X000200Y016942D02*
X003720Y016942D01*
X003720Y017041D02*
X000200Y017041D01*
X000200Y017139D02*
X003720Y017139D01*
X003720Y017238D02*
X000200Y017238D01*
X000200Y017336D02*
X003720Y017336D01*
X003720Y017435D02*
X000200Y017435D01*
X000200Y017533D02*
X003662Y017533D01*
X003560Y017632D02*
X003158Y017632D01*
X003136Y017615D02*
X003193Y017657D01*
X003243Y017707D01*
X003285Y017764D01*
X003317Y017827D01*
X003339Y017895D01*
X003350Y017965D01*
X003350Y018250D01*
X002950Y018250D01*
X002950Y018350D01*
X002850Y018350D01*
X002850Y019048D01*
X002795Y019039D01*
X002727Y019017D01*
X002664Y018985D01*
X002607Y018943D01*
X002557Y018893D01*
X002515Y018836D01*
X002483Y018773D01*
X002461Y018705D01*
X002450Y018635D01*
X002450Y018350D01*
X002850Y018350D01*
X002850Y018250D01*
X002450Y018250D01*
X002450Y017965D01*
X002461Y017895D01*
X002483Y017827D01*
X002515Y017764D01*
X002557Y017707D01*
X002607Y017657D01*
X002664Y017615D01*
X002727Y017583D01*
X002795Y017561D01*
X002850Y017552D01*
X002850Y018250D01*
X002950Y018250D01*
X002950Y017552D01*
X003005Y017561D01*
X003073Y017583D01*
X003136Y017615D01*
X003260Y017730D02*
X003505Y017730D01*
X003470Y017829D02*
X003317Y017829D01*
X003344Y017927D02*
X003470Y017927D01*
X003470Y018026D02*
X003350Y018026D01*
X003350Y018124D02*
X003470Y018124D01*
X003470Y018223D02*
X003350Y018223D01*
X003350Y018350D02*
X002950Y018350D01*
X002950Y019048D01*
X003005Y019039D01*
X003073Y019017D01*
X003136Y018985D01*
X003193Y018943D01*
X003243Y018893D01*
X003285Y018836D01*
X003317Y018773D01*
X003339Y018705D01*
X003350Y018635D01*
X003350Y018350D01*
X003350Y018420D02*
X003470Y018420D01*
X003470Y018518D02*
X003350Y018518D01*
X003350Y018617D02*
X003483Y018617D01*
X003524Y018715D02*
X003336Y018715D01*
X003296Y018814D02*
X003605Y018814D01*
X003771Y018912D02*
X003224Y018912D01*
X003085Y019011D02*
X003920Y019011D01*
X003920Y019109D02*
X001793Y019109D01*
X001821Y019081D02*
X001581Y019321D01*
X001269Y019450D01*
X000931Y019450D01*
X000619Y019321D01*
X000379Y019081D01*
X000250Y018769D01*
X000250Y018431D01*
X000379Y018119D01*
X000619Y017879D01*
X000931Y017750D01*
X001269Y017750D01*
X001581Y017879D01*
X001821Y018119D01*
X001950Y018431D01*
X001950Y018769D01*
X001821Y019081D01*
X001850Y019011D02*
X002715Y019011D01*
X002850Y019011D02*
X002950Y019011D01*
X002950Y018912D02*
X002850Y018912D01*
X002850Y018814D02*
X002950Y018814D01*
X002950Y018715D02*
X002850Y018715D01*
X002850Y018617D02*
X002950Y018617D01*
X002950Y018518D02*
X002850Y018518D01*
X002850Y018420D02*
X002950Y018420D01*
X002950Y018321D02*
X003470Y018321D01*
X002950Y018223D02*
X002850Y018223D01*
X002850Y018321D02*
X001904Y018321D01*
X001864Y018223D02*
X002450Y018223D01*
X002450Y018124D02*
X001823Y018124D01*
X001728Y018026D02*
X002450Y018026D01*
X002456Y017927D02*
X001629Y017927D01*
X001459Y017829D02*
X002483Y017829D01*
X002540Y017730D02*
X000200Y017730D01*
X000200Y017632D02*
X002642Y017632D01*
X002850Y017632D02*
X002950Y017632D01*
X002950Y017730D02*
X002850Y017730D01*
X002850Y017829D02*
X002950Y017829D01*
X002950Y017927D02*
X002850Y017927D01*
X002850Y018026D02*
X002950Y018026D01*
X002950Y018124D02*
X002850Y018124D01*
X002450Y018420D02*
X001945Y018420D01*
X001950Y018518D02*
X002450Y018518D01*
X002450Y018617D02*
X001950Y018617D01*
X001950Y018715D02*
X002464Y018715D01*
X002504Y018814D02*
X001932Y018814D01*
X001891Y018912D02*
X002576Y018912D01*
X001695Y019208D02*
X003920Y019208D01*
X003920Y019306D02*
X001596Y019306D01*
X001379Y019405D02*
X003920Y019405D01*
X003920Y019503D02*
X000200Y019503D01*
X000200Y019405D02*
X000821Y019405D01*
X000604Y019306D02*
X000200Y019306D01*
X000200Y019208D02*
X000505Y019208D01*
X000407Y019109D02*
X000200Y019109D01*
X000200Y019011D02*
X000350Y019011D01*
X000309Y018912D02*
X000200Y018912D01*
X000200Y018814D02*
X000268Y018814D01*
X000250Y018715D02*
X000200Y018715D01*
X000200Y018617D02*
X000250Y018617D01*
X000250Y018518D02*
X000200Y018518D01*
X000200Y018420D02*
X000255Y018420D01*
X000296Y018321D02*
X000200Y018321D01*
X000200Y018223D02*
X000336Y018223D01*
X000377Y018124D02*
X000200Y018124D01*
X000200Y018026D02*
X000472Y018026D01*
X000571Y017927D02*
X000200Y017927D01*
X000200Y017829D02*
X000741Y017829D01*
X000200Y019602D02*
X003920Y019602D01*
X003920Y019700D02*
X000200Y019700D01*
X000200Y019799D02*
X001835Y019799D01*
X001817Y019806D02*
X002001Y019730D01*
X002199Y019730D01*
X002383Y019806D01*
X002524Y019947D01*
X002600Y020131D01*
X002600Y021069D01*
X002524Y021253D01*
X002383Y021394D01*
X002199Y021470D01*
X002001Y021470D01*
X001817Y021394D01*
X001676Y021253D01*
X001600Y021069D01*
X001600Y020131D01*
X001676Y019947D01*
X001817Y019806D01*
X001726Y019897D02*
X000200Y019897D01*
X000200Y019996D02*
X001656Y019996D01*
X001615Y020094D02*
X000200Y020094D01*
X000200Y020193D02*
X001600Y020193D01*
X001600Y020291D02*
X000200Y020291D01*
X000200Y020390D02*
X001600Y020390D01*
X001600Y020488D02*
X000200Y020488D01*
X000200Y020587D02*
X001600Y020587D01*
X001600Y020685D02*
X000200Y020685D01*
X000200Y020784D02*
X001600Y020784D01*
X001600Y020882D02*
X000200Y020882D01*
X000200Y020981D02*
X001600Y020981D01*
X001604Y021079D02*
X000200Y021079D01*
X000200Y021178D02*
X001645Y021178D01*
X001699Y021276D02*
X000200Y021276D01*
X000200Y021375D02*
X001797Y021375D01*
X002403Y021375D02*
X002797Y021375D01*
X002699Y021276D02*
X002501Y021276D01*
X002555Y021178D02*
X002645Y021178D01*
X002604Y021079D02*
X002596Y021079D01*
X002600Y020981D02*
X002600Y020981D01*
X002600Y020882D02*
X002600Y020882D01*
X002600Y020784D02*
X002600Y020784D01*
X002600Y020685D02*
X002600Y020685D01*
X002600Y020587D02*
X002600Y020587D01*
X002600Y020488D02*
X002600Y020488D01*
X002600Y020390D02*
X002600Y020390D01*
X002600Y020291D02*
X002600Y020291D01*
X002600Y020193D02*
X002600Y020193D01*
X002585Y020094D02*
X002615Y020094D01*
X002656Y019996D02*
X002544Y019996D01*
X002474Y019897D02*
X002726Y019897D01*
X002835Y019799D02*
X002365Y019799D01*
X003365Y019799D02*
X003835Y019799D01*
X003726Y019897D02*
X003474Y019897D01*
X003544Y019996D02*
X003656Y019996D01*
X003615Y020094D02*
X003585Y020094D01*
X003600Y020193D02*
X003600Y020193D01*
X003600Y020291D02*
X003600Y020291D01*
X003600Y020390D02*
X003600Y020390D01*
X003600Y020488D02*
X003600Y020488D01*
X003600Y020587D02*
X003600Y020587D01*
X003600Y020685D02*
X003600Y020685D01*
X003600Y020784D02*
X003600Y020784D01*
X003600Y020882D02*
X003600Y020882D01*
X003600Y020981D02*
X003600Y020981D01*
X003596Y021079D02*
X003604Y021079D01*
X003645Y021178D02*
X003555Y021178D01*
X003501Y021276D02*
X003699Y021276D01*
X003797Y021375D02*
X003403Y021375D01*
X003906Y021473D02*
X000200Y021473D01*
X004280Y019700D02*
X004920Y019700D01*
X004920Y019602D02*
X004280Y019602D01*
X004280Y019503D02*
X004920Y019503D01*
X004920Y019405D02*
X004280Y019405D01*
X004280Y019306D02*
X004920Y019306D01*
X004920Y019208D02*
X004280Y019208D01*
X004280Y019109D02*
X004920Y019109D01*
X004768Y019011D02*
X004280Y019011D01*
X004280Y018912D02*
X004604Y018912D01*
X004523Y018814D02*
X004280Y018814D01*
X004280Y018715D02*
X004482Y018715D01*
X004470Y018617D02*
X004317Y018617D01*
X004330Y018518D02*
X004470Y018518D01*
X004470Y018420D02*
X004330Y018420D01*
X004330Y018321D02*
X004470Y018321D01*
X004470Y018223D02*
X004330Y018223D01*
X004330Y018124D02*
X004470Y018124D01*
X004470Y018026D02*
X004330Y018026D01*
X004330Y017927D02*
X004470Y017927D01*
X004506Y017829D02*
X004330Y017829D01*
X004295Y017730D02*
X004562Y017730D01*
X004666Y017632D02*
X004240Y017632D01*
X004138Y017533D02*
X004720Y017533D01*
X004720Y017435D02*
X004080Y017435D01*
X004080Y017336D02*
X004720Y017336D01*
X004720Y017238D02*
X004080Y017238D01*
X004080Y017139D02*
X004720Y017139D01*
X004720Y017041D02*
X004080Y017041D01*
X004080Y016942D02*
X004720Y016942D01*
X004720Y016844D02*
X004080Y016844D01*
X004080Y016745D02*
X004720Y016745D01*
X004720Y016647D02*
X004080Y016647D01*
X004080Y016548D02*
X004720Y016548D01*
X004796Y016450D02*
X004105Y016450D01*
X004204Y016351D02*
X004894Y016351D01*
X004993Y016253D02*
X004302Y016253D01*
X004401Y016154D02*
X005091Y016154D01*
X005190Y016056D02*
X004499Y016056D01*
X008145Y014578D02*
X011655Y014578D01*
X011556Y014480D02*
X008244Y014480D01*
X008270Y014381D02*
X011530Y014381D01*
X011530Y014283D02*
X008270Y014283D01*
X008270Y014184D02*
X011530Y014184D01*
X011591Y014086D02*
X008209Y014086D01*
X008110Y013987D02*
X011690Y013987D01*
X011683Y012707D02*
X008117Y012707D01*
X008215Y012608D02*
X011585Y012608D01*
X011530Y012510D02*
X008270Y012510D01*
X008270Y012411D02*
X011530Y012411D01*
X011530Y012313D02*
X008270Y012313D01*
X008237Y012214D02*
X011563Y012214D01*
X007200Y009700D02*
X004800Y009700D01*
X002300Y009700D01*
X001739Y010047D02*
X000200Y010047D01*
X000200Y009949D02*
X001640Y009949D01*
X001597Y009850D02*
X000200Y009850D01*
X000200Y009752D02*
X001570Y009752D01*
X001570Y009653D02*
X000200Y009653D01*
X000200Y009555D02*
X001595Y009555D01*
X001636Y009456D02*
X000200Y009456D01*
X000200Y009358D02*
X001734Y009358D01*
X001654Y009062D02*
X000200Y009062D01*
X000200Y008964D02*
X001555Y008964D01*
X001503Y008865D02*
X000200Y008865D01*
X000200Y008767D02*
X001470Y008767D01*
X001470Y008668D02*
X000200Y008668D01*
X000200Y008570D02*
X001489Y008570D01*
X001529Y008471D02*
X000200Y008471D01*
X000200Y008373D02*
X001619Y008373D01*
X002250Y008077D02*
X002350Y008077D01*
X002350Y008150D02*
X002350Y007750D01*
X003048Y007750D01*
X003039Y007805D01*
X003017Y007873D01*
X002985Y007936D01*
X002943Y007993D01*
X002893Y008043D01*
X002836Y008085D01*
X002773Y008117D01*
X002705Y008139D01*
X002635Y008150D01*
X002350Y008150D01*
X002350Y007979D02*
X002250Y007979D01*
X002250Y007880D02*
X002350Y007880D01*
X002350Y007782D02*
X002250Y007782D01*
X002250Y007486D02*
X002350Y007486D01*
X002350Y007388D02*
X002250Y007388D01*
X002250Y007289D02*
X002350Y007289D01*
X002677Y007092D02*
X004223Y007092D01*
X004085Y006994D02*
X002815Y006994D01*
X002885Y006895D02*
X004015Y006895D01*
X004315Y007289D02*
X002785Y007289D01*
X002924Y007388D02*
X004176Y007388D01*
X004104Y007486D02*
X002996Y007486D01*
X003036Y007585D02*
X004064Y007585D01*
X004057Y007782D02*
X003043Y007782D01*
X003013Y007880D02*
X004087Y007880D01*
X004146Y007979D02*
X002954Y007979D01*
X002847Y008077D02*
X004253Y008077D01*
X004314Y008270D02*
X004156Y008335D01*
X004035Y008456D01*
X003970Y008614D01*
X003970Y008786D01*
X004035Y008944D01*
X004156Y009065D01*
X004314Y009130D01*
X005086Y009130D01*
X005244Y009065D01*
X005365Y008944D01*
X005430Y008786D01*
X005430Y008614D01*
X005365Y008456D01*
X005244Y008335D01*
X005086Y008270D01*
X004314Y008270D01*
X004305Y008274D02*
X002595Y008274D01*
X002781Y008373D02*
X004119Y008373D01*
X004029Y008471D02*
X002871Y008471D01*
X002911Y008570D02*
X003989Y008570D01*
X003970Y008668D02*
X002930Y008668D01*
X002930Y008767D02*
X003970Y008767D01*
X004003Y008865D02*
X002897Y008865D01*
X002845Y008964D02*
X004055Y008964D01*
X004154Y009062D02*
X002746Y009062D01*
X002866Y009358D02*
X004234Y009358D01*
X004136Y009456D02*
X002964Y009456D01*
X002960Y009949D02*
X004140Y009949D01*
X004239Y010047D02*
X002861Y010047D01*
X005361Y010047D02*
X006639Y010047D01*
X006540Y009949D02*
X005460Y009949D01*
X005464Y009456D02*
X006536Y009456D01*
X006634Y009358D02*
X005366Y009358D01*
X005246Y009062D02*
X006554Y009062D01*
X006455Y008964D02*
X005345Y008964D01*
X005397Y008865D02*
X006403Y008865D01*
X006370Y008767D02*
X005430Y008767D01*
X005430Y008668D02*
X006370Y008668D01*
X006389Y008570D02*
X005411Y008570D01*
X005371Y008471D02*
X006429Y008471D01*
X006519Y008373D02*
X005281Y008373D01*
X005095Y008274D02*
X006705Y008274D01*
X006653Y008077D02*
X005347Y008077D01*
X005454Y007979D02*
X006546Y007979D01*
X006487Y007880D02*
X005513Y007880D01*
X005543Y007782D02*
X006457Y007782D01*
X006464Y007585D02*
X005536Y007585D01*
X005496Y007486D02*
X006504Y007486D01*
X006576Y007388D02*
X005424Y007388D01*
X005285Y007289D02*
X006715Y007289D01*
X006623Y007092D02*
X005177Y007092D01*
X005315Y006994D02*
X006485Y006994D01*
X006415Y006895D02*
X005385Y006895D01*
X005383Y006501D02*
X006417Y006501D01*
X006489Y006403D02*
X005311Y006403D01*
X005168Y006304D02*
X006632Y006304D01*
X006759Y006107D02*
X005241Y006107D01*
X005400Y006009D02*
X006600Y006009D01*
X006522Y005910D02*
X005478Y005910D01*
X005519Y005812D02*
X006481Y005812D01*
X006470Y005713D02*
X005530Y005713D01*
X005530Y005615D02*
X006470Y005615D01*
X006511Y005516D02*
X005489Y005516D01*
X005426Y005418D02*
X006574Y005418D01*
X006696Y005319D02*
X005436Y005319D01*
X005534Y005221D02*
X007425Y005221D01*
X007505Y005122D02*
X007523Y005122D01*
X007840Y004800D02*
X007845Y004800D01*
X008920Y003725D01*
X008920Y003700D01*
X007055Y003700D01*
X005955Y004800D01*
X006360Y004800D01*
X006352Y004750D01*
X007050Y004750D01*
X007050Y004650D01*
X007150Y004650D01*
X007150Y004750D01*
X007848Y004750D01*
X007840Y004800D01*
X007917Y004728D02*
X007150Y004728D01*
X007150Y004650D02*
X007848Y004650D01*
X007839Y004595D01*
X007817Y004527D01*
X007785Y004464D01*
X007743Y004407D01*
X007693Y004357D01*
X007636Y004315D01*
X007573Y004283D01*
X007505Y004261D01*
X007435Y004250D01*
X007150Y004250D01*
X007150Y004650D01*
X007150Y004630D02*
X007050Y004630D01*
X007050Y004650D02*
X007050Y004250D01*
X006765Y004250D01*
X006695Y004261D01*
X006627Y004283D01*
X006564Y004315D01*
X006507Y004357D01*
X006457Y004407D01*
X006415Y004464D01*
X006383Y004527D01*
X006361Y004595D01*
X006352Y004650D01*
X007050Y004650D01*
X007050Y004728D02*
X006027Y004728D01*
X006125Y004630D02*
X006356Y004630D01*
X006382Y004531D02*
X006224Y004531D01*
X006322Y004433D02*
X006438Y004433D01*
X006421Y004334D02*
X006538Y004334D01*
X006519Y004236D02*
X008410Y004236D01*
X008311Y004334D02*
X007662Y004334D01*
X007762Y004433D02*
X008213Y004433D01*
X008114Y004531D02*
X007818Y004531D01*
X007844Y004630D02*
X008016Y004630D01*
X008355Y004800D02*
X008860Y004800D01*
X008852Y004750D01*
X009550Y004750D01*
X009550Y004650D01*
X009650Y004650D01*
X009650Y004750D01*
X010348Y004750D01*
X010340Y004800D01*
X010345Y004800D01*
X010420Y004725D01*
X010420Y003700D01*
X009280Y003700D01*
X009280Y003875D01*
X008355Y004800D01*
X008427Y004728D02*
X009550Y004728D01*
X009550Y004650D02*
X008852Y004650D01*
X008861Y004595D01*
X008883Y004527D01*
X008915Y004464D01*
X008957Y004407D01*
X009007Y004357D01*
X009064Y004315D01*
X009127Y004283D01*
X009195Y004261D01*
X009265Y004250D01*
X009550Y004250D01*
X009550Y004650D01*
X009550Y004630D02*
X009650Y004630D01*
X009650Y004650D02*
X009650Y004250D01*
X009935Y004250D01*
X010005Y004261D01*
X010073Y004283D01*
X010136Y004315D01*
X010193Y004357D01*
X010243Y004407D01*
X010285Y004464D01*
X010317Y004527D01*
X010339Y004595D01*
X010348Y004650D01*
X009650Y004650D01*
X009650Y004728D02*
X010417Y004728D01*
X010420Y004630D02*
X010344Y004630D01*
X010318Y004531D02*
X010420Y004531D01*
X010420Y004433D02*
X010262Y004433D01*
X010162Y004334D02*
X010420Y004334D01*
X010420Y004236D02*
X008919Y004236D01*
X008821Y004334D02*
X009038Y004334D01*
X008938Y004433D02*
X008722Y004433D01*
X008624Y004531D02*
X008882Y004531D01*
X008856Y004630D02*
X008525Y004630D01*
X008508Y004137D02*
X006618Y004137D01*
X006716Y004039D02*
X008607Y004039D01*
X008705Y003940D02*
X006815Y003940D01*
X006913Y003842D02*
X008804Y003842D01*
X008902Y003743D02*
X007012Y003743D01*
X006896Y003349D02*
X005806Y003349D01*
X005904Y003251D02*
X006995Y003251D01*
X007093Y003152D02*
X006003Y003152D01*
X006101Y003054D02*
X007192Y003054D01*
X007290Y002955D02*
X006200Y002955D01*
X006280Y002857D02*
X007389Y002857D01*
X007487Y002758D02*
X006280Y002758D01*
X006280Y002660D02*
X007586Y002660D01*
X007684Y002561D02*
X006280Y002561D01*
X006280Y002463D02*
X006982Y002463D01*
X006787Y002364D02*
X006413Y002364D01*
X006512Y002266D02*
X006688Y002266D01*
X006640Y002167D02*
X006560Y002167D01*
X006600Y002069D02*
X006600Y002069D01*
X006600Y001970D02*
X006600Y001970D01*
X006600Y001872D02*
X006600Y001872D01*
X006600Y001773D02*
X006600Y001773D01*
X006600Y001675D02*
X006600Y001675D01*
X006600Y001576D02*
X006600Y001576D01*
X006600Y001478D02*
X006600Y001478D01*
X006600Y001379D02*
X006600Y001379D01*
X006600Y001281D02*
X006600Y001281D01*
X006600Y001182D02*
X006600Y001182D01*
X006581Y001084D02*
X006619Y001084D01*
X006843Y000788D02*
X006861Y000788D01*
X006744Y000690D02*
X007087Y000690D01*
X007313Y000690D02*
X007987Y000690D01*
X007845Y000788D02*
X007455Y000788D01*
X007510Y000887D02*
X007736Y000887D01*
X007660Y000985D02*
X007540Y000985D01*
X007581Y001084D02*
X007619Y001084D01*
X007600Y001182D02*
X007600Y001182D01*
X007600Y001281D02*
X007600Y001281D01*
X007600Y001379D02*
X007600Y001379D01*
X007600Y001478D02*
X007600Y001478D01*
X007600Y001576D02*
X007600Y001576D01*
X007600Y001675D02*
X007600Y001675D01*
X007600Y001773D02*
X007600Y001773D01*
X007600Y001872D02*
X007600Y001872D01*
X007600Y001970D02*
X007600Y001970D01*
X007600Y002069D02*
X007600Y002069D01*
X007560Y002167D02*
X007640Y002167D01*
X007688Y002266D02*
X007512Y002266D01*
X007413Y002364D02*
X007787Y002364D01*
X007783Y002463D02*
X007218Y002463D01*
X007800Y002955D02*
X008920Y002955D01*
X008920Y002857D02*
X007898Y002857D01*
X007997Y002758D02*
X008920Y002758D01*
X008920Y002660D02*
X008095Y002660D01*
X008194Y002561D02*
X008920Y002561D01*
X008920Y002463D02*
X008280Y002463D01*
X008413Y002364D02*
X008787Y002364D01*
X008688Y002266D02*
X008512Y002266D01*
X008560Y002167D02*
X008640Y002167D01*
X008600Y002069D02*
X008600Y002069D01*
X008600Y001970D02*
X008600Y001970D01*
X008600Y001872D02*
X008600Y001872D01*
X008600Y001773D02*
X008600Y001773D01*
X008600Y001675D02*
X008600Y001675D01*
X008600Y001576D02*
X008600Y001576D01*
X008600Y001478D02*
X008600Y001478D01*
X008600Y001379D02*
X008600Y001379D01*
X008600Y001281D02*
X008600Y001281D01*
X008600Y001182D02*
X008600Y001182D01*
X008581Y001084D02*
X008619Y001084D01*
X008660Y000985D02*
X008540Y000985D01*
X008464Y000887D02*
X008736Y000887D01*
X008845Y000788D02*
X008355Y000788D01*
X008213Y000690D02*
X008987Y000690D01*
X009213Y000690D02*
X010487Y000690D01*
X010345Y000788D02*
X009355Y000788D01*
X009464Y000887D02*
X010236Y000887D01*
X010160Y000985D02*
X009540Y000985D01*
X009581Y001084D02*
X010119Y001084D01*
X010100Y001182D02*
X009600Y001182D01*
X009600Y001281D02*
X010100Y001281D01*
X010100Y001379D02*
X009600Y001379D01*
X009600Y001478D02*
X010100Y001478D01*
X010100Y001576D02*
X009600Y001576D01*
X009600Y001675D02*
X010100Y001675D01*
X010100Y001773D02*
X009600Y001773D01*
X009600Y001872D02*
X010100Y001872D01*
X010100Y001970D02*
X009600Y001970D01*
X009600Y002069D02*
X010100Y002069D01*
X010140Y002167D02*
X009560Y002167D01*
X009512Y002266D02*
X010188Y002266D01*
X010287Y002364D02*
X009413Y002364D01*
X009280Y002463D02*
X010420Y002463D01*
X010420Y002561D02*
X009280Y002561D01*
X009280Y002660D02*
X010420Y002660D01*
X010420Y002758D02*
X009280Y002758D01*
X009280Y002857D02*
X010420Y002857D01*
X010420Y002955D02*
X009280Y002955D01*
X009280Y003054D02*
X010420Y003054D01*
X010420Y003152D02*
X009280Y003152D01*
X009280Y003251D02*
X010420Y003251D01*
X010420Y003349D02*
X009280Y003349D01*
X008920Y003349D02*
X007406Y003349D01*
X007504Y003251D02*
X008920Y003251D01*
X008920Y003152D02*
X007603Y003152D01*
X007701Y003054D02*
X008920Y003054D01*
X009280Y003743D02*
X010420Y003743D01*
X010420Y003842D02*
X009280Y003842D01*
X009215Y003940D02*
X010420Y003940D01*
X010420Y004039D02*
X009116Y004039D01*
X009018Y004137D02*
X010420Y004137D01*
X011100Y004000D02*
X011600Y003500D01*
X011600Y001600D01*
X011600Y001000D01*
X011345Y000788D02*
X010855Y000788D01*
X010964Y000887D02*
X011236Y000887D01*
X011160Y000985D02*
X011040Y000985D01*
X011081Y001084D02*
X011119Y001084D01*
X011100Y001182D02*
X011100Y001182D01*
X011100Y001281D02*
X011100Y001281D01*
X011100Y001379D02*
X011100Y001379D01*
X011100Y001478D02*
X011100Y001478D01*
X011100Y001576D02*
X011100Y001576D01*
X011100Y001675D02*
X011100Y001675D01*
X011100Y001773D02*
X011100Y001773D01*
X011100Y001872D02*
X011100Y001872D01*
X011100Y001970D02*
X011100Y001970D01*
X011100Y002069D02*
X011100Y002069D01*
X011060Y002167D02*
X011140Y002167D01*
X011188Y002266D02*
X011012Y002266D01*
X010913Y002364D02*
X011287Y002364D01*
X011420Y002463D02*
X010780Y002463D01*
X010780Y002561D02*
X011420Y002561D01*
X011420Y002660D02*
X010780Y002660D01*
X010780Y002758D02*
X011420Y002758D01*
X011420Y002857D02*
X010780Y002857D01*
X010780Y002955D02*
X011420Y002955D01*
X011420Y003054D02*
X010780Y003054D01*
X010780Y003152D02*
X011420Y003152D01*
X011420Y003251D02*
X010780Y003251D01*
X010780Y003349D02*
X011420Y003349D01*
X010600Y004800D02*
X010600Y001600D01*
X010600Y001000D01*
X010713Y000690D02*
X011487Y000690D01*
X011713Y000690D02*
X012487Y000690D01*
X014600Y001000D02*
X014600Y001600D01*
X014600Y001900D01*
X011696Y005319D02*
X011374Y005319D01*
X011472Y005418D02*
X011574Y005418D01*
X010023Y005122D02*
X010005Y005122D01*
X009650Y004531D02*
X009550Y004531D01*
X009550Y004433D02*
X009650Y004433D01*
X009650Y004334D02*
X009550Y004334D01*
X009100Y003800D02*
X007200Y005700D01*
X006695Y005122D02*
X005633Y005122D01*
X005445Y004800D02*
X006545Y003700D01*
X004255Y003700D01*
X003780Y004175D01*
X003780Y004800D01*
X003960Y004800D01*
X003952Y004750D01*
X004650Y004750D01*
X004650Y004650D01*
X004750Y004650D01*
X004750Y004750D01*
X005448Y004750D01*
X005440Y004800D01*
X005445Y004800D01*
X005517Y004728D02*
X004750Y004728D01*
X004700Y004700D02*
X004800Y004600D01*
X004800Y004100D01*
X006100Y002800D01*
X006100Y001600D01*
X006100Y001000D01*
X006400Y000600D02*
X001700Y000600D01*
X001600Y000700D01*
X005100Y001000D02*
X005100Y001600D01*
X005100Y002600D01*
X003600Y004100D01*
X003600Y005600D01*
X004700Y006700D01*
X002200Y006700D01*
X001676Y007388D02*
X000200Y007388D01*
X000200Y007486D02*
X001604Y007486D01*
X000200Y009161D02*
X016252Y009161D01*
X016351Y009259D02*
X000200Y009259D01*
X004750Y008077D02*
X004850Y008077D01*
X004850Y007979D02*
X004750Y007979D01*
X004750Y007880D02*
X004850Y007880D01*
X004850Y007782D02*
X004750Y007782D01*
X004750Y007486D02*
X004850Y007486D01*
X004850Y007388D02*
X004750Y007388D01*
X004750Y007289D02*
X004850Y007289D01*
X004800Y005700D02*
X008100Y002400D01*
X008100Y001600D01*
X008100Y001000D01*
X007200Y001000D02*
X007100Y001000D01*
X007100Y001300D01*
X006400Y000600D01*
X006547Y000493D02*
X023800Y000493D01*
X023800Y000591D02*
X006646Y000591D01*
X007100Y001300D02*
X007100Y001600D01*
X009100Y001600D02*
X009100Y001000D01*
X009100Y001600D02*
X009100Y003800D01*
X009195Y005122D02*
X008033Y005122D01*
X007150Y004531D02*
X007050Y004531D01*
X007050Y004433D02*
X007150Y004433D01*
X007150Y004334D02*
X007050Y004334D01*
X006404Y003842D02*
X004113Y003842D01*
X004015Y003940D02*
X006305Y003940D01*
X006207Y004039D02*
X003916Y004039D01*
X003818Y004137D02*
X006108Y004137D01*
X006010Y004236D02*
X003780Y004236D01*
X003780Y004334D02*
X004138Y004334D01*
X004164Y004315D02*
X004227Y004283D01*
X004295Y004261D01*
X004365Y004250D01*
X004650Y004250D01*
X004650Y004650D01*
X003952Y004650D01*
X003961Y004595D01*
X003983Y004527D01*
X004015Y004464D01*
X004057Y004407D01*
X004107Y004357D01*
X004164Y004315D01*
X004038Y004433D02*
X003780Y004433D01*
X003780Y004531D02*
X003982Y004531D01*
X003956Y004630D02*
X003780Y004630D01*
X003780Y004728D02*
X004650Y004728D01*
X004650Y004630D02*
X004750Y004630D01*
X004750Y004650D02*
X004750Y004250D01*
X005035Y004250D01*
X005105Y004261D01*
X005173Y004283D01*
X005236Y004315D01*
X005293Y004357D01*
X005343Y004407D01*
X005385Y004464D01*
X005417Y004527D01*
X005439Y004595D01*
X005448Y004650D01*
X004750Y004650D01*
X004750Y004531D02*
X004650Y004531D01*
X004650Y004433D02*
X004750Y004433D01*
X004750Y004334D02*
X004650Y004334D01*
X005262Y004334D02*
X005911Y004334D01*
X005813Y004433D02*
X005362Y004433D01*
X005418Y004531D02*
X005714Y004531D01*
X005616Y004630D02*
X005444Y004630D01*
X006502Y003743D02*
X004212Y003743D01*
X003745Y003700D02*
X002400Y003700D01*
X001700Y004100D01*
X001700Y004297D01*
X001727Y004283D01*
X001795Y004261D01*
X001865Y004250D01*
X002150Y004250D01*
X002150Y004650D01*
X002250Y004650D01*
X002250Y004750D01*
X002948Y004750D01*
X002940Y004800D01*
X003420Y004800D01*
X003420Y004175D01*
X003420Y004025D01*
X003745Y003700D01*
X003702Y003743D02*
X002325Y003743D01*
X002152Y003842D02*
X003604Y003842D01*
X003505Y003940D02*
X001980Y003940D01*
X001808Y004039D02*
X003420Y004039D01*
X003420Y004137D02*
X001700Y004137D01*
X001700Y004236D02*
X003420Y004236D01*
X003420Y004334D02*
X002762Y004334D01*
X002736Y004315D02*
X002793Y004357D01*
X002843Y004407D01*
X002885Y004464D01*
X002917Y004527D01*
X002939Y004595D01*
X002948Y004650D01*
X002250Y004650D01*
X002250Y004250D01*
X002535Y004250D01*
X002605Y004261D01*
X002673Y004283D01*
X002736Y004315D01*
X002862Y004433D02*
X003420Y004433D01*
X003420Y004531D02*
X002918Y004531D01*
X002944Y004630D02*
X003420Y004630D01*
X003420Y004728D02*
X002250Y004728D01*
X002250Y004630D02*
X002150Y004630D01*
X002150Y004531D02*
X002250Y004531D01*
X002250Y004433D02*
X002150Y004433D01*
X002150Y004334D02*
X002250Y004334D01*
X002605Y005122D02*
X003420Y005122D01*
X001674Y005418D02*
X001572Y005418D01*
X007150Y007289D02*
X007250Y007289D01*
X007250Y007388D02*
X007150Y007388D01*
X007150Y007486D02*
X007250Y007486D01*
X007250Y007782D02*
X007150Y007782D01*
X007150Y007880D02*
X007250Y007880D01*
X007250Y007979D02*
X007150Y007979D01*
X007150Y008077D02*
X007250Y008077D01*
X016600Y007936D02*
X016600Y008900D01*
X016849Y009259D02*
X020086Y009259D01*
X021030Y007830D02*
X019400Y006200D01*
X021670Y003930D01*
X022000Y003930D01*
X022530Y003940D02*
X023800Y003940D01*
X023800Y003842D02*
X022530Y003842D01*
X022530Y003743D02*
X023800Y003743D01*
X023800Y003645D02*
X022530Y003645D01*
X022530Y003546D02*
X023800Y003546D01*
X023800Y003448D02*
X022501Y003448D01*
X022530Y004039D02*
X023800Y004039D01*
X023800Y004137D02*
X022530Y004137D01*
X022530Y004236D02*
X023800Y004236D01*
X023800Y004334D02*
X022530Y004334D01*
X022481Y004433D02*
X023800Y004433D01*
X023800Y004531D02*
X021324Y004531D01*
X021422Y004433D02*
X021519Y004433D01*
X021225Y004630D02*
X023800Y004630D01*
X023800Y004728D02*
X021127Y004728D01*
X021011Y004334D02*
X019902Y004334D01*
X019900Y004236D02*
X021110Y004236D01*
X019928Y003743D02*
X019786Y003743D01*
X019829Y003842D02*
X019688Y003842D01*
X019648Y003842D02*
X019506Y003842D01*
X019549Y003743D02*
X019408Y003743D01*
X019589Y003940D02*
X019605Y003940D01*
X019731Y003940D02*
X019746Y003940D01*
X021477Y002364D02*
X023800Y002364D01*
X023800Y002266D02*
X021637Y002266D01*
X021735Y002167D02*
X023800Y002167D01*
X023800Y002069D02*
X021826Y002069D01*
X021867Y001970D02*
X023800Y001970D01*
X023800Y001872D02*
X021908Y001872D01*
X021948Y001773D02*
X023800Y001773D01*
X023800Y001675D02*
X021950Y001675D01*
X021950Y001576D02*
X023800Y001576D01*
X023800Y001478D02*
X021950Y001478D01*
X021928Y001379D02*
X023800Y001379D01*
X023800Y001281D02*
X021888Y001281D01*
X021847Y001182D02*
X023800Y001182D01*
X023800Y001084D02*
X021786Y001084D01*
X021687Y000985D02*
X023800Y000985D01*
X023800Y000887D02*
X021589Y000887D01*
X022352Y005024D02*
X023800Y005024D01*
X023800Y005122D02*
X022443Y005122D01*
X022549Y005498D02*
X022050Y005498D01*
X022050Y005997D01*
X022129Y005984D01*
X022211Y005958D01*
X022288Y005918D01*
X022358Y005867D01*
X022420Y005806D01*
X022470Y005736D01*
X022510Y005659D01*
X022536Y005577D01*
X022549Y005498D01*
X022546Y005516D02*
X023800Y005516D01*
X023800Y005418D02*
X022050Y005418D01*
X022050Y005516D02*
X021950Y005516D01*
X021950Y005615D02*
X022050Y005615D01*
X022050Y005713D02*
X021950Y005713D01*
X021950Y005812D02*
X022050Y005812D01*
X022050Y005910D02*
X021950Y005910D01*
X022300Y005910D02*
X023800Y005910D01*
X023800Y005812D02*
X022414Y005812D01*
X022482Y005713D02*
X023800Y005713D01*
X023800Y005615D02*
X022524Y005615D01*
X022530Y007388D02*
X023800Y007388D01*
X023800Y007486D02*
X022530Y007486D01*
X022530Y007585D02*
X023800Y007585D01*
X023800Y007683D02*
X022530Y007683D01*
X022530Y007782D02*
X023800Y007782D01*
X023800Y007880D02*
X022530Y007880D01*
X022530Y007979D02*
X023800Y007979D01*
X023800Y008077D02*
X022530Y008077D01*
X022530Y008176D02*
X023800Y008176D01*
X023800Y008274D02*
X022530Y008274D01*
X022000Y007830D02*
X021030Y007830D01*
X022365Y008964D02*
X023800Y008964D01*
X023800Y009062D02*
X022455Y009062D01*
X022496Y009161D02*
X023800Y009161D01*
X023800Y009259D02*
X022530Y009259D01*
X022530Y009358D02*
X023800Y009358D01*
X023800Y009456D02*
X022529Y009456D01*
X004835Y019799D02*
X004365Y019799D01*
D19*
X004100Y021200D03*
X005100Y021200D03*
X006100Y021200D03*
X007100Y021200D03*
X010100Y021200D03*
X011100Y021200D03*
X012100Y021200D03*
X012300Y004000D03*
X014000Y004000D03*
X014600Y001000D03*
X012600Y001000D03*
X011600Y001000D03*
X010600Y001000D03*
X009100Y001000D03*
X008100Y001000D03*
X007200Y001000D03*
X006100Y001000D03*
X005100Y001000D03*
X005600Y004000D03*
X008000Y004000D03*
X009700Y004000D03*
X003000Y004000D03*
X016600Y001000D03*
M02*
