G75*
G70*
%OFA0B0*%
%FSLAX24Y24*%
%IPPOS*%
%LPD*%
%AMOC8*
5,1,8,0,0,1.08239X$1,22.5*
%
%ADD10C,0.0000*%
D10*
X000000Y000000D02*
X000000Y022500D01*
X024000Y022500D01*
X024000Y000000D01*
X000000Y000000D01*
X020450Y001600D02*
X020452Y001650D01*
X020458Y001700D01*
X020468Y001750D01*
X020481Y001798D01*
X020498Y001846D01*
X020519Y001892D01*
X020543Y001936D01*
X020571Y001978D01*
X020602Y002018D01*
X020636Y002055D01*
X020673Y002090D01*
X020712Y002121D01*
X020753Y002150D01*
X020797Y002175D01*
X020843Y002197D01*
X020890Y002215D01*
X020938Y002229D01*
X020987Y002240D01*
X021037Y002247D01*
X021087Y002250D01*
X021138Y002249D01*
X021188Y002244D01*
X021238Y002235D01*
X021286Y002223D01*
X021334Y002206D01*
X021380Y002186D01*
X021425Y002163D01*
X021468Y002136D01*
X021508Y002106D01*
X021546Y002073D01*
X021581Y002037D01*
X021614Y001998D01*
X021643Y001957D01*
X021669Y001914D01*
X021692Y001869D01*
X021711Y001822D01*
X021726Y001774D01*
X021738Y001725D01*
X021746Y001675D01*
X021750Y001625D01*
X021750Y001575D01*
X021746Y001525D01*
X021738Y001475D01*
X021726Y001426D01*
X021711Y001378D01*
X021692Y001331D01*
X021669Y001286D01*
X021643Y001243D01*
X021614Y001202D01*
X021581Y001163D01*
X021546Y001127D01*
X021508Y001094D01*
X021468Y001064D01*
X021425Y001037D01*
X021380Y001014D01*
X021334Y000994D01*
X021286Y000977D01*
X021238Y000965D01*
X021188Y000956D01*
X021138Y000951D01*
X021087Y000950D01*
X021037Y000953D01*
X020987Y000960D01*
X020938Y000971D01*
X020890Y000985D01*
X020843Y001003D01*
X020797Y001025D01*
X020753Y001050D01*
X020712Y001079D01*
X020673Y001110D01*
X020636Y001145D01*
X020602Y001182D01*
X020571Y001222D01*
X020543Y001264D01*
X020519Y001308D01*
X020498Y001354D01*
X020481Y001402D01*
X020468Y001450D01*
X020458Y001500D01*
X020452Y001550D01*
X020450Y001600D01*
X000450Y018600D02*
X000452Y018650D01*
X000458Y018700D01*
X000468Y018750D01*
X000481Y018798D01*
X000498Y018846D01*
X000519Y018892D01*
X000543Y018936D01*
X000571Y018978D01*
X000602Y019018D01*
X000636Y019055D01*
X000673Y019090D01*
X000712Y019121D01*
X000753Y019150D01*
X000797Y019175D01*
X000843Y019197D01*
X000890Y019215D01*
X000938Y019229D01*
X000987Y019240D01*
X001037Y019247D01*
X001087Y019250D01*
X001138Y019249D01*
X001188Y019244D01*
X001238Y019235D01*
X001286Y019223D01*
X001334Y019206D01*
X001380Y019186D01*
X001425Y019163D01*
X001468Y019136D01*
X001508Y019106D01*
X001546Y019073D01*
X001581Y019037D01*
X001614Y018998D01*
X001643Y018957D01*
X001669Y018914D01*
X001692Y018869D01*
X001711Y018822D01*
X001726Y018774D01*
X001738Y018725D01*
X001746Y018675D01*
X001750Y018625D01*
X001750Y018575D01*
X001746Y018525D01*
X001738Y018475D01*
X001726Y018426D01*
X001711Y018378D01*
X001692Y018331D01*
X001669Y018286D01*
X001643Y018243D01*
X001614Y018202D01*
X001581Y018163D01*
X001546Y018127D01*
X001508Y018094D01*
X001468Y018064D01*
X001425Y018037D01*
X001380Y018014D01*
X001334Y017994D01*
X001286Y017977D01*
X001238Y017965D01*
X001188Y017956D01*
X001138Y017951D01*
X001087Y017950D01*
X001037Y017953D01*
X000987Y017960D01*
X000938Y017971D01*
X000890Y017985D01*
X000843Y018003D01*
X000797Y018025D01*
X000753Y018050D01*
X000712Y018079D01*
X000673Y018110D01*
X000636Y018145D01*
X000602Y018182D01*
X000571Y018222D01*
X000543Y018264D01*
X000519Y018308D01*
X000498Y018354D01*
X000481Y018402D01*
X000468Y018450D01*
X000458Y018500D01*
X000452Y018550D01*
X000450Y018600D01*
M02*
