<?xml version="1.0" encoding="UTF-8" standalone="no"?>
<!-- Created with Inkscape (http://www.inkscape.org/) -->

<svg
   xmlns:dc="http://purl.org/dc/elements/1.1/"
   xmlns:cc="http://creativecommons.org/ns#"
   xmlns:rdf="http://www.w3.org/1999/02/22-rdf-syntax-ns#"
   xmlns:svg="http://www.w3.org/2000/svg"
   xmlns="http://www.w3.org/2000/svg"
   version="1.1"
   width="50"
   height="50"
   id="svg3002">
  <defs
     id="defs3004" />
  <metadata
     id="metadata3007">
    <rdf:RDF>
      <cc:Work
         rdf:about="">
        <dc:format>image/svg+xml</dc:format>
        <dc:type
           rdf:resource="http://purl.org/dc/dcmitype/StillImage" />
        <dc:title></dc:title>
      </cc:Work>
    </rdf:RDF>
  </metadata>
  <g
     transform="translate(0,-1002.3622)"
     id="layer1">
    <g
       transform="matrix(0.14252796,0,0,0.14252796,-4.6929948,907.51399)"
       id="g3012">
      <path
         d="m 318.89764,194.88188 c 0,88.06115 -71.38767,159.44882 -159.44882,159.44882 C 71.387669,354.3307 0,282.94303 0,194.88188 0,106.82073 71.387669,35.43306 159.44882,35.43306 c 88.06115,0 159.44882,71.38767 159.44882,159.44882 z"
         transform="matrix(1.0333333,0,0,1.0333333,47.834648,640.15774)"
         id="path3887"
         style="fill:#363f09;fill-opacity:1;stroke:none" />
      <path
         d="m 206.95574,694.48843 c -1.82049,3.51919 -1.82049,3.51919 1.77652,7.0625 24.23204,0 47.73296,32.55547 59.37283,81.52018 0,0 -1.49776,0 0.85865,-0.0419 -12.09361,-53.09894 -34.4925,-88.54081 -62.008,-88.54081 z"
         id="path4673-3"
         style="fill:#ffffff;fill-opacity:1;stroke:none" />
      <path
         d="m 212.59843,775.98697 c -57.14053,0 -111.61885,11.37423 -161.3125,31.96875 -2.24555,10.84316 -3.4375,22.08502 -3.4375,33.59375 0,90.99652 73.75348,164.75003 164.75,164.75003 90.99652,0 164.78125,-73.75351 164.78125,-164.75003 0,-11.50667 -1.19273,-22.75239 -3.4375,-33.59375 -49.70079,-20.60147 -104.19306,-31.96875 -161.34375,-31.96875 z"
         id="path3889"
         style="fill:#6a7f10;fill-opacity:1;stroke:none" />
      <path
         d="m 371.21875,98 -0.59375,0.15625 c 0,0 -29.05654,14.23055 -51.84375,31.1875 -10.0502,7.47879 -51.50893,37.59402 -80.0625,58.34375 L 224.5,182.46875 208.65625,194.125 l 1.65625,14.21875 c -0.002,0.001 -0.3125,0.21875 -0.3125,0.21875 l 1.15625,1.59375 -171.625,94.5 34.03125,10.28125 -0.625,35.53125 142.46875,-134.4375 1.15625,1.59375 c 0,0 0.34144,-0.24831 0.34375,-0.25 l 13,5.875 15.9375,-11.5 -0.59375,-15.09375 c 28.50258,-20.83126 69.84019,-51.03838 80.03125,-58.3125 23.11898,-16.50175 45.53125,-39.8125 45.53125,-39.8125 L 371.21875,98 z"
         transform="translate(0,627.16561)"
         id="path3404-64"
         style="fill:#a33f1f;fill-opacity:1;stroke:none" />
      <g
         transform="translate(7.2323809e-7,-1.6014947)"
         id="text3825"
         style="font-size:78px;font-style:normal;font-variant:normal;font-weight:900;font-stretch:normal;text-align:center;line-height:125%;letter-spacing:9px;word-spacing:0px;writing-mode:lr-tb;text-anchor:middle;fill:#ffffff;fill-opacity:1;stroke:none;font-family:Orbitron;-inkscape-font-specification:Orbitron Heavy">
        <path
           d="m 74.957462,871.17401 0,43.67908 12.09,0 0,-18.018 c 0.078,0.078 0.234,0.078 0.234,0.078 0,-0.312 -0.078,-0.468 -0.234,-0.468 l 32.447998,-0.078 c 6.396,0 11.622,-5.22601 11.622,-11.544 l 0,-14.508 c 0,-6.318 -5.226,-11.544 -11.622,-11.544 l -32.723184,0 c -6.793433,-0.10386 -12.170503,5.42576 -11.814814,12.40292 z m 12.09,-0.31292 31.823998,0 0,13.338 -31.823998,0 0,-13.338"
           id="path3817" />
        <path
           d="m 201.42668,870.23709 c 0,-6.396 -5.22601,-11.544 -11.544,-11.544 l -33.072,0 c -6.39599,0 -11.544,5.148 -11.544,11.544 l 0,11.076 c 0,6.39599 5.14801,11.544 11.544,11.544 l 32.37,0 0,9.828 -31.824,0 0,-4.602 -12.09,0 0,5.226 c 0,6.39599 5.14801,11.544 11.544,11.544 l 33.072,0 c 6.31799,0 11.544,-5.14801 11.544,-11.544 l 0,-11.076 c 0,-6.396 -5.22601,-11.544 -11.544,-11.544 l -32.526,0 0,-9.828 31.824,0 0,4.602 12.246,0 0,-5.226"
           id="path3819" />
        <path
           d="m 230.4934,858.69309 c -6.39599,0 -11.544,5.148 -11.544,11.544 l 0,44.616 12.09,0 0,-18.096 31.824,0 0,18.096 12.246,0 0,-44.616 c 0,-6.396 -5.22601,-11.544 -11.622,-11.544 l -32.994,0 m 0.546,25.896 0,-13.728 31.824,0 0,13.728 -31.824,0"
           id="path3821" />
        <path
           d="m 348.76652,870.23709 c 0,-6.396 -5.226,-11.544 -11.544,-11.544 l -33.072,0 c -6.39599,0 -11.544,5.148 -11.544,11.544 l 0,11.076 c 0,6.39599 5.14801,11.544 11.544,11.544 l 32.37,0 0,9.828 -31.824,0 0,-4.602 -12.09,0 0,5.226 c 0,6.39599 5.14801,11.544 11.544,11.544 l 33.072,0 c 6.318,0 11.544,-5.14801 11.544,-11.544 l 0,-11.076 c 0,-6.396 -5.226,-11.544 -11.544,-11.544 l -32.526,0 0,-9.828 31.824,0 0,4.602 12.246,0 0,-5.226"
           id="path3823" />
      </g>
      <path
         d="m 206.95574,694.48843 c -33.76287,0 -67.01203,54.33548 -74.85685,127.71753 -0.36878,3.44961 -1.76116,7.02417 -2.94502,10.47145 0.41818,0.70065 3.89864,2.2329 6.8455,2.30215 4.25953,0.10009 6.84284,-1.20112 7.89053,-2.30215 -0.66672,-1.53218 -0.91016,-7.12556 -0.4978,-10.61861 8.23978,-69.79839 35.11053,-120.50787 65.34016,-120.50787 1.82048,-3.51919 1.82048,-3.51919 -1.77652,-7.06253 z"
         id="path4673"
         style="fill:#ffffff;fill-opacity:1;stroke:none" />
    </g>
  </g>
</svg>
