<?xml version="1.0" encoding="UTF-8" standalone="no"?>
<!-- Created with Inkscape (http://www.inkscape.org/) -->

<svg
   xmlns:dc="http://purl.org/dc/elements/1.1/"
   xmlns:cc="http://creativecommons.org/ns#"
   xmlns:rdf="http://www.w3.org/1999/02/22-rdf-syntax-ns#"
   xmlns:svg="http://www.w3.org/2000/svg"
   xmlns="http://www.w3.org/2000/svg"
   xmlns:sodipodi="http://sodipodi.sourceforge.net/DTD/sodipodi-0.dtd"
   xmlns:inkscape="http://www.inkscape.org/namespaces/inkscape"
   width="90"
   height="90"
   id="svg3086"
   version="1.1"
   inkscape:version="0.48.4 r9939"
   sodipodi:docname="New document 2">
  <defs
     id="defs3088" />
  <sodipodi:namedview
     id="base"
     pagecolor="#ffffff"
     bordercolor="#666666"
     borderopacity="1.0"
     inkscape:pageopacity="0.0"
     inkscape:pageshadow="2"
     inkscape:zoom="3.959798"
     inkscape:cx="113.359"
     inkscape:cy="18.225535"
     inkscape:document-units="px"
     inkscape:current-layer="layer1"
     showgrid="false"
     width="764px"
     units="in"
     inkscape:window-width="1239"
     inkscape:window-height="776"
     inkscape:window-x="41"
     inkscape:window-y="601"
     inkscape:window-maximized="1" />
  <metadata
     id="metadata3091">
    <rdf:RDF>
      <cc:Work
         rdf:about="">
        <dc:format>image/svg+xml</dc:format>
        <dc:type
           rdf:resource="http://purl.org/dc/dcmitype/StillImage" />
        <dc:title></dc:title>
      </cc:Work>
    </rdf:RDF>
  </metadata>
  <g
     inkscape:label="Layer 1"
     inkscape:groupmode="layer"
     id="layer1"
     transform="translate(0,-962.362)">
    <path
       inkscape:connector-curvature="0"
       id="path14"
       style="fill:#658c14;fill-opacity:1;fill-rule:nonzero;stroke:none"
       d="m 53.953486,1001.485 c 0,0 -3.21475,0 -3.32375,0 0,-0.1133 0,-4.55669 0,-4.55669 0,-4.53375 -3.68937,-8.22262 -8.22262,-8.22262 -4.53412,0 -8.22312,3.68887 -8.22312,8.22262 0,0 0,4.44339 0,4.55669 -0.10788,0 -3.25733,0 -3.25733,0 -4.53271,0 -8.22168,3.688 -8.22168,8.2266 0,4.5287 3.68897,8.2177 8.22168,8.2177 0,0 3.14943,0 3.25733,0 0,0.1099 0,2.9688 0,2.9688 0,4.5361 3.689,8.2177 8.22312,8.2177 4.53325,0 8.22262,-3.6816 8.22262,-8.2177 0,0 0,-2.8589 0,-2.9688 0.109,0 3.32375,0 3.32375,0 4.53225,0 8.22363,-3.689 8.22363,-8.2177 0,-4.5386 -3.69138,-8.2266 -8.22363,-8.2266 z m -16.64199,-4.55669 c 0,-2.80912 2.28312,-5.09275 5.09325,-5.09275 2.84424,0 5.16012,2.24363 5.16012,5.00975 0,2.80518 -2.31588,5.09279 -5.16012,5.09279 l -0.608,0 0,-2.49161 0.608,0 c 1.44525,0 2.66649,-1.1925 2.66649,-2.60118 0,-1.38912 -1.19637,-2.5195 -2.66649,-2.5195 -1.43513,0 -2.60163,1.16938 -2.60163,2.6025 l 0,9.74369 -2.49162,2.0288 0,-11.77249 z m 10.18787,23.96979 c 0,2.8076 -2.28513,5.0952 -5.09462,5.0952 -2.81013,0 -5.09325,-2.2876 -5.09325,-5.0952 l 0,-3.169 2.49162,0 0,3.169 c 0,1.4355 1.1665,2.6049 2.60163,2.6049 1.434,0 2.60199,-1.1694 2.60199,-2.6049 l 0,-8.1495 2.49263,-2.0019 0,10.1514 z m 6.45562,-6.0963 -3.3775,0 0,-2.4951 3.3775,0 c 1.436,0 2.602,-1.1645 2.602,-2.5951 0,-1.4405 -1.166,-2.6065 -2.602,-2.6065 l -4.94,0 c -0.664,0 -1.26562,0.1944 -2.07662,0.669 -0.15325,0.085 -0.73538,0.5141 -0.94425,0.6826 -4.96587,3.9893 -5.72912,4.602 -5.79062,4.6509 -0.19775,0.1562 -0.69913,0.537 -1.04338,0.725 -0.93312,0.5689 -1.92825,0.9156 -2.8795,0.9692 l -5.35785,0 c -2.80761,0 -5.09424,-2.2851 -5.09424,-5.0902 0,-2.8125 2.28663,-5.0978 5.09424,-5.0978 l 3.37012,0 0,2.4913 -3.37012,0 c -1.43555,0 -2.60205,1.166 -2.60205,2.6065 0,1.4306 1.1665,2.5951 2.60205,2.5951 0,0 5.17035,0 5.16698,0 0.5865,-0.032 1.186,-0.2465 1.88425,-0.6762 l 0.67137,-0.476 c 0,0 5.76862,-4.647 5.7735,-4.6422 0.007,-0.01 0.89887,-0.7168 1.37887,-0.9633 1.08788,-0.6358 2.10988,-0.9303 3.21725,-0.9303 l 4.94,0 c 2.8105,0 5.09475,2.2853 5.09475,5.0978 0,2.8051 -2.28425,5.0902 -5.09475,5.0902" />
  </g>
</svg>
