<?xml version="1.0" encoding="UTF-8" standalone="no"?>
<!-- Created with Inkscape (http://www.inkscape.org/) -->

<svg
   xmlns:dc="http://purl.org/dc/elements/1.1/"
   xmlns:cc="http://creativecommons.org/ns#"
   xmlns:rdf="http://www.w3.org/1999/02/22-rdf-syntax-ns#"
   xmlns:svg="http://www.w3.org/2000/svg"
   xmlns="http://www.w3.org/2000/svg"
   xmlns:sodipodi="http://sodipodi.sourceforge.net/DTD/sodipodi-0.dtd"
   xmlns:inkscape="http://www.inkscape.org/namespaces/inkscape"
   id="svg2"
   version="1.1"
   inkscape:version="0.48.4 r9939"
   width="202.5"
   height="40.4125"
   xml:space="preserve"
   sodipodi:docname="psulogo_horiz_spot.eps"><metadata
     id="metadata8"><rdf:RDF><cc:Work
         rdf:about=""><dc:format>image/svg+xml</dc:format><dc:type
           rdf:resource="http://purl.org/dc/dcmitype/StillImage" /><dc:title></dc:title></cc:Work></rdf:RDF></metadata><defs
     id="defs6" /><sodipodi:namedview
     pagecolor="#ffffff"
     bordercolor="#666666"
     borderopacity="1"
     objecttolerance="10"
     gridtolerance="10"
     guidetolerance="10"
     inkscape:pageopacity="0"
     inkscape:pageshadow="2"
     inkscape:window-width="1239"
     inkscape:window-height="776"
     id="namedview4"
     showgrid="false"
     inkscape:snap-bbox="true"
     inkscape:snap-bbox-edge-midpoints="true"
     inkscape:zoom="3.8814815"
     inkscape:cx="90.905639"
     inkscape:cy="5.6201608"
     inkscape:window-x="41"
     inkscape:window-y="601"
     inkscape:window-maximized="1"
     inkscape:current-layer="g10" /><g
     id="g10"
     inkscape:groupmode="layer"
     inkscape:label="ink_ext_XXXXXX"
     transform="matrix(1.25,0,0,-1.25,0,40.4125)"><g
       id="g3061"
       transform="translate(-24.938931,3.29771)"><path
         d="m 55.462535,18.406511 c -2.5429,0 -4.4609,-2.1406 -4.4609,-4.9765 0,-2.8496 1.918,-5.0000003 4.4609,-5.0000003 2.5293,0 4.4356,2.1504003 4.4356,5.0000003 0,2.8359 -1.9063,4.9765 -4.4356,4.9765 z m 0,-9.2168003 c -1.8672,0 -2.5937,1.1895003 -2.5937,4.2403003 0,3.0508 0.7265,4.2383 2.5937,4.2383 1.8496,0 2.5703,-1.1875 2.5703,-4.2383 0,-3.0508 -0.7207,-4.2403003 -2.5703,-4.2403003"
         style="fill:#000000;fill-opacity:1;fill-rule:nonzero;stroke:none"
         id="path16"
         inkscape:connector-curvature="0" /><path
         d="m 147.01653,9.5140107 -0.015,0.0273 c -0.026,0.041 -0.069,0.0684 -0.119,0.0723 -0.045,0.0039 -0.096,-0.0137 -0.127,-0.0508 -0.186,-0.2129 -0.362,-0.3242 -0.508,-0.3242 -0.311,0 -0.399,0.1894 -0.399,0.8535003 l 0,5.1504 c 0,2.0996 -1.074,3.164 -3.191,3.164 -1.389,0 -3.002,-0.9011 -3.002,-2.0605 0,-0.5606 0.412,-0.9832 0.957,-0.9832 0.527,0 0.957,0.4422 0.957,0.9832 0,0.3379 -0.15,0.6199 -0.42,0.7949 0,0 -0.004,0.002 -0.006,0.0039 l 0.006,0.0059 c 0.096,0.1328 0.49,0.5644 1.508,0.5644 1.035,0 1.535,-0.5175 1.535,-1.582 l 0,-1.959 -0.004,0 c -2.558,0 -5.306,-1.0398 -5.306,-3.3203 0,-1.3516003 0.955,-2.3301003 2.273,-2.3301003 1.02,0 2.051,0.4746 3.072,1.4063 l 0.01,0.0078 0,-0.0137 c 0.139,-0.7695 0.82,-1.3535 1.586,-1.3535 0.545,0 1.035,0.3457 1.277,0.5508 0.055,0.0527 0.073,0.1347 0.034,0.1992 l -0.118,0.1934 z m -2.824,1.1601003 -0.002,0 c -1.137,-1.0176003 -1.851,-1.1308003 -2.285,-1.1308003 -0.691,0 -1.275,0.7382003 -1.275,1.6171003 0,1.5293 1.228,2.3418 3.558,2.3418 l 0.004,0 0,-2.8281"
         style="fill:#000000;fill-opacity:1;fill-rule:nonzero;stroke:none"
         id="path18"
         inkscape:connector-curvature="0" /><path
         d="m 91.087135,9.3636107 -0.1074,0.1777 c -0.0273,0.041 -0.0683,0.0684 -0.1191,0.0723 -0.0488,0.0039 -0.0957,-0.0137 -0.127,-0.0508 -0.1894,-0.2129 -0.3613,-0.3242 -0.5078,-0.3242 -0.3105,0 -0.4004,0.1894 -0.4004,0.8535003 l 0,5.1504 c 0,2.0996 -1.0742,3.164 -3.1894,3.164 -1.3887,0 -3.0039,-0.9011 -3.0039,-2.0605 0,-0.5606 0.4121,-0.9832 0.9589,-0.9832 0.5274,0 0.9571,0.4422 0.9571,0.9832 0,0.3379 -0.1504,0.6199 -0.4199,0.7949 0,0 -0.0059,0.002 -0.0059,0.0039 l 0.0039,0.0059 c 0.0957,0.1328 0.4922,0.5644 1.5098,0.5644 1.0351,0 1.5371,-0.5175 1.5371,-1.582 l 0,-1.959 -0.0059,0 c -2.5586,0 -5.3082,-1.0398 -5.3082,-3.3203 0,-1.3516003 0.9567,-2.3301003 2.275,-2.3301003 1.0195,0 2.0508,0.4746 3.0703,1.4063 l 0.0117,0.0078 0.002,-0.0137 c 0.1367,-0.7695 0.8164,-1.3535 1.5801,-1.3535 0.5488,0 1.0371,0.3457 1.2812,0.5508 0.0586,0.0527 0.0703,0.1347 0.0313,0.1992 l -0.0235,0.043 z m -2.914,1.3105003 -0.0039,0 c -1.1387,-1.0176003 -1.8496,-1.1308003 -2.2852,-1.1308003 -0.6933,0 -1.2773,0.7382003 -1.2773,1.6171003 0,1.5293 1.2304,2.3418 3.5605,2.3418 l 0.0059,0 0,-2.8281"
         style="fill:#000000;fill-opacity:1;fill-rule:nonzero;stroke:none"
         id="path20"
         inkscape:connector-curvature="0" /><path
         d="m 126.41353,17.465911 -1.131,0.3547 c -1.543,0.4316 -2.424,1.4258 -2.424,2.7344 0,1.6504 1.17,2.8027 2.852,2.8027 2.396,0 3.252,-1.6785 3.252,-3.25 0,-0.248 0.111,-0.3691 0.345,-0.3691 0.229,0 0.346,0.125 0.346,0.3691 l 0,3.8067 c 0,0.1796 -0.047,0.3476 -0.369,0.3476 -0.289,0 -0.322,-0.209 -0.322,-0.3699 0,-0.261 -0.202,-0.5207 -0.403,-0.6633 l -0.006,-0.0039 -0.005,0.0066 c -0.362,0.3918 -1.221,1.0539 -2.909,1.0539 -2.056,0 -4.273,-1.5703 -4.273,-4.1074 0,-2.2773 1.377,-3.8926 3.988,-4.6699 0.004,0 0.004,-0.0012 0.004,-0.0012 0.016,-0.0054 0.029,-0.0054 0.041,-0.0054 -0.012,0 -0.023,0 -0.035,0.0027 l 0.908,-0.2578 c 1.041,-0.2871 2.783,-1.0547 2.783,-2.9688 0,-1.8379 -1.615,-2.8281003 -3.134,-2.8281003 -2.268,0 -3.791,1.5234003 -3.791,3.7910003 0,0.1875 -0.03,0.3703 -0.346,0.3703 -0.229,0 -0.348,-0.13 -0.348,-0.3703 l 0,-4.3730003 c 0,-0.1211 0,-0.3692 0.371,-0.3692 0.217,0 0.323,0.1309 0.323,0.3946 0,0.3515 0.187,0.6972 0.451,0.8261 l 0.004,0.0039 0.002,-0.0039 c 0.422,-0.3867 1.576,-1.289 3.24,-1.289 2.816,0 4.861,1.8847003 4.861,4.4844003 0,2.2058 -1.439,3.7382 -4.275,4.5515 z m -0.863,-1.8562 c 0,0 0,-0.0032 -0.002,-0.0032 0.002,0.0032 0.002,0.0032 0.002,0.0032 l 0,0"
         style="fill:#000000;fill-opacity:1;fill-rule:nonzero;stroke:none"
         id="path22"
         inkscape:connector-curvature="0" /><path
         d="m 162.66153,11.564711 c -0.215,0 -0.309,-0.2246 -0.371,-0.3691 -0.457,-1.3008003 -1.436,-1.9824003 -2.828,-1.9824003 -1.797,0 -2.709,1.3594003 -2.709,4.0429003 0,-0.0031 0.015,0.5879 0.021,0.877 0.072,0 6.014,0 6.014,0 0.082,0 0.15,0.0598 0.154,0.1406 l 0.004,0.0496 c 0.006,0.0852 0.014,0.175 0.014,0.2629 0,1.0098 -0.348,1.9473 -0.969,2.6387 -0.697,0.7734 -1.658,1.1816 -2.789,1.1816 -2.121,0 -4.318,-1.8613 -4.318,-4.9765 0,-3.0899 2.23,-5.0000003 4.294,-5.0000003 1.03,0 2.881,0.3047 3.756,2.3476003 0.047,0.1133 0.094,0.3243 0.094,0.4414 0,0.17 -0.125,0.3457 -0.367,0.3457 z m -5.77,3.3868 c 0.305,1.7785 1.178,2.7168 2.524,2.7168 2.025,0 2.107,-2.6895 2.107,-2.72 0,0 0,-7e-4 0,-0.0047 l -4.631,0 c 0,0.004 0,0.0079 0,0.0079"
         style="fill:#000000;fill-opacity:1;fill-rule:nonzero;stroke:none"
         id="path24"
         inkscape:connector-curvature="0" /><path
         d="m 80.955935,9.5608107 -1.3176,-0.0175 0,0.0039 c 0,0.0019 0,14.0398003 0,14.0398003 0,0.2707 -0.1758,0.4184 -0.3426,0.4184 -0.0109,-0.0032 -0.4875,-0.0395 -0.4855,-0.0395 l -0.8438,-0.0594 c 0.0137,0.0032 -1.2703,0.0196 -1.2703,0.0196 8e-4,0 -0.1242,0.005 -0.1242,0.005 -0.043,0 -0.082,-0.0167 -0.1113,-0.0453 -0.0301,-0.0281 -0.0469,-0.0652 -0.0469,-0.1101 l 0,-0.491 c 0,-0.0442 0.0176,-0.0852 0.0508,-0.1125 0.0312,-0.0313 0.0734,-0.0457 0.1152,-0.0411 l 0.1153,0.009 c 0.1933,0.0211 0.5097,0.0535 1.2824,0.0535 l 0.0047,0 0,-13.6503003 -1.2871,0.0175 -0.1231,0.0039 c -0.041,0 -0.082,-0.0156 -0.1113,-0.0449 -0.0301,-0.0293 -0.0469,-0.0664 -0.0469,-0.1094 l 0,-0.4941 c 0,-0.041 0.0176,-0.082 0.0488,-0.1113 0.0313,-0.0293 0.0754,-0.043 0.1172,-0.0391 l 0.084,0.0039 c 0.2402,0.0254 0.6809,0.0684 2.1133,0.0684 l 0.0937,0 c 1.1817,0 1.7786,-0.0332 2.0723,-0.0586 0.0402,-0.0039 0.084,0.0098 0.1164,0.0371 0.032,0.0293 0.0477,0.0703 0.0477,0.1152 l 0,0.4766 c 0,0.041 -0.0137,0.082 -0.0418,0.1094 -0.0293,0.0293 -0.0684,0.0429 -0.1094,0.0429"
         style="fill:#000000;fill-opacity:1;fill-rule:nonzero;stroke:none"
         id="path26"
         inkscape:connector-curvature="0" /><path
         d="m 66.775035,18.406511 c -1.2304,0 -2.1855,-0.6828 -2.6297,-1.873 l -0.0128,-0.0371 0,1.2129 c 0,0.25 -0.1778,0.4172 -0.3457,0.4172 -0.0106,0 -0.5137,-0.0403 -0.5137,-0.0403 l -0.8145,-0.0554 c 0.0137,0 -1.198,0.0183 -1.198,0.0183 -0.041,0 -0.0813,-0.0168 -0.1106,-0.0449 -0.0273,-0.0293 -0.0449,-0.0703 -0.0449,-0.1094 l 0,-0.4707 c 0,-0.043 0.0195,-0.0859 0.0508,-0.1152 0.0332,-0.0274 0.0742,-0.043 0.1172,-0.0391 0.2012,0.0235 0.5176,0.0449 1.1965,0.0449 l 0.0086,0 0,-7.7714003 -1.2176,0.0175 c -0.041,0 -0.0821,-0.0175 -0.1106,-0.0449 -0.0273,-0.0293 -0.0449,-0.0664 -0.0449,-0.1074 l 0,-0.4727 c 0,-0.0429 0.0176,-0.0839 0.05,-0.1132 0.0301,-0.0293 0.0711,-0.043 0.116,-0.0411 0.2637,0.0235 0.8711,0.0567 1.9758,0.0567 l 0.0926,0 c 1.1094,0 1.6769,-0.0332 1.9551,-0.0567 0.0449,-0.0058 0.0859,0.0098 0.1191,0.0411 0.0313,0.0273 0.0488,0.0703 0.0488,0.1113 l 0,0.4746 c 0,0.041 -0.0175,0.0781 -0.0468,0.1074 -0.0293,0.0313 -0.0684,0.0449 -0.1075,0.0449 l -1.1757,-0.0175 0,0.0039 c 0,0.0019 0,4.0468003 0,4.0468003 0,1.75 0.4921,3.1125 1.3535,3.7422 0.3965,0.2903 0.8437,0.3848 1.2285,0.2617 l 0.0117,-0.0019 -0.0086,-0.0078 c -0.1574,-0.1571 -0.2519,-0.3281 -0.2519,-0.6824 0,-0.5891 0.4324,-1.0364 1.0027,-1.0364 0.6016,0 1.0391,0.5039 1.0391,1.1992 0,0.7879 -0.7137,1.3379 -1.7325,1.3379"
         style="fill:#000000;fill-opacity:1;fill-rule:nonzero;stroke:none"
         id="path28"
         inkscape:connector-curvature="0" /><path
         d="m 45.810235,23.909711 -1.7871,-0.0266 -0.8926,-0.0215 c -1.3367,0 -1.9902,0.0274 -2.2988,0.0508 -0.043,0.002 -0.0848,-0.0117 -0.1153,-0.041 -0.0332,-0.0281 -0.0507,-0.0703 -0.0507,-0.1113 l 0,-0.4336 c 0,-0.0403 0.0168,-0.0801 0.0461,-0.1075 0.03,-0.0293 0.0691,-0.0449 0.1101,-0.0429 l 1.5156,0.0175 0,-0.0039 c 0,-0.0019 0,-12.1308 0,-13.6464003 l -1.1679,0.0156 c -0.0411,0 -0.0801,-0.0156 -0.1094,-0.043 -0.0293,-0.0293 -0.0438,-0.0664 -0.0438,-0.1094 l 0,-0.4707 c 0,-0.0429 0.0176,-0.0839 0.0477,-0.1132 0.0293,-0.0293 0.0742,-0.043 0.1172,-0.0411 0.25,0.0235 0.8371,0.0567 1.9492,0.0567 l 0.2824,0 c 1.1953,0 1.7645,-0.0332 2.0301,-0.0567 0.0441,-0.0058 0.0859,0.0098 0.1191,0.0391 0.0313,0.0273 0.0489,0.0723 0.0489,0.1133 l 0,0.4765 c 0,0.0391 -0.0145,0.0801 -0.0438,0.1075 -0.0304,0.0293 -0.0695,0.0449 -0.1105,0.0429 l -0.0399,0 c 8e-4,0 -0.8527,-0.0117 -1.2121,-0.0175 l 0,0.0039 c 0,0.0019 0,4.6523003 0,5.5566003 l 1.6055,0 c 3.2812,0 5.2383,1.6523 5.2383,4.416 0,2.7473 -1.9571,4.3899 -5.2383,4.3899 z m 0,-7.9739 -1.6055,0 0,7.1172 1.6055,0 c 2.3808,0 3.1836,-0.8926 3.1836,-3.5332 0,-2.6765 -0.8028,-3.584 -3.1836,-3.584"
         style="fill:#000000;fill-opacity:1;fill-rule:nonzero;stroke:none"
         id="path30"
         inkscape:connector-curvature="0" /><path
         d="m 74.972335,18.055011 c -8e-4,0 -1.7715,-0.0196 -2.3086,-0.0242 l 0,0.0078 c 0,-0.0032 0,2.4351 0,2.4351 0,0.3567 -0.0234,0.675 -0.2996,0.675 -0.3039,0 -0.3723,-0.2273 -0.627,-1.4929 -0.0011,-0.0032 -0.0011,-0.0051 -0.0011,-0.0063 -0.2344,-1.2449 -0.6328,-1.4832 -1.7098,-1.566 -0.0793,-0.007 -0.1406,-0.0727 -0.1406,-0.1535 l 0,-0.4805 c 0,-0.084 0.0672,-0.1543 0.1512,-0.1543 l 0.3222,-0.0039 c -0.0019,0 0.4336,-0.0066 0.6692,-0.0098 l 0,-0.0117 c 0,0.0059 0,-6.6406 0,-6.6406 0,-1.2461003 0.7175,-1.9902003 1.9218,-1.9902003 1.1805,0 1.6532,0.457 1.8016,0.6523 0.0332,0.0449 0.041,0.1094 0.0168,0.1582 l -0.1367,0.2871 c -0.0215,0.0469 -0.0637,0.0762 -0.1106,0.0879 -0.0515,0.0078 -0.0996,-0.0098 -0.1347,-0.043 -0.1914,-0.1855 -0.5762,-0.498 -1.0098,-0.498 -0.3086,0 -0.7129,0.0976 -0.7129,0.9492003 l 0,7.0488 1.9063,-0.0078 0.4015,-0.0058 c 0.1707,0 0.3465,0.1484 0.3465,0.3945 0,0.2461 -0.1758,0.3926 -0.3457,0.3926"
         style="fill:#000000;fill-opacity:1;fill-rule:nonzero;stroke:none"
         id="path32"
         inkscape:connector-curvature="0" /><path
         d="m 137.21253,18.055011 c -0.002,0 -1.772,-0.0196 -2.309,-0.0242 l 0,0.0078 c 0,-0.0032 0,2.4351 0,2.4351 0,0.3567 -0.023,0.675 -0.301,0.675 -0.336,0 -0.398,-0.1816 -0.627,-1.3203 0,-0.0019 0,-0.0039 -0.004,-0.0051 -0.228,-1.2363 -0.628,-1.6414 -1.707,-1.7371 -0.08,-0.0097 -0.14,-0.0754 -0.14,-0.1535 l 0,-0.4801 c 0,-0.0402 0.017,-0.0824 0.045,-0.1086 0.029,-0.0312 0.07,-0.0449 0.113,-0.0449 l 0.986,0.0156 0,-0.0031 c 0,-0.0027 0,-6.6824 0,-6.6824 0,-1.2461003 0.719,-1.9902003 1.92,-1.9902003 1.18,0 1.653,0.457 1.803,0.6523 0.039,0.0469 0.043,0.1094 0.019,0.1582 l -0.017,0.0332 -0.121,0.2539 c -0.024,0.0469 -0.065,0.0762 -0.112,0.0879 -0.052,0.0078 -0.099,-0.0098 -0.134,-0.043 -0.192,-0.1855 -0.576,-0.498 -1.012,-0.498 -0.305,0 -0.711,0.0976 -0.711,0.9492003 l 0,7.0852 1.91,-0.0364 c -0.006,0 0.395,-0.0136 0.395,-0.0136 0.174,0 0.349,0.1484 0.349,0.3945 0,0.2461 -0.175,0.3926 -0.345,0.3926"
         style="fill:#000000;fill-opacity:1;fill-rule:nonzero;stroke:none"
         id="path34"
         inkscape:connector-curvature="0" /><path
         d="m 153.35453,9.2913107 c 0.035,0.0469 0.041,0.1094 0.014,0.1582 l -0.039,0.084 -0.098,0.207 c -0.023,0.043 -0.062,0.0742 -0.111,0.084 -0.049,0.0078 -0.1,-0.0098 -0.135,-0.041 -0.189,-0.1875 -0.574,-0.5 -1.01,-0.5 -0.304,0 -0.713,0.0976 -0.713,0.9492003 l 0,7.0852 1.909,-0.0364 0.398,-0.0136 c 0.176,0 0.352,0.1484 0.352,0.3945 0,0.2461 -0.176,0.3926 -0.35,0.3926 0,0 -1.77,-0.0196 -2.309,-0.0242 l 0,0.0078 c 0,-0.0032 0,2.4351 0,2.4351 0,0.3567 -0.023,0.675 -0.298,0.675 -0.34,0 -0.399,-0.1816 -0.629,-1.3203 l 0,-0.0019 c 0,-8e-4 0,-0.002 0,-0.0032 -0.233,-1.2363 -0.629,-1.6414 -1.715,-1.7371 -0.076,-0.0097 -0.135,-0.0754 -0.135,-0.1535 l 0,-0.4801 c 0,-0.0402 0.014,-0.0824 0.045,-0.1086 0.027,-0.0312 0.068,-0.0449 0.109,-0.0449 l 0.991,0.0156 0,-0.0031 c 0,-0.0027 0,-6.6824 0,-6.6824 0,-1.2461003 0.718,-1.9902003 1.92,-1.9902003 1.179,0 1.652,0.457 1.804,0.6523"
         style="fill:#000000;fill-opacity:1;fill-rule:nonzero;stroke:none"
         id="path36"
         inkscape:connector-curvature="0" /><path
         d="m 103.25553,9.5589107 -1.258,-0.0156 0,0.0039 c 0,0.0019 0,5.3886003 0,5.3886003 0,1.5821 -0.504,3.4707 -2.908399,3.4707 -1.5039,0 -2.912096,-1.3496 -3.404296,-2.6504 l -0.0117,-0.0371 0,1.9903 c 0,0.25 -0.1797,0.4172 -0.3457,0.4172 -0.0098,0 -0.5156,-0.0403 -0.5156,-0.0403 0.0019,0 -0.8125,-0.0554 -0.8125,-0.0554 0.0117,0 -1.1993,0.0183 -1.1993,0.0183 0,0 -0.0254,0.002 -0.0371,0.002 -0.0429,0 -0.082,-0.0157 -0.1113,-0.043 -0.0293,-0.0312 -0.0469,-0.0684 -0.0469,-0.1102 l 0,-0.4933 c 0,-0.043 0.0176,-0.082 0.0469,-0.1094 0.0293,-0.0293 0.0703,-0.0449 0.1152,-0.043 l 0.0352,0.0032 c -0.002,0 0.8515,0.0183 1.2148,0.0261 l 0,-0.0046 c 0,-0.0012 0,-6.6418 0,-7.7336003 l -1.2168,0.0175 c 0.002,0 -0.0254,0 -0.0371,0.002 -0.0429,0 -0.082,-0.0156 -0.1113,-0.0449 -0.0293,-0.0274 -0.0469,-0.0684 -0.0469,-0.1075 l 0,-0.4882 c 0,-0.084 0.0703,-0.1524 0.1543,-0.1524 0.0039,0 0.0137,0 0.0156,0 0.2071,0.0254 0.5743,0.0684 2.0118,0.0684 l 0.0918,0 c 1.3339,0 1.7871,-0.0274 2.0117,-0.0508 0.0429,-0.0059 0.0859,0.0098 0.1172,0.0391 0.0312,0.0273 0.0507,0.0683 0.0507,0.1113 l 0,0.4707 c 0,0.041 -0.0175,0.0781 -0.0468,0.1074 -0.0274,0.0274 -0.0684,0.0449 -0.1075,0.0449 l -1.2304,-0.0175 0,0.0039 c 0,0.0019 0,3.5293003 0,3.5293003 0,2.2863 1.5801,4.4511 3.251896,4.4511 1.0313,0 1.414099,-0.4863 1.414099,-1.7929 l 0,-6.1914003 -1.273399,0.0175 c -0.0411,0 -0.0801,-0.0136 -0.1094,-0.0429 -0.0293,-0.0274 -0.0469,-0.0684 -0.0469,-0.1094 l 0,-0.4766 c 0,-0.0429 0.0176,-0.084 0.0508,-0.1113 0.0312,-0.0293 0.0723,-0.0449 0.1172,-0.0391 0.2871,0.0235 0.7754,0.0567 2.031099,0.0567 l 0.096,0 c 0.998,0 1.664,-0.0156 2.041,-0.043 0.041,-0.0039 0.084,0.0098 0.115,0.0391 0.031,0.0273 0.049,0.0683 0.049,0.1113 l 0,0.4629 c 0,0.041 -0.018,0.0781 -0.047,0.1074 -0.025,0.0274 -0.066,0.0449 -0.107,0.043"
         style="fill:#000000;fill-opacity:1;fill-rule:nonzero;stroke:none"
         id="path38"
         inkscape:connector-curvature="0" /><path
         d="m 114.50953,8.9202107 0,0.4942 c 0,0.0449 -0.02,0.0878 -0.053,0.1171 -0.031,0.0274 -0.078,0.0391 -0.121,0.0332 -0.186,-0.0234 -0.494,-0.0683 -1.268,-0.0683 l -0.008,0 0,14.0906003 c 0,0.2484 -0.179,0.4184 -0.345,0.4184 -0.014,-0.0032 -0.487,-0.0395 -0.483,-0.0395 l -0.844,-0.0594 c 0.012,0.0032 -1.117,0.0176 -1.117,0.0176 -0.041,0.002 -0.078,-0.0144 -0.111,-0.0449 -0.027,-0.0273 -0.043,-0.0684 -0.043,-0.1074 l 0,-0.461 c 0,-0.0449 0.019,-0.0859 0.049,-0.114 0.033,-0.0305 0.076,-0.0434 0.119,-0.0395 0.18,0.0168 0.488,0.0363 1.113,0.0363 l 0.006,0 0,-6.4968 -0.014,0.0242 c -0.621,1.0547 -1.654,1.6855 -2.765,1.6855 -2.373,0 -3.967,-2 -3.967,-4.9765 0,-2.9434 1.631,-5.0000003 3.967,-5.0000003 1.105,0 2.138,0.6386 2.765,1.7109003 l 0.014,0.0254 0,-1.0391003 c 0,-0.2519 0.18,-0.416 0.348,-0.416 0.008,0 0.482,0.0313 0.482,0.0313 l 0.844,0.0488 c -0.012,0 1.277,-0.0254 1.277,-0.0254 0.041,0 0.078,0.0156 0.11,0.0449 0.031,0.0274 0.045,0.0684 0.045,0.1094 z m -5.862,0.293 c -1.471,0 -2.125,1.3008003 -2.125,4.2168003 0,2.916 0.654,4.2148 2.125,4.2148 1.676,0 2.756,-1.6543 2.756,-4.2148 0,-2.5606 -1.08,-4.2168003 -2.756,-4.2168003"
         style="fill:#000000;fill-opacity:1;fill-rule:nonzero;stroke:none"
         id="path40"
         inkscape:connector-curvature="0" /><path
         d="m 107.88153,1.5471707 c 0,-0.74414001 -0.415,-1.18359001 -1.111,-1.18359001 -0.694,0 -1.106,0.43945 -1.106,1.18359001 l 0,3.10157 -0.668,0 0,-3.10157 c 0,-1.32422001 0.917,-1.79570001 1.774,-1.79570001 0.862,0 1.779,0.47148 1.779,1.79570001 l 0,3.10157 -0.668,0 0,-3.10157"
         style="fill:#000000;fill-opacity:1;fill-rule:nonzero;stroke:none"
         id="path42"
         inkscape:connector-curvature="0" /><path
         d="m 115.17053,0.86553069 c -0.164,0.27539001 -2.191,3.78321001 -2.191,3.78321001 l -0.741,0 0,-4.81915001 0.668,0 c 0,0 0,3.39258001 0,3.70391001 0.161,-0.27266 2.147,-3.70391001 2.147,-3.70391001 l 0.783,0 0,4.81915001 -0.666,0 c 0,0 0,-3.47071 0,-3.78321001"
         style="fill:#000000;fill-opacity:1;fill-rule:nonzero;stroke:none"
         id="path44"
         inkscape:connector-curvature="0" /><path
         d="m 119.55053,-0.17040931 0.66836,0 0,4.81914001 -0.66836,0 0,-4.81914001 z"
         style="fill:#000000;fill-opacity:1;fill-rule:nonzero;stroke:none"
         id="path46"
         inkscape:connector-curvature="0" /><path
         d="m 125.45653,0.70147069 c -0.079,0.23047 -1.41,3.94727001 -1.41,3.94727001 l -0.709,0 1.794,-4.81915001 0.636,0 1.826,4.81915001 -0.675,0 c 0,0 -1.221,-3.30274 -1.462,-3.94727001"
         style="fill:#000000;fill-opacity:1;fill-rule:nonzero;stroke:none"
         id="path48"
         inkscape:connector-curvature="0" /><path
         d="m 131.27453,2.0003007 c 0.089,0 1.71,0 1.71,0 l 0,0.60859 c 0,0 -1.621,0 -1.71,0 0,0.08555 0,1.34766 0,1.42852 0.089,0 1.8,0 1.8,0 l 0,0.61133 -2.466,0 0,-4.81915001 2.55,0 0,0.60938 c 0,0 -1.795,0 -1.884,0 0,0.08555 0,1.47539001 0,1.56133001"
         style="fill:#000000;fill-opacity:1;fill-rule:nonzero;stroke:none"
         id="path50"
         inkscape:connector-curvature="0" /><path
         d="m 138.96453,1.7600607 c 0,0.00586 -0.016,0.03516 -0.016,0.03516 -0.086,0.1875 -0.184,0.35273 -0.358,0.46406 0.5,0.17266 0.816,0.58008 0.816,1.08946 0,0.84882 -0.509,1.3 -1.464,1.3 l -1.292,0 0,-4.81915001 0.669,0 c 0,0 0,2.08282001 0,2.17071001 0.068,0 0.271,0 0.271,0 0.391,0 0.549,0 0.795,-0.54883 0.002,-0.00195 0.049,-0.11523 0.666,-1.55547001 l 0.029,-0.06641 0.736,0 -0.066,0.1504 -0.786,1.78007001 z m -1.27,0.84883 c 0,0 -0.301,0 -0.375,0 0,0.08555 0,1.34766 0,1.42852 0.074,0 0.359,0 0.359,0 0.637,0 1.058,-0.04571 1.058,-0.68867 0,-0.68516 -0.796,-0.73985 -1.042,-0.73985"
         style="fill:#000000;fill-opacity:1;fill-rule:nonzero;stroke:none"
         id="path52"
         inkscape:connector-curvature="0" /><path
         d="m 149.00553,-0.17040931 0.66797,0 0,4.81914001 -0.66797,0 0,-4.81914001 z"
         style="fill:#000000;fill-opacity:1;fill-rule:nonzero;stroke:none"
         id="path54"
         inkscape:connector-curvature="0" /><path
         d="m 144.33453,2.6280307 c -0.459,0.24219 -0.852,0.45156 -0.852,0.80313 0,0.63945 0.678,0.68828 0.889,0.68828 0.315,0 0.61,-0.0586 0.784,-0.15899 l 0.133,-0.07461 0.098,0.56485 c 0,0.00195 0.018,0.08867 0.018,0.08867 l -0.083,0.0293 c -0.402,0.14648 -0.822,0.16015 -0.944,0.16015 -0.918,0 -1.562,-0.53906 -1.562,-1.30547 0,-0.71132 0.65,-1.06679 1.221,-1.38007 0.461,-0.25391 0.889,-0.48828 0.889,-0.84571 0,-0.52343001 -0.344,-0.83398001 -0.93,-0.83398001 -0.384,0 -0.687,0.07695 -0.958,0.25312 l -0.148,0.08672 -0.072,-0.71172 0.07,-0.0332 c 0.22,-0.09375 0.579,-0.20703 1.086,-0.20703 0.807,0 1.618,0.43437 1.618,1.40703001 0,0.80078 -0.668,1.15547 -1.257,1.46953"
         style="fill:#000000;fill-opacity:1;fill-rule:nonzero;stroke:none"
         id="path56"
         inkscape:connector-curvature="0" /><path
         d="m 152.56753,4.0374107 c 0,0 1.337,0 1.423,0 0,-0.09063 0,-4.20782001 0,-4.20782001 l 0.669,0 c 0,0 0,4.11719001 0,4.20782001 0.088,0 1.423,0 1.423,0 l 0,0.61133 -3.515,0 0,-0.61133"
         style="fill:#000000;fill-opacity:1;fill-rule:nonzero;stroke:none"
         id="path58"
         inkscape:connector-curvature="0" /><path
         d="m 160.37153,2.4905307 c -0.071,0.11836 -1.331,2.12891 -1.331,2.12891 l -0.043,0.0293 -0.755,0 1.807,-2.80079 -0.012,-2.01836001 0.67,0 0,2.04180001 c 0.005,-0.0039 1.692,2.61445 1.692,2.61445 l 0.108,0.1629 -0.75,0 c 0,0 -1.31,-2.04219 -1.386,-2.15821"
         style="fill:#000000;fill-opacity:1;fill-rule:nonzero;stroke:none"
         id="path60"
         inkscape:connector-curvature="0" /></g></g></svg>